<?xml version="1.0" encoding="UTF-8"?>
<svg id="Ebene_5" data-name="Ebene 5" xmlns="http://www.w3.org/2000/svg" viewBox="0 0 5.4 7.33">
  <defs>
    <style>
      .cls-1 {
        fill: #8066a5;
        stroke: #8067a5;
        stroke-miterlimit: 10;
        stroke-width: .25px;
      }
    </style>
  </defs>
  <path class="cls-1" d="M5.19,4.23c-.25-1.08-1.07-1.32-1.56-2.16-.31-.54-.44-1.18-.42-1.8,0-.11-.12-.17-.2-.11,0,0,0,0,0,0-1.07.91-1.19,2.21-.67,3.47.08.19.29.47.06.63-.14.1-.28.05-.43,0-.5-.18-.81-.66-1.01-1.13-.04-.1-.18-.12-.24-.03-.29.35-.5.79-.55,1.25-.1.9.41,2.07,1.22,2.51,1.84,1.02,4.31-.45,3.81-2.63Z"/>
</svg>