<?xml version="1.0" encoding="UTF-8"?>
<svg id="Ebene_5" data-name="Ebene 5" xmlns="http://www.w3.org/2000/svg" viewBox="0 0 5.23 7.92">
  <defs>
    <style>
      .cls-1 {
        fill: #eaab3c;
        stroke: #eaab3c;
        stroke-miterlimit: 10;
        stroke-width: .25px;
      }
    </style>
  </defs>
  <path class="cls-1" d="M4.35,2.59l-.71.02.35-1.45c.1-.48-.22-.97-.72-1-.51-.04-.75.36-.99.73-.37.57-.72,1.15-1.09,1.73-.28.44-.59.88-.85,1.34-.13.24-.23.41-.2.7.05.37.36.68.73.72h.77c-.08.36-.2.71-.29,1.06-.12.48-.17,1.09.39,1.32.5.21.86-.07,1.11-.47.51-.8,1.02-1.6,1.53-2.4.24-.37.7-1,.73-1.43.03-.46-.32-.8-.76-.87Z"/>
</svg>