<?xml version="1.0" encoding="UTF-8"?>
<svg id="Ebene_5" data-name="Ebene 5" xmlns="http://www.w3.org/2000/svg" viewBox="0 0 7.28 7.06">
  <defs>
    <style>
      .cls-1 {
        fill: #60a637;
        stroke: #60a737;
        stroke-miterlimit: 10;
        stroke-width: .25px;
      }
    </style>
  </defs>
  <path class="cls-1" d="M6.6,3.32c-.43-.07-2.37-.06-2.79.01-.28.05-.51.29-.57.57-.12.6.69,2.06.88,2.73,0,.02.02.04.03.06.28.33,1.18.29,1.58.24.38-.04.49-.16.65-.49.18-.36.68-1.67.76-2.05.09-.44-.04-.99-.54-1.07Z"/>
  <path class="cls-1" d="M3.11,3.1c.11-.11.03-.3-.12-.3H.67c-.19,0-.54.52-.55.72-.04.53.75,1.95.9,2.58,0,.02.01.05.03.06.29.35,1.35.32,1.75.24.98-.2.06-1.42-.06-1.99-.12-.56.04-.96.37-1.31Z"/>
  <path class="cls-1" d="M2.14,2.4c1.38-.03,1.43-2.02.32-2.26-1.85-.42-1.97,2.3-.32,2.26Z"/>
  <path class="cls-1" d="M5.07,2.91c1.71.18,1.71-2.65-.19-2.26-1.1.23-1.09,2.12.19,2.26Z"/>
</svg>