<?xml version="1.0" encoding="UTF-8"?>
<svg id="Ebene_5" data-name="Ebene 5" xmlns="http://www.w3.org/2000/svg" viewBox="0 0 5.33 7.31">
  <defs>
    <style>
      .cls-1 {
        fill: #3481c5;
        stroke: #3580c5;
        stroke-miterlimit: 10;
        stroke-width: .25px;
      }
    </style>
  </defs>
  <path class="cls-1" d="M4.14.56c-.55-.35-1.15-.47-1.79-.41C1.47.22.62.79.2,1.55c-.09.16-.09.2.05.33.16.15.66.54.85.65.09.05.18.08.28.03.34-.36.57-.8,1.13-.84.46-.03,1.09.24.92.8-.11.35-.47.44-.75.6-.41.24-.92.71-.96,1.22,0,.1-.01.36,0,.45.02.11.14.15.23.16.27.02,1.06.04,1.31,0,.21-.04.16-.17.21-.32.15-.47.64-.61.99-.87,1.2-.91.84-2.44-.32-3.18Z"/>
  <rect class="cls-1" x="1.71" y="5.43" width="1.75" height="1.74" rx=".29" ry=".29"/>
</svg>