<?xml version="1.0" encoding="UTF-8"?>
<svg id="Ebene_5" data-name="Ebene 5" xmlns="http://www.w3.org/2000/svg" viewBox="0 0 7.32 7.05">
  <defs>
    <style>
      .cls-1 {
        fill: #d44650;
        stroke: #d44650;
        stroke-miterlimit: 10;
        stroke-width: .25px;
      }
    </style>
  </defs>
  <path class="cls-1" d="M7.03,3.38c.35-.48.11-1.1-.47-1.21-.46-.09-.97-.1-1.42-.21-.08-.02-.12-.04-.16-.12-.25-.41-.41-.91-.66-1.33-.14-.25-.4-.39-.69-.38-.27.01-.49.16-.62.39-.24.41-.41.89-.64,1.3-.04.08-.08.12-.17.14-.47.1-1.01.11-1.48.21-.58.13-.76.83-.36,1.26.25.27.56.53.83.8.07.07.26.23.27.33-.05.49-.19.99-.25,1.49-.04.35.12.68.46.82.27.11.46.05.71-.07.42-.21.83-.46,1.25-.65.09-.02.17.04.25.08.39.19.82.48,1.22.64.55.22,1.08-.22,1.03-.8-.04-.46-.2-.97-.25-1.43,0-.07,0-.13.05-.18l1.1-1.08Z"/>
</svg>