<?xml version="1.0" encoding="UTF-8"?>
<svg xmlns="http://www.w3.org/2000/svg" viewBox="0 0 167.24 260.79">
  <defs>
    <style>
      .cls-1 {
        fill: #010101;
      }

      .cls-2 {
        fill: #171717;
      }

      .cls-3 {
        stroke: #fff;
        stroke-miterlimit: 10;
        stroke-width: .15px;
      }

      .cls-3, .cls-4 {
        fill: #fff;
      }

      .cls-5 {
        fill: #171715;
      }

      .cls-6 {
        fill: #8d74b0;
      }
    </style>
  </defs>
  <g id="Background">
    <rect class="cls-6" width="167.24" height="260.79"/>
  </g>
  <g id="Rahmen">
    <path class="cls-1" d="M151.9,23.16c9.65,0,9.67-15,0-15s-9.67,15,0,15h0Z"/>
    <path class="cls-1" d="M152.22,254.59c9.65,0,9.67-15,0-15s-9.67,15,0,15h0Z"/>
    <path class="cls-1" d="M14.14,254.72c9.65,0,9.67-15,0-15s-9.67,15,0,15h0Z"/>
    <path class="cls-2" d="M11.56,15.67c18.49.32,36.98.69,55.46,1.04,19.51.36,39.05-.42,58.56-.82,10.18-.21,20.36-.38,30.54-.21l-3.75-3.75c-1.46,11.81-1.7,23.8-1.97,35.69-.33,14.15-.39,28.31-.37,42.46.01,9.3.14,18.61.07,27.91-.06,7.86-.43,15.71-.48,23.57-.07,11.29.08,22.59.37,33.88.56,22.38,1.59,44.74,2.18,67.12.07,2.79.14,5.57.2,8.36l3.75-3.75c-15.41-.13-30.81.06-46.22.48-24.85.69-49.67.84-74.52.24-8.25-.2-16.49-.49-24.74-.73l3.75,3.75c-.56-4.87-.34-9.89-.27-14.78.11-8.38.38-16.76.66-25.14.66-20.11,1.45-40.22,1.83-60.34.16-8.4.26-16.81.05-25.21-.13-5.24-.51-10.46-.61-15.7-.33-17.03-.19-34.08-.18-51.11,0-8.91,0-17.82-.06-26.73-.04-5.94-.04-11.89-.34-17.82-.04-.72-.08-1.43-.15-2.15-.19-1.95-1.59-3.85-3.75-3.75-1.87.08-3.96,1.66-3.75,3.75.48,4.83.39,9.76.44,14.61.09,8.42.1,16.84.11,25.25,0,17.78-.1,35.55.11,53.33.06,5.22.27,10.41.52,15.62.36,7.73.31,15.47.21,23.21-.24,20.03-1.02,40.04-1.7,60.06-.3,8.95-.6,17.9-.79,26.85-.13,5.9-.3,11.84,0,17.74.04.78.09,1.55.18,2.32.24,2.06,1.53,3.69,3.75,3.75,18.27.53,36.53,1.09,54.81,1.16,23.38.09,46.73-.97,70.1-1.19,6.85-.06,13.71-.03,20.56.02,2,.02,3.79-1.73,3.75-3.75-.48-22.44-1.5-44.87-2.16-67.3-.33-11.25-.57-22.51-.6-33.77-.03-10.16.25-20.29.47-30.44.18-8.23-.03-16.48-.05-24.72-.03-13.94,0-27.88.25-41.82.23-12.54.48-25.14,1.72-37.62.11-1.1.23-2.21.37-3.31.25-2.04-1.92-3.72-3.75-3.75-19.14-.32-38.3.42-57.44.81-9.78.2-19.58.45-29.37.27-7.76-.14-15.52-.3-23.28-.45-11.49-.22-22.99-.44-34.48-.63-1.96-.03-3.84,1.75-3.75,3.75s1.65,3.71,3.75,3.75h0Z"/>
    <polygon class="cls-2" points="26.61 14.43 14.5 29.16 14.18 13.04 26.61 14.43"/>
    <polygon class="cls-2" points="140.79 14.16 152.35 27.66 154.57 11.89 140.79 14.16"/>
    <polygon class="cls-2" points="139.48 248.15 153.14 235.93 156.07 248.65 139.48 248.15"/>
    <polygon class="cls-2" points="12.9 235.54 26.24 248.54 12.31 249.36 12.9 235.54"/>
    <rect class="cls-2" width="10.32" height="260.79"/>
    <rect class="cls-2" y="249.36" width="167.24" height="11.43"/>
    <rect class="cls-5" width="167.24" height="10.33"/>
    <rect class="cls-2" x="156.12" width="11.13" height="260.79"/>
    <path class="cls-2" d="M117.73,17.19c0-.85.31-3.85,0-4.78-.82-2.49-3.11-2.81-5.35-2.81h-57.51c-2.24,0-4.53.32-5.35,2.81-.31.93,0,3.93,0,4.78l-.25,5.71c-.49,5.31,7.64,4.59,10.71,4.59l17.71.37,5.93-.07h0l5.93.07,17.71-.37c3.08,0,11.2.72,10.71-4.59l-.24-5.71Z"/>
    <path class="cls-1" d="M151.9,23.16c9.65,0,9.67-15,0-15s-9.67,15,0,15h0Z"/>
    <path class="cls-1" d="M152.22,254.59c9.65,0,9.67-15,0-15s-9.67,15,0,15h0Z"/>
    <path class="cls-1" d="M14.14,254.72c9.65,0,9.67-15,0-15s-9.67,15,0,15h0Z"/>
    <path class="cls-2" d="M11.56,15.67c18.49.32,36.98.69,55.46,1.04,19.51.36,39.05-.42,58.56-.82,10.18-.21,20.36-.38,30.54-.21l-3.75-3.75c-1.46,11.81-1.7,23.8-1.97,35.69-.33,14.15-.39,28.31-.37,42.46.01,9.3.14,18.61.07,27.91-.06,7.86-.43,15.71-.48,23.57-.07,11.29.08,22.59.37,33.88.56,22.38,1.59,44.74,2.18,67.12.07,2.79.14,5.57.2,8.36l3.75-3.75c-15.41-.13-30.81.06-46.22.48-24.85.69-49.67.84-74.52.24-8.25-.2-16.49-.49-24.74-.73l3.75,3.75c-.56-4.87-.34-9.89-.27-14.78.11-8.38.38-16.76.66-25.14.66-20.11,1.45-40.22,1.83-60.34.16-8.4.26-16.81.05-25.21-.13-5.24-.51-10.46-.61-15.7-.33-17.03-.19-34.08-.18-51.11,0-8.91,0-17.82-.06-26.73-.04-5.94-.04-11.89-.34-17.82-.04-.72-.08-1.43-.15-2.15-.19-1.95-1.59-3.85-3.75-3.75-1.87.08-3.96,1.66-3.75,3.75.48,4.83.39,9.76.44,14.61.09,8.42.1,16.84.11,25.25,0,17.78-.1,35.55.11,53.33.06,5.22.27,10.41.52,15.62.36,7.73.31,15.47.21,23.21-.24,20.03-1.02,40.04-1.7,60.06-.3,8.95-.6,17.9-.79,26.85-.13,5.9-.3,11.84,0,17.74.04.78.09,1.55.18,2.32.24,2.06,1.53,3.69,3.75,3.75,18.27.53,36.53,1.09,54.81,1.16,23.38.09,46.73-.97,70.1-1.19,6.85-.06,13.71-.03,20.56.02,2,.02,3.79-1.73,3.75-3.75-.48-22.44-1.5-44.87-2.16-67.3-.33-11.25-.57-22.51-.6-33.77-.03-10.16.25-20.29.47-30.44.18-8.23-.03-16.48-.05-24.72-.03-13.94,0-27.88.25-41.82.23-12.54.48-25.14,1.72-37.62.11-1.1.23-2.21.37-3.31.25-2.04-1.92-3.72-3.75-3.75-19.14-.32-38.3.42-57.44.81-9.78.2-19.58.45-29.37.27-7.76-.14-15.52-.3-23.28-.45-11.49-.22-22.99-.44-34.48-.63-1.96-.03-3.84,1.75-3.75,3.75s1.65,3.71,3.75,3.75h0Z"/>
    <polygon class="cls-2" points="26.61 14.43 14.5 29.16 14.18 13.04 26.61 14.43"/>
    <polygon class="cls-2" points="140.79 14.16 152.35 27.66 154.57 11.89 140.79 14.16"/>
    <polygon class="cls-2" points="139.48 248.15 153.14 235.93 156.07 248.65 139.48 248.15"/>
    <polygon class="cls-2" points="12.9 235.54 26.24 248.54 12.31 249.36 12.9 235.54"/>
    <rect class="cls-2" width="10.32" height="260.79"/>
    <rect class="cls-2" y="249.36" width="167.24" height="11.43"/>
    <rect class="cls-5" width="167.24" height="10.33"/>
    <rect class="cls-2" x="156.12" width="11.13" height="260.79"/>
  </g>
  <g id="Kategorie_Name" data-name="Kategorie Name">
    <g>
      <path class="cls-6" d="M56.65,21.16c0,.07-.02.17-.03.31s-.02.29-.04.44c-.01.15-.04.29-.06.42-.02.13-.05.21-.08.25-.03.03-.15.06-.36.07-.21.02-.44.03-.7.03s-.5,0-.73,0h-.45c-.18,0-.32-.02-.42-.05-.1-.03-.12-.17-.08-.41.03-.15.08-.42.15-.81s.15-.85.24-1.39.19-1.13.31-1.77c.11-.64.23-1.28.34-1.92s.23-1.27.34-1.87c.11-.6.21-1.14.31-1.62.1-.47.18-.86.25-1.15.07-.29.12-.45.15-.47.02-.01.06-.02.12-.02.06,0,.13,0,.2,0s.15,0,.22,0c.07,0,.12,0,.15,0,.63.02,1.24,0,1.83-.07s1.2-.13,1.83-.18c.1-.01.18.02.25.08s.12.15.17.25.07.2.1.32c.02.11.05.22.07.3.17.75.3,1.5.38,2.26.08.75.17,1.5.25,2.26.09.86.17,1.74.23,2.64s.18,1.77.35,2.62c0,.05.03.13.04.21.02.09.03.18.04.28,0,.1,0,.19,0,.27,0,.08-.04.14-.11.17-.03.02-.12.04-.28.05-.16.01-.36.02-.58.02-.23,0-.48,0-.75,0s-.52,0-.76,0c-.24,0-.44-.01-.62-.02s-.28-.01-.32-.02c-.1-.02-.16-.07-.17-.15-.05-.21-.07-.43-.07-.65,0-.23,0-.45-.02-.67-.28-.03-.56-.05-.85-.04s-.57,0-.85,0ZM57.9,14.04c-.17.82-.33,1.63-.47,2.43-.14.8-.29,1.61-.43,2.43.2-.02.4-.04.61-.05s.42,0,.62.02c-.04-.81-.09-1.61-.16-2.41-.07-.8-.12-1.6-.17-2.41Z"/>
      <path class="cls-6" d="M67.76,22.32c-.41.12-.83.17-1.27.16-.44-.02-.86-.1-1.26-.25-.4-.15-.78-.37-1.12-.65-.34-.29-.62-.65-.83-1.07-.2-.39-.35-.81-.46-1.27-.11-.45-.18-.9-.23-1.35-.01-.11-.02-.3-.03-.59,0-.28-.01-.6,0-.96,0-.35.02-.72.04-1.11.02-.39.05-.74.08-1.07s.08-.6.15-.81c.06-.21.14-.32.23-.33.06-.01.22,0,.49,0,.26.02.55.04.85.06s.58.05.84.07c.26.03.42.05.5.06.11.02.16.09.15.21-.01.12-.02.22-.03.31-.05.35-.08.71-.09,1.07-.01.37-.02.72-.03,1.07,0,.17,0,.43,0,.76,0,.33.04.65.1.96.07.31.17.56.33.76.16.2.38.24.67.13.2-.08.36-.22.5-.44.13-.21.22-.48.26-.82s.06-.71.05-1.13c0-.41-.04-.84-.09-1.29-.05-.45-.11-.88-.17-1.3-.06-.42-.13-.81-.19-1.18-.06-.36-.1-.67-.13-.92-.02-.11-.01-.2.01-.27.03-.07.1-.12.21-.14.07-.01.24-.03.51-.06.27-.03.56-.05.86-.07.3-.02.58-.04.83-.04s.4,0,.44.02c.06.03.11.13.17.29.05.16.09.33.13.52.04.19.07.37.1.55.02.18.04.31.05.38.05.36.1.78.15,1.25s.09.97.11,1.5c.03.52.03,1.05.02,1.59,0,.54-.05,1.06-.12,1.56-.07.5-.17.97-.3,1.4-.13.43-.3.8-.52,1.1-.24.34-.53.62-.88.83-.34.22-.71.38-1.09.49Z"/>
      <path class="cls-6" d="M74.54,18.21v2.46c0,.38,0,.72,0,1.04,0,.32-.01.58-.02.79s-.02.32-.03.33-.08.02-.21.04c-.13.02-.29.03-.47.03-.18,0-.39.01-.61.02s-.42.01-.62.02c-.19,0-.35,0-.49,0-.13,0-.22-.01-.25-.02-.08-.03-.13-.09-.16-.18-.03-.09-.04-.17-.04-.25,0-.27,0-.72-.01-1.36-.01-.63-.02-1.35-.02-2.15,0-.8,0-1.64,0-2.51s0-1.69.02-2.44c.01-.76.04-1.41.08-1.95.04-.54.08-.89.14-1.05.05-.12.12-.21.21-.28.04-.02.21-.04.5-.05s.66-.01,1.09,0,.89.01,1.4.02c.5.01.97.02,1.42.04.45.02.84.04,1.17.06s.54.04.63.05c.02,0,.05.01.1.04.04.03.07.05.08.07.02.04.02.11,0,.19-.01.08-.03.15-.04.2-.02.15-.03.34-.04.56,0,.22-.01.44-.03.67-.01.23-.03.45-.05.66-.02.21-.05.38-.09.5-.09.07-.29.1-.61.11-.31,0-.65,0-1.02,0-.37-.01-.72-.03-1.07-.05-.34-.02-.59-.03-.74-.03-.03.23-.06.46-.08.68-.03.22-.05.45-.07.68.51-.04,1.03-.09,1.56-.15s1.05-.07,1.56-.05c.1,0,.16.03.18.08.02.04.03.11.04.21,0,.1.01.2.01.31v.56c0,.08,0,.21.01.41.01.2.02.4.02.62s0,.42-.02.6c0,.18-.04.29-.07.34-.06.07-.25.11-.56.14-.32.03-.66.04-1.04.04s-.74,0-1.08-.02-.58-.02-.7-.02Z"/>
      <path class="cls-6" d="M84.86,17.85c-.05,0-.13,0-.25.02-.11.02-.23.03-.36.03s-.24,0-.35,0-.17-.01-.2-.03c-.04-.03-.07-.15-.1-.36-.02-.21-.04-.44-.05-.69,0-.25,0-.48,0-.69.01-.21.03-.33.06-.37.05-.05.13-.08.25-.09.12,0,.21,0,.28,0,.42-.01.83,0,1.22.02.4.03.8.02,1.22,0,.08-.01.19-.02.34-.03.14-.01.25,0,.32.02.08.02.16.06.24.11.08.05.13.13.15.21.03.09.05.2.06.33s.01.28.01.43,0,.29,0,.43c0,.14,0,.26,0,.36-.02.56-.07,1.09-.14,1.59s-.21.98-.39,1.41c-.19.44-.44.82-.77,1.14-.33.33-.77.59-1.31.78-.52.19-1.08.26-1.67.22-.6-.04-1.15-.16-1.66-.35-.3-.12-.58-.27-.85-.46-.27-.19-.51-.4-.72-.65-.29-.35-.53-.79-.72-1.33-.19-.54-.33-1.12-.41-1.75-.08-.63-.12-1.27-.1-1.95.02-.67.09-1.31.22-1.93.12-.62.3-1.18.52-1.7.23-.52.5-.94.82-1.27.36-.36.78-.63,1.25-.82.47-.19.97-.3,1.48-.34s1.02-.02,1.52.06c.5.09.97.23,1.4.43.05.02.12.05.21.1s.18.1.27.16c.09.06.17.12.25.18.08.06.12.12.13.19,0,.04-.03.16-.11.34s-.18.39-.28.6c-.11.22-.21.42-.31.62-.1.2-.17.33-.2.39-.02.04-.05.11-.09.19-.04.08-.08.16-.13.25s-.09.16-.14.23c-.05.07-.09.11-.13.12,0,0-.08-.04-.2-.11s-.29-.16-.49-.25c-.2-.09-.42-.16-.67-.22-.25-.06-.49-.07-.74-.04-.25.03-.49.13-.72.3-.23.17-.42.44-.58.81-.12.27-.2.63-.25,1.06s-.05.88-.01,1.34c.03.46.12.88.26,1.27.14.39.34.67.6.84.21.14.43.21.67.21s.46-.06.66-.17.37-.27.5-.48c.13-.21.2-.45.21-.74Z"/>
      <path class="cls-6" d="M91.03,21.16c0,.07-.02.17-.03.31s-.02.29-.04.44c-.01.15-.04.29-.06.42-.02.13-.05.21-.08.25-.03.03-.15.06-.36.07-.21.02-.44.03-.7.03s-.5,0-.73,0h-.45c-.18,0-.32-.02-.42-.05-.1-.03-.12-.17-.08-.41.03-.15.08-.42.15-.81s.15-.85.24-1.39.19-1.13.31-1.77c.11-.64.23-1.28.34-1.92s.23-1.27.34-1.87c.11-.6.21-1.14.31-1.62.1-.47.18-.86.25-1.15.07-.29.12-.45.15-.47.02-.01.06-.02.12-.02.06,0,.13,0,.2,0s.15,0,.22,0c.07,0,.12,0,.15,0,.63.02,1.24,0,1.83-.07s1.2-.13,1.83-.18c.1-.01.18.02.25.08s.12.15.17.25.07.2.1.32c.02.11.05.22.07.3.17.75.3,1.5.38,2.26.08.75.17,1.5.25,2.26.09.86.17,1.74.23,2.64s.18,1.77.35,2.62c0,.05.03.13.04.21.02.09.03.18.04.28,0,.1,0,.19,0,.27,0,.08-.04.14-.11.17-.03.02-.12.04-.28.05-.16.01-.36.02-.58.02-.23,0-.48,0-.75,0s-.52,0-.76,0c-.24,0-.44-.01-.62-.02s-.28-.01-.32-.02c-.1-.02-.16-.07-.17-.15-.05-.21-.07-.43-.07-.65,0-.23,0-.45-.02-.67-.28-.03-.56-.05-.85-.04s-.57,0-.85,0ZM92.28,14.04c-.17.82-.33,1.63-.47,2.43-.14.8-.29,1.61-.43,2.43.2-.02.4-.04.61-.05s.42,0,.62.02c-.04-.81-.09-1.61-.16-2.41-.07-.8-.12-1.6-.17-2.41Z"/>
      <path class="cls-6" d="M103.52,16.63c.51.19.94.5,1.3.94.36.44.6.92.74,1.45.14.52.15,1.05.04,1.57-.12.52-.39.96-.83,1.31-.44.35-.87.59-1.28.74s-.88.23-1.41.28c-.48.03-.96.06-1.46.08-.49.02-.97.02-1.46,0-.08,0-.19,0-.33-.02-.14-.01-.28-.03-.42-.06-.14-.03-.27-.06-.4-.09s-.22-.08-.28-.13c-.05-.05-.1-.1-.14-.15-.04-.04-.08-.1-.1-.18-.08-.26-.12-.55-.13-.87s-.03-.62-.06-.91c-.11-1.11-.18-2.22-.2-3.34-.02-1.11,0-2.23.04-3.35.02-.38.04-.77.07-1.17.03-.4.04-.79.04-1.17v-.35c0-.07,0-.13,0-.19s.01-.09.02-.11c0-.04.08-.08.22-.11s.3-.05.5-.07c.2-.02.42-.04.66-.04.24,0,.47-.01.69-.02s.42,0,.59,0h.37s.1,0,.15,0c.05,0,.1.02.15.06.06,0,.1.04.11.11.02.08.02.17.02.27s0,.21-.02.31c-.01.1-.02.18-.02.22.11-.11.22-.21.34-.29.12-.09.24-.17.37-.25.66-.36,1.25-.51,1.78-.44.53.07.97.26,1.33.6.36.33.62.75.79,1.27.17.51.21,1.04.15,1.57-.07.53-.25,1.03-.57,1.5-.31.46-.77.81-1.37,1.04ZM100.46,14.37c0,.22-.02.44-.03.65-.01.22-.02.44-.02.65.2-.01.4-.02.6-.02.2,0,.39-.05.57-.14.19-.1.33-.24.43-.43.09-.19.14-.37.15-.56,0-.19-.04-.34-.13-.47s-.22-.19-.41-.18c-.19.02-.39.09-.6.2-.21.11-.4.21-.57.29ZM100.53,19.93c.28.01.56,0,.84-.05.19-.03.37-.12.53-.27s.28-.32.36-.52.1-.4.07-.6c-.04-.2-.15-.37-.34-.52-.1-.07-.21-.11-.34-.13-.13-.02-.27-.03-.41-.02-.14,0-.29.01-.43.02-.14.01-.27.01-.39,0,0,.35,0,.69.03,1.04.02.34.05.69.09,1.04Z"/>
      <path class="cls-6" d="M112.85,22.64s-.2.05-.48.07-.62.05-1.02.08c-.4.03-.84.05-1.31.08-.47.03-.92.05-1.35.07-.42.02-.8.02-1.12.02s-.54,0-.65-.02c-.12-.02-.21-.08-.26-.16-.05-.09-.08-.19-.08-.31,0-.25,0-.7-.02-1.34s-.02-1.38-.02-2.2c0-.82,0-1.68,0-2.58s0-1.74.03-2.51c.02-.77.05-1.43.1-1.98s.11-.87.19-.98c.06-.08.16-.14.29-.18.05-.01.22-.02.53-.02s.66,0,1.09,0,.88.02,1.37.03c.48.02.94.03,1.37.05.43.02.8.03,1.12.05.31.02.51.03.58.04.07.01.12.05.15.11.03.06.04.13.04.21s0,.17-.02.25c-.02.09-.03.16-.04.21,0,.07-.02.21-.03.43-.01.22-.02.46-.04.7-.01.25-.04.47-.07.67s-.07.31-.1.33c-.05.03-.13.05-.23.06-.1,0-.19,0-.26,0-.48.02-.96.02-1.44-.02-.48-.03-.96-.05-1.44-.07-.03.23-.06.46-.08.68-.03.22-.05.45-.07.68.19-.01.43-.03.71-.07.28-.03.58-.06.88-.09s.58-.05.86-.06c.27-.01.49,0,.66.02.14.02.22.1.23.25.01.14.02.27.02.39,0,.09,0,.26.01.51,0,.25.01.51.01.78s0,.51,0,.74c0,.23-.02.37-.05.41-.05.09-.23.15-.55.18-.31.03-.67.05-1.05.06s-.75,0-1.1-.02c-.35-.02-.58-.02-.71-.02v1.83c.4,0,.78,0,1.16-.02s.76-.03,1.14-.05c.13-.01.26-.03.4-.05s.27-.03.4-.03c.08,0,.14.01.17.03.03.02.06.07.09.15.03.07.05.22.06.47,0,.25.02.51.02.78s0,.54,0,.79c0,.25-.02.43-.03.52Z"/>
    </g>
  </g>
  <g id="Schlücke">
    <g>
      <path class="cls-3" d="M9.42,250.32s0,.17,0,.37c0,.2,0,.41-.01.64,0,.23-.01.43-.02.61,0,.18-.01.27-.01.28-.03.08-.13.14-.31.17-.17.03-.36.05-.58.06s-.42,0-.62,0c-.2,0-.34-.01-.42-.01-.04,0-.09,0-.15,0-.06,0-.12,0-.18,0s-.12,0-.17-.02c-.05-.02-.09-.04-.1-.08,0-.02-.01-.07-.01-.16s0-.21,0-.35c0-.14.01-.29.02-.45,0-.16.01-.31.02-.46,0-.15,0-.28.01-.39,0-.11,0-.19,0-.24-.07,0-.21,0-.43.01-.21,0-.43.01-.67.02-.23,0-.44,0-.64,0-.19,0-.31-.02-.35-.04-.06-.03-.11-.09-.13-.17,0-.03-.01-.15-.01-.34s0-.41.01-.65c0-.24.02-.46.03-.66.01-.2.02-.33.03-.39.02-.11.07-.19.16-.24.04-.02.15-.04.33-.05.18-.01.38-.02.59-.03s.42-.01.61-.02c.2,0,.33,0,.4,0,0-.07,0-.2-.02-.38-.02-.18-.03-.37-.04-.56s-.01-.37-.02-.53c0-.16,0-.27.03-.31.04-.07.1-.12.17-.14.02,0,.13-.01.33-.02.2,0,.41,0,.65,0,.24,0,.46,0,.67.01.21,0,.34.01.39.02.05,0,.09.02.14.04.04.02.08.05.1.1.02.06.05.17.07.34s.04.35.05.55c.01.2.02.38.04.56.01.18.02.31.02.39.12,0,.26,0,.41,0,.16,0,.31,0,.47.01.16,0,.32.01.47.02.15.01.28.03.4.05.06.05.11.09.14.13.03.04.05.1.05.19v.63c0,.16,0,.32,0,.5,0,.18,0,.34-.01.49,0,.15,0,.27-.01.37s-.01.15-.02.16c-.02.04-.12.06-.3.06s-.37,0-.58-.02-.42-.03-.61-.05c-.2-.02-.33-.03-.39-.03Z"/>
      <path class="cls-3" d="M16.67,247.92c.5.13.89.37,1.16.74.27.36.41.77.44,1.21.02.44-.07.89-.29,1.34-.22.45-.56.83-1.02,1.15s-1.05.51-1.76.61-1.54,0-2.49-.27c-.06-.02-.15-.04-.25-.06-.1-.02-.19-.06-.28-.1s-.15-.09-.2-.15c-.05-.06-.05-.14-.01-.23.08-.2.15-.4.2-.61.05-.21.09-.42.1-.62,0-.06.01-.15.01-.25s.03-.18.1-.22c.02,0,.08,0,.19.02.11.02.24.05.4.08.16.03.34.06.54.08.2.02.4.02.59,0,.2-.02.38-.08.56-.16s.33-.21.46-.38c.08-.1.13-.21.14-.33.02-.12,0-.23-.03-.34-.04-.11-.1-.21-.18-.29-.08-.09-.19-.16-.31-.2-.1-.03-.2-.05-.32-.06-.12,0-.24,0-.37,0-.12.01-.25.03-.37.04-.12.02-.23.03-.34.04h-.15c-.06,0-.1-.03-.11-.08.04-.21.08-.46.11-.76.03-.3.03-.55,0-.76.02-.04.13-.07.33-.09.2-.02.41-.06.65-.11.24-.05.45-.14.65-.25.2-.12.32-.29.36-.51.03-.18-.01-.33-.13-.47-.12-.14-.26-.23-.42-.28-.21-.06-.45-.06-.73.02-.28.08-.54.16-.79.25s-.47.14-.64.16c-.18.02-.26-.06-.26-.23v-.84c0-.18,0-.34,0-.49,0-.15.01-.24.03-.27.04-.09.11-.15.2-.18.78-.27,1.49-.4,2.12-.38.63.02,1.17.13,1.61.33.45.2.8.48,1.07.82.26.34.42.7.47,1.08.05.38,0,.75-.18,1.12-.17.36-.47.67-.88.92Z"/>
    </g>
    <g>
      <path class="cls-3" d="M152.7,17.28s0,.17,0,.37c0,.2,0,.41-.01.64s0,.43-.02.61c0,.18-.01.27-.01.28-.03.08-.13.14-.31.17-.17.03-.36.05-.58.06s-.42,0-.62,0c-.2,0-.34-.01-.42-.01-.04,0-.09,0-.15,0-.06,0-.12,0-.18,0s-.12,0-.17-.02c-.05-.02-.09-.04-.1-.08,0-.02-.01-.07-.01-.16s0-.21,0-.35c0-.14,0-.29.02-.45,0-.16.01-.31.02-.46,0-.15,0-.28.01-.39,0-.11,0-.19,0-.24-.07,0-.21,0-.43.01-.21,0-.43.01-.67.02-.23,0-.44,0-.64,0-.19,0-.31-.02-.35-.04-.06-.03-.11-.09-.13-.17,0-.03-.01-.15-.01-.34s0-.41.01-.65.02-.46.03-.66.02-.33.03-.39c.02-.11.07-.19.16-.24.04-.02.15-.04.33-.05.18-.01.38-.02.59-.03s.42-.01.61-.02c.2,0,.33,0,.4,0,0-.07,0-.2-.02-.38-.02-.18-.03-.37-.04-.56s-.01-.37-.02-.53c0-.16,0-.27.03-.31.04-.07.1-.12.17-.14.02,0,.13-.01.33-.02.2,0,.41,0,.65,0s.46,0,.67.01c.21,0,.34.01.39.02.05,0,.09.02.14.04.04.02.08.05.1.1.02.06.05.17.07.34.02.17.04.35.05.55.01.2.02.38.04.56.01.18.02.31.02.39.12,0,.26,0,.41,0,.16,0,.31,0,.47.01.16,0,.32.01.47.02.15.01.28.03.4.05.06.05.11.09.14.13.03.04.05.1.05.19v.63c0,.16,0,.32,0,.5,0,.18,0,.34-.01.49,0,.15,0,.27-.01.37s0,.15-.02.16c-.02.04-.12.06-.3.06s-.37,0-.58-.02-.42-.03-.61-.05-.33-.03-.39-.03Z"/>
      <path class="cls-3" d="M159.94,14.88c.5.13.89.37,1.16.74.27.36.41.77.44,1.21.02.44-.07.89-.29,1.34-.22.45-.56.83-1.02,1.15s-1.05.51-1.76.61-1.54,0-2.49-.27c-.06-.02-.15-.04-.25-.06-.1-.02-.19-.06-.28-.1s-.15-.09-.2-.15c-.05-.06-.05-.14-.01-.23.08-.2.15-.4.2-.61.05-.21.09-.42.1-.62,0-.06.01-.15.01-.25s.03-.18.1-.22c.02,0,.08,0,.19.02s.24.05.4.08c.16.03.34.06.54.08.2.02.4.02.59,0s.38-.08.56-.16.33-.21.46-.38c.08-.1.13-.21.14-.33.02-.12,0-.23-.03-.34s-.1-.21-.18-.29c-.08-.09-.19-.16-.31-.2-.1-.03-.2-.05-.32-.06-.12,0-.24,0-.37,0-.12.01-.25.03-.37.04s-.23.03-.34.04h-.15c-.06,0-.1-.03-.11-.08.04-.21.08-.46.11-.76s.03-.55,0-.76c.02-.04.13-.07.33-.09s.41-.06.65-.11c.24-.05.45-.14.65-.25.2-.12.32-.29.36-.51.03-.18-.01-.33-.13-.47-.12-.14-.26-.23-.42-.28-.21-.06-.45-.06-.73.02-.28.08-.54.16-.79.25s-.47.14-.64.16c-.18.02-.26-.06-.26-.23v-.84c0-.18,0-.34,0-.49,0-.15.01-.24.03-.27.04-.09.11-.15.2-.18.78-.27,1.49-.4,2.12-.38s1.17.13,1.61.33c.45.2.8.48,1.07.82.26.34.42.7.47,1.08.05.38,0,.75-.18,1.12-.17.36-.47.67-.88.92Z"/>
    </g>
  </g>
  <g id="Motive">
    <g>
      <g>
        <path class="cls-2" d="M65.03,109.64v-9.32c-.02-4.89,2.35-7.94,7.29-8.35,4-.33,9.12-.23,13.18-.09,2.98.1,5.51.24,7.54,2.67,1.86,2.22,1.68,5,1.7,7.73l-9.26,9.26-8.8-8.74c-1.36-1.09-3.22-1.14-4.62-.09l-7.02,6.91ZM84.73,95.67c-3.94.57-3.98,6.98.33,7.41,5.5.55,5.52-8.25-.33-7.41Z"/>
        <path class="cls-2" d="M98.45,113.92c0-.3-.01-.61,0-.92.21-4.55.38-10.36-.09-14.86-.62-5.99-4.95-9.49-10.78-9.92-4.3-.32-9.46-.19-13.79,0-.33.01-.67,0-1,0,.6-2.08,2.56-3.49,4.67-3.76h17.98c3.26.31,5.97,2.72,6.63,5.94.29,6.26.05,12.57.13,18.84-.27,2.11-1.68,4.08-3.75,4.68Z"/>
        <path class="cls-2" d="M76.14,107.6c1.51,1.51,3.02,3.02,4.5,4.54.7.71,1.48,1.4,2.09,2.17l-7.38,7.38c-2.24-.02-4.79.13-6.77-1.05s-3.53-3.5-3.33-5.84l9.07-9.01c.23,0,1.55,1.54,1.82,1.81Z"/>
        <path class="cls-2" d="M80.73,121.71l14.05-14.08v4.68c-.17,2.24,0,4.25-1.32,6.19-1.76,2.59-4.11,3.08-7.09,3.21h-5.63Z"/>
      </g>
      <g>
        <path class="cls-2" d="M108.34,154.22h-24.72c-.39-5.31-.39-10.63,0-15.94,6.56-.58,24.93-.54,27.51,0l-.4-.19v-69.69l.4-.25c-2.51.54-20.89.6-27.51,0l-.4-.19v-15.51l.4-.24c7.6,0,16.6-.59,24.03,0,4.52.35,8.19,3.58,9.17,7.97.52,28.54.39,57.21.07,85.76-.66,4.06-4.44,7.8-8.55,8.29Z"/>
        <path class="cls-2" d="M83.62,52.21v15.94c-6.62.6-25,.54-27.51,0l.4.19v69.69l-.4.25c2.58-.54,20.95-.58,27.51,0,0,5.31,0,10.63,0,15.94h-24.72c-4.36-.8-7.85-4.03-8.57-8.47-.28-28.5-.45-57.09.09-85.58.98-4.38,4.65-7.61,9.17-7.97,7.42-.58,16.43,0,24.03,0Z"/>
      </g>
    </g>
  </g>
  <g id="Kateg._Symbol" data-name="Kateg. Symbol">
    <g id="jCvsG5">
      <path class="cls-4" d="M14.94,10.67c.12-.09.3,0,.29.15-.04.89.15,1.8.59,2.57.7,1.21,1.87,1.54,2.22,3.08.71,3.1-2.81,5.2-5.44,3.74-1.15-.63-1.88-2.3-1.74-3.58.07-.65.37-1.28.78-1.78.1-.12.29-.09.35.05.29.68.74,1.35,1.45,1.62.21.08.41.15.61,0,.33-.24.03-.63-.08-.9-.74-1.8-.57-3.64.95-4.94,0,0,0,0,.01,0h0Z"/>
    </g>
    <g id="jCvsG5-2" data-name="jCvsG5">
      <path class="cls-4" d="M151.86,243.26c.12-.09.3,0,.29.15-.04.89.15,1.8.59,2.57.7,1.21,1.87,1.54,2.22,3.08.71,3.1-2.81,5.2-5.44,3.74-1.15-.63-1.88-2.3-1.74-3.58.07-.65.37-1.28.78-1.78.1-.12.29-.09.35.05.29.68.74,1.35,1.45,1.62.21.08.41.15.61,0,.33-.24.03-.63-.08-.9-.74-1.8-.57-3.64.95-4.94,0,0,0,0,.01,0h0Z"/>
    </g>
  </g>
  <g id="Kartentext">
    <g>
      <path class="cls-4" d="M32.03,173.17l-3.68,5.01h3.22c.31,0,.56.25.56.56s-.25.55-.56.55h-4.31s-.06,0-.1,0c0,0-.02,0-.03-.01-.02,0-.04,0-.07,0-.01-.01-.02-.01-.03-.03,0,0-.03,0-.05-.02-.02,0-.03,0-.04-.02h0l-.03-.03s-.03-.03-.04-.05c-.02-.01-.03-.02-.04-.03-.01,0-.02-.03-.03-.04-.01-.03-.02-.04-.02-.05-.01-.02-.03-.03-.03-.05,0-.02,0-.04-.02-.06,0-.01,0-.02,0-.04,0-.03-.01-.05-.01-.07v-.03h0s0-.06.01-.08v-.05s0-.03.02-.05c0-.01,0-.03,0-.05.02,0,.03-.03.03-.04,0-.01.02-.03.03-.05h0l3.67-5.02h-3.23c-.31,0-.55-.26-.55-.56s.24-.55.55-.55h4.39s.03,0,.04,0c.03,0,.04.01.06.01,0,0,.03,0,.04.02.03,0,.04.02.05.03.02.01.03.02.05.03h.01s.02.02.03.03c.02,0,.03.03.04.04s.02.03.03.04c.02,0,.03.02.04.04.01.02.02.04.03.05,0,0,0,.03.02.04,0,.03.01.05.01.06.02.02.02.03.02.05,0,.03,0,.04,0,.06v.11s0,.03,0,.04c0,.03-.02.04-.02.06-.01.02-.01.03-.02.06,0,.01,0,.02-.02.03,0,.02-.02.04-.03.05v.02Z"/>
      <g>
        <path class="cls-4" d="M32.8,176.79c.01-1.36,1.07-2.5,2.44-2.5,1.3,0,2.33.97,2.41,2.32v.05s0,.07-.01.09c-.03.24-.24.4-.52.4h-3.18c.05.23.16.49.34.66.21.24.61.42.96.45.36.03.79-.06,1.04-.25.21-.22.62-.19.75-.03.13.14.23.44,0,.65-.49.45-1.08.66-1.79.66-1.37,0-2.43-1.14-2.44-2.5ZM33.89,176.3h2.83c-.1-.4-.61-.99-1.48-1.06-.85.04-1.27.65-1.35,1.06Z"/>
        <path class="cls-4" d="M40.13,173.04c0,.3-.23.55-.54.55s-.54-.25-.54-.55v-.21c0-.3.24-.54.54-.54s.54.24.54.54v.21ZM40.13,174.85v3.9c0,.3-.23.54-.54.54s-.54-.24-.54-.54v-3.9c0-.32.24-.55.54-.55s.54.23.54.55Z"/>
        <path class="cls-4" d="M46.12,176.82v1.86c0,1.31-1.07,2.4-2.4,2.4-.37,0-.74-.09-1.05-.25-.26-.12-.38-.45-.24-.72.13-.27.44-.37.72-.25.17.09.36.14.57.14.65,0,1.18-.46,1.31-1.07-.36.25-.82.4-1.31.4-.66,0-1.27-.29-1.7-.76-.43-.44-.7-1.06-.7-1.76s.27-1.31.7-1.78c.43-.45,1.04-.74,1.7-.74.52,0,.98.16,1.34.42.05-.24.27-.42.53-.42.3,0,.53.24.53.53v1.99h0ZM45.05,176.81c0-.4-.16-.78-.38-1.02-.26-.28-.57-.43-.95-.43-.35,0-.68.15-.92.43-.24.24-.4.62-.4,1.02,0,.42.16.8.4,1.03.24.27.57.41.92.41.38,0,.69-.14.95-.41.22-.23.38-.61.38-1.03Z"/>
        <path class="cls-4" d="M47.7,176.79c.01-1.36,1.07-2.5,2.44-2.5,1.3,0,2.33.97,2.41,2.32v.05s0,.07-.01.09c-.03.24-.24.4-.52.4h-3.18c.05.23.16.49.34.66.21.24.61.42.96.45.36.03.79-.06,1.04-.25.21-.22.62-.19.75-.03.13.14.23.44,0,.65-.49.45-1.08.66-1.79.66-1.37,0-2.43-1.14-2.44-2.5ZM48.79,176.3h2.83c-.1-.4-.61-.99-1.48-1.06-.85.04-1.27.65-1.35,1.06Z"/>
        <path class="cls-4" d="M61.27,178.75c0,.29-.24.54-.54.54-.27,0-.48-.19-.53-.43-.38.26-.86.43-1.36.43-1.35,0-2.43-1.14-2.43-2.49s1.08-2.51,2.43-2.51c.49,0,.97.16,1.34.42v-1.88c0-.29.24-.54.55-.54s.54.25.54.54v3.96h0v1.96ZM58.84,175.38c-.36,0-.69.15-.94.41-.25.25-.4.61-.4,1.01s.15.74.4.99c.25.26.58.41.94.41s.69-.15.94-.41c.25-.25.4-.61.4-.99,0-.4-.15-.76-.4-1.01-.25-.26-.57-.41-.94-.41Z"/>
        <path class="cls-4" d="M67.37,176.8v1.96c0,.29-.24.53-.53.53-.26,0-.46-.19-.52-.43-.38.27-.83.43-1.33.43-.68,0-1.27-.28-1.7-.73-.43-.46-.68-1.08-.68-1.76s.25-1.31.68-1.76c.43-.46,1.02-.75,1.7-.75.5,0,.95.17,1.33.44.06-.25.26-.44.52-.44.29,0,.53.24.53.54v1.97ZM66.31,176.8c0-.42-.15-.78-.39-1.03-.24-.27-.58-.41-.93-.41s-.7.14-.93.41c-.24.25-.38.61-.38,1.03s.14.77.38,1.03c.23.25.57.39.93.39s.69-.14.93-.39c.24-.26.39-.62.39-1.03Z"/>
        <path class="cls-4" d="M68.89,177.86c.18-.24.53-.27.75-.08.26.22.71.45,1.1.44.27,0,.52-.09.68-.19.14-.12.18-.22.18-.3,0-.05,0-.07-.03-.1,0-.03-.05-.07-.13-.12-.14-.1-.44-.21-.8-.28h0c-.31-.06-.61-.14-.87-.26-.27-.13-.51-.31-.69-.58-.11-.18-.17-.4-.17-.63,0-.46.26-.85.59-1.1.35-.24.77-.37,1.23-.37.69,0,1.18.33,1.5.55.24.16.31.49.16.74-.16.24-.49.31-.74.14-.32-.21-.6-.37-.92-.37-.25,0-.47.08-.6.18-.13.09-.16.18-.16.23,0,.04,0,.05.02.08.01.02.04.06.11.1.13.09.39.18.73.24h0s.01.01.01.01c.33.06.64.15.93.29.27.12.54.31.71.59.12.2.19.43.19.66,0,.49-.27.9-.63,1.16-.36.25-.81.4-1.3.4-.78,0-1.38-.37-1.78-.69-.22-.18-.25-.52-.07-.74Z"/>
      </g>
      <g>
        <path class="cls-4" d="M77.27,172.29c.31,0,.56.25.56.55v5.9c0,.3-.25.55-.56.55s-.55-.25-.55-.55v-5.9c0-.3.25-.55.55-.55Z"/>
        <path class="cls-4" d="M79.04,176.79c.01-1.36,1.07-2.5,2.44-2.5,1.3,0,2.33.97,2.41,2.32v.05s0,.07-.01.09c-.03.24-.24.4-.52.4h-3.18c.05.23.16.49.34.66.21.24.61.42.96.45.36.03.79-.06,1.04-.25.21-.22.62-.19.75-.03.13.14.23.44,0,.65-.49.45-1.08.66-1.79.66-1.37,0-2.43-1.14-2.44-2.5ZM80.13,176.3h2.83c-.1-.4-.61-.99-1.48-1.06-.85.04-1.27.65-1.35,1.06Z"/>
      </g>
      <g>
        <path class="cls-4" d="M87.12,174.84c0,.3-.26.55-.56.55h-.25v2.79c.31,0,.55.25.55.56s-.24.55-.55.55c-.61,0-1.11-.5-1.11-1.11v-2.79h-.29c-.31,0-.55-.25-.55-.55s.24-.55.55-.55h.29v-1.45c0-.31.25-.55.56-.55s.55.24.55.55v1.45h.25c.3,0,.56.24.56.55Z"/>
        <path class="cls-4" d="M92.19,175.13l-2.26,3.1h1.84c.28,0,.53.23.53.53s-.25.53-.53.53h-2.89s-.06,0-.1,0h-.03s-.04-.02-.06-.02c-.02-.01-.03-.01-.04-.02,0,0-.03-.02-.04-.02,0-.02-.02-.02-.02-.03t0,0s-.02-.01-.03-.02c0-.01-.04-.03-.04-.03-.02-.03-.03-.04-.04-.05,0-.02-.02-.03-.03-.04-.02,0-.02-.02-.02-.04-.02,0-.03-.02-.03-.05,0,0,0-.02-.02-.05,0-.01,0-.03,0-.04v-.07s-.01-.02-.01-.03h0s.01-.06.01-.08v-.04s0-.03.02-.05c0-.02,0-.04,0-.05,0,0,.03-.03.03-.03,0-.02.02-.04.03-.05h0l2.25-3.11h-1.83c-.28,0-.53-.23-.53-.53s.25-.53.53-.53h2.89s.04,0,.06,0h.05s.04.01.05.02c.02,0,.04.01.05.01.01,0,.02.03.03.03.02,0,.04.02.06.03.01,0,.01.01.01.01,0,0,.02,0,.02.02,0,0,.03.02.05.05.01,0,.02.02.03.03,0,.02.02.03.03.04,0,.01,0,.02.03.02,0,.03.02.04.02.06,0,.01,0,.03,0,.05,0,.02,0,.04.02.05v.06s0,.03,0,.04h0s0,.06,0,.06c0,.03,0,.04-.01.06,0,.01,0,.03,0,.05,0,.02,0,.04-.03.05v.03s-.03.04-.05.05h0Z"/>
        <path class="cls-4" d="M96.26,174.84c0,.3-.26.55-.56.55h-.25v2.79c.31,0,.55.25.55.56s-.24.55-.55.55c-.61,0-1.11-.5-1.11-1.11v-2.79h-.29c-.31,0-.55-.25-.55-.55s.24-.55.55-.55h.29v-1.45c0-.31.25-.55.56-.55s.55.24.55.55v1.45h.25c.3,0,.56.24.56.55Z"/>
      </g>
      <path class="cls-4" d="M97.06,176.79c0-1.36,1.07-2.5,2.44-2.5,1.3,0,2.33.97,2.41,2.32v.05s0,.07,0,.09c-.03.24-.24.4-.52.4h-3.18c.05.23.16.49.34.66.21.24.61.42.96.45.36.03.79-.06,1.04-.25.21-.22.62-.19.75-.03.13.14.23.44,0,.65-.49.45-1.08.66-1.79.66-1.37,0-2.43-1.14-2.44-2.5ZM98.15,176.3h2.83c-.1-.4-.61-.99-1.48-1.06-.85.04-1.27.65-1.35,1.06Z"/>
      <g>
        <path class="cls-4" d="M106.21,178.74v-5.9c0-.31.25-.55.55-.55h1.42c1.05,0,1.9.85,1.9,1.9,0,.43-.14.82-.38,1.14.6.38,1.01,1.05,1.01,1.81,0,1.19-.96,2.15-2.14,2.15h-1.77s0,0,0,0c-.02,0-.02,0-.03,0-.3,0-.55-.25-.55-.55ZM107.32,175h.86c.44,0,.79-.37.79-.81s-.35-.79-.79-.79h-.86v1.6ZM107.32,178.18h1.25c.57,0,1.03-.46,1.03-1.04s-.46-1.02-1.03-1.03h-1.25v2.07Z"/>
        <path class="cls-4" d="M112.53,173.04c0,.3-.23.55-.54.55s-.54-.25-.54-.55v-.21c0-.3.24-.54.54-.54s.54.24.54.54v.21ZM112.53,174.85v3.9c0,.3-.23.54-.54.54s-.54-.24-.54-.54v-3.9c0-.32.24-.55.54-.55s.54.23.54.55Z"/>
      </g>
      <g>
        <path class="cls-4" d="M114.46,172.29c.31,0,.56.25.56.55v5.9c0,.3-.25.55-.56.55s-.55-.25-.55-.55v-5.9c0-.3.25-.55.55-.55Z"/>
        <path class="cls-4" d="M120.66,178.75c0,.29-.24.54-.54.54-.27,0-.48-.19-.53-.43-.38.26-.86.43-1.36.43-1.35,0-2.43-1.14-2.43-2.49s1.08-2.51,2.43-2.51c.49,0,.97.16,1.34.42v-1.88c0-.29.24-.54.55-.54s.54.25.54.54v3.96h0v1.96ZM118.23,175.38c-.36,0-.69.15-.94.41-.25.25-.4.61-.4,1.01s.15.74.4.99c.25.26.58.41.94.41s.69-.15.94-.41c.25-.25.4-.61.4-.99,0-.4-.15-.76-.4-1.01-.25-.26-.57-.41-.94-.41Z"/>
        <path class="cls-4" d="M129.56,176.8v1.96c0,.29-.24.53-.53.53-.26,0-.46-.19-.52-.43-.38.27-.83.43-1.33.43-.68,0-1.27-.28-1.7-.73-.43-.46-.68-1.08-.68-1.76s.25-1.31.68-1.76c.43-.46,1.02-.75,1.7-.75.5,0,.95.17,1.33.44.06-.25.26-.44.52-.44.29,0,.53.24.53.54v1.97ZM128.5,176.8c0-.42-.15-.78-.39-1.03-.24-.27-.58-.41-.93-.41s-.7.14-.93.41c-.24.25-.38.61-.38,1.03s.14.77.38,1.03c.23.25.57.39.93.39s.69-.14.93-.39c.24-.26.39-.62.39-1.03Z"/>
        <path class="cls-4" d="M133.3,179.29c-1.14,0-2.08-.94-2.08-2.08v-2.39c0-.28.24-.53.53-.53s.53.25.53.53v2.39c0,.57.45,1.02,1.02,1.02s1.04-.45,1.05-1.02v-2.39c0-.28.22-.53.52-.53.28,0,.54.25.54.53v2.39c0,1.14-.96,2.08-2.11,2.08Z"/>
        <path class="cls-4" d="M137.01,177.86c.18-.24.53-.27.75-.08.26.22.71.45,1.1.44.27,0,.52-.09.68-.19.14-.12.18-.22.18-.3,0-.05-.01-.07-.03-.1,0-.03-.05-.07-.13-.12-.14-.1-.44-.21-.8-.28h0c-.31-.06-.61-.14-.87-.26-.27-.13-.51-.31-.69-.58-.11-.18-.17-.4-.17-.63,0-.46.26-.85.59-1.1.35-.24.77-.37,1.23-.37.69,0,1.18.33,1.5.55.24.16.31.49.16.74-.16.24-.49.31-.74.14-.32-.21-.6-.37-.92-.37-.25,0-.47.08-.6.18-.13.09-.16.18-.16.23,0,.04,0,.05.02.08,0,.02.04.06.11.1.13.09.39.18.73.24h.01s0,.01,0,.01c.33.06.64.15.93.29.27.12.54.31.71.59.12.2.19.43.19.66,0,.49-.27.9-.63,1.16-.36.25-.81.4-1.3.4-.78,0-1.38-.37-1.78-.69-.22-.18-.25-.52-.07-.74Z"/>
      </g>
      <path class="cls-4" d="M53.67,190.74c0,.29-.24.54-.54.54-.27,0-.48-.19-.53-.43-.38.26-.86.43-1.36.43-1.35,0-2.43-1.14-2.43-2.49s1.08-2.51,2.43-2.51c.49,0,.97.16,1.34.42v-1.88c0-.29.24-.54.55-.54s.54.25.54.54v3.96h0v1.96ZM51.24,187.37c-.36,0-.69.15-.94.41-.25.25-.4.61-.4,1.01s.15.74.4.99c.25.26.58.41.94.41s.69-.15.94-.41c.25-.25.4-.61.4-.99,0-.4-.15-.76-.4-1.01-.25-.26-.57-.41-.94-.41Z"/>
      <g>
        <path class="cls-4" d="M55.04,188.78c.01-1.36,1.07-2.5,2.44-2.5,1.3,0,2.33.97,2.41,2.32v.05s0,.07-.01.09c-.03.24-.24.4-.52.4h-3.18c.05.23.16.49.34.66.21.24.61.42.96.45.36.03.79-.06,1.04-.25.21-.22.62-.19.75-.03.13.14.23.44,0,.65-.49.45-1.08.66-1.79.66-1.37,0-2.43-1.14-2.44-2.5ZM56.13,188.29h2.83c-.1-.4-.61-.99-1.48-1.06-.85.04-1.27.65-1.35,1.06Z"/>
        <path class="cls-4" d="M62.37,185.03c0,.3-.23.55-.54.55s-.54-.25-.54-.55v-.21c0-.3.24-.54.54-.54s.54.24.54.54v.21ZM62.37,186.84v3.9c0,.3-.23.54-.54.54s-.54-.24-.54-.54v-3.9c0-.32.24-.55.54-.55s.54.23.54.55Z"/>
        <path class="cls-4" d="M68.06,188.36v2.39c0,.29-.23.53-.52.53s-.53-.24-.53-.53v-2.39c0-.56-.47-1.01-1.04-1.01s-1,.45-1,1.01v2.39s0,.06-.02.1c-.05.24-.27.43-.53.43-.3,0-.53-.24-.53-.53v-3.94c0-.29.23-.53.53-.53.21,0,.4.12.49.31.3-.19.67-.31,1.06-.31,1.16,0,2.09.95,2.09,2.08Z"/>
        <path class="cls-4" d="M69.47,188.78c.01-1.36,1.07-2.5,2.44-2.5,1.3,0,2.33.97,2.41,2.32v.05s0,.07-.01.09c-.03.24-.24.4-.52.4h-3.18c.05.23.16.49.34.66.21.24.61.42.96.45.36.03.79-.06,1.04-.25.21-.22.62-.19.75-.03.13.14.23.44,0,.65-.49.45-1.08.66-1.79.66-1.37,0-2.43-1.14-2.44-2.5ZM70.56,188.29h2.83c-.1-.4-.61-.99-1.48-1.06-.85.04-1.27.65-1.35,1.06Z"/>
      </g>
      <g>
        <path class="cls-4" d="M78.57,186.81c0,.28-.23.53-.53.53-.23,0-.43.06-.6.19-.19.12-.34.29-.46.48-.24.32-.36.7-.41.84v1.9c0,.29-.25.53-.55.53s-.53-.24-.53-.53v-3.94c0-.29.24-.52.53-.52s.55.23.55.52v.07c.06-.07.14-.15.21-.2.33-.22.76-.4,1.26-.39.3,0,.53.23.53.52Z"/>
        <path class="cls-4" d="M82.38,187.69c0-2.01,1.66-3.61,3.69-3.61.85,0,1.66.29,2.28.78.26.19.3.56.11.81-.19.24-.56.29-.81.09-.43-.33-.98-.54-1.58-.54-.72,0-1.35.27-1.8.73-.47.45-.75,1.06-.75,1.74s.28,1.27.75,1.72c.45.46,1.08.73,1.8.73.5,0,.97-.15,1.37-.38v-1.37h-1.43c-.31,0-.57-.26-.57-.57s.26-.56.57-.56h1.99c.32,0,.58.24.58.56v2.21c0,.07-.02.11-.03.17-.01.02-.01.03-.02.05h0c-.03.1-.09.18-.19.25-.63.49-1.42.78-2.27.78-2.03,0-3.69-1.59-3.69-3.59Z"/>
        <path class="cls-4" d="M94.8,188.79v1.96c0,.29-.24.53-.53.53-.26,0-.46-.19-.52-.43-.38.27-.83.43-1.33.43-.68,0-1.27-.28-1.7-.73-.43-.46-.68-1.08-.68-1.76s.25-1.31.68-1.76c.43-.46,1.02-.75,1.7-.75.5,0,.95.17,1.33.44.06-.25.26-.44.52-.44.29,0,.53.24.53.54v1.97ZM93.74,188.79c0-.42-.15-.78-.39-1.03-.24-.27-.58-.41-.93-.41s-.7.14-.93.41c-.24.25-.38.61-.38,1.03s.14.77.38,1.03c.23.25.57.39.93.39s.69-.14.93-.39c.24-.26.39-.62.39-1.03Z"/>
      </g>
      <g>
        <path class="cls-4" d="M97.28,184.28c.31,0,.56.25.56.55v5.9c0,.3-.25.55-.56.55s-.55-.25-.55-.55v-5.9c0-.3.25-.55.55-.55Z"/>
        <path class="cls-4" d="M99.05,188.78c0-1.36,1.07-2.5,2.44-2.5,1.3,0,2.33.97,2.41,2.32v.05s0,.07,0,.09c-.03.24-.24.4-.52.4h-3.18c.05.23.16.49.34.66.21.24.61.42.96.45.36.03.79-.06,1.04-.25.21-.22.62-.19.75-.03.13.14.23.44,0,.65-.49.45-1.08.66-1.79.66-1.37,0-2.43-1.14-2.44-2.5ZM100.14,188.29h2.83c-.1-.4-.61-.99-1.48-1.06-.85.04-1.27.65-1.35,1.06Z"/>
      </g>
      <g>
        <path class="cls-4" d="M108.16,186.81c0,.28-.23.53-.53.53-.23,0-.43.06-.6.19-.19.12-.34.29-.46.48-.24.32-.36.7-.41.84v1.9c0,.29-.25.53-.55.53s-.53-.24-.53-.53v-3.94c0-.29.24-.52.53-.52s.55.23.55.52v.07c.06-.07.14-.15.21-.2.33-.22.76-.4,1.26-.39.3,0,.53.23.53.52Z"/>
        <path class="cls-4" d="M110.36,185.03c0,.3-.23.55-.54.55s-.54-.25-.54-.55v-.21c0-.3.24-.54.54-.54s.54.24.54.54v.21ZM110.36,186.84v3.9c0,.3-.23.54-.54.54s-.54-.24-.54-.54v-3.9c0-.32.24-.55.54-.55s.54.23.54.55Z"/>
        <path class="cls-4" d="M111.53,188.78c0-1.36,1.07-2.5,2.44-2.5,1.3,0,2.33.97,2.41,2.32v.05s0,.07,0,.09c-.03.24-.24.4-.52.4h-3.18c.05.23.16.49.34.66.21.24.61.42.96.45.36.03.79-.06,1.04-.25.21-.22.62-.19.75-.03.13.14.23.44,0,.65-.49.45-1.08.66-1.79.66-1.37,0-2.43-1.14-2.44-2.5ZM112.62,188.29h2.83c-.1-.4-.61-.99-1.48-1.06-.85.04-1.27.65-1.35,1.06Z"/>
      </g>
      <path class="cls-4" d="M118.29,189.86c.41,0,.75.34.75.75s-.34.74-.75.74-.74-.33-.74-.74.33-.75.74-.75Z"/>
    </g>
  </g>
</svg>