<?xml version="1.0" encoding="UTF-8"?>
<svg xmlns="http://www.w3.org/2000/svg" viewBox="0 0 167.24 260.79">
  <defs>
    <style>
      .cls-1 {
        fill: #010101;
      }

      .cls-2 {
        fill: #171717;
      }

      .cls-3 {
        stroke: #fff;
        stroke-miterlimit: 10;
        stroke-width: .15px;
      }

      .cls-3, .cls-4 {
        fill: #fff;
      }

      .cls-5 {
        fill: #171715;
      }

      .cls-6 {
        fill: #8d74b0;
      }
    </style>
  </defs>
  <g id="Background">
    <rect class="cls-6" width="167.24" height="260.79"/>
  </g>
  <g id="Rahmen">
    <path class="cls-1" d="M151.9,23.16c9.65,0,9.67-15,0-15s-9.67,15,0,15h0Z"/>
    <path class="cls-1" d="M152.22,254.59c9.65,0,9.67-15,0-15s-9.67,15,0,15h0Z"/>
    <path class="cls-1" d="M14.14,254.72c9.65,0,9.67-15,0-15s-9.67,15,0,15h0Z"/>
    <path class="cls-2" d="M11.56,15.67c18.49.32,36.98.69,55.46,1.04,19.51.36,39.05-.42,58.56-.82,10.18-.21,20.36-.38,30.54-.21l-3.75-3.75c-1.46,11.81-1.7,23.8-1.97,35.69-.33,14.15-.39,28.31-.37,42.46.01,9.3.14,18.61.07,27.91-.06,7.86-.43,15.71-.48,23.57-.07,11.29.08,22.59.37,33.88.56,22.38,1.59,44.74,2.18,67.12.07,2.79.14,5.57.2,8.36l3.75-3.75c-15.41-.13-30.81.06-46.22.48-24.85.69-49.67.84-74.52.24-8.25-.2-16.49-.49-24.74-.73l3.75,3.75c-.56-4.87-.34-9.89-.27-14.78.11-8.38.38-16.76.66-25.14.66-20.11,1.45-40.22,1.83-60.34.16-8.4.26-16.81.05-25.21-.13-5.24-.51-10.46-.61-15.7-.33-17.03-.19-34.08-.18-51.11,0-8.91,0-17.82-.06-26.73-.04-5.94-.04-11.89-.34-17.82-.04-.72-.08-1.43-.15-2.15-.19-1.95-1.59-3.85-3.75-3.75-1.87.08-3.96,1.66-3.75,3.75.48,4.83.39,9.76.44,14.61.09,8.42.1,16.84.11,25.25,0,17.78-.1,35.55.11,53.33.06,5.22.27,10.41.52,15.62.36,7.73.31,15.47.21,23.21-.24,20.03-1.02,40.04-1.7,60.06-.3,8.95-.6,17.9-.79,26.85-.13,5.9-.3,11.84,0,17.74.04.78.09,1.55.18,2.32.24,2.06,1.53,3.69,3.75,3.75,18.27.53,36.53,1.09,54.81,1.16,23.38.09,46.73-.97,70.1-1.19,6.85-.06,13.71-.03,20.56.02,2,.02,3.79-1.73,3.75-3.75-.48-22.44-1.5-44.87-2.16-67.3-.33-11.25-.57-22.51-.6-33.77-.03-10.16.25-20.29.47-30.44.18-8.23-.03-16.48-.05-24.72-.03-13.94,0-27.88.25-41.82.23-12.54.48-25.14,1.72-37.62.11-1.1.23-2.21.37-3.31.25-2.04-1.92-3.72-3.75-3.75-19.14-.32-38.3.42-57.44.81-9.78.2-19.58.45-29.37.27-7.76-.14-15.52-.3-23.28-.45-11.49-.22-22.99-.44-34.48-.63-1.96-.03-3.84,1.75-3.75,3.75s1.65,3.71,3.75,3.75h0Z"/>
    <polygon class="cls-2" points="26.61 14.43 14.5 29.16 14.18 13.04 26.61 14.43"/>
    <polygon class="cls-2" points="140.79 14.16 152.35 27.66 154.57 11.89 140.79 14.16"/>
    <polygon class="cls-2" points="139.48 248.15 153.14 235.93 156.07 248.65 139.48 248.15"/>
    <polygon class="cls-2" points="12.9 235.54 26.24 248.54 12.31 249.36 12.9 235.54"/>
    <rect class="cls-2" width="10.32" height="260.79"/>
    <rect class="cls-2" y="249.36" width="167.24" height="11.43"/>
    <rect class="cls-5" width="167.24" height="10.33"/>
    <rect class="cls-2" x="156.12" width="11.13" height="260.79"/>
    <path class="cls-2" d="M117.73,17.19c0-.85.31-3.85,0-4.78-.82-2.49-3.11-2.81-5.35-2.81h-57.51c-2.24,0-4.53.32-5.35,2.81-.31.93,0,3.93,0,4.78l-.25,5.71c-.49,5.31,7.64,4.59,10.71,4.59l17.71.37,5.93-.07h0l5.93.07,17.71-.37c3.08,0,11.2.72,10.71-4.59l-.24-5.71Z"/>
    <path class="cls-1" d="M151.9,23.16c9.65,0,9.67-15,0-15s-9.67,15,0,15h0Z"/>
    <path class="cls-1" d="M152.22,254.59c9.65,0,9.67-15,0-15s-9.67,15,0,15h0Z"/>
    <path class="cls-1" d="M14.14,254.72c9.65,0,9.67-15,0-15s-9.67,15,0,15h0Z"/>
    <path class="cls-2" d="M11.56,15.67c18.49.32,36.98.69,55.46,1.04,19.51.36,39.05-.42,58.56-.82,10.18-.21,20.36-.38,30.54-.21l-3.75-3.75c-1.46,11.81-1.7,23.8-1.97,35.69-.33,14.15-.39,28.31-.37,42.46.01,9.3.14,18.61.07,27.91-.06,7.86-.43,15.71-.48,23.57-.07,11.29.08,22.59.37,33.88.56,22.38,1.59,44.74,2.18,67.12.07,2.79.14,5.57.2,8.36l3.75-3.75c-15.41-.13-30.81.06-46.22.48-24.85.69-49.67.84-74.52.24-8.25-.2-16.49-.49-24.74-.73l3.75,3.75c-.56-4.87-.34-9.89-.27-14.78.11-8.38.38-16.76.66-25.14.66-20.11,1.45-40.22,1.83-60.34.16-8.4.26-16.81.05-25.21-.13-5.24-.51-10.46-.61-15.7-.33-17.03-.19-34.08-.18-51.11,0-8.91,0-17.82-.06-26.73-.04-5.94-.04-11.89-.34-17.82-.04-.72-.08-1.43-.15-2.15-.19-1.95-1.59-3.85-3.75-3.75-1.87.08-3.96,1.66-3.75,3.75.48,4.83.39,9.76.44,14.61.09,8.42.1,16.84.11,25.25,0,17.78-.1,35.55.11,53.33.06,5.22.27,10.41.52,15.62.36,7.73.31,15.47.21,23.21-.24,20.03-1.02,40.04-1.7,60.06-.3,8.95-.6,17.9-.79,26.85-.13,5.9-.3,11.84,0,17.74.04.78.09,1.55.18,2.32.24,2.06,1.53,3.69,3.75,3.75,18.27.53,36.53,1.09,54.81,1.16,23.38.09,46.73-.97,70.1-1.19,6.85-.06,13.71-.03,20.56.02,2,.02,3.79-1.73,3.75-3.75-.48-22.44-1.5-44.87-2.16-67.3-.33-11.25-.57-22.51-.6-33.77-.03-10.16.25-20.29.47-30.44.18-8.23-.03-16.48-.05-24.72-.03-13.94,0-27.88.25-41.82.23-12.54.48-25.14,1.72-37.62.11-1.1.23-2.21.37-3.31.25-2.04-1.92-3.72-3.75-3.75-19.14-.32-38.3.42-57.44.81-9.78.2-19.58.45-29.37.27-7.76-.14-15.52-.3-23.28-.45-11.49-.22-22.99-.44-34.48-.63-1.96-.03-3.84,1.75-3.75,3.75s1.65,3.71,3.75,3.75h0Z"/>
    <polygon class="cls-2" points="26.61 14.43 14.5 29.16 14.18 13.04 26.61 14.43"/>
    <polygon class="cls-2" points="140.79 14.16 152.35 27.66 154.57 11.89 140.79 14.16"/>
    <polygon class="cls-2" points="139.48 248.15 153.14 235.93 156.07 248.65 139.48 248.15"/>
    <polygon class="cls-2" points="12.9 235.54 26.24 248.54 12.31 249.36 12.9 235.54"/>
    <rect class="cls-2" width="10.32" height="260.79"/>
    <rect class="cls-2" y="249.36" width="167.24" height="11.43"/>
    <rect class="cls-5" width="167.24" height="10.33"/>
    <rect class="cls-2" x="156.12" width="11.13" height="260.79"/>
  </g>
  <g id="Kategorie_Name" data-name="Kategorie Name">
    <g>
      <path class="cls-6" d="M56.65,21.16c-.01.07-.02.17-.03.31s-.02.29-.04.44c-.01.15-.04.29-.06.42s-.05.21-.08.25c-.03.03-.15.06-.36.07-.21.02-.44.03-.7.03-.25,0-.5,0-.73,0h-.45c-.18,0-.32-.02-.42-.05-.1-.03-.12-.17-.08-.41.03-.15.08-.42.15-.81.07-.39.15-.85.24-1.39.09-.54.19-1.13.31-1.77.11-.64.23-1.28.35-1.92.11-.64.23-1.27.34-1.87.11-.6.21-1.14.31-1.62.1-.47.18-.86.25-1.15.07-.29.12-.45.15-.47.02-.01.06-.02.12-.02.06,0,.13,0,.2,0s.15,0,.22,0c.07,0,.12,0,.15,0,.63.02,1.24,0,1.83-.07.59-.07,1.2-.12,1.83-.18.1-.01.19.02.26.08.07.07.12.15.17.25.04.1.07.2.1.32s.05.22.07.3c.17.75.3,1.5.38,2.26.08.75.17,1.5.25,2.26.09.86.17,1.74.23,2.64.06.9.18,1.77.35,2.62,0,.05.02.12.04.21.02.09.03.18.04.28,0,.1,0,.19,0,.27,0,.08-.04.14-.1.17-.03.02-.12.04-.28.05-.16.01-.36.02-.58.03-.23,0-.48,0-.75,0s-.52,0-.76,0c-.23,0-.44-.01-.61-.02-.18,0-.28-.01-.32-.02-.1-.02-.16-.07-.17-.15-.05-.21-.07-.42-.07-.65,0-.23,0-.45-.02-.67-.28-.03-.56-.05-.85-.04-.28,0-.57,0-.85,0ZM57.91,14.04c-.17.82-.33,1.63-.47,2.43-.15.8-.29,1.61-.43,2.43.2-.02.4-.04.61-.05s.42,0,.62.02c-.04-.81-.09-1.61-.16-2.41s-.12-1.6-.17-2.41Z"/>
      <path class="cls-6" d="M67.76,22.32c-.41.12-.83.17-1.27.16s-.85-.1-1.26-.25c-.4-.15-.78-.37-1.12-.65-.34-.29-.62-.65-.83-1.07-.2-.39-.35-.82-.46-1.27s-.18-.9-.23-1.35c-.01-.11-.02-.3-.03-.59-.01-.28-.01-.6,0-.96s.02-.72.04-1.11c.02-.39.05-.74.08-1.07.03-.33.08-.6.15-.81s.14-.32.23-.33c.06-.01.22,0,.49,0,.26.02.55.04.85.06.3.02.58.05.84.07.26.03.42.05.49.06.11.02.16.09.15.21-.01.12-.02.22-.03.31-.05.35-.08.71-.09,1.07-.01.37-.02.72-.03,1.07,0,.17,0,.43,0,.76,0,.33.04.65.1.96.06.31.17.56.33.76.15.2.38.24.67.13.2-.08.36-.22.5-.44.13-.21.22-.48.26-.82s.06-.71.05-1.13c-.01-.41-.04-.84-.09-1.29-.05-.45-.11-.88-.17-1.3-.06-.42-.13-.81-.19-1.18s-.1-.67-.13-.92c-.02-.11-.02-.2.01-.27.03-.07.1-.12.21-.14.07-.01.24-.03.51-.06s.56-.05.86-.07c.31-.02.58-.04.83-.04.25,0,.4,0,.44.02.06.03.11.13.17.29.05.16.09.33.13.51s.07.37.1.55.04.31.05.38c.05.36.1.78.15,1.25.05.47.09.97.11,1.5s.03,1.05.02,1.59c0,.54-.05,1.06-.12,1.56-.07.5-.17.97-.3,1.4s-.31.8-.52,1.1c-.24.34-.53.62-.88.83-.35.22-.71.38-1.09.49Z"/>
      <path class="cls-6" d="M74.54,18.21v2.46c0,.38,0,.72,0,1.04s-.01.58-.02.79c0,.21-.02.32-.03.33-.01.01-.08.02-.21.04-.13.02-.29.03-.47.03s-.39.01-.61.02c-.22,0-.43.01-.62.02-.19,0-.35,0-.49,0-.13,0-.22-.01-.25-.02-.08-.03-.13-.09-.16-.18-.03-.09-.04-.17-.04-.25,0-.27,0-.72-.02-1.36-.01-.63-.02-1.35-.02-2.15,0-.8,0-1.64,0-2.51s0-1.69.02-2.44c.01-.76.04-1.41.07-1.95.04-.54.08-.89.14-1.05.05-.12.12-.21.21-.28.04-.02.21-.04.5-.05s.66-.01,1.09,0c.43,0,.89.01,1.4.02.5.01.97.02,1.42.04.45.02.84.04,1.17.06.33.02.54.04.63.05.02,0,.05.01.1.04.04.03.07.05.08.07.02.04.02.11,0,.19-.01.08-.03.15-.04.2-.02.15-.03.34-.04.56,0,.22-.02.44-.03.67-.01.23-.03.45-.05.66-.02.21-.05.38-.09.5-.09.07-.29.1-.61.11-.31,0-.65,0-1.02,0-.37-.01-.72-.03-1.06-.05-.34-.02-.59-.03-.74-.03-.03.23-.06.46-.08.68-.03.22-.05.45-.07.68.51-.04,1.03-.09,1.56-.15s1.05-.07,1.56-.05c.1,0,.16.03.18.08.02.04.03.11.04.21,0,.1.02.2.02.31v.56c0,.08,0,.21.01.41.01.2.02.4.02.62s0,.42-.02.6c0,.18-.04.29-.07.33-.06.07-.25.11-.56.14-.31.03-.66.04-1.04.04s-.73,0-1.08-.02c-.34-.01-.58-.02-.7-.02Z"/>
      <path class="cls-6" d="M84.86,17.85c-.05,0-.13,0-.25.03-.11.02-.23.03-.36.03-.12,0-.24,0-.35,0s-.17-.01-.2-.03c-.04-.03-.07-.15-.1-.36s-.04-.44-.05-.69c0-.25,0-.48,0-.69.01-.21.03-.33.06-.37.05-.05.13-.08.25-.09.11,0,.21,0,.28,0,.42-.01.83,0,1.22.02s.8.02,1.22,0c.08-.01.19-.02.34-.03s.25,0,.32.02c.08.02.16.06.24.11s.13.12.15.21c.03.09.05.2.06.33,0,.14.02.28.02.42s0,.29,0,.43c0,.14,0,.26,0,.36-.02.56-.07,1.09-.14,1.59-.07.51-.21.98-.39,1.42-.19.44-.44.82-.77,1.14-.33.33-.77.59-1.31.78-.52.19-1.08.26-1.67.22-.6-.04-1.15-.16-1.66-.35-.3-.12-.58-.27-.85-.46-.27-.19-.51-.4-.72-.65-.29-.35-.53-.79-.72-1.33-.19-.54-.33-1.12-.41-1.75s-.12-1.28-.1-1.95c.02-.67.09-1.31.22-1.93.12-.62.3-1.18.52-1.7s.5-.94.82-1.27c.36-.36.78-.63,1.25-.82s.97-.3,1.48-.34c.51-.04,1.02-.02,1.52.06.5.09.97.23,1.4.43.05.02.12.05.21.1.09.04.18.1.27.16.09.06.17.12.25.18.07.06.12.12.13.19,0,.04-.03.16-.11.34s-.18.39-.28.6-.21.42-.31.62c-.1.2-.17.33-.19.39-.02.04-.05.11-.09.19-.04.08-.08.16-.13.25-.04.08-.09.16-.14.23-.05.07-.1.11-.13.12-.01,0-.08-.04-.2-.11s-.29-.16-.49-.25c-.2-.09-.42-.16-.67-.22-.25-.06-.49-.07-.74-.04-.25.03-.49.13-.72.3s-.42.44-.58.81c-.12.27-.2.63-.25,1.06-.04.44-.05.88-.01,1.34.03.46.12.88.26,1.27s.34.67.6.84c.21.14.44.21.68.21s.46-.06.66-.17.37-.28.5-.48.2-.45.21-.74Z"/>
      <path class="cls-6" d="M91.03,21.16c-.01.07-.02.17-.03.31s-.02.29-.04.44c-.01.15-.04.29-.06.42s-.05.21-.08.25c-.03.03-.15.06-.36.07-.21.02-.44.03-.7.03-.25,0-.5,0-.73,0h-.45c-.18,0-.32-.02-.42-.05-.1-.03-.12-.17-.08-.41.03-.15.08-.42.15-.81.07-.39.15-.85.24-1.39.09-.54.19-1.13.31-1.77.11-.64.23-1.28.35-1.92.11-.64.23-1.27.34-1.87.11-.6.21-1.14.31-1.62.1-.47.18-.86.25-1.15.07-.29.12-.45.15-.47.02-.01.06-.02.12-.02.06,0,.13,0,.2,0s.15,0,.22,0c.07,0,.12,0,.15,0,.63.02,1.24,0,1.83-.07.59-.07,1.2-.12,1.83-.18.1-.01.19.02.26.08.07.07.12.15.17.25.04.1.07.2.1.32s.05.22.07.3c.17.75.3,1.5.38,2.26.08.75.17,1.5.25,2.26.09.86.17,1.74.23,2.64.06.9.18,1.77.35,2.62,0,.05.02.12.04.21.02.09.03.18.04.28,0,.1,0,.19,0,.27,0,.08-.04.14-.1.17-.03.02-.12.04-.28.05-.16.01-.36.02-.58.03-.23,0-.48,0-.75,0s-.52,0-.76,0c-.23,0-.44-.01-.61-.02-.18,0-.28-.01-.32-.02-.1-.02-.16-.07-.17-.15-.05-.21-.07-.42-.07-.65,0-.23,0-.45-.02-.67-.28-.03-.56-.05-.85-.04-.28,0-.57,0-.85,0ZM92.29,14.04c-.17.82-.33,1.63-.47,2.43-.15.8-.29,1.61-.43,2.43.2-.02.4-.04.61-.05s.42,0,.62.02c-.04-.81-.09-1.61-.16-2.41s-.12-1.6-.17-2.41Z"/>
      <path class="cls-6" d="M103.52,16.63c.51.19.94.5,1.3.94s.6.92.74,1.45c.14.52.15,1.05.04,1.57-.12.52-.39.96-.83,1.31-.44.35-.87.59-1.28.74s-.88.23-1.41.28c-.48.03-.97.06-1.46.08-.49.02-.98.02-1.46,0-.08,0-.19,0-.33-.02s-.28-.03-.42-.06-.27-.06-.4-.09c-.12-.03-.22-.08-.28-.13-.05-.05-.1-.1-.14-.15-.04-.04-.08-.1-.1-.18-.08-.26-.12-.55-.13-.87-.01-.32-.03-.62-.06-.91-.11-1.11-.18-2.22-.2-3.33-.02-1.11,0-2.23.05-3.35.02-.38.04-.77.07-1.17.02-.4.04-.79.04-1.17v-.35c0-.07,0-.13,0-.19,0-.05.01-.09.02-.11,0-.04.08-.08.22-.11.13-.03.3-.05.5-.07.2-.02.42-.04.66-.04.24,0,.47-.01.69-.02.22,0,.42,0,.59,0h.37s.1,0,.15,0c.05,0,.1.02.15.06.06,0,.1.04.11.11.02.08.02.17.02.27s0,.21-.02.31c-.01.1-.02.18-.02.22.11-.11.22-.21.34-.29.12-.09.24-.17.37-.25.66-.36,1.25-.51,1.78-.44.53.07.97.26,1.33.6s.62.75.79,1.27c.17.51.21,1.04.15,1.57s-.25,1.03-.57,1.5c-.31.46-.77.81-1.37,1.04ZM100.46,14.37c-.01.22-.02.44-.03.65-.01.22-.02.44-.02.65.2-.01.4-.02.6-.02.2,0,.39-.05.57-.14.19-.1.33-.24.43-.42.09-.19.14-.37.15-.56,0-.19-.04-.34-.13-.47-.09-.13-.23-.19-.41-.18-.19.02-.39.09-.6.2-.21.11-.4.21-.57.29ZM100.54,19.93c.28.01.56,0,.84-.05.19-.03.36-.12.52-.27.16-.15.28-.32.36-.51s.1-.4.07-.6c-.04-.2-.15-.37-.34-.52-.1-.07-.21-.11-.34-.13-.13-.02-.27-.03-.41-.02-.15,0-.29.01-.43.02-.14.01-.27.01-.39,0,0,.35,0,.7.03,1.04.02.34.05.69.09,1.04Z"/>
      <path class="cls-6" d="M112.85,22.64s-.2.05-.48.07c-.28.03-.62.05-1.02.08s-.84.05-1.31.08c-.47.03-.92.05-1.35.07-.43.02-.8.02-1.12.02s-.54,0-.65-.02c-.12-.02-.21-.08-.26-.16-.06-.09-.08-.19-.08-.31,0-.25,0-.7-.02-1.34-.01-.64-.02-1.38-.02-2.2,0-.82,0-1.68,0-2.58s0-1.74.03-2.51c.02-.77.05-1.43.1-1.98s.11-.87.19-.98c.06-.08.15-.14.28-.18.05-.01.23-.02.53-.02s.66,0,1.09,0c.42,0,.88.02,1.36.03s.94.03,1.37.05c.43.02.8.03,1.12.05.31.02.51.03.58.04.07.01.12.05.15.11.03.06.04.13.04.21s0,.17-.02.25c-.02.09-.03.16-.04.21-.01.07-.02.21-.03.43-.01.22-.02.46-.04.7s-.04.47-.07.67c-.03.2-.07.31-.1.33-.05.03-.13.05-.23.06s-.19,0-.26,0c-.48.02-.96.02-1.44-.02-.48-.03-.96-.05-1.44-.07-.03.23-.06.46-.08.68-.03.22-.05.45-.07.68.19-.01.43-.03.71-.07.28-.03.58-.06.88-.09.3-.03.58-.05.85-.06s.49,0,.66.02c.14.02.22.1.23.25.01.14.02.27.02.39,0,.09,0,.26.01.51.01.25.02.51.02.78s0,.51,0,.74c0,.23-.02.37-.05.41-.05.09-.23.15-.55.18-.31.03-.67.05-1.05.06-.39,0-.75,0-1.1-.02-.35-.02-.58-.02-.71-.02v1.83c.4,0,.77,0,1.15-.02s.76-.03,1.14-.05c.13-.01.26-.03.4-.05.13-.02.27-.03.4-.03.08,0,.14.01.17.03.03.02.06.07.09.15.03.07.05.22.06.47,0,.25.02.51.02.78,0,.28,0,.54,0,.79-.01.25-.02.43-.03.52Z"/>
    </g>
  </g>
  <g id="Schlücke">
    <g>
      <path class="cls-3" d="M9.55,250.32s0,.17,0,.37c0,.2,0,.41-.01.64,0,.23-.01.43-.02.61,0,.18-.01.27-.01.28-.03.08-.13.14-.31.17-.17.03-.36.05-.58.06s-.42,0-.62,0c-.2,0-.34-.01-.42-.01-.04,0-.09,0-.15,0-.06,0-.12,0-.18,0s-.12,0-.17-.02c-.05-.02-.09-.04-.1-.08,0-.02-.01-.07-.01-.16s0-.21,0-.35.01-.29.02-.45.01-.31.02-.46c0-.15,0-.28.01-.39,0-.11,0-.19,0-.24-.07,0-.21,0-.43.01s-.43.01-.67.02c-.23,0-.44,0-.64,0-.19,0-.31-.02-.35-.04-.06-.03-.11-.09-.13-.17,0-.03-.01-.15-.01-.34s0-.41.01-.65c0-.24.02-.46.03-.66.01-.2.02-.33.03-.39.02-.11.07-.19.16-.24.04-.02.15-.04.33-.05.18-.01.38-.02.59-.03s.42-.01.61-.02c.2,0,.33,0,.4,0,0-.07,0-.2-.02-.38-.02-.18-.03-.37-.04-.56,0-.19-.01-.37-.02-.53s0-.27.03-.31c.04-.07.1-.12.17-.14.02,0,.13-.01.33-.02.2,0,.41,0,.65,0,.24,0,.46,0,.67.01s.34,0,.39.02c.05,0,.09.02.14.04.04.02.08.05.1.1.02.06.05.17.07.34s.04.35.05.55c.01.2.02.38.04.56.01.18.02.31.02.39.12,0,.26,0,.41,0,.16,0,.31,0,.47.01.16,0,.32.01.47.02s.28.03.4.05c.06.05.11.09.14.13.03.04.05.1.05.19v.63c0,.16,0,.32,0,.5s0,.34-.01.49c0,.15,0,.27-.01.37,0,.1-.01.15-.02.16-.02.04-.12.06-.3.06s-.37,0-.58-.02c-.21-.01-.42-.03-.61-.05-.2-.02-.33-.03-.39-.03Z"/>
      <path class="cls-3" d="M14.79,247.02c.17-.03.35-.06.53-.08.19-.02.38-.03.56-.02.19,0,.37.04.55.08.18.05.34.12.49.23.3.22.55.5.73.82s.31.67.37,1.05c.06.38.07.76.03,1.15-.04.39-.14.75-.3,1.1-.16.34-.36.65-.62.92-.26.27-.57.47-.93.59-.22.08-.44.13-.67.15-.23.02-.46.02-.69,0-.06,0-.17-.03-.33-.05-.16-.03-.33-.07-.53-.12-.2-.05-.4-.11-.61-.17-.21-.06-.41-.12-.58-.19-.18-.07-.32-.14-.44-.21-.12-.07-.17-.14-.17-.22,0-.02.03-.09.1-.21.06-.12.14-.26.22-.42.08-.16.16-.31.23-.45.07-.14.12-.25.14-.31,0-.03.02-.08.04-.13.02-.06.04-.11.07-.16.02-.05.05-.1.09-.13s.08-.05.13-.04c.38.26.72.42,1.01.48.29.06.54.07.74,0,.2-.06.36-.17.48-.32.12-.15.19-.32.22-.5.03-.18,0-.35-.05-.52s-.17-.3-.32-.41c-.12-.08-.27-.13-.44-.14-.17-.01-.35,0-.53.02s-.37.06-.56.1-.37.09-.53.13c-.16.04-.3.07-.43.08-.12.01-.21,0-.26-.04-.06-.05-.11-.19-.15-.44-.04-.24-.06-.53-.08-.87s-.02-.7-.02-1.08.02-.74.04-1.07c.02-.33.04-.61.07-.84.03-.23.06-.36.09-.39.02-.02.16-.06.41-.1.25-.04.56-.08.92-.12.36-.04.75-.08,1.17-.13.42-.04.81-.08,1.18-.11.36-.03.68-.06.94-.08.26-.02.42-.03.47-.02.06,0,.11.03.14.08.03.04.05.09.07.15.01.06.02.12.02.18,0,.06,0,.12,0,.17,0,.08,0,.2.01.35,0,.15,0,.31,0,.47s-.02.31-.04.45-.06.24-.11.29c-.06.07-.15.11-.26.11-.11,0-.21,0-.29-.02-.36-.06-.75-.09-1.16-.1-.42,0-.81,0-1.18.02,0,.18-.01.35-.02.52s0,.34.02.52Z"/>
    </g>
    <g>
      <path class="cls-3" d="M152.82,17.28s0,.17,0,.37c0,.2,0,.41-.01.64,0,.23-.01.43-.02.61,0,.18-.01.27-.01.28-.03.08-.13.14-.31.17-.17.03-.36.05-.58.06s-.42,0-.62,0c-.2,0-.34-.01-.42-.01-.04,0-.09,0-.15,0-.06,0-.12,0-.18,0s-.12,0-.17-.02c-.05-.02-.09-.04-.1-.08,0-.02-.01-.07-.01-.16s0-.21,0-.35.01-.29.02-.45.01-.31.02-.46c0-.15,0-.28.01-.39,0-.11,0-.19,0-.24-.07,0-.21,0-.43.01s-.43.01-.67.02c-.23,0-.44,0-.64,0-.19,0-.31-.02-.35-.04-.06-.03-.11-.09-.13-.17,0-.03-.01-.15-.01-.34s0-.41.01-.65c0-.24.02-.46.03-.66.01-.2.02-.33.03-.39.02-.11.07-.19.16-.24.04-.02.15-.04.33-.05.18-.01.38-.02.59-.03s.42-.01.61-.02c.2,0,.33,0,.4,0,0-.07,0-.2-.02-.38-.02-.18-.03-.37-.04-.56,0-.19-.01-.37-.02-.53s0-.27.03-.31c.04-.07.1-.12.17-.14.02,0,.13-.01.33-.02.2,0,.41,0,.65,0,.24,0,.46,0,.67.01s.34,0,.39.02c.05,0,.09.02.14.04.04.02.08.05.1.1.02.06.05.17.07.34s.04.35.05.55c.01.2.02.38.04.56.01.18.02.31.02.39.12,0,.26,0,.41,0,.16,0,.31,0,.47.01.16,0,.32.01.47.02s.28.03.4.05c.06.05.11.09.14.13.03.04.05.1.05.19v.63c0,.16,0,.32,0,.5s0,.34-.01.49c0,.15,0,.27-.01.37,0,.1-.01.15-.02.16-.02.04-.12.06-.3.06s-.37,0-.58-.02c-.21-.01-.42-.03-.61-.05-.2-.02-.33-.03-.39-.03Z"/>
      <path class="cls-3" d="M158.07,13.98c.17-.03.35-.06.53-.08.19-.02.38-.03.56-.02.19,0,.37.04.55.08.18.05.34.12.49.23.3.22.55.5.73.82s.31.67.37,1.05c.06.38.07.76.03,1.15-.04.39-.14.75-.3,1.1-.16.34-.36.65-.62.92-.26.27-.57.47-.93.59-.22.08-.44.13-.67.15-.23.02-.46.02-.69,0-.06,0-.17-.03-.33-.05-.16-.03-.33-.07-.53-.12-.2-.05-.4-.11-.61-.17-.21-.06-.41-.12-.58-.19-.18-.07-.32-.14-.44-.21-.12-.07-.17-.14-.17-.22,0-.02.03-.09.1-.21.06-.12.14-.26.22-.42.08-.16.16-.31.23-.45.07-.14.12-.25.14-.31,0-.03.02-.08.04-.13.02-.06.04-.11.07-.16.02-.05.05-.1.09-.13s.08-.05.13-.04c.38.26.72.42,1.01.48.29.06.54.07.74,0,.2-.06.36-.17.48-.32.12-.15.19-.32.22-.5.03-.18,0-.35-.05-.52s-.17-.3-.32-.41c-.12-.08-.27-.13-.44-.14-.17-.01-.35,0-.53.02s-.37.06-.56.1-.37.09-.53.13c-.16.04-.3.07-.43.08-.12.01-.21,0-.26-.04-.06-.05-.11-.19-.15-.44-.04-.24-.06-.53-.08-.87s-.02-.7-.02-1.08.02-.74.04-1.07c.02-.33.04-.61.07-.84.03-.23.06-.36.09-.39.02-.02.16-.06.41-.1.25-.04.56-.08.92-.12.36-.04.75-.08,1.17-.13.42-.04.81-.08,1.18-.11.36-.03.68-.06.94-.08.26-.02.42-.03.47-.02.06,0,.11.03.14.08.03.04.05.09.07.15.01.06.02.12.02.18,0,.06,0,.12,0,.17,0,.08,0,.2.01.35,0,.15,0,.31,0,.47s-.02.31-.04.45-.06.24-.11.29c-.06.07-.15.11-.26.11-.11,0-.21,0-.29-.02-.36-.06-.75-.09-1.16-.1-.42,0-.81,0-1.18.02,0,.18-.01.35-.02.52s0,.34.02.52Z"/>
    </g>
  </g>
  <g id="Motive">
    <g>
      <path class="cls-2" d="M89.61,124.74l6.45,19.75c1.78,7.57-8.49,10.81-11.48,3.77-2.14-8.15-6.09-16.48-8.08-24.58s7.83-8.89,12.86-12.18c1.3-1.22,1.34-2.94-.2-3.99-1.27-.87-3.72-1.57-5.25-2.45-3.18-1.82-5.8-4.33-8.16-7.1-2.14.5-3.94,1.36-6.17.66-5.87-1.86-4.1-10.04-2.98-14.55,1.53-6.12,6.46-8.54,12.36-9.07,6.38-.57,12.85-.62,19.24-1.15,2.21.22,3.66,1.65,4.34,3.7,1.78,5.37,2.66,11.5,4.31,16.96.14,1.73-.72,3.26-2.01,4.35,5.3,3.24,7.11,10.14,3.49,15.38-1.73,2.5-4.79,3.93-7.45,5.28-3.69,1.87-7.54,3.46-11.28,5.22ZM97.65,97.1l-3.51-13.32-11.32.76c1.24,7.26,7.89,11.67,14.83,12.56Z"/>
      <path class="cls-2" d="M64.28,58.96c12.26-1.66,13.78,16.34,2.62,17.52-12.04,1.27-13.29-16.08-2.62-17.52Z"/>
      <path class="cls-2" d="M94.29,62.78c.17.76-.56,1.19-1.16,1.41-1.49.55-3.85.25-5.39-.13-4.41-1.08-8.66-6-13.19-3.38-.38.22-.86.17-1.2-.12l-1.01-.84c-.4-.33-.51-.91-.25-1.36,1.35-2.37,4.15-4.43,6.86-4.28,4.56.26,7.59,5.26,11.22,7.38,1.4.82,2.56.99,4.12,1.32Z"/>
    </g>
  </g>
  <g id="Kateg._Symbol" data-name="Kateg. Symbol">
    <g id="jCvsG5">
      <path class="cls-4" d="M14.94,10.67c.12-.09.3,0,.29.15-.04.89.15,1.8.59,2.57.7,1.21,1.87,1.54,2.22,3.08.71,3.1-2.81,5.2-5.44,3.74-1.15-.63-1.88-2.3-1.74-3.58.07-.65.37-1.28.78-1.78.1-.12.29-.09.35.05.29.68.74,1.35,1.45,1.62.21.08.41.15.61,0,.33-.24.03-.63-.08-.9-.74-1.8-.57-3.64.95-4.94,0,0,0,0,.01,0h0Z"/>
    </g>
    <g id="jCvsG5-2" data-name="jCvsG5">
      <path class="cls-4" d="M151.86,243.26c.12-.09.3,0,.29.15-.04.89.15,1.8.59,2.57.7,1.21,1.87,1.54,2.22,3.08.71,3.1-2.81,5.2-5.44,3.74-1.15-.63-1.88-2.3-1.74-3.58.07-.65.37-1.28.78-1.78.1-.12.29-.09.35.05.29.68.74,1.35,1.45,1.62.21.08.41.15.61,0,.33-.24.03-.63-.08-.9-.74-1.8-.57-3.64.95-4.94,0,0,0,0,.01,0h0Z"/>
    </g>
  </g>
  <g id="Kartentext">
    <g>
      <g>
        <path class="cls-4" d="M36.54,173.4h-1.59v5.34c0,.31-.24.55-.55.55s-.55-.24-.55-.55v-5.34h-1.58c-.31,0-.55-.26-.55-.56s.24-.55.55-.55h4.27c.3,0,.55.24.55.55s-.25.56-.55.56Z"/>
        <path class="cls-4" d="M43.85,175.09l-1.65,3.88s-.02.05-.04.08c0,0-.01,0-.01,0,0,.02-.03.04-.05.06,0,0-.02,0-.02,0-.02.02-.04.04-.06.05,0,0,0,0,0,.02-.03.02-.05.04-.09.05,0,0-.01,0-.01,0-.02,0-.05,0-.08.02h-.02s-.06,0-.1,0c-.03,0-.06,0-.09,0h-.02s-.04-.02-.07-.02h-.02s-.06-.04-.09-.07h0s-.04-.04-.06-.06c0,0-.02,0-.02,0-.02-.02-.04-.04-.05-.06,0,0,0,0,0,0-.02-.03-.03-.06-.04-.08l-.73-1.73-.71,1.73s-.03.05-.05.08h0s-.04.05-.06.07c0,0,0,0,0,0-.02.02-.04.04-.06.06-.04.03-.06.05-.09.06h-.02s-.01,0-.01,0c-.02,0-.05,0-.06.02h-.02s-.07,0-.1,0c-.04,0-.07,0-.1,0h-.03s-.04-.02-.06-.02t-.02,0s-.07-.03-.09-.06t-.01,0s-.03-.03-.06-.05h-.02s-.03-.05-.04-.07t-.01,0s-.03-.06-.05-.08l-1.64-3.88c-.12-.27,0-.57.29-.69.24-.11.55,0,.66.3l1.18,2.69.7-1.67c.09-.2.28-.32.49-.32.22,0,.41.12.49.32l.71,1.67,1.18-2.69c.1-.29.42-.41.67-.3.27.12.41.42.29.69Z"/>
      </g>
      <path class="cls-4" d="M44.88,176.79c.01-1.36,1.07-2.5,2.44-2.5,1.3,0,2.33.97,2.41,2.32v.05s0,.07-.01.09c-.03.24-.24.4-.52.4h-3.18c.05.23.16.49.34.66.21.24.61.42.96.45.36.03.79-.06,1.04-.25.21-.22.62-.19.75-.03.13.14.23.44,0,.65-.49.45-1.08.66-1.79.66-1.37,0-2.43-1.14-2.44-2.5ZM45.97,176.3h2.83c-.1-.4-.61-.99-1.48-1.06-.85.04-1.27.65-1.35,1.06Z"/>
      <g>
        <path class="cls-4" d="M53.99,174.82c0,.28-.23.53-.53.53-.23,0-.43.06-.6.19-.19.12-.34.29-.46.48-.24.32-.36.7-.41.84v1.9c0,.29-.25.53-.55.53s-.53-.24-.53-.53v-3.94c0-.29.24-.52.53-.52s.55.23.55.52v.07c.06-.07.14-.15.21-.2.33-.22.76-.4,1.26-.39.3,0,.53.23.53.52Z"/>
        <path class="cls-4" d="M55.1,178.74v-5.9c0-.3.24-.55.55-.55s.56.25.56.55v3.46l2.05-2.05c.21-.21.57-.21.78,0,.22.22.22.57,0,.78l-1.5,1.5,1.54,1.85c.19.24.16.59-.08.78-.1.09-.23.13-.35.13-.16,0-.32-.07-.42-.2l-1.47-1.78-.55.55v.88c0,.3-.25.55-.56.55s-.55-.25-.55-.55Z"/>
        <path class="cls-4" d="M66.82,175.13l-2.26,3.1h1.84c.28,0,.53.23.53.53s-.25.53-.53.53h-2.89s-.06,0-.1,0h-.03s-.04-.02-.06-.02c-.02,0-.03,0-.04-.02-.01,0-.03-.02-.04-.02-.01-.02-.02-.02-.02-.03t-.01,0s-.02,0-.03-.02c0-.01-.04-.03-.04-.03-.02-.03-.03-.04-.04-.05,0-.02-.02-.03-.03-.04-.02,0-.02-.02-.02-.04-.02,0-.03-.02-.03-.05,0,0,0-.02-.02-.05,0-.01-.01-.03-.01-.04v-.07s0-.02,0-.03h0s0-.06,0-.08v-.04s.01-.03.02-.05c0-.02,0-.04,0-.05.01,0,.03-.03.03-.03,0-.02.02-.04.03-.05h.01l2.25-3.11h-1.83c-.28,0-.53-.23-.53-.53s.25-.53.53-.53h2.89s.04,0,.06,0h.05s.04,0,.05.02c.02,0,.04.01.05.01,0,0,.02.03.03.03.02,0,.04.02.06.03,0,0,0,0,0,0,.01,0,.02,0,.02.02.01,0,.03.02.05.05,0,0,.02.02.03.03.01.02.02.03.03.04,0,.01,0,.02.03.02,0,.03.02.04.02.06,0,.01,0,.03,0,.05.01.02.01.04.02.05v.06s.01.03.01.04h0s-.01.06-.01.06c0,.03,0,.04,0,.06,0,0,0,.03-.01.05,0,.02,0,.04-.03.05v.03s-.03.04-.05.05h0Z"/>
        <path class="cls-4" d="M70.62,179.29c-1.14,0-2.08-.94-2.08-2.08v-2.39c0-.28.24-.53.53-.53s.53.25.53.53v2.39c0,.57.45,1.02,1.02,1.02s1.04-.45,1.05-1.02v-2.39c0-.28.22-.53.52-.53.28,0,.54.25.54.53v2.39c0,1.14-.96,2.08-2.11,2.08Z"/>
        <path class="cls-4" d="M77.02,176.79c.01-1.36,1.07-2.5,2.44-2.5,1.3,0,2.33.97,2.41,2.32v.05s0,.07-.01.09c-.03.24-.24.4-.52.4h-3.18c.05.23.16.49.34.66.21.24.61.42.96.45.36.03.79-.06,1.04-.25.21-.22.62-.19.75-.03.13.14.23.44,0,.65-.49.45-1.08.66-1.79.66-1.37,0-2.43-1.14-2.44-2.5ZM78.11,176.3h2.83c-.1-.4-.61-.99-1.48-1.06-.85.04-1.27.65-1.35,1.06Z"/>
        <path class="cls-4" d="M84.35,173.04c0,.3-.23.55-.54.55s-.54-.25-.54-.55v-.21c0-.3.24-.54.54-.54s.54.24.54.54v.21ZM84.35,174.85v3.9c0,.3-.23.54-.54.54s-.54-.24-.54-.54v-3.9c0-.32.24-.55.54-.55s.54.23.54.55Z"/>
        <path class="cls-4" d="M90.04,176.37v2.39c0,.29-.23.53-.52.53s-.53-.24-.53-.53v-2.39c0-.56-.47-1.01-1.04-1.01s-1,.45-1,1.01v2.39s0,.06-.02.1c-.05.24-.27.43-.53.43-.3,0-.53-.24-.53-.53v-3.94c0-.29.23-.53.53-.53.21,0,.4.12.49.31.3-.19.67-.31,1.06-.31,1.16,0,2.09.95,2.09,2.08Z"/>
        <path class="cls-4" d="M91.45,176.79c0-1.36,1.07-2.5,2.44-2.5,1.3,0,2.33.97,2.41,2.32v.05s0,.07,0,.09c-.03.24-.24.4-.52.4h-3.18c.05.23.16.49.34.66.21.24.61.42.96.45.36.03.79-.06,1.04-.25.21-.22.62-.19.75-.03.13.14.23.44,0,.65-.49.45-1.08.66-1.79.66-1.37,0-2.43-1.14-2.44-2.5ZM92.54,176.3h2.83c-.1-.4-.61-.99-1.48-1.06-.85.04-1.27.65-1.35,1.06Z"/>
        <path class="cls-4" d="M101.87,176.36v2.4c0,.29-.24.53-.53.53s-.54-.24-.54-.53v-2.4c-.01-.55-.47-1-1.03-1s-1.01.46-1.01,1.03v2.37s0,.05,0,.07v.03s-.01.04-.03.06v.05c-.09.18-.29.32-.5.32-.04,0-.07,0-.1,0-.24-.06-.43-.26-.43-.52v-2.37h0v-1.56c0-.31.24-.54.53-.54.21,0,.4.11.48.3.32-.19.69-.3,1.07-.3.63,0,1.19.26,1.57.69.37-.43.94-.69,1.57-.69,1.15,0,2.08.94,2.08,2.1v2.37c0,.29-.24.53-.53.53s-.54-.24-.54-.53v-2.37c0-.57-.46-1.03-1.01-1.03s-1.02.45-1.04,1Z"/>
        <path class="cls-4" d="M109.69,177.55c.18-.22.51-.25.73-.07.44.36,1.2.78,1.91.77.5,0,.95-.15,1.25-.37s.43-.47.43-.72c0-.13-.03-.22-.09-.32-.06-.1-.15-.2-.3-.3-.29-.19-.78-.36-1.37-.47h-.02c-.47-.09-.91-.21-1.29-.39-.38-.18-.71-.43-.93-.78-.15-.24-.23-.52-.23-.82,0-.6.34-1.12.8-1.46.47-.34,1.08-.53,1.73-.53.96,0,1.67.47,2.18.8.23.16.3.48.14.71-.15.24-.47.31-.71.15-.51-.34-1-.64-1.61-.64-.45,0-.85.14-1.12.34-.27.2-.38.42-.38.63,0,.12.02.2.07.28s.14.17.27.26c.26.18.71.34,1.25.44h.02c.51.1.98.23,1.38.42.41.2.77.46,1,.83.15.24.24.54.24.85,0,.64-.36,1.19-.86,1.55-.49.36-1.14.57-1.85.57-1.08-.01-1.99-.55-2.56-1-.22-.18-.25-.51-.08-.73Z"/>
        <path class="cls-4" d="M116.73,178.56c-.43-.44-.69-1.06-.69-1.76s.26-1.27.69-1.75c.45-.47,1.03-.76,1.72-.76s1.26.29,1.67.76c.45.48.7,1.07.7,1.75s-.25,1.32-.7,1.76c-.41.47-1.01.76-1.67.76s-1.27-.29-1.72-.76ZM117.13,176.8c0,.43.13.78.36,1.06.25.24.58.37.96.37.35,0,.67-.13.92-.37.25-.28.39-.63.39-1.06s-.14-.77-.39-1.04c-.25-.22-.57-.38-.92-.38-.38,0-.71.16-.96.38-.23.27-.36.63-.36,1.04Z"/>
        <path class="cls-4" d="M126.49,176.37v2.39c0,.29-.23.53-.52.53s-.53-.24-.53-.53v-2.39c0-.56-.47-1.01-1.04-1.01s-1,.45-1,1.01v2.39s0,.06-.02.1c-.05.24-.27.43-.53.43-.3,0-.53-.24-.53-.53v-3.94c0-.29.23-.53.53-.53.21,0,.4.12.49.31.3-.19.67-.31,1.06-.31,1.16,0,2.09.95,2.09,2.08Z"/>
        <path class="cls-4" d="M132.72,176.82v1.86c0,1.31-1.07,2.4-2.4,2.4-.37,0-.74-.09-1.05-.25-.26-.12-.38-.45-.24-.72.13-.27.44-.37.72-.25.17.09.36.14.57.14.65,0,1.18-.46,1.31-1.07-.36.25-.82.4-1.31.4-.66,0-1.27-.29-1.7-.76-.43-.44-.7-1.06-.7-1.76s.27-1.31.7-1.78c.43-.45,1.04-.74,1.7-.74.52,0,.98.16,1.34.42.05-.24.27-.42.53-.42.3,0,.53.24.53.53v1.99h0ZM131.65,176.81c0-.4-.16-.78-.38-1.02-.26-.28-.57-.43-.95-.43-.35,0-.68.15-.92.43-.24.24-.4.62-.4,1.02s.16.8.4,1.03c.24.27.57.41.92.41.38,0,.69-.14.95-.41.22-.23.38-.61.38-1.03Z"/>
        <path class="cls-4" d="M135.28,177.87c.41,0,.75.34.75.75s-.34.74-.75.74-.74-.33-.74-.74.33-.75.74-.75Z"/>
      </g>
    </g>
  </g>
</svg>