<?xml version="1.0" encoding="UTF-8"?>
<svg xmlns="http://www.w3.org/2000/svg" viewBox="0 0 167.24 260.79">
  <defs>
    <style>
      .cls-1 {
        fill: #010101;
      }

      .cls-2 {
        fill: #171717;
      }

      .cls-3 {
        stroke: #fff;
        stroke-miterlimit: 10;
        stroke-width: .15px;
      }

      .cls-3, .cls-4 {
        fill: #fff;
      }

      .cls-5 {
        fill: #171715;
      }

      .cls-6 {
        fill: #8d74b0;
      }
    </style>
  </defs>
  <g id="Background">
    <rect class="cls-6" width="167.24" height="260.79"/>
  </g>
  <g id="Rahmen">
    <path class="cls-1" d="M151.9,23.16c9.65,0,9.67-15,0-15s-9.67,15,0,15h0Z"/>
    <path class="cls-1" d="M152.22,254.59c9.65,0,9.67-15,0-15s-9.67,15,0,15h0Z"/>
    <path class="cls-1" d="M14.14,254.72c9.65,0,9.67-15,0-15s-9.67,15,0,15h0Z"/>
    <path class="cls-2" d="M11.56,15.67c18.49.32,36.98.69,55.46,1.04,19.51.36,39.05-.42,58.56-.82,10.18-.21,20.36-.38,30.54-.21l-3.75-3.75c-1.46,11.81-1.7,23.8-1.97,35.69-.33,14.15-.39,28.31-.37,42.46.01,9.3.14,18.61.07,27.91-.06,7.86-.43,15.71-.48,23.57-.07,11.29.08,22.59.37,33.88.56,22.38,1.59,44.74,2.18,67.12.07,2.79.14,5.57.2,8.36l3.75-3.75c-15.41-.13-30.81.06-46.22.48-24.85.69-49.67.84-74.52.24-8.25-.2-16.49-.49-24.74-.73l3.75,3.75c-.56-4.87-.34-9.89-.27-14.78.11-8.38.38-16.76.66-25.14.66-20.11,1.45-40.22,1.83-60.34.16-8.4.26-16.81.05-25.21-.13-5.24-.51-10.46-.61-15.7-.33-17.03-.19-34.08-.18-51.11,0-8.91,0-17.82-.06-26.73-.04-5.94-.04-11.89-.34-17.82-.04-.72-.08-1.43-.15-2.15-.19-1.95-1.59-3.85-3.75-3.75-1.87.08-3.96,1.66-3.75,3.75.48,4.83.39,9.76.44,14.61.09,8.42.1,16.84.11,25.25,0,17.78-.1,35.55.11,53.33.06,5.22.27,10.41.52,15.62.36,7.73.31,15.47.21,23.21-.24,20.03-1.02,40.04-1.7,60.06-.3,8.95-.6,17.9-.79,26.85-.13,5.9-.3,11.84,0,17.74.04.78.09,1.55.18,2.32.24,2.06,1.53,3.69,3.75,3.75,18.27.53,36.53,1.09,54.81,1.16,23.38.09,46.73-.97,70.1-1.19,6.85-.06,13.71-.03,20.56.02,2,.02,3.79-1.73,3.75-3.75-.48-22.44-1.5-44.87-2.16-67.3-.33-11.25-.57-22.51-.6-33.77-.03-10.16.25-20.29.47-30.44.18-8.23-.03-16.48-.05-24.72-.03-13.94,0-27.88.25-41.82.23-12.54.48-25.14,1.72-37.62.11-1.1.23-2.21.37-3.31.25-2.04-1.92-3.72-3.75-3.75-19.14-.32-38.3.42-57.44.81-9.78.2-19.58.45-29.37.27-7.76-.14-15.52-.3-23.28-.45-11.49-.22-22.99-.44-34.48-.63-1.96-.03-3.84,1.75-3.75,3.75s1.65,3.71,3.75,3.75h0Z"/>
    <polygon class="cls-2" points="26.61 14.43 14.5 29.16 14.18 13.04 26.61 14.43"/>
    <polygon class="cls-2" points="140.79 14.16 152.35 27.66 154.57 11.89 140.79 14.16"/>
    <polygon class="cls-2" points="139.48 248.15 153.14 235.93 156.07 248.65 139.48 248.15"/>
    <polygon class="cls-2" points="12.9 235.54 26.24 248.54 12.31 249.36 12.9 235.54"/>
    <rect class="cls-2" width="10.32" height="260.79"/>
    <rect class="cls-2" y="249.36" width="167.24" height="11.43"/>
    <rect class="cls-5" width="167.24" height="10.33"/>
    <rect class="cls-2" x="156.12" width="11.13" height="260.79"/>
    <path class="cls-2" d="M117.73,17.19c0-.85.31-3.85,0-4.78-.82-2.49-3.11-2.81-5.35-2.81h-57.51c-2.24,0-4.53.32-5.35,2.81-.31.93,0,3.93,0,4.78l-.25,5.71c-.49,5.31,7.64,4.59,10.71,4.59l17.71.37,5.93-.07h0l5.93.07,17.71-.37c3.08,0,11.2.72,10.71-4.59l-.24-5.71Z"/>
    <path class="cls-1" d="M151.9,23.16c9.65,0,9.67-15,0-15s-9.67,15,0,15h0Z"/>
    <path class="cls-1" d="M152.22,254.59c9.65,0,9.67-15,0-15s-9.67,15,0,15h0Z"/>
    <path class="cls-1" d="M14.14,254.72c9.65,0,9.67-15,0-15s-9.67,15,0,15h0Z"/>
    <path class="cls-2" d="M11.56,15.67c18.49.32,36.98.69,55.46,1.04,19.51.36,39.05-.42,58.56-.82,10.18-.21,20.36-.38,30.54-.21l-3.75-3.75c-1.46,11.81-1.7,23.8-1.97,35.69-.33,14.15-.39,28.31-.37,42.46.01,9.3.14,18.61.07,27.91-.06,7.86-.43,15.71-.48,23.57-.07,11.29.08,22.59.37,33.88.56,22.38,1.59,44.74,2.18,67.12.07,2.79.14,5.57.2,8.36l3.75-3.75c-15.41-.13-30.81.06-46.22.48-24.85.69-49.67.84-74.52.24-8.25-.2-16.49-.49-24.74-.73l3.75,3.75c-.56-4.87-.34-9.89-.27-14.78.11-8.38.38-16.76.66-25.14.66-20.11,1.45-40.22,1.83-60.34.16-8.4.26-16.81.05-25.21-.13-5.24-.51-10.46-.61-15.7-.33-17.03-.19-34.08-.18-51.11,0-8.91,0-17.82-.06-26.73-.04-5.94-.04-11.89-.34-17.82-.04-.72-.08-1.43-.15-2.15-.19-1.95-1.59-3.85-3.75-3.75-1.87.08-3.96,1.66-3.75,3.75.48,4.83.39,9.76.44,14.61.09,8.42.1,16.84.11,25.25,0,17.78-.1,35.55.11,53.33.06,5.22.27,10.41.52,15.62.36,7.73.31,15.47.21,23.21-.24,20.03-1.02,40.04-1.7,60.06-.3,8.95-.6,17.9-.79,26.85-.13,5.9-.3,11.84,0,17.74.04.78.09,1.55.18,2.32.24,2.06,1.53,3.69,3.75,3.75,18.27.53,36.53,1.09,54.81,1.16,23.38.09,46.73-.97,70.1-1.19,6.85-.06,13.71-.03,20.56.02,2,.02,3.79-1.73,3.75-3.75-.48-22.44-1.5-44.87-2.16-67.3-.33-11.25-.57-22.51-.6-33.77-.03-10.16.25-20.29.47-30.44.18-8.23-.03-16.48-.05-24.72-.03-13.94,0-27.88.25-41.82.23-12.54.48-25.14,1.72-37.62.11-1.1.23-2.21.37-3.31.25-2.04-1.92-3.72-3.75-3.75-19.14-.32-38.3.42-57.44.81-9.78.2-19.58.45-29.37.27-7.76-.14-15.52-.3-23.28-.45-11.49-.22-22.99-.44-34.48-.63-1.96-.03-3.84,1.75-3.75,3.75s1.65,3.71,3.75,3.75h0Z"/>
    <polygon class="cls-2" points="26.61 14.43 14.5 29.16 14.18 13.04 26.61 14.43"/>
    <polygon class="cls-2" points="140.79 14.16 152.35 27.66 154.57 11.89 140.79 14.16"/>
    <polygon class="cls-2" points="139.48 248.15 153.14 235.93 156.07 248.65 139.48 248.15"/>
    <polygon class="cls-2" points="12.9 235.54 26.24 248.54 12.31 249.36 12.9 235.54"/>
    <rect class="cls-2" width="10.32" height="260.79"/>
    <rect class="cls-2" y="249.36" width="167.24" height="11.43"/>
    <rect class="cls-5" width="167.24" height="10.33"/>
    <rect class="cls-2" x="156.12" width="11.13" height="260.79"/>
  </g>
  <g id="Kategorie_Name" data-name="Kategorie Name">
    <g>
      <path class="cls-6" d="M56.65,21.16c-.01.07-.02.17-.03.31s-.02.29-.04.44c-.01.15-.04.29-.06.42s-.05.21-.08.25c-.03.03-.15.06-.36.07-.21.02-.44.03-.7.03-.25,0-.5,0-.73,0h-.45c-.18,0-.32-.02-.42-.05-.1-.03-.12-.17-.08-.41.03-.15.08-.42.15-.81.07-.39.15-.85.24-1.39.09-.54.19-1.13.31-1.77.11-.64.23-1.28.35-1.92.11-.64.23-1.27.34-1.87.11-.6.21-1.14.31-1.62.1-.47.18-.86.25-1.15.07-.29.12-.45.15-.47.02-.01.06-.02.12-.02.06,0,.13,0,.2,0s.15,0,.22,0c.07,0,.12,0,.15,0,.63.02,1.24,0,1.83-.07.59-.07,1.2-.12,1.83-.18.1-.01.19.02.26.08.07.07.12.15.17.25.04.1.07.2.1.32s.05.22.07.3c.17.75.3,1.5.38,2.26.08.75.17,1.5.25,2.26.09.86.17,1.74.23,2.64.06.9.18,1.77.35,2.62,0,.05.02.12.04.21.02.09.03.18.04.28,0,.1,0,.19,0,.27,0,.08-.04.14-.1.17-.03.02-.12.04-.28.05-.16.01-.36.02-.58.03-.23,0-.48,0-.75,0s-.52,0-.76,0c-.23,0-.44-.01-.61-.02-.18,0-.28-.01-.32-.02-.1-.02-.16-.07-.17-.15-.05-.21-.07-.42-.07-.65,0-.23,0-.45-.02-.67-.28-.03-.56-.05-.85-.04-.28,0-.57,0-.85,0ZM57.91,14.04c-.17.82-.33,1.63-.47,2.43-.15.8-.29,1.61-.43,2.43.2-.02.4-.04.61-.05s.42,0,.62.02c-.04-.81-.09-1.61-.16-2.41s-.12-1.6-.17-2.41Z"/>
      <path class="cls-6" d="M67.76,22.32c-.41.12-.83.17-1.27.16s-.85-.1-1.26-.25c-.4-.15-.78-.37-1.12-.65-.34-.29-.62-.65-.83-1.07-.2-.39-.35-.82-.46-1.27s-.18-.9-.23-1.35c-.01-.11-.02-.3-.03-.59-.01-.28-.01-.6,0-.96s.02-.72.04-1.11c.02-.39.05-.74.08-1.07.03-.33.08-.6.15-.81s.14-.32.23-.33c.06-.01.22,0,.49,0,.26.02.55.04.85.06.3.02.58.05.84.07.26.03.42.05.49.06.11.02.16.09.15.21-.01.12-.02.22-.03.31-.05.35-.08.71-.09,1.07-.01.37-.02.72-.03,1.07,0,.17,0,.43,0,.76,0,.33.04.65.1.96.06.31.17.56.33.76.15.2.38.24.67.13.2-.08.36-.22.5-.44.13-.21.22-.48.26-.82s.06-.71.05-1.13c-.01-.41-.04-.84-.09-1.29-.05-.45-.11-.88-.17-1.3-.06-.42-.13-.81-.19-1.18s-.1-.67-.13-.92c-.02-.11-.02-.2.01-.27.03-.07.1-.12.21-.14.07-.01.24-.03.51-.06s.56-.05.86-.07c.31-.02.58-.04.83-.04.25,0,.4,0,.44.02.06.03.11.13.17.29.05.16.09.33.13.51s.07.37.1.55.04.31.05.38c.05.36.1.78.15,1.25.05.47.09.97.11,1.5s.03,1.05.02,1.59c0,.54-.05,1.06-.12,1.56-.07.5-.17.97-.3,1.4s-.31.8-.52,1.1c-.24.34-.53.62-.88.83-.35.22-.71.38-1.09.49Z"/>
      <path class="cls-6" d="M74.54,18.21v2.46c0,.38,0,.72,0,1.04s-.01.58-.02.79c0,.21-.02.32-.03.33-.01.01-.08.02-.21.04-.13.02-.29.03-.47.03s-.39.01-.61.02c-.22,0-.43.01-.62.02-.19,0-.35,0-.49,0-.13,0-.22-.01-.25-.02-.08-.03-.13-.09-.16-.18-.03-.09-.04-.17-.04-.25,0-.27,0-.72-.02-1.36-.01-.63-.02-1.35-.02-2.15,0-.8,0-1.64,0-2.51s0-1.69.02-2.44c.01-.76.04-1.41.07-1.95.04-.54.08-.89.14-1.05.05-.12.12-.21.21-.28.04-.02.21-.04.5-.05s.66-.01,1.09,0c.43,0,.89.01,1.4.02.5.01.97.02,1.42.04.45.02.84.04,1.17.06.33.02.54.04.63.05.02,0,.05.01.1.04.04.03.07.05.08.07.02.04.02.11,0,.19-.01.08-.03.15-.04.2-.02.15-.03.34-.04.56,0,.22-.02.44-.03.67-.01.23-.03.45-.05.66-.02.21-.05.38-.09.5-.09.07-.29.1-.61.11-.31,0-.65,0-1.02,0-.37-.01-.72-.03-1.06-.05-.34-.02-.59-.03-.74-.03-.03.23-.06.46-.08.68-.03.22-.05.45-.07.68.51-.04,1.03-.09,1.56-.15s1.05-.07,1.56-.05c.1,0,.16.03.18.08.02.04.03.11.04.21,0,.1.02.2.02.31v.56c0,.08,0,.21.01.41.01.2.02.4.02.62s0,.42-.02.6c0,.18-.04.29-.07.33-.06.07-.25.11-.56.14-.31.03-.66.04-1.04.04s-.73,0-1.08-.02c-.34-.01-.58-.02-.7-.02Z"/>
      <path class="cls-6" d="M84.86,17.85c-.05,0-.13,0-.25.03-.11.02-.23.03-.36.03-.12,0-.24,0-.35,0s-.17-.01-.2-.03c-.04-.03-.07-.15-.1-.36s-.04-.44-.05-.69c0-.25,0-.48,0-.69.01-.21.03-.33.06-.37.05-.05.13-.08.25-.09.11,0,.21,0,.28,0,.42-.01.83,0,1.22.02s.8.02,1.22,0c.08-.01.19-.02.34-.03s.25,0,.32.02c.08.02.16.06.24.11s.13.12.15.21c.03.09.05.2.06.33,0,.14.02.28.02.42s0,.29,0,.43c0,.14,0,.26,0,.36-.02.56-.07,1.09-.14,1.59-.07.51-.21.98-.39,1.42-.19.44-.44.82-.77,1.14-.33.33-.77.59-1.31.78-.52.19-1.08.26-1.67.22-.6-.04-1.15-.16-1.66-.35-.3-.12-.58-.27-.85-.46-.27-.19-.51-.4-.72-.65-.29-.35-.53-.79-.72-1.33-.19-.54-.33-1.12-.41-1.75s-.12-1.28-.1-1.95c.02-.67.09-1.31.22-1.93.12-.62.3-1.18.52-1.7s.5-.94.82-1.27c.36-.36.78-.63,1.25-.82s.97-.3,1.48-.34c.51-.04,1.02-.02,1.52.06.5.09.97.23,1.4.43.05.02.12.05.21.1.09.04.18.1.27.16.09.06.17.12.25.18.07.06.12.12.13.19,0,.04-.03.16-.11.34s-.18.39-.28.6-.21.42-.31.62c-.1.2-.17.33-.19.39-.02.04-.05.11-.09.19-.04.08-.08.16-.13.25-.04.08-.09.16-.14.23-.05.07-.1.11-.13.12-.01,0-.08-.04-.2-.11s-.29-.16-.49-.25c-.2-.09-.42-.16-.67-.22-.25-.06-.49-.07-.74-.04-.25.03-.49.13-.72.3s-.42.44-.58.81c-.12.27-.2.63-.25,1.06-.04.44-.05.88-.01,1.34.03.46.12.88.26,1.27s.34.67.6.84c.21.14.44.21.68.21s.46-.06.66-.17.37-.28.5-.48.2-.45.21-.74Z"/>
      <path class="cls-6" d="M91.03,21.16c-.01.07-.02.17-.03.31s-.02.29-.04.44c-.01.15-.04.29-.06.42s-.05.21-.08.25c-.03.03-.15.06-.36.07-.21.02-.44.03-.7.03-.25,0-.5,0-.73,0h-.45c-.18,0-.32-.02-.42-.05-.1-.03-.12-.17-.08-.41.03-.15.08-.42.15-.81.07-.39.15-.85.24-1.39.09-.54.19-1.13.31-1.77.11-.64.23-1.28.35-1.92.11-.64.23-1.27.34-1.87.11-.6.21-1.14.31-1.62.1-.47.18-.86.25-1.15.07-.29.12-.45.15-.47.02-.01.06-.02.12-.02.06,0,.13,0,.2,0s.15,0,.22,0c.07,0,.12,0,.15,0,.63.02,1.24,0,1.83-.07.59-.07,1.2-.12,1.83-.18.1-.01.19.02.26.08.07.07.12.15.17.25.04.1.07.2.1.32s.05.22.07.3c.17.75.3,1.5.38,2.26.08.75.17,1.5.25,2.26.09.86.17,1.74.23,2.64.06.9.18,1.77.35,2.62,0,.05.02.12.04.21.02.09.03.18.04.28,0,.1,0,.19,0,.27,0,.08-.04.14-.1.17-.03.02-.12.04-.28.05-.16.01-.36.02-.58.03-.23,0-.48,0-.75,0s-.52,0-.76,0c-.23,0-.44-.01-.61-.02-.18,0-.28-.01-.32-.02-.1-.02-.16-.07-.17-.15-.05-.21-.07-.42-.07-.65,0-.23,0-.45-.02-.67-.28-.03-.56-.05-.85-.04-.28,0-.57,0-.85,0ZM92.29,14.04c-.17.82-.33,1.63-.47,2.43-.15.8-.29,1.61-.43,2.43.2-.02.4-.04.61-.05s.42,0,.62.02c-.04-.81-.09-1.61-.16-2.41s-.12-1.6-.17-2.41Z"/>
      <path class="cls-6" d="M103.52,16.63c.51.19.94.5,1.3.94s.6.92.74,1.45c.14.52.15,1.05.04,1.57-.12.52-.39.96-.83,1.31-.44.35-.87.59-1.28.74s-.88.23-1.41.28c-.48.03-.97.06-1.46.08-.49.02-.98.02-1.46,0-.08,0-.19,0-.33-.02s-.28-.03-.42-.06-.27-.06-.4-.09c-.12-.03-.22-.08-.28-.13-.05-.05-.1-.1-.14-.15-.04-.04-.08-.1-.1-.18-.08-.26-.12-.55-.13-.87-.01-.32-.03-.62-.06-.91-.11-1.11-.18-2.22-.2-3.33-.02-1.11,0-2.23.05-3.35.02-.38.04-.77.07-1.17.02-.4.04-.79.04-1.17v-.35c0-.07,0-.13,0-.19,0-.05.01-.09.02-.11,0-.04.08-.08.22-.11.13-.03.3-.05.5-.07.2-.02.42-.04.66-.04.24,0,.47-.01.69-.02.22,0,.42,0,.59,0h.37s.1,0,.15,0c.05,0,.1.02.15.06.06,0,.1.04.11.11.02.08.02.17.02.27s0,.21-.02.31c-.01.1-.02.18-.02.22.11-.11.22-.21.34-.29.12-.09.24-.17.37-.25.66-.36,1.25-.51,1.78-.44.53.07.97.26,1.33.6s.62.75.79,1.27c.17.51.21,1.04.15,1.57s-.25,1.03-.57,1.5c-.31.46-.77.81-1.37,1.04ZM100.46,14.37c-.01.22-.02.44-.03.65-.01.22-.02.44-.02.65.2-.01.4-.02.6-.02.2,0,.39-.05.57-.14.19-.1.33-.24.43-.42.09-.19.14-.37.15-.56,0-.19-.04-.34-.13-.47-.09-.13-.23-.19-.41-.18-.19.02-.39.09-.6.2-.21.11-.4.21-.57.29ZM100.54,19.93c.28.01.56,0,.84-.05.19-.03.36-.12.52-.27.16-.15.28-.32.36-.51s.1-.4.07-.6c-.04-.2-.15-.37-.34-.52-.1-.07-.21-.11-.34-.13-.13-.02-.27-.03-.41-.02-.15,0-.29.01-.43.02-.14.01-.27.01-.39,0,0,.35,0,.7.03,1.04.02.34.05.69.09,1.04Z"/>
      <path class="cls-6" d="M112.85,22.64s-.2.05-.48.07c-.28.03-.62.05-1.02.08s-.84.05-1.31.08c-.47.03-.92.05-1.35.07-.43.02-.8.02-1.12.02s-.54,0-.65-.02c-.12-.02-.21-.08-.26-.16-.06-.09-.08-.19-.08-.31,0-.25,0-.7-.02-1.34-.01-.64-.02-1.38-.02-2.2,0-.82,0-1.68,0-2.58s0-1.74.03-2.51c.02-.77.05-1.43.1-1.98s.11-.87.19-.98c.06-.08.15-.14.28-.18.05-.01.23-.02.53-.02s.66,0,1.09,0c.42,0,.88.02,1.36.03s.94.03,1.37.05c.43.02.8.03,1.12.05.31.02.51.03.58.04.07.01.12.05.15.11.03.06.04.13.04.21s0,.17-.02.25c-.02.09-.03.16-.04.21-.01.07-.02.21-.03.43-.01.22-.02.46-.04.7s-.04.47-.07.67c-.03.2-.07.31-.1.33-.05.03-.13.05-.23.06s-.19,0-.26,0c-.48.02-.96.02-1.44-.02-.48-.03-.96-.05-1.44-.07-.03.23-.06.46-.08.68-.03.22-.05.45-.07.68.19-.01.43-.03.71-.07.28-.03.58-.06.88-.09.3-.03.58-.05.85-.06s.49,0,.66.02c.14.02.22.1.23.25.01.14.02.27.02.39,0,.09,0,.26.01.51.01.25.02.51.02.78s0,.51,0,.74c0,.23-.02.37-.05.41-.05.09-.23.15-.55.18-.31.03-.67.05-1.05.06-.39,0-.75,0-1.1-.02-.35-.02-.58-.02-.71-.02v1.83c.4,0,.77,0,1.15-.02s.76-.03,1.14-.05c.13-.01.26-.03.4-.05.13-.02.27-.03.4-.03.08,0,.14.01.17.03.03.02.06.07.09.15.03.07.05.22.06.47,0,.25.02.51.02.78,0,.28,0,.54,0,.79-.01.25-.02.43-.03.52Z"/>
    </g>
  </g>
  <g id="Schlücke">
    <g>
      <path class="cls-3" d="M9.26,250.32s0,.17,0,.37c0,.2,0,.41-.01.64,0,.23,0,.43-.02.61,0,.18-.01.27-.01.28-.03.08-.13.14-.31.17-.17.03-.36.05-.58.06s-.42,0-.62,0c-.2,0-.34-.01-.42-.01-.04,0-.09,0-.15,0-.06,0-.12,0-.18,0s-.12,0-.17-.02c-.05-.02-.09-.04-.1-.08,0-.02-.01-.07-.01-.16s0-.21,0-.35,0-.29.02-.45.01-.31.02-.46c0-.15,0-.28.01-.39,0-.11,0-.19,0-.24-.07,0-.21,0-.43.01s-.43.01-.67.02c-.23,0-.44,0-.64,0-.19,0-.31-.02-.35-.04-.06-.03-.11-.09-.13-.17,0-.03-.01-.15-.01-.34s0-.41.01-.65c0-.24.02-.46.03-.66s.02-.33.03-.39c.02-.11.07-.19.16-.24.04-.02.15-.04.33-.05.18-.01.38-.02.59-.03s.42-.01.61-.02c.2,0,.33,0,.4,0,0-.07,0-.2-.02-.38s-.03-.37-.04-.56c0-.19-.01-.37-.02-.53s0-.27.03-.31c.04-.07.1-.12.17-.14.02,0,.13-.01.33-.02.2,0,.41,0,.65,0s.46,0,.67.01.34,0,.39.02c.05,0,.09.02.14.04.04.02.08.05.1.1.02.06.05.17.07.34.02.17.04.35.05.55s.02.38.04.56c.01.18.02.31.02.39.12,0,.26,0,.41,0,.16,0,.31,0,.47.01.16,0,.32.01.47.02.15.01.28.03.4.05.06.05.11.09.14.13.03.04.05.1.05.19v.63c0,.16,0,.32,0,.5s0,.34-.01.49c0,.15,0,.27-.01.37,0,.1,0,.15-.02.16-.02.04-.12.06-.3.06s-.37,0-.58-.02c-.21-.01-.42-.03-.61-.05-.2-.02-.33-.03-.39-.03Z"/>
      <path class="cls-3" d="M17.54,252.94c-.22.02-.46.03-.73.02-.26-.01-.52-.03-.76-.06-.24-.03-.41-.05-.5-.07-.03-.42-.05-.84-.06-1.25,0-.41-.01-.83-.01-1.25-.34.02-.67.01-1.01,0-.34-.02-.67-.03-1.01-.03-.18,0-.37,0-.56.01-.19,0-.38.01-.56.01-.09,0-.18,0-.28,0-.1,0-.16-.05-.19-.15,0-.03,0-.2.01-.49.02-.3.04-.66.07-1.08.03-.42.06-.88.1-1.37s.08-.94.11-1.36.07-.77.1-1.06c.03-.28.05-.43.05-.45.02-.03.08-.06.19-.08.11-.02.25-.04.4-.05.16-.02.33-.03.52-.03.19,0,.37,0,.53,0s.31,0,.44.01c.12,0,.21.02.26.04.07.02.11.06.11.11v.17c-.03.66-.08,1.31-.15,1.97-.07.66-.13,1.31-.17,1.97.22-.03.43-.05.65-.07.22-.01.44,0,.65.04,0-.44.02-.89.03-1.34.01-.46.05-.9.11-1.33.02-.06.03-.11.05-.13.02-.02.06-.04.13-.05.04,0,.12-.02.24-.02.12,0,.26-.02.42-.02.16,0,.33-.01.5-.02.18,0,.34,0,.49,0s.28,0,.38,0c.1,0,.16,0,.17.02.04.04.06.13.06.27s0,.29-.02.45c-.02.16-.03.32-.05.47-.02.15-.03.26-.04.32-.06.63-.12,1.26-.17,1.89s-.09,1.26-.1,1.9c0,.3,0,.61,0,.91s.01.6,0,.91v.13c-.06.09-.19.14-.41.17Z"/>
    </g>
    <g>
      <path class="cls-3" d="M152.54,17.28s0,.17,0,.37c0,.2,0,.41-.01.64,0,.23-.01.43-.02.61,0,.18-.01.27-.01.28-.03.08-.13.14-.31.17-.17.03-.36.05-.58.06s-.42,0-.62,0c-.2,0-.34-.01-.42-.01-.04,0-.09,0-.15,0-.06,0-.12,0-.18,0s-.12,0-.17-.02c-.05-.02-.09-.04-.1-.08,0-.02-.01-.07-.01-.16s0-.21,0-.35.01-.29.02-.45.01-.31.02-.46c0-.15,0-.28.01-.39,0-.11,0-.19,0-.24-.07,0-.21,0-.43.01s-.43.01-.67.02c-.23,0-.44,0-.64,0-.19,0-.31-.02-.35-.04-.06-.03-.11-.09-.13-.17,0-.03-.01-.15-.01-.34s0-.41.01-.65c0-.24.02-.46.03-.66.01-.2.02-.33.03-.39.02-.11.07-.19.16-.24.04-.02.15-.04.33-.05.18-.01.38-.02.59-.03s.42-.01.61-.02c.2,0,.33,0,.4,0,0-.07,0-.2-.02-.38-.02-.18-.03-.37-.04-.56,0-.19-.01-.37-.02-.53s0-.27.03-.31c.04-.07.1-.12.17-.14.02,0,.13-.01.33-.02.2,0,.41,0,.65,0,.24,0,.46,0,.67.01s.34,0,.39.02c.05,0,.09.02.14.04.04.02.08.05.1.1.02.06.05.17.07.34s.04.35.05.55c.01.2.02.38.04.56.01.18.02.31.02.39.12,0,.26,0,.41,0,.16,0,.31,0,.47.01.16,0,.32.01.47.02s.28.03.4.05c.06.05.11.09.14.13.03.04.05.1.05.19v.63c0,.16,0,.32,0,.5s0,.34-.01.49c0,.15,0,.27-.01.37,0,.1-.01.15-.02.16-.02.04-.12.06-.3.06s-.37,0-.58-.02c-.21-.01-.42-.03-.61-.05-.2-.02-.33-.03-.39-.03Z"/>
      <path class="cls-3" d="M160.81,19.89c-.22.02-.46.03-.73.02-.26-.01-.52-.03-.76-.06-.24-.03-.41-.05-.5-.07-.03-.42-.05-.84-.06-1.25,0-.41-.01-.83-.01-1.25-.34.02-.67.01-1.01,0-.34-.02-.67-.03-1.01-.03-.18,0-.37,0-.56.01s-.38.01-.56.01c-.09,0-.18,0-.28,0-.1,0-.16-.05-.19-.15,0-.03,0-.2.01-.49s.04-.66.07-1.08c.03-.42.06-.88.1-1.37s.08-.94.11-1.36c.04-.42.07-.77.1-1.06s.05-.43.05-.45c.02-.03.08-.06.19-.08.11-.02.25-.04.4-.05.16-.02.33-.03.52-.03s.37,0,.53,0,.31,0,.44.01c.12,0,.21.02.26.04.07.02.11.06.11.11v.17c-.03.66-.08,1.31-.15,1.97-.07.66-.13,1.31-.17,1.97.22-.03.43-.05.65-.07s.44,0,.65.04c0-.44.02-.89.03-1.34.01-.46.05-.9.11-1.33.02-.06.03-.11.05-.13.02-.02.06-.04.13-.05.04,0,.12-.02.24-.02.12,0,.26-.02.42-.02.16,0,.33-.01.5-.02.18,0,.34,0,.49,0s.28,0,.38,0,.16,0,.17.02c.04.04.06.13.06.27s0,.29-.02.45c-.02.16-.03.32-.05.47-.02.15-.03.26-.04.32-.06.63-.12,1.26-.17,1.89-.05.63-.09,1.26-.1,1.9,0,.3,0,.61,0,.91.01.3.01.6,0,.91v.13c-.06.09-.19.14-.41.17Z"/>
    </g>
  </g>
  <g id="Motive">
    <g>
      <path class="cls-2" d="M61.44,87.87l44.41-.03c5.24,2.66,4.48,9.92-.94,11.85-.27,9.01-6.5,17.11-15.1,19.69-13.52,4.05-27.07-5.71-27.6-19.69-1.06-.73-2.09-1.09-2.92-2.14-2.55-3.2-1.57-7.98,2.17-9.69ZM74.26,91.2c-1.36.16-3.68,1.18-4.46,2.34-1.2,1.79.18,4.11,2.35,3.77,1.26-.2,1.59-1.63,3.49-1.42,1.03.12,1.55,1.04,2.33,1.3,2.61.87,4.34-2.29,2.09-4.3-1.5-1.35-3.82-1.94-5.8-1.7ZM90.87,91.2c-1.36.16-3.68,1.18-4.46,2.34-1.2,1.79.18,4.11,2.35,3.77,1.26-.2,1.59-1.63,3.49-1.42,1.03.12,1.55,1.04,2.33,1.3,2.61.87,4.34-2.29,2.09-4.3-1.5-1.35-3.82-1.94-5.8-1.7ZM75.05,104.47c-.35.04-1.12.42-1.39.67-2.45,2.3,2.23,6.24,4.12,7.29,4.98,2.75,11.21,1.65,14.87-2.7,1.19-1.41,2.5-3.38.56-4.82-2.44-1.81-3.38,1.04-4.66,2.3-2.8,2.74-7.56,2.63-10.21-.24-.95-1.03-1.43-2.72-3.28-2.5Z"/>
      <path class="cls-2" d="M86,67.78c6.72.27,13.4,2.68,18.87,6.51,2.09,1.46,5.85,4.41,6.6,6.84s0,5.12-1.91,6.8l-51.85.05c-1.04-1.24-1.95-2.64-2.09-4.32-.26-3.29,1.68-5.16,3.95-7.12,5.95-5.12,13.79-8.42,21.67-8.77-.14-3.59,4.87-3.59,4.74,0Z"/>
      <path class="cls-2" d="M46.4,129.3l27.75-.02c.45,0,.88.18,1.22.48,4.76,4.19,11.61,4.2,16.37,0,.34-.3.77-.48,1.22-.48h28.87c.33.01.36.24.48.47.94,1.8,1.71,7.04,1.6,9.07-.06,1.23-1.14,2.33-2.39,2.32l-76.08-.02c-1.17-.13-2.09-1.29-2.12-2.44-.03-1.42.25-3.56.52-4.99.08-.43.46-2.02.84-3.17.25-.74.94-1.23,1.71-1.23Z"/>
      <path class="cls-2" d="M117.32,124.53h-21.15c-.67,0-1.17-.62-1.03-1.27l.13-.59c.07-.31.27-.56.55-.7,2.94-1.51,5.59-3.76,7.75-6.22.37-.42,1.23-1.93,1.67-1.98.74-.08,4.61,1.81,5.46,2.29,2.06,1.16,5.48,4.58,7.41,6.71.61.68.14,1.76-.78,1.76Z"/>
      <path class="cls-2" d="M49.62,124.53c-.86,0-1.35-.99-.83-1.68.48-.62.96-1.21,1.07-1.33,2.46-2.78,5.74-5.18,9.15-6.67.47-.21,2.55-1.09,2.88-1.07.37.02,1.3,1.56,1.66,1.97,2.18,2.48,4.81,4.69,7.76,6.22.27.14.47.39.54.7l.13.6c.14.65-.35,1.26-1.02,1.26h-21.33Z"/>
      <path class="cls-2" d="M88.59,126.14c-2.66,2.75-7.5,2.71-10.16-.07-.55-.58,0-1.53.78-1.4s1.53.29,2.29.33c2.14.13,4.27,0,6.38-.31.81-.12,1.28.86.71,1.45Z"/>
    </g>
  </g>
  <g id="Kateg._Symbol" data-name="Kateg. Symbol">
    <g id="jCvsG5">
      <path class="cls-4" d="M14.94,10.67c.12-.09.3,0,.29.15-.04.89.15,1.8.59,2.57.7,1.21,1.87,1.54,2.22,3.08.71,3.1-2.81,5.2-5.44,3.74-1.15-.63-1.88-2.3-1.74-3.58.07-.65.37-1.28.78-1.78.1-.12.29-.09.35.05.29.68.74,1.35,1.45,1.62.21.08.41.15.61,0,.33-.24.03-.63-.08-.9-.74-1.8-.57-3.64.95-4.94,0,0,0,0,.01,0h0Z"/>
    </g>
    <g id="jCvsG5-2" data-name="jCvsG5">
      <path class="cls-4" d="M151.86,243.26c.12-.09.3,0,.29.15-.04.89.15,1.8.59,2.57.7,1.21,1.87,1.54,2.22,3.08.71,3.1-2.81,5.2-5.44,3.74-1.15-.63-1.88-2.3-1.74-3.58.07-.65.37-1.28.78-1.78.1-.12.29-.09.35.05.29.68.74,1.35,1.45,1.62.21.08.41.15.61,0,.33-.24.03-.63-.08-.9-.74-1.8-.57-3.64.95-4.94,0,0,0,0,.01,0h0Z"/>
    </g>
  </g>
  <g id="Kartentext">
    <g>
      <g>
        <path class="cls-4" d="M25.44,176.57h-1.23v2.17c0,.3-.25.55-.56.55s-.55-.25-.55-.55v-5.9c0-.31.25-.55.55-.55h1.79c1.19,0,2.15.96,2.15,2.15s-.96,2.13-2.15,2.13ZM24.21,175.46h1.23c.58,0,1.03-.46,1.04-1.02,0-.58-.46-1.04-1.04-1.04h-1.23v2.06Z"/>
        <path class="cls-4" d="M32.85,176.8v1.96c0,.29-.24.53-.53.53-.26,0-.46-.19-.52-.43-.38.27-.83.43-1.33.43-.68,0-1.27-.28-1.7-.73-.43-.46-.68-1.08-.68-1.76s.25-1.31.68-1.76c.43-.46,1.02-.75,1.7-.75.5,0,.95.17,1.33.44.06-.25.26-.44.52-.44.29,0,.53.24.53.54v1.97ZM31.79,176.8c0-.42-.15-.78-.39-1.03-.24-.27-.58-.41-.93-.41s-.7.14-.93.41c-.24.25-.38.61-.38,1.03s.14.77.38,1.03c.23.25.57.39.93.39s.69-.14.93-.39c.24-.26.39-.62.39-1.03Z"/>
        <path class="cls-4" d="M38.78,176.37v2.39c0,.29-.23.53-.52.53s-.53-.24-.53-.53v-2.39c0-.56-.47-1.01-1.04-1.01s-1,.45-1,1.01v2.39s0,.06-.02.1c-.05.24-.27.43-.53.43-.3,0-.53-.24-.53-.53v-3.94c0-.29.23-.53.53-.53.21,0,.4.12.49.31.3-.19.67-.31,1.06-.31,1.16,0,2.09.95,2.09,2.08Z"/>
        <path class="cls-4" d="M42.79,174.84c0,.3-.26.55-.56.55h-.25v2.79c.31,0,.55.25.55.56s-.24.55-.55.55c-.61,0-1.11-.5-1.11-1.11v-2.79h-.29c-.31,0-.55-.25-.55-.55s.24-.55.55-.55h.29v-1.45c0-.31.25-.55.56-.55s.55.24.55.55v1.45h.25c.3,0,.56.24.56.55Z"/>
      </g>
      <g>
        <path class="cls-4" d="M44.56,178.56c-.43-.44-.69-1.06-.69-1.76s.26-1.27.69-1.75c.45-.47,1.03-.76,1.72-.76s1.26.29,1.67.76c.45.48.7,1.07.7,1.75s-.25,1.32-.7,1.76c-.41.47-1.01.76-1.67.76s-1.27-.29-1.72-.76ZM44.96,176.8c0,.43.13.78.36,1.06.25.24.58.37.96.37.35,0,.67-.13.92-.37.25-.28.39-.63.39-1.06s-.14-.77-.39-1.04c-.25-.22-.57-.38-.92-.38-.38,0-.71.16-.96.38-.23.27-.36.63-.36,1.04Z"/>
        <path class="cls-4" d="M54.33,176.36v2.4c0,.29-.24.53-.53.53s-.54-.24-.54-.53v-2.4c0-.55-.47-1-1.03-1s-1.01.46-1.01,1.03v2.37s-.01.05-.01.07v.03s0,.04-.03.06v.05c-.09.18-.29.32-.5.32-.04,0-.07,0-.1,0-.24-.06-.43-.26-.43-.52v-2.37h0v-1.56c0-.31.24-.54.53-.54.21,0,.4.11.48.3.32-.19.69-.3,1.07-.3.63,0,1.19.26,1.57.69.37-.43.94-.69,1.57-.69,1.15,0,2.08.94,2.08,2.1v2.37c0,.29-.24.53-.53.53s-.54-.24-.54-.53v-2.37c0-.57-.46-1.03-1.01-1.03s-1.02.45-1.04,1Z"/>
        <path class="cls-4" d="M60.55,173.04c0,.3-.23.55-.54.55s-.54-.25-.54-.55v-.21c0-.3.24-.54.54-.54s.54.24.54.54v.21ZM60.55,174.85v3.9c0,.3-.23.54-.54.54s-.54-.24-.54-.54v-3.9c0-.32.24-.55.54-.55s.54.23.54.55Z"/>
        <path class="cls-4" d="M66.25,176.36v2.4c0,.29-.24.53-.53.53s-.54-.24-.54-.53v-2.4c0-.55-.47-1-1.03-1s-1.01.46-1.01,1.03v2.37s-.01.05-.01.07v.03s0,.04-.03.06v.05c-.09.18-.29.32-.5.32-.04,0-.07,0-.1,0-.24-.06-.43-.26-.43-.52v-2.37h0v-1.56c0-.31.24-.54.53-.54.21,0,.4.11.48.3.32-.19.69-.3,1.07-.3.63,0,1.19.26,1.57.69.37-.43.94-.69,1.57-.69,1.15,0,2.08.94,2.08,2.1v2.37c0,.29-.24.53-.53.53s-.54-.24-.54-.53v-2.37c0-.57-.46-1.03-1.01-1.03s-1.02.45-1.04,1Z"/>
        <path class="cls-4" d="M71.03,176.79c.01-1.36,1.07-2.5,2.44-2.5,1.3,0,2.33.97,2.41,2.32v.05s0,.07-.01.09c-.03.24-.24.4-.52.4h-3.18c.05.23.16.49.34.66.21.24.61.42.96.45.36.03.79-.06,1.04-.25.21-.22.62-.19.75-.03.13.14.23.44,0,.65-.49.45-1.08.66-1.79.66-1.37,0-2.43-1.14-2.44-2.5ZM72.12,176.3h2.83c-.1-.4-.61-.99-1.48-1.06-.85.04-1.27.65-1.35,1.06Z"/>
        <path class="cls-4" d="M77.95,173.89c.41,0,.75.34.75.75s-.34.74-.75.74-.74-.33-.74-.74.33-.75.74-.75ZM77.95,177.87c.41,0,.75.34.75.75s-.34.74-.75.74-.74-.33-.74-.74.33-.75.74-.75Z"/>
        <path class="cls-4" d="M82.38,178.74v-5.9c0-.31.24-.55.55-.55h3.27c.29,0,.55.24.55.55s-.26.56-.55.56h-2.71v1.83h2.33c.3,0,.55.26.55.55,0,.31-.25.56-.55.56h-2.33v1.84h2.71c.29,0,.55.25.55.56s-.26.55-.55.55h-3.24s-.02,0-.02,0h0c-.31,0-.55-.24-.55-.54Z"/>
        <path class="cls-4" d="M89.09,173.04c0,.3-.23.55-.54.55s-.54-.25-.54-.55v-.21c0-.3.24-.54.54-.54s.54.24.54.54v.21ZM89.09,174.85v3.9c0,.3-.23.54-.54.54s-.54-.24-.54-.54v-3.9c0-.32.24-.55.54-.55s.54.23.54.55Z"/>
        <path class="cls-4" d="M94.78,176.37v2.39c0,.29-.23.53-.52.53s-.53-.24-.53-.53v-2.39c0-.56-.47-1.01-1.04-1.01s-1,.45-1,1.01v2.39s0,.06-.02.1c-.05.24-.27.43-.53.43-.3,0-.53-.24-.53-.53v-3.94c0-.29.23-.53.53-.53.21,0,.4.12.49.31.3-.19.67-.31,1.06-.31,1.16,0,2.09.95,2.09,2.08Z"/>
        <path class="cls-4" d="M105.47,172.84v5.9c0,.3-.26.55-.56.55s-.55-.25-.55-.55v-4.21l-1.44,2c-.11.15-.27.23-.45.23h-.02c-.18,0-.35-.08-.46-.23l-1.43-2v4.21c0,.3-.25.55-.56.55s-.55-.25-.55-.55v-5.9c0-.3.25-.55.55-.55h.03c.16,0,.34.08.44.23l1.99,2.76,1.99-2.76c.11-.15.27-.23.45-.23h0c.3,0,.56.25.56.55Z"/>
        <path class="cls-4" d="M108.67,173.04c0,.3-.23.55-.54.55s-.54-.25-.54-.55v-.21c0-.3.24-.54.54-.54s.54.24.54.54v.21ZM108.67,174.85v3.9c0,.3-.23.54-.54.54s-.54-.24-.54-.54v-3.9c0-.32.24-.55.54-.55s.54.23.54.55Z"/>
        <path class="cls-4" d="M112.44,174.84c0,.3-.26.55-.56.55h-.25v2.79c.31,0,.55.25.55.56s-.24.55-.55.55c-.61,0-1.11-.5-1.11-1.11v-2.79h-.29c-.31,0-.55-.25-.55-.55s.24-.55.55-.55h.29v-1.45c0-.31.25-.55.56-.55s.55.24.55.55v1.45h.25c.3,0,.56.24.56.55Z"/>
        <path class="cls-4" d="M113.75,177.86c.18-.24.53-.27.75-.08.26.22.71.45,1.1.44.27,0,.52-.09.68-.19.14-.12.18-.22.18-.3,0-.05-.01-.07-.03-.1,0-.03-.05-.07-.13-.12-.14-.1-.44-.21-.8-.28h0c-.31-.06-.61-.14-.87-.26-.27-.13-.51-.31-.69-.58-.11-.18-.17-.4-.17-.63,0-.46.26-.85.59-1.1.35-.24.77-.37,1.23-.37.69,0,1.18.33,1.5.55.24.16.31.49.16.74-.16.24-.49.31-.74.14-.32-.21-.6-.37-.92-.37-.25,0-.47.08-.6.18-.13.09-.16.18-.16.23,0,.04,0,.05.02.08,0,.02.04.06.11.1.13.09.39.18.73.24h.01s0,0,0,0c.33.06.64.15.93.29.27.12.54.31.71.59.12.2.19.43.19.66,0,.49-.27.9-.63,1.16-.36.25-.81.4-1.3.4-.78,0-1.38-.37-1.78-.69-.22-.18-.25-.52-.07-.74Z"/>
        <path class="cls-4" d="M118.71,180.63v-3.82h0v-1.99c0-.29.24-.53.53-.53s.51.19.55.41c.37-.24.85-.41,1.36-.41,1.33,0,2.42,1.14,2.42,2.51s-1.09,2.48-2.42,2.48c-.5,0-.98-.15-1.34-.41v1.76c0,.28-.25.54-.57.54-.29,0-.53-.26-.53-.54ZM119.81,176.8c0,.39.13.77.39,1,.25.28.58.42.95.42.34,0,.68-.14.94-.42.23-.23.39-.61.39-1s-.16-.75-.39-1.01c-.26-.27-.6-.41-.94-.41-.37,0-.7.14-.95.41-.26.26-.39.62-.39,1.01Z"/>
      </g>
      <g>
        <path class="cls-4" d="M125.89,173.04c0,.3-.23.55-.54.55s-.54-.25-.54-.55v-.21c0-.3.24-.54.54-.54s.54.24.54.54v.21ZM125.89,174.85v3.9c0,.3-.23.54-.54.54s-.54-.24-.54-.54v-3.9c0-.32.24-.55.54-.55s.54.23.54.55Z"/>
        <path class="cls-4" d="M127.06,176.79c0-1.36,1.07-2.5,2.44-2.5,1.3,0,2.33.97,2.41,2.32v.05s0,.07,0,.09c-.03.24-.24.4-.52.4h-3.18c.05.23.16.49.34.66.21.24.61.42.96.45.36.03.79-.06,1.04-.25.21-.22.62-.19.75-.03.13.14.23.44,0,.65-.49.45-1.08.66-1.79.66-1.37,0-2.43-1.14-2.44-2.5ZM128.15,176.3h2.83c-.1-.4-.61-.99-1.48-1.06-.85.04-1.27.65-1.35,1.06Z"/>
        <path class="cls-4" d="M133.92,172.29c.31,0,.56.25.56.55v5.9c0,.3-.25.55-.56.55s-.55-.25-.55-.55v-5.9c0-.3.25-.55.55-.55Z"/>
      </g>
      <g>
        <path class="cls-4" d="M135.69,176.79c0-1.36,1.07-2.5,2.44-2.5,1.3,0,2.33.97,2.41,2.32v.05s0,.07,0,.09c-.03.24-.24.4-.52.4h-3.18c.05.23.16.49.34.66.21.24.61.42.96.45.36.03.79-.06,1.04-.25.21-.22.62-.19.75-.03.13.14.23.44,0,.65-.49.45-1.08.66-1.79.66-1.37,0-2.43-1.14-2.44-2.5ZM136.78,176.3h2.83c-.1-.4-.61-.99-1.48-1.06-.85.04-1.27.65-1.35,1.06Z"/>
        <path class="cls-4" d="M144.8,174.82c0,.28-.23.53-.53.53-.23,0-.43.06-.6.19-.19.12-.34.29-.46.48-.24.32-.36.7-.41.84v1.9c0,.29-.25.53-.55.53s-.53-.24-.53-.53v-3.94c0-.29.24-.52.53-.52s.55.23.55.52v.07c.06-.07.14-.15.21-.2.33-.22.76-.4,1.26-.39.3,0,.53.23.53.52Z"/>
      </g>
      <g>
        <path class="cls-4" d="M30.47,188.81v1.86c0,1.31-1.07,2.4-2.4,2.4-.37,0-.74-.09-1.05-.25-.26-.12-.38-.45-.24-.72.13-.27.44-.37.72-.25.17.09.36.14.57.14.65,0,1.18-.46,1.31-1.07-.36.25-.82.4-1.31.4-.66,0-1.27-.29-1.7-.76-.43-.44-.7-1.06-.7-1.76s.27-1.31.7-1.78c.43-.45,1.04-.74,1.7-.74.52,0,.98.16,1.34.42.05-.24.27-.42.53-.42.3,0,.53.24.53.53v1.99h0ZM29.4,188.8c0-.4-.16-.78-.38-1.02-.26-.28-.57-.43-.95-.43-.35,0-.68.15-.92.43-.24.24-.4.62-.4,1.02s.16.8.4,1.03c.24.27.57.41.92.41.38,0,.69-.14.95-.41.22-.23.38-.61.38-1.03Z"/>
        <path class="cls-4" d="M33.49,185.03c0,.3-.23.55-.54.55s-.54-.25-.54-.55v-.21c0-.3.24-.54.54-.54s.54.24.54.54v.21ZM33.49,186.84v3.9c0,.3-.23.54-.54.54s-.54-.24-.54-.54v-3.9c0-.32.24-.55.54-.55s.54.23.54.55Z"/>
        <path class="cls-4" d="M35.01,188.79h0v-3.97c0-.29.24-.54.54-.54s.55.25.55.54v1.88c.37-.26.85-.42,1.34-.42,1.35,0,2.43,1.14,2.43,2.51s-1.08,2.49-2.43,2.49c-.5,0-.98-.17-1.36-.43-.05.24-.26.43-.53.43-.3,0-.54-.25-.54-.54v-1.95ZM36.1,188.79c0,.38.15.74.4.99.25.26.57.41.94.41s.69-.15.94-.41c.25-.25.4-.61.4-.99,0-.4-.15-.76-.4-1.01-.25-.26-.58-.41-.94-.41s-.69.15-.94.41c-.25.25-.4.61-.4,1.01Z"/>
        <path class="cls-4" d="M43.66,186.83c0,.3-.26.55-.56.55h-.25v2.79c.31,0,.55.25.55.56s-.24.55-.55.55c-.61,0-1.11-.5-1.11-1.11v-2.79h-.29c-.31,0-.55-.25-.55-.55s.24-.55.55-.55h.29v-1.45c0-.31.25-.55.56-.55s.55.24.55.55v1.45h.25c.3,0,.56.24.56.55Z"/>
        <path class="cls-4" d="M52.54,190.74c0,.29-.24.54-.54.54-.27,0-.48-.19-.53-.43-.38.26-.86.43-1.36.43-1.35,0-2.43-1.14-2.43-2.49s1.08-2.51,2.43-2.51c.49,0,.97.16,1.34.42v-1.88c0-.29.24-.54.55-.54s.54.25.54.54v3.96h0v1.96ZM50.11,187.37c-.36,0-.69.15-.94.41-.25.25-.4.61-.4,1.01s.15.74.4.99c.25.26.58.41.94.41s.69-.15.94-.41c.25-.25.4-.61.4-.99,0-.4-.15-.76-.4-1.01-.25-.26-.57-.41-.94-.41Z"/>
        <path class="cls-4" d="M55.5,185.03c0,.3-.23.55-.54.55s-.54-.25-.54-.55v-.21c0-.3.24-.54.54-.54s.54.24.54.54v.21ZM55.5,186.84v3.9c0,.3-.23.54-.54.54s-.54-.24-.54-.54v-3.9c0-.32.24-.55.54-.55s.54.23.54.55Z"/>
        <path class="cls-4" d="M60.1,186.81c0,.28-.23.53-.53.53-.23,0-.43.06-.6.19-.19.12-.34.29-.46.48-.24.32-.36.7-.41.84v1.9c0,.29-.25.53-.55.53s-.53-.24-.53-.53v-3.94c0-.29.24-.52.53-.52s.55.23.55.52v.07c.06-.07.14-.15.21-.2.33-.22.76-.4,1.26-.39.3,0,.53.23.53.52Z"/>
        <path class="cls-4" d="M63.66,188.78c.01-1.36,1.07-2.5,2.44-2.5,1.3,0,2.33.97,2.41,2.32v.05s0,.07-.01.09c-.03.24-.24.4-.52.4h-3.18c.05.23.16.49.34.66.21.24.61.42.96.45.36.03.79-.06,1.04-.25.21-.22.62-.19.75-.03.13.14.23.44,0,.65-.49.45-1.08.66-1.79.66-1.37,0-2.43-1.14-2.44-2.5ZM64.75,188.29h2.83c-.1-.4-.61-.99-1.48-1.06-.85.04-1.27.65-1.35,1.06Z"/>
        <path class="cls-4" d="M70.99,185.03c0,.3-.23.55-.54.55s-.54-.25-.54-.55v-.21c0-.3.24-.54.54-.54s.54.24.54.54v.21ZM70.99,186.84v3.9c0,.3-.23.54-.54.54s-.54-.24-.54-.54v-3.9c0-.32.24-.55.54-.55s.54.23.54.55Z"/>
        <path class="cls-4" d="M76.68,188.36v2.39c0,.29-.23.53-.52.53s-.53-.24-.53-.53v-2.39c0-.56-.47-1.01-1.04-1.01s-1,.45-1,1.01v2.39s0,.06-.02.1c-.05.24-.27.43-.53.43-.3,0-.53-.24-.53-.53v-3.94c0-.29.23-.53.53-.53.21,0,.4.12.49.31.3-.19.67-.31,1.06-.31,1.16,0,2.09.95,2.09,2.08Z"/>
      </g>
      <g>
        <path class="cls-4" d="M90.57,185.11l-2.45,5.83s-.03.07-.05.09h0s-.03.05-.05.07c0,.02,0,.02,0,.03-.02,0-.05.03-.07.05h-.01s-.05.05-.09.06h0s0,0,0,0c-.02,0-.05,0-.08.02h-.02s-.06,0-.1,0c-.03,0-.06,0-.09,0h-.03s-.05-.02-.07-.02t-.02,0s-.07-.04-.09-.06h0s-.05-.04-.07-.05t-.02-.03s-.03-.04-.04-.06c-.02,0-.02,0-.02,0-.02-.02-.03-.06-.04-.09l-1.31-3.1-1.31,3.1s-.03.07-.04.09c0,0,0,0,0,0-.02.02-.04.04-.06.06,0,.02-.01.02-.01.03-.02,0-.04.03-.06.05h-.02s-.06.05-.08.06h-.01s0,0,0,0c-.04,0-.06,0-.08.02h-.03s-.06,0-.09,0-.07,0-.1,0h-.03s-.05-.02-.07-.02t-.02,0s-.07-.04-.09-.06h0s-.04-.04-.07-.05t-.02-.03s-.03-.04-.05-.06h0s-.03-.07-.05-.1l-2.46-5.83c-.11-.27.01-.6.3-.71.27-.12.6,0,.71.29l1.96,4.63,1.29-3.07c.09-.22.3-.34.52-.34s.42.12.52.34l1.29,3.07,1.95-4.63c.12-.28.44-.41.73-.29.27.11.4.44.28.71Z"/>
        <path class="cls-4" d="M91.87,190.55c-.43-.44-.69-1.06-.69-1.76s.26-1.27.69-1.75c.45-.47,1.03-.76,1.72-.76s1.26.29,1.67.76c.45.48.7,1.07.7,1.75s-.25,1.32-.7,1.76c-.41.47-1.01.76-1.67.76s-1.27-.29-1.72-.76ZM92.27,188.79c0,.43.13.78.36,1.06.25.24.58.37.96.37.35,0,.67-.13.92-.37.25-.28.39-.63.39-1.06s-.14-.77-.39-1.04c-.25-.22-.57-.38-.92-.38-.38,0-.71.16-.96.38-.23.27-.36.63-.36,1.04Z"/>
      </g>
      <g>
        <path class="cls-4" d="M100.34,186.81c0,.28-.23.53-.53.53-.23,0-.43.06-.6.19-.19.12-.34.29-.46.48-.24.32-.36.7-.41.84v1.9c0,.29-.25.53-.55.53s-.53-.24-.53-.53v-3.94c0-.29.24-.52.53-.52s.55.23.55.52v.07c.06-.07.14-.15.21-.2.33-.22.76-.4,1.26-.39.3,0,.53.23.53.52Z"/>
        <path class="cls-4" d="M103.71,186.83c0,.3-.26.55-.56.55h-.25v2.79c.31,0,.55.25.55.56s-.24.55-.55.55c-.61,0-1.11-.5-1.11-1.11v-2.79h-.29c-.31,0-.55-.25-.55-.55s.24-.55.55-.55h.29v-1.45c0-.31.25-.55.56-.55s.55.24.55.55v1.45h.25c.3,0,.56.24.56.55Z"/>
      </g>
      <g>
        <path class="cls-4" d="M111.99,187.08l-1.64,3.88s-.03.06-.04.07c0,0,0,0,0,0-.02.02-.04.05-.06.07,0,0,0,0,0,0-.02.03-.04.04-.06.06,0,0-.01,0-.01.01-.02.02-.04.04-.07.05h-.02s-.06.02-.08.03h-.02s-.07,0-.1,0c-.02,0-.05,0-.09,0h-.02s-.05-.02-.08-.02h-.02s-.05-.04-.09-.06c0-.01-.01-.01-.01-.01-.02-.02-.04-.03-.06-.06t-.02,0s-.03-.05-.05-.07t0,0s-.03-.04-.04-.07l-1.62-3.88c-.12-.27,0-.56.29-.68.24-.12.55.02.67.29l1.15,2.72,1.16-2.72c.11-.27.41-.41.67-.29.28.12.41.41.29.68Z"/>
        <path class="cls-4" d="M113.83,190.55c-.43-.44-.69-1.06-.69-1.76s.26-1.27.69-1.75c.45-.47,1.03-.76,1.72-.76s1.26.29,1.67.76c.45.48.7,1.07.7,1.75s-.25,1.32-.7,1.76c-.41.47-1.01.76-1.67.76s-1.27-.29-1.72-.76ZM114.23,188.79c0,.43.13.78.36,1.06.25.24.58.37.96.37.35,0,.67-.13.92-.37.25-.28.39-.63.39-1.06s-.14-.77-.39-1.04c-.25-.22-.57-.38-.92-.38-.38,0-.71.16-.96.38-.23.27-.36.63-.36,1.04Z"/>
      </g>
      <g>
        <path class="cls-4" d="M122.3,186.81c0,.28-.23.53-.53.53-.23,0-.43.06-.6.19-.19.12-.34.29-.46.48-.24.32-.36.7-.41.84v1.9c0,.29-.25.53-.55.53s-.53-.24-.53-.53v-3.94c0-.29.24-.52.53-.52s.55.23.55.52v.07c.06-.07.14-.15.21-.2.33-.22.76-.4,1.26-.39.3,0,.53.23.53.52Z"/>
        <path class="cls-4" d="M123.14,189.86c.41,0,.75.34.75.75s-.34.74-.75.74-.74-.33-.74-.74.33-.75.74-.75Z"/>
      </g>
      <g>
        <path class="cls-4" d="M127.52,190.73v-5.9c0-.31.24-.55.55-.55h1.18c1.93,0,3.49,1.57,3.49,3.49s-1.56,3.51-3.49,3.51h-1.18c-.31,0-.55-.25-.55-.55ZM128.63,190.17h.62c1.32,0,2.38-1.07,2.38-2.4s-1.06-2.38-2.38-2.38h-.62v4.78Z"/>
        <path class="cls-4" d="M135.49,185.03c0,.3-.23.55-.54.55s-.54-.25-.54-.55v-.21c0-.3.24-.54.54-.54s.54.24.54.54v.21ZM135.49,186.84v3.9c0,.3-.23.54-.54.54s-.54-.24-.54-.54v-3.9c0-.32.24-.55.54-.55s.54.23.54.55Z"/>
        <path class="cls-4" d="M136.66,188.78c0-1.36,1.07-2.5,2.44-2.5,1.3,0,2.33.97,2.41,2.32v.05s0,.07,0,.09c-.03.24-.24.4-.52.4h-3.18c.05.23.16.49.34.66.21.24.61.42.96.45.36.03.79-.06,1.04-.25.21-.22.62-.19.75-.03.13.14.23.44,0,.65-.49.45-1.08.66-1.79.66-1.37,0-2.43-1.14-2.44-2.5ZM137.75,188.29h2.83c-.1-.4-.61-.99-1.48-1.06-.85.04-1.27.65-1.35,1.06Z"/>
      </g>
      <g>
        <path class="cls-4" d="M38.1,198.81c0,.28-.23.53-.53.53-.23,0-.43.06-.6.19-.19.12-.34.29-.46.48-.24.32-.36.7-.41.84v1.9c0,.29-.25.53-.55.53s-.53-.24-.53-.53v-3.94c0-.29.24-.52.53-.52s.55.23.55.52v.07c.06-.07.14-.15.21-.2.33-.22.76-.4,1.26-.39.3,0,.53.23.53.52Z"/>
        <path class="cls-4" d="M38.36,200.78c.01-1.36,1.07-2.5,2.44-2.5,1.3,0,2.33.97,2.41,2.32v.05s0,.07-.01.09c-.03.24-.24.4-.52.4h-3.18c.05.23.16.49.34.66.21.24.61.42.96.45.36.03.79-.06,1.04-.25.21-.22.62-.19.75-.03.13.14.23.44,0,.65-.49.45-1.08.66-1.79.66-1.37,0-2.43-1.14-2.44-2.5ZM39.45,200.29h2.83c-.1-.4-.61-.99-1.48-1.06-.85.04-1.27.65-1.35,1.06Z"/>
      </g>
      <path class="cls-4" d="M44.37,201.85c.18-.24.53-.27.75-.08.26.22.71.45,1.1.44.27,0,.52-.09.68-.19.14-.12.18-.22.18-.3,0-.05,0-.07-.03-.1,0-.03-.05-.07-.13-.12-.14-.1-.44-.21-.8-.28h0c-.31-.06-.61-.14-.87-.26-.27-.13-.51-.31-.69-.58-.11-.18-.17-.4-.17-.63,0-.46.26-.85.59-1.1.35-.24.77-.37,1.23-.37.69,0,1.18.33,1.5.55.24.16.31.49.16.74-.16.24-.49.31-.74.14-.32-.21-.6-.37-.92-.37-.25,0-.47.08-.6.18-.13.09-.16.18-.16.23,0,.04,0,.05.02.08.01.02.04.06.11.1.13.09.39.18.73.24h0s.01,0,.01,0c.33.06.64.15.93.29.27.12.54.31.71.59.12.2.19.43.19.66,0,.49-.27.9-.63,1.16-.36.25-.81.4-1.3.4-.78,0-1.38-.37-1.78-.69-.22-.18-.25-.52-.07-.74Z"/>
      <g>
        <path class="cls-4" d="M51.73,198.83c0,.3-.26.55-.56.55h-.25v2.79c.31,0,.55.25.55.56s-.24.55-.55.55c-.61,0-1.11-.5-1.11-1.11v-2.79h-.29c-.31,0-.55-.25-.55-.55s.24-.55.55-.55h.29v-1.45c0-.31.25-.55.56-.55s.55.24.55.55v1.45h.25c.3,0,.56.24.56.55Z"/>
        <path class="cls-4" d="M53.9,196.28c.31,0,.56.25.56.55v5.9c0,.3-.25.55-.56.55s-.55-.25-.55-.55v-5.9c0-.3.25-.55.55-.55Z"/>
        <path class="cls-4" d="M56.66,197.03c0,.3-.23.55-.54.55s-.54-.25-.54-.55v-.21c0-.3.24-.54.54-.54s.54.24.54.54v.21ZM56.66,198.84v3.9c0,.3-.23.54-.54.54s-.54-.24-.54-.54v-3.9c0-.32.24-.55.54-.55s.54.23.54.55Z"/>
        <path class="cls-4" d="M57.83,200.79c0-1.39,1.16-2.5,2.54-2.51.6,0,1.16.22,1.59.55.23.18.27.52.11.74-.2.24-.52.28-.75.1-.26-.19-.58-.32-.95-.32-.81,0-1.48.67-1.48,1.44s.67,1.43,1.48,1.43c.36,0,.69-.13.95-.32.22-.17.55-.13.75.11.16.22.12.54-.11.74-.43.31-.99.53-1.59.53-1.38,0-2.54-1.12-2.54-2.49Z"/>
        <path class="cls-4" d="M64.8,202.73c0,.31-.25.55-.56.55-.25,0-.46-.18-.53-.41-.01-.04-.02-.09-.02-.14v-5.9c0-.31.25-.55.55-.55s.56.24.56.55v1.74c.32-.17.68-.29,1.07-.29,1.21,0,2.18.99,2.18,2.19v2.26c0,.31-.24.55-.55.55s-.55-.24-.55-.55v-2.26c0-.59-.48-1.07-1.08-1.08-.59,0-1.06.49-1.07,1.08v2.26Z"/>
        <path class="cls-4" d="M69.27,200.78c.01-1.36,1.07-2.5,2.44-2.5,1.3,0,2.33.97,2.41,2.32v.05s0,.07-.01.09c-.03.24-.24.4-.52.4h-3.18c.05.23.16.49.34.66.21.24.61.42.96.45.36.03.79-.06,1.04-.25.21-.22.62-.19.75-.03.13.14.23.44,0,.65-.49.45-1.08.66-1.79.66-1.37,0-2.43-1.14-2.44-2.5ZM70.36,200.29h2.83c-.1-.4-.61-.99-1.48-1.06-.85.04-1.27.65-1.35,1.06Z"/>
        <path class="cls-4" d="M78.11,199.69c0-2.01,1.66-3.61,3.69-3.61.85,0,1.66.29,2.28.78.26.19.3.56.11.81-.19.24-.56.29-.81.09-.43-.33-.98-.54-1.58-.54-.72,0-1.35.27-1.8.73-.47.45-.75,1.06-.75,1.74s.28,1.27.75,1.72c.45.46,1.08.73,1.8.73.5,0,.97-.15,1.37-.38v-1.37h-1.43c-.31,0-.57-.26-.57-.57s.26-.56.57-.56h1.99c.32,0,.58.24.58.56v2.21c0,.07-.02.11-.03.17,0,.02,0,.03-.02.05h0c-.03.1-.09.18-.19.25-.63.49-1.42.78-2.27.78-2.03,0-3.69-1.59-3.69-3.59Z"/>
        <path class="cls-4" d="M89.32,198.81c0,.28-.23.53-.53.53-.23,0-.43.06-.6.19-.19.12-.34.29-.46.48-.24.32-.36.7-.41.84v1.9c0,.29-.25.53-.55.53s-.53-.24-.53-.53v-3.94c0-.29.24-.52.53-.52s.55.23.55.52v.07c.06-.07.14-.15.21-.2.33-.22.76-.4,1.26-.39.3,0,.53.23.53.52Z"/>
        <path class="cls-4" d="M92.41,203.28c-1.14,0-2.08-.94-2.08-2.08v-2.39c0-.28.24-.53.53-.53s.53.25.53.53v2.39c0,.57.45,1.02,1.02,1.02s1.04-.45,1.05-1.02v-2.39c0-.28.22-.53.52-.53.28,0,.54.25.54.53v2.39c0,1.14-.96,2.08-2.11,2.08Z"/>
        <path class="cls-4" d="M96.37,204.62v-3.82h0v-1.99c0-.29.24-.53.53-.53s.51.19.55.41c.37-.24.85-.41,1.36-.41,1.33,0,2.42,1.14,2.42,2.51s-1.09,2.48-2.42,2.48c-.5,0-.98-.15-1.34-.41v1.76c0,.28-.25.54-.57.54-.29,0-.53-.26-.53-.54ZM97.47,200.79c0,.39.13.77.39,1,.25.28.58.42.95.42.34,0,.68-.14.94-.42.23-.23.39-.61.39-1s-.16-.75-.39-1.01c-.26-.27-.6-.41-.94-.41-.37,0-.7.14-.95.41-.26.26-.39.62-.39,1.01Z"/>
        <path class="cls-4" d="M102.77,204.62v-3.82h0v-1.99c0-.29.24-.53.53-.53s.51.19.55.41c.37-.24.85-.41,1.36-.41,1.33,0,2.42,1.14,2.42,2.51s-1.09,2.48-2.42,2.48c-.5,0-.98-.15-1.34-.41v1.76c0,.28-.25.54-.57.54-.29,0-.53-.26-.53-.54ZM103.87,200.79c0,.39.13.77.39,1,.25.28.58.42.95.42.34,0,.68-.14.94-.42.23-.23.39-.61.39-1s-.16-.75-.39-1.01c-.26-.27-.6-.41-.94-.41-.37,0-.7.14-.95.41-.26.26-.39.62-.39,1.01Z"/>
        <path class="cls-4" d="M108.82,200.78c0-1.36,1.07-2.5,2.44-2.5,1.3,0,2.33.97,2.41,2.32v.05s0,.07,0,.09c-.03.24-.24.4-.52.4h-3.18c.05.23.16.49.34.66.21.24.61.42.96.45.36.03.79-.06,1.04-.25.21-.22.62-.19.75-.03.13.14.23.44,0,.65-.49.45-1.08.66-1.79.66-1.37,0-2.43-1.14-2.44-2.5ZM109.91,200.29h2.83c-.1-.4-.61-.99-1.48-1.06-.85.04-1.27.65-1.35,1.06Z"/>
      </g>
      <g>
        <path class="cls-4" d="M118.87,202.73c0,.31-.25.55-.56.55-.25,0-.46-.18-.53-.41,0-.04-.02-.09-.02-.14v-5.9c0-.31.25-.55.55-.55s.56.24.56.55v1.74c.32-.17.68-.29,1.07-.29,1.21,0,2.18.99,2.18,2.19v2.26c0,.31-.24.55-.55.55s-.55-.24-.55-.55v-2.26c0-.59-.48-1.07-1.08-1.08-.59,0-1.06.49-1.07,1.08v2.26Z"/>
        <path class="cls-4" d="M128.32,200.79v1.96c0,.29-.24.53-.53.53-.26,0-.46-.19-.52-.43-.38.27-.83.43-1.33.43-.68,0-1.27-.28-1.7-.73-.43-.46-.68-1.08-.68-1.76s.25-1.31.68-1.76c.43-.46,1.02-.75,1.7-.75.5,0,.95.17,1.33.44.06-.25.26-.44.52-.44.29,0,.53.24.53.54v1.97ZM127.26,200.79c0-.42-.15-.78-.39-1.03-.24-.27-.58-.41-.93-.41s-.7.14-.93.41c-.24.25-.38.61-.38,1.03s.14.77.38,1.03c.23.25.57.39.93.39s.69-.14.93-.39c.24-.26.39-.62.39-1.03Z"/>
      </g>
      <path class="cls-4" d="M132.33,198.83c0,.3-.26.55-.56.55h-.25v2.79c.31,0,.55.25.55.56s-.24.55-.55.55c-.61,0-1.11-.5-1.11-1.11v-2.79h-.29c-.31,0-.55-.25-.55-.55s.24-.55.55-.55h.29v-1.45c0-.31.25-.55.56-.55s.55.24.55.55v1.45h.25c.3,0,.56.24.56.55Z"/>
      <g>
        <path class="cls-4" d="M32.05,212.86c0,1.34-1.09,2.42-2.43,2.42-1.26,0-2.29-.95-2.41-2.17t0-.02c-.01-.19-.02-.38-.02-.57,0-.67.1-1.39.35-2.05.25-.66.66-1.29,1.29-1.71.42-.28.93-.45,1.5-.47.31,0,.56.22.58.53.01.3-.23.55-.54.58-.38,0-.68.12-.94.28-.25.17-.46.4-.63.7-.05.08-.09.17-.13.26.29-.13.62-.2.96-.2,1.34,0,2.43,1.08,2.43,2.42ZM30.94,212.86c0-.72-.59-1.32-1.32-1.32s-1.31.6-1.31,1.32.58,1.31,1.31,1.31,1.32-.58,1.32-1.31Z"/>
        <path class="cls-4" d="M33.41,211.78c.01-.92.24-1.75.68-2.39.42-.64,1.07-1.11,1.86-1.11s1.43.47,1.85,1.11c.43.64.67,1.47.67,2.39s-.24,1.75-.67,2.39c-.42.63-1.08,1.11-1.85,1.11s-1.44-.48-1.86-1.11c-.44-.64-.67-1.48-.68-2.39ZM37.36,211.78c0-.72-.2-1.35-.48-1.78-.29-.42-.62-.62-.93-.61-.31-.01-.65.19-.95.61-.28.43-.48,1.06-.48,1.78s.2,1.35.48,1.77c.3.43.64.62.95.62s.64-.19.93-.62c.28-.42.48-1.06.48-1.77Z"/>
        <path class="cls-4" d="M43.28,213.54c.18-.22.51-.25.73-.07.44.36,1.2.78,1.91.77.5,0,.95-.15,1.25-.37s.43-.47.43-.72c0-.13-.03-.22-.09-.32-.06-.1-.15-.2-.3-.3-.29-.19-.78-.36-1.37-.47h-.02c-.47-.09-.91-.21-1.29-.39s-.71-.43-.93-.78c-.15-.24-.23-.52-.23-.82,0-.6.34-1.12.8-1.46.47-.34,1.08-.53,1.73-.53.96,0,1.67.47,2.18.8.23.16.3.48.14.71-.15.24-.47.31-.71.15-.51-.34-1-.64-1.61-.64-.45,0-.85.14-1.12.34-.27.2-.38.42-.38.63,0,.12.02.2.07.28.05.08.14.17.27.26.26.18.71.34,1.25.44h.02c.51.1.98.23,1.38.42.41.2.77.46,1,.83.15.24.24.54.24.85,0,.64-.36,1.19-.86,1.55-.49.36-1.14.57-1.85.57-1.08-.01-1.99-.55-2.56-1-.22-.18-.25-.51-.08-.73Z"/>
        <path class="cls-4" d="M49.51,212.78c.01-1.36,1.07-2.5,2.44-2.5,1.3,0,2.33.97,2.41,2.32v.05s0,.07-.01.09c-.03.24-.24.4-.52.4h-3.18c.05.23.16.49.34.66.21.24.61.42.96.45.36.03.79-.06,1.04-.25.21-.22.62-.19.75-.03.13.14.23.44,0,.65-.49.45-1.08.66-1.79.66-1.37,0-2.43-1.14-2.44-2.5ZM50.6,212.29h2.83c-.1-.4-.61-.99-1.48-1.06-.85.04-1.27.65-1.35,1.06Z"/>
        <path class="cls-4" d="M55.75,214.73v-5.9c0-.3.24-.55.55-.55s.56.25.56.55v3.46l2.05-2.05c.21-.21.57-.21.78,0,.22.22.22.57,0,.78l-1.5,1.5,1.54,1.85c.19.24.16.59-.08.78-.1.09-.23.13-.35.13-.16,0-.32-.07-.42-.2l-1.47-1.78-.55.55v.88c0,.3-.25.55-.56.55s-.55-.25-.55-.55Z"/>
      </g>
      <g>
        <path class="cls-4" d="M63.03,215.28c-1.14,0-2.08-.94-2.08-2.08v-2.39c0-.28.24-.53.53-.53s.53.25.53.53v2.39c0,.57.45,1.02,1.02,1.02s1.04-.45,1.05-1.02v-2.39c0-.28.22-.53.52-.53.28,0,.54.25.54.53v2.39c0,1.14-.96,2.08-2.11,2.08Z"/>
        <path class="cls-4" d="M70.9,212.36v2.39c0,.29-.23.53-.52.53s-.53-.24-.53-.53v-2.39c0-.56-.47-1.01-1.04-1.01s-1,.45-1,1.01v2.39s0,.06-.02.1c-.05.24-.27.43-.53.43-.3,0-.53-.24-.53-.53v-3.94c0-.29.23-.53.53-.53.21,0,.4.12.49.31.3-.19.67-.31,1.06-.31,1.16,0,2.09.95,2.09,2.08Z"/>
        <path class="cls-4" d="M76.95,214.74c0,.29-.24.54-.54.54-.27,0-.48-.19-.53-.43-.38.26-.86.43-1.36.43-1.35,0-2.43-1.14-2.43-2.49s1.08-2.51,2.43-2.51c.49,0,.97.16,1.34.42v-1.88c0-.29.24-.54.55-.54s.54.25.54.54v3.96h0v1.96ZM74.53,211.37c-.36,0-.69.15-.94.41-.25.25-.4.61-.4,1.01s.15.74.4.99c.25.26.58.41.94.41s.69-.15.94-.41c.25-.25.4-.61.4-.99,0-.4-.15-.76-.4-1.01-.25-.26-.57-.41-.94-.41Z"/>
      </g>
      <g>
        <path class="cls-4" d="M78.37,212.78c.01-1.36,1.07-2.5,2.44-2.5,1.3,0,2.33.97,2.41,2.32v.05s0,.07-.01.09c-.03.24-.24.4-.52.4h-3.18c.05.23.16.49.34.66.21.24.61.42.96.45.36.03.79-.06,1.04-.25.21-.22.62-.19.75-.03.13.14.23.44,0,.65-.49.45-1.08.66-1.79.66-1.37,0-2.43-1.14-2.44-2.5ZM79.46,212.29h2.83c-.1-.4-.61-.99-1.48-1.06-.85.04-1.27.65-1.35,1.06Z"/>
        <path class="cls-4" d="M88.78,212.36v2.39c0,.29-.23.53-.52.53s-.53-.24-.53-.53v-2.39c0-.56-.47-1.01-1.04-1.01s-1,.45-1,1.01v2.39s0,.06-.02.1c-.05.24-.27.43-.53.43-.3,0-.53-.24-.53-.53v-3.94c0-.29.23-.53.53-.53.21,0,.4.12.49.31.3-.19.67-.31,1.06-.31,1.16,0,2.09.95,2.09,2.08Z"/>
        <path class="cls-4" d="M98.44,209.16l-3.68,5.01h3.22c.31,0,.56.25.56.56s-.25.55-.56.55h-4.31s-.06,0-.1,0c0,0-.02,0-.03-.01-.02,0-.04,0-.07,0,0,0-.02,0-.03-.03,0,0-.03,0-.05-.02s-.03,0-.04-.02h0s-.02-.02-.03-.03c0-.01-.03-.03-.04-.05-.02-.01-.03-.02-.04-.03,0,0-.02-.03-.03-.04,0-.03-.02-.04-.02-.05,0-.02-.03-.03-.03-.05-.01-.02-.01-.04-.02-.06,0,0,0-.02,0-.04,0-.03,0-.05,0-.07v-.03h0s0-.06,0-.08v-.05s0-.03.02-.05c0-.01.01-.03.01-.05.02,0,.03-.03.03-.04.01-.01.02-.03.03-.05h0l3.67-5.02h-3.23c-.31,0-.55-.26-.55-.56s.24-.55.55-.55h4.39s.03,0,.04,0c.03,0,.04,0,.06,0,0,0,.03,0,.04.02.03,0,.04.02.05.03.02.01.03.02.05.03h0s.02.02.03.03c.02,0,.03.03.04.04,0,0,.02.03.03.04.02,0,.03.02.04.04,0,.02.02.04.03.05,0,0,.01.03.02.04,0,.03,0,.05,0,.06.02.02.02.03.02.05.01.03.01.04.01.06v.11s-.01.03-.01.04c0,.03-.02.04-.02.06,0,.02,0,.03-.02.06-.01,0-.01.02-.02.03,0,.02-.02.04-.03.05v.02Z"/>
      </g>
      <g>
        <path class="cls-4" d="M99.21,212.78c0-1.36,1.07-2.5,2.44-2.5,1.3,0,2.33.97,2.41,2.32v.05s0,.07,0,.09c-.03.24-.24.4-.52.4h-3.18c.05.23.16.49.34.66.21.24.61.42.96.45.36.03.79-.06,1.04-.25.21-.22.62-.19.75-.03.13.14.23.44,0,.65-.49.45-1.08.66-1.79.66-1.37,0-2.43-1.14-2.44-2.5ZM100.29,212.29h2.83c-.1-.4-.61-.99-1.48-1.06-.85.04-1.27.65-1.35,1.06Z"/>
        <path class="cls-4" d="M106.53,209.03c0,.3-.23.55-.54.55s-.54-.25-.54-.55v-.21c0-.3.24-.54.54-.54s.54.24.54.54v.21ZM106.53,210.84v3.9c0,.3-.23.54-.54.54s-.54-.24-.54-.54v-3.9c0-.32.24-.55.54-.55s.54.23.54.55Z"/>
        <path class="cls-4" d="M110.3,210.83c0,.3-.26.55-.56.55h-.25v2.79c.31,0,.55.25.55.56s-.24.55-.55.55c-.61,0-1.11-.5-1.11-1.11v-2.79h-.29c-.31,0-.55-.25-.55-.55s.24-.55.55-.55h.29v-1.45c0-.31.25-.55.56-.55s.55.24.55.55v1.45h.25c.3,0,.56.24.56.55Z"/>
        <path class="cls-4" d="M111.69,216.18c.46-.15.7-.46.68-.9-.29-.08-.57-.32-.57-.68v-.08c0-.38.27-.67.68-.67.45,0,.72.34.72.88v.11c0,.68-.18,1.14-.49,1.46-.27.26-.66.43-.94.43-.21,0-.31-.13-.31-.28,0-.14.1-.24.23-.27Z"/>
        <path class="cls-4" d="M116.4,212.78c0-1.36,1.07-2.5,2.44-2.5,1.3,0,2.33.97,2.41,2.32v.05s0,.07,0,.09c-.03.24-.24.4-.52.4h-3.18c.05.23.16.49.34.66.21.24.61.42.96.45.36.03.79-.06,1.04-.25.21-.22.62-.19.75-.03.13.14.23.44,0,.65-.49.45-1.08.66-1.79.66-1.37,0-2.43-1.14-2.44-2.5ZM117.49,212.29h2.83c-.1-.4-.61-.99-1.48-1.06-.85.04-1.27.65-1.35,1.06Z"/>
        <path class="cls-4" d="M122.4,213.85c.18-.24.53-.27.75-.08.26.22.71.45,1.1.44.27,0,.52-.09.68-.19.14-.12.18-.22.18-.3,0-.05-.01-.07-.03-.1,0-.03-.05-.07-.13-.12-.14-.1-.44-.21-.8-.28h0c-.31-.06-.61-.14-.87-.26-.27-.13-.51-.31-.69-.58-.11-.18-.17-.4-.17-.63,0-.46.26-.85.59-1.1.35-.24.77-.37,1.23-.37.69,0,1.18.33,1.5.55.24.16.31.49.16.74-.16.24-.49.31-.74.14-.32-.21-.6-.37-.92-.37-.25,0-.47.08-.6.18-.13.09-.16.18-.16.23,0,.04,0,.05.02.08,0,.02.04.06.11.1.13.09.39.18.73.24h.01s0,0,0,0c.33.06.64.15.93.29.27.12.54.31.71.59.12.2.19.43.19.66,0,.49-.27.9-.63,1.16-.36.25-.81.4-1.3.4-.78,0-1.38-.37-1.78-.69-.22-.18-.25-.52-.07-.74Z"/>
        <path class="cls-4" d="M133.68,211.12l-2.26,3.1h1.84c.28,0,.53.23.53.53s-.25.53-.53.53h-2.89s-.06,0-.1,0h-.03s-.04-.02-.06-.02c-.02,0-.03,0-.04-.02,0,0-.03-.02-.04-.02,0-.02-.02-.02-.02-.03t0,0s-.02,0-.03-.02c0-.01-.04-.03-.04-.03-.02-.03-.03-.04-.04-.05,0-.02-.02-.03-.03-.04-.02,0-.02-.02-.02-.04-.02,0-.03-.02-.03-.05,0,0,0-.02-.02-.05,0-.01,0-.03,0-.04v-.07s-.01-.02-.01-.03h0s.01-.06.01-.08v-.04s0-.03.02-.05c0-.02,0-.04,0-.05,0,0,.03-.03.03-.03,0-.02.02-.04.03-.05h0l2.25-3.11h-1.83c-.28,0-.53-.23-.53-.53s.25-.53.53-.53h2.89s.04,0,.06,0h.05s.04,0,.05.02c.02,0,.04.01.05.01.01,0,.02.03.03.03.02,0,.04.02.06.03.01,0,.01,0,.01,0,0,0,.02,0,.02.02,0,0,.03.02.05.05.01,0,.02.02.03.03,0,.02.02.03.03.04,0,.01,0,.02.03.02,0,.03.02.04.02.06,0,.01,0,.03,0,.05,0,.02,0,.04.02.05v.06s0,.03,0,.04h0s0,.06,0,.06c0,.03,0,.04-.01.06,0,0,0,.03,0,.05,0,.02,0,.04-.03.05v.03s-.03.04-.05.05h0Z"/>
        <path class="cls-4" d="M137.48,215.28c-1.14,0-2.08-.94-2.08-2.08v-2.39c0-.28.24-.53.53-.53s.53.25.53.53v2.39c0,.57.45,1.02,1.02,1.02s1.04-.45,1.05-1.02v-2.39c0-.28.22-.53.52-.53.28,0,.54.25.54.53v2.39c0,1.14-.96,2.08-2.11,2.08Z"/>
      </g>
      <g>
        <path class="cls-4" d="M65.54,224.78c.01-1.36,1.07-2.5,2.44-2.5,1.3,0,2.33.97,2.41,2.32v.05s0,.07-.01.09c-.03.24-.24.4-.52.4h-3.18c.05.23.16.49.34.66.21.24.61.42.96.45.36.03.79-.06,1.04-.25.21-.22.62-.19.75-.03.13.14.23.44,0,.65-.49.45-1.08.66-1.79.66-1.37,0-2.43-1.14-2.44-2.5ZM66.63,224.29h2.83c-.1-.4-.61-.99-1.48-1.06-.85.04-1.27.65-1.35,1.06Z"/>
        <path class="cls-4" d="M74.65,222.81c0,.28-.23.53-.53.53-.23,0-.43.06-.6.19-.19.12-.34.29-.46.48-.24.32-.36.7-.41.84v1.9c0,.29-.25.53-.55.53s-.53-.24-.53-.53v-3.94c0-.29.24-.52.53-.52s.55.23.55.52v.07c.06-.07.14-.15.21-.2.33-.22.76-.4,1.26-.39.3,0,.53.23.53.52Z"/>
      </g>
      <g>
        <path class="cls-4" d="M78.84,222.81c0,.28-.23.53-.53.53-.23,0-.43.06-.6.19-.19.12-.34.29-.46.48-.24.32-.36.7-.41.84v1.9c0,.29-.25.53-.55.53s-.53-.24-.53-.53v-3.94c0-.29.24-.52.53-.52s.55.23.55.52v.07c.06-.07.14-.15.21-.2.33-.22.76-.4,1.26-.39.3,0,.53.23.53.52Z"/>
        <path class="cls-4" d="M83.93,224.79v1.96c0,.29-.24.53-.53.53-.26,0-.46-.19-.52-.43-.38.27-.83.43-1.33.43-.68,0-1.27-.28-1.7-.73-.43-.46-.68-1.08-.68-1.76s.25-1.31.68-1.76c.43-.46,1.02-.75,1.7-.75.5,0,.95.17,1.33.44.06-.25.26-.44.52-.44.29,0,.53.24.53.54v1.97ZM82.87,224.79c0-.42-.15-.78-.39-1.03-.24-.27-.58-.41-.93-.41s-.7.14-.93.41c-.24.25-.38.61-.38,1.03s.14.77.38,1.03c.23.25.57.39.93.39s.69-.14.93-.39c.24-.26.39-.62.39-1.03Z"/>
      </g>
      <path class="cls-4" d="M87.94,222.83c0,.3-.26.55-.56.55h-.25v2.79c.31,0,.55.25.55.56s-.24.55-.55.55c-.61,0-1.11-.5-1.11-1.11v-2.79h-.29c-.31,0-.55-.25-.55-.55s.24-.55.55-.55h.29v-1.45c0-.31.25-.55.56-.55s.55.24.55.55v1.45h.25c.3,0,.56.24.56.55Z"/>
      <g>
        <path class="cls-4" d="M88.74,224.78c0-1.36,1.07-2.5,2.44-2.5,1.3,0,2.33.97,2.41,2.32v.05s0,.07,0,.09c-.03.24-.24.4-.52.4h-3.18c.05.23.16.49.34.66.21.24.61.42.96.45.36.03.79-.06,1.04-.25.21-.22.62-.19.75-.03.13.14.23.44,0,.65-.49.45-1.08.66-1.79.66-1.37,0-2.43-1.14-2.44-2.5ZM89.83,224.29h2.83c-.1-.4-.61-.99-1.48-1.06-.85.04-1.27.65-1.35,1.06Z"/>
        <path class="cls-4" d="M99.15,224.36v2.39c0,.29-.23.53-.52.53s-.53-.24-.53-.53v-2.39c0-.56-.47-1.01-1.04-1.01s-1,.45-1,1.01v2.39s0,.06-.02.1c-.05.24-.27.43-.53.43-.3,0-.53-.24-.53-.53v-3.94c0-.29.23-.53.53-.53.21,0,.4.12.49.31.3-.19.67-.31,1.06-.31,1.16,0,2.09.95,2.09,2.08Z"/>
        <path class="cls-4" d="M101.54,225.86c.41,0,.75.34.75.75s-.34.74-.75.74-.74-.33-.74-.74.33-.75.74-.75Z"/>
      </g>
    </g>
  </g>
</svg>