<?xml version="1.0" encoding="UTF-8"?>
<svg xmlns="http://www.w3.org/2000/svg" viewBox="0 0 167.24 260.79">
  <defs>
    <style>
      .cls-1 {
        fill: #010101;
      }

      .cls-2 {
        fill: #171717;
      }

      .cls-3 {
        stroke: #fff;
        stroke-miterlimit: 10;
        stroke-width: .15px;
      }

      .cls-3, .cls-4 {
        fill: #fff;
      }

      .cls-5 {
        fill: #171715;
      }

      .cls-6 {
        fill: #8d74b0;
      }
    </style>
  </defs>
  <g id="Background">
    <rect class="cls-6" width="167.24" height="260.79"/>
  </g>
  <g id="Rahmen">
    <path class="cls-1" d="M151.9,23.16c9.65,0,9.67-15,0-15s-9.67,15,0,15h0Z"/>
    <path class="cls-1" d="M152.22,254.59c9.65,0,9.67-15,0-15s-9.67,15,0,15h0Z"/>
    <path class="cls-1" d="M14.14,254.72c9.65,0,9.67-15,0-15s-9.67,15,0,15h0Z"/>
    <path class="cls-2" d="M11.56,15.67c18.49.32,36.98.69,55.46,1.04,19.51.36,39.05-.42,58.56-.82,10.18-.21,20.36-.38,30.54-.21l-3.75-3.75c-1.46,11.81-1.7,23.8-1.97,35.69-.33,14.15-.39,28.31-.37,42.46.01,9.3.14,18.61.07,27.91-.06,7.86-.43,15.71-.48,23.57-.07,11.29.08,22.59.37,33.88.56,22.38,1.59,44.74,2.18,67.12.07,2.79.14,5.57.2,8.36l3.75-3.75c-15.41-.13-30.81.06-46.22.48-24.85.69-49.67.84-74.52.24-8.25-.2-16.49-.49-24.74-.73l3.75,3.75c-.56-4.87-.34-9.89-.27-14.78.11-8.38.38-16.76.66-25.14.66-20.11,1.45-40.22,1.83-60.34.16-8.4.26-16.81.05-25.21-.13-5.24-.51-10.46-.61-15.7-.33-17.03-.19-34.08-.18-51.11,0-8.91,0-17.82-.06-26.73-.04-5.94-.04-11.89-.34-17.82-.04-.72-.08-1.43-.15-2.15-.19-1.95-1.59-3.85-3.75-3.75-1.87.08-3.96,1.66-3.75,3.75.48,4.83.39,9.76.44,14.61.09,8.42.1,16.84.11,25.25,0,17.78-.1,35.55.11,53.33.06,5.22.27,10.41.52,15.62.36,7.73.31,15.47.21,23.21-.24,20.03-1.02,40.04-1.7,60.06-.3,8.95-.6,17.9-.79,26.85-.13,5.9-.3,11.84,0,17.74.04.78.09,1.55.18,2.32.24,2.06,1.53,3.69,3.75,3.75,18.27.53,36.53,1.09,54.81,1.16,23.38.09,46.73-.97,70.1-1.19,6.85-.06,13.71-.03,20.56.02,2,.02,3.79-1.73,3.75-3.75-.48-22.44-1.5-44.87-2.16-67.3-.33-11.25-.57-22.51-.6-33.77-.03-10.16.25-20.29.47-30.44.18-8.23-.03-16.48-.05-24.72-.03-13.94,0-27.88.25-41.82.23-12.54.48-25.14,1.72-37.62.11-1.1.23-2.21.37-3.31.25-2.04-1.92-3.72-3.75-3.75-19.14-.32-38.3.42-57.44.81-9.78.2-19.58.45-29.37.27-7.76-.14-15.52-.3-23.28-.45-11.49-.22-22.99-.44-34.48-.63-1.96-.03-3.84,1.75-3.75,3.75s1.65,3.71,3.75,3.75h0Z"/>
    <polygon class="cls-2" points="26.61 14.43 14.5 29.16 14.18 13.04 26.61 14.43"/>
    <polygon class="cls-2" points="140.79 14.16 152.35 27.66 154.57 11.89 140.79 14.16"/>
    <polygon class="cls-2" points="139.48 248.15 153.14 235.93 156.07 248.65 139.48 248.15"/>
    <polygon class="cls-2" points="12.9 235.54 26.24 248.54 12.31 249.36 12.9 235.54"/>
    <rect class="cls-2" width="10.32" height="260.79"/>
    <rect class="cls-2" y="249.36" width="167.24" height="11.43"/>
    <rect class="cls-5" width="167.24" height="10.33"/>
    <rect class="cls-2" x="156.12" width="11.13" height="260.79"/>
    <path class="cls-2" d="M117.73,17.19c0-.85.31-3.85,0-4.78-.82-2.49-3.11-2.81-5.35-2.81h-57.51c-2.24,0-4.53.32-5.35,2.81-.31.93,0,3.93,0,4.78l-.25,5.71c-.49,5.31,7.64,4.59,10.71,4.59l17.71.37,5.93-.07h0l5.93.07,17.71-.37c3.08,0,11.2.72,10.71-4.59l-.24-5.71Z"/>
    <path class="cls-1" d="M151.9,23.16c9.65,0,9.67-15,0-15s-9.67,15,0,15h0Z"/>
    <path class="cls-1" d="M152.22,254.59c9.65,0,9.67-15,0-15s-9.67,15,0,15h0Z"/>
    <path class="cls-1" d="M14.14,254.72c9.65,0,9.67-15,0-15s-9.67,15,0,15h0Z"/>
    <path class="cls-2" d="M11.56,15.67c18.49.32,36.98.69,55.46,1.04,19.51.36,39.05-.42,58.56-.82,10.18-.21,20.36-.38,30.54-.21l-3.75-3.75c-1.46,11.81-1.7,23.8-1.97,35.69-.33,14.15-.39,28.31-.37,42.46.01,9.3.14,18.61.07,27.91-.06,7.86-.43,15.71-.48,23.57-.07,11.29.08,22.59.37,33.88.56,22.38,1.59,44.74,2.18,67.12.07,2.79.14,5.57.2,8.36l3.75-3.75c-15.41-.13-30.81.06-46.22.48-24.85.69-49.67.84-74.52.24-8.25-.2-16.49-.49-24.74-.73l3.75,3.75c-.56-4.87-.34-9.89-.27-14.78.11-8.38.38-16.76.66-25.14.66-20.11,1.45-40.22,1.83-60.34.16-8.4.26-16.81.05-25.21-.13-5.24-.51-10.46-.61-15.7-.33-17.03-.19-34.08-.18-51.11,0-8.91,0-17.82-.06-26.73-.04-5.94-.04-11.89-.34-17.82-.04-.72-.08-1.43-.15-2.15-.19-1.95-1.59-3.85-3.75-3.75-1.87.08-3.96,1.66-3.75,3.75.48,4.83.39,9.76.44,14.61.09,8.42.1,16.84.11,25.25,0,17.78-.1,35.55.11,53.33.06,5.22.27,10.41.52,15.62.36,7.73.31,15.47.21,23.21-.24,20.03-1.02,40.04-1.7,60.06-.3,8.95-.6,17.9-.79,26.85-.13,5.9-.3,11.84,0,17.74.04.78.09,1.55.18,2.32.24,2.06,1.53,3.69,3.75,3.75,18.27.53,36.53,1.09,54.81,1.16,23.38.09,46.73-.97,70.1-1.19,6.85-.06,13.71-.03,20.56.02,2,.02,3.79-1.73,3.75-3.75-.48-22.44-1.5-44.87-2.16-67.3-.33-11.25-.57-22.51-.6-33.77-.03-10.16.25-20.29.47-30.44.18-8.23-.03-16.48-.05-24.72-.03-13.94,0-27.88.25-41.82.23-12.54.48-25.14,1.72-37.62.11-1.1.23-2.21.37-3.31.25-2.04-1.92-3.72-3.75-3.75-19.14-.32-38.3.42-57.44.81-9.78.2-19.58.45-29.37.27-7.76-.14-15.52-.3-23.28-.45-11.49-.22-22.99-.44-34.48-.63-1.96-.03-3.84,1.75-3.75,3.75s1.65,3.71,3.75,3.75h0Z"/>
    <polygon class="cls-2" points="26.61 14.43 14.5 29.16 14.18 13.04 26.61 14.43"/>
    <polygon class="cls-2" points="140.79 14.16 152.35 27.66 154.57 11.89 140.79 14.16"/>
    <polygon class="cls-2" points="139.48 248.15 153.14 235.93 156.07 248.65 139.48 248.15"/>
    <polygon class="cls-2" points="12.9 235.54 26.24 248.54 12.31 249.36 12.9 235.54"/>
    <rect class="cls-2" width="10.32" height="260.79"/>
    <rect class="cls-2" y="249.36" width="167.24" height="11.43"/>
    <rect class="cls-5" width="167.24" height="10.33"/>
    <rect class="cls-2" x="156.12" width="11.13" height="260.79"/>
  </g>
  <g id="Kategorie_Name" data-name="Kategorie Name">
    <g>
      <path class="cls-6" d="M56.65,21.16c-.01.07-.02.17-.03.31s-.02.29-.04.44c-.01.15-.04.29-.06.42-.03.13-.05.21-.08.25-.03.03-.15.06-.36.07-.21.02-.44.03-.7.03s-.5,0-.73,0h-.45c-.18,0-.32-.02-.42-.05-.1-.03-.12-.17-.08-.41.03-.15.08-.42.15-.81.07-.39.15-.85.24-1.39.09-.54.19-1.13.31-1.77s.23-1.28.35-1.92c.11-.64.23-1.27.34-1.87s.21-1.14.31-1.62.18-.86.25-1.15c.07-.29.12-.45.15-.47.02-.01.06-.02.12-.02.06,0,.13,0,.2,0s.15,0,.22,0,.12,0,.15,0c.63.02,1.24,0,1.83-.07.59-.07,1.2-.13,1.83-.18.1-.01.19.02.26.08.07.07.12.15.17.25.04.1.07.2.1.32.03.11.05.22.07.3.17.75.3,1.5.38,2.26.08.75.17,1.5.25,2.26.09.86.17,1.74.23,2.64.06.9.18,1.77.35,2.62,0,.05.02.13.04.21.02.09.03.18.04.28s0,.19,0,.27c0,.08-.04.14-.1.17-.03.02-.12.04-.29.05s-.36.02-.58.02c-.23,0-.48,0-.75,0s-.52,0-.76,0c-.23,0-.44-.01-.61-.02-.18,0-.28-.01-.32-.02-.1-.02-.16-.07-.17-.15-.05-.21-.07-.43-.07-.65s0-.45-.02-.67c-.28-.03-.56-.05-.85-.04-.28,0-.57,0-.85,0ZM57.91,14.04c-.17.82-.33,1.63-.47,2.43-.15.8-.29,1.61-.43,2.43.2-.02.41-.04.62-.05s.42,0,.62.02c-.04-.81-.09-1.61-.16-2.41-.06-.8-.12-1.6-.17-2.41Z"/>
      <path class="cls-6" d="M67.76,22.32c-.41.12-.83.17-1.27.16-.43-.02-.85-.1-1.26-.25-.41-.15-.78-.37-1.12-.65-.34-.29-.62-.65-.83-1.07-.2-.39-.35-.81-.46-1.27-.1-.45-.18-.9-.23-1.35,0-.11-.02-.3-.03-.59-.01-.28-.01-.6,0-.96,0-.35.02-.72.04-1.11.02-.39.05-.74.08-1.07.03-.33.08-.6.15-.81.07-.21.14-.32.23-.33.06-.01.22,0,.49,0,.26.02.55.04.85.06.3.02.58.05.84.07.26.03.42.05.49.06.11.02.16.09.15.21,0,.12-.02.22-.03.31-.05.35-.08.71-.09,1.07,0,.37-.02.72-.03,1.07,0,.17,0,.43,0,.76s.04.65.11.96c.06.31.17.56.33.76.15.2.38.24.67.13.2-.08.37-.22.5-.44.13-.21.22-.48.26-.82s.06-.71.05-1.13c-.01-.41-.04-.84-.09-1.29-.05-.45-.11-.88-.17-1.3-.07-.42-.13-.81-.19-1.18-.06-.36-.11-.67-.13-.92-.02-.11-.02-.2.01-.27s.1-.12.21-.14c.07-.01.24-.03.51-.06.27-.03.56-.05.86-.07.31-.02.58-.04.83-.04s.39,0,.43.02c.06.03.12.13.17.29.05.16.09.33.13.52.04.19.07.37.1.55.03.18.04.31.05.38.05.36.1.78.15,1.25.05.47.09.97.11,1.5.02.52.03,1.05.02,1.59s-.05,1.06-.12,1.56c-.07.5-.17.97-.3,1.4-.13.43-.31.8-.53,1.1-.24.34-.53.62-.88.83-.35.22-.71.38-1.09.49Z"/>
      <path class="cls-6" d="M74.54,18.21v2.46c0,.38,0,.72,0,1.04,0,.32-.01.58-.02.79s-.02.32-.03.33c-.01.01-.08.02-.21.04-.13.02-.29.03-.47.03-.19,0-.39.01-.61.02-.22,0-.43.01-.62.02-.19,0-.35,0-.49,0-.13,0-.22-.01-.25-.02-.08-.03-.13-.09-.16-.18-.03-.09-.04-.17-.04-.25,0-.27,0-.72-.02-1.36s-.02-1.35-.02-2.15c0-.8,0-1.64,0-2.51s0-1.69.02-2.44c.01-.76.04-1.41.07-1.95.04-.54.08-.89.14-1.05.05-.12.12-.21.21-.28.04-.02.21-.04.5-.05s.66-.01,1.09,0c.43,0,.89.01,1.39.02.5.01.97.02,1.42.04.45.02.84.04,1.17.06s.54.04.63.05c.02,0,.05.01.1.04.04.03.07.05.08.07.02.04.02.11,0,.19-.01.08-.03.15-.04.2-.02.15-.03.34-.04.56,0,.22-.02.44-.03.67s-.03.45-.05.66-.05.38-.09.5c-.09.07-.29.1-.61.11-.32,0-.66,0-1.02,0-.37-.01-.72-.03-1.06-.05s-.59-.03-.74-.03c-.03.23-.06.46-.08.68-.03.22-.05.45-.07.68.51-.04,1.03-.09,1.56-.15s1.05-.07,1.56-.05c.1,0,.16.03.18.08.02.04.04.11.04.21s.02.2.02.31v.56c0,.08,0,.21.01.41,0,.2.01.4.01.62s0,.42-.01.6c0,.18-.04.29-.08.34-.06.07-.25.11-.56.14-.31.03-.66.04-1.04.04s-.73,0-1.08-.02c-.34-.01-.58-.02-.7-.02Z"/>
      <path class="cls-6" d="M84.86,17.85s-.13,0-.25.02c-.12.02-.24.03-.36.03s-.24,0-.34,0-.17-.01-.2-.03c-.04-.03-.07-.15-.1-.36-.03-.21-.04-.44-.05-.69,0-.25,0-.48,0-.69,0-.21.03-.33.06-.37.05-.05.13-.08.25-.09.11,0,.21,0,.28,0,.42-.01.83,0,1.22.02.39.03.8.02,1.22,0,.08-.01.19-.02.34-.03.15-.01.25,0,.32.02.08.02.16.06.24.11.08.05.13.13.15.21.03.09.05.2.06.33s.02.28.02.43,0,.29,0,.43,0,.26,0,.36c-.02.56-.07,1.09-.14,1.59-.07.51-.21.98-.39,1.41-.19.44-.44.82-.77,1.14-.33.33-.76.59-1.3.78-.52.19-1.08.26-1.67.22s-1.15-.16-1.66-.35c-.3-.12-.58-.27-.86-.46-.27-.19-.51-.4-.72-.65-.29-.35-.53-.79-.72-1.33-.19-.54-.33-1.12-.41-1.75-.08-.63-.12-1.27-.1-1.95.02-.67.09-1.31.22-1.93.12-.62.3-1.18.53-1.7.22-.52.5-.94.82-1.27.36-.36.78-.63,1.25-.82.48-.19.97-.3,1.48-.34.51-.04,1.02-.02,1.52.06.5.09.97.23,1.4.43.05.02.12.05.21.1.09.04.18.1.27.16.09.06.17.12.25.18.07.06.12.12.13.19,0,.04-.03.16-.11.34s-.18.39-.29.6c-.1.22-.21.42-.31.62s-.17.33-.19.39c-.02.04-.05.11-.09.19-.04.08-.08.16-.13.25s-.09.16-.14.23-.1.11-.13.12c-.01,0-.08-.04-.2-.11s-.29-.16-.49-.25c-.2-.09-.42-.16-.67-.22-.25-.06-.49-.07-.74-.04-.25.03-.49.13-.72.3-.23.17-.42.44-.58.81-.12.27-.2.63-.25,1.06-.04.44-.05.88-.01,1.34.04.46.12.88.26,1.27.14.39.34.67.6.84.21.14.44.21.68.21s.46-.06.66-.17.37-.27.5-.48c.13-.21.2-.45.21-.74Z"/>
      <path class="cls-6" d="M91.03,21.16c-.01.07-.02.17-.03.31s-.02.29-.04.44c-.01.15-.04.29-.06.42-.03.13-.05.21-.08.25-.03.03-.15.06-.36.07-.21.02-.44.03-.7.03s-.5,0-.73,0h-.45c-.18,0-.32-.02-.42-.05-.1-.03-.12-.17-.08-.41.03-.15.08-.42.15-.81.07-.39.15-.85.24-1.39.09-.54.19-1.13.31-1.77s.23-1.28.35-1.92c.11-.64.23-1.27.34-1.87s.21-1.14.31-1.62.18-.86.25-1.15c.07-.29.12-.45.15-.47.02-.01.06-.02.12-.02.06,0,.13,0,.2,0s.15,0,.22,0,.12,0,.15,0c.63.02,1.24,0,1.83-.07.59-.07,1.2-.13,1.83-.18.1-.01.19.02.26.08.07.07.12.15.17.25.04.1.07.2.1.32.03.11.05.22.07.3.17.75.3,1.5.38,2.26.08.75.17,1.5.25,2.26.09.86.17,1.74.23,2.64.06.9.18,1.77.35,2.62,0,.05.02.13.04.21.02.09.03.18.04.28s0,.19,0,.27c0,.08-.04.14-.1.17-.03.02-.12.04-.29.05s-.36.02-.58.02c-.23,0-.48,0-.75,0s-.52,0-.76,0c-.23,0-.44-.01-.61-.02-.18,0-.28-.01-.32-.02-.1-.02-.16-.07-.17-.15-.05-.21-.07-.43-.07-.65s0-.45-.02-.67c-.28-.03-.56-.05-.85-.04-.28,0-.57,0-.85,0ZM92.29,14.04c-.17.82-.33,1.63-.47,2.43-.15.8-.29,1.61-.43,2.43.2-.02.41-.04.62-.05s.42,0,.62.02c-.04-.81-.09-1.61-.16-2.41-.06-.8-.12-1.6-.17-2.41Z"/>
      <path class="cls-6" d="M103.52,16.63c.51.19.94.5,1.3.94.35.44.6.92.74,1.45.14.52.15,1.05.04,1.57-.12.52-.39.96-.83,1.31-.44.35-.87.59-1.28.74s-.88.23-1.41.28c-.48.03-.97.06-1.46.08-.49.02-.98.02-1.46,0-.08,0-.19,0-.33-.02-.14-.01-.28-.03-.42-.06-.14-.03-.27-.06-.4-.09s-.22-.08-.28-.13c-.05-.05-.1-.1-.14-.15-.04-.04-.08-.1-.1-.18-.08-.26-.12-.55-.13-.87-.01-.32-.03-.62-.06-.91-.11-1.11-.17-2.22-.2-3.34-.02-1.11,0-2.23.05-3.35.02-.38.04-.77.07-1.17.02-.4.04-.79.04-1.17v-.35c0-.07,0-.13,0-.19,0-.05.01-.09.02-.11,0-.04.08-.08.22-.11.13-.03.3-.05.5-.07.2-.02.42-.04.66-.04.24,0,.47-.01.69-.02.22,0,.42,0,.59,0h.37s.1,0,.15,0,.1.02.15.06c.06,0,.1.04.11.11.01.08.02.17.02.27s0,.21-.02.31c-.01.1-.02.18-.02.22.11-.11.22-.21.34-.29.12-.09.24-.17.37-.25.66-.36,1.25-.51,1.78-.44s.97.26,1.33.6c.36.33.62.75.79,1.27.17.51.21,1.04.15,1.57-.06.53-.25,1.03-.57,1.5-.32.46-.77.81-1.37,1.04ZM100.46,14.37c-.01.22-.02.44-.03.65,0,.22-.01.44-.01.65.2-.01.4-.02.6-.02s.39-.05.57-.14c.19-.1.33-.24.43-.43.09-.19.14-.37.15-.56,0-.19-.04-.34-.13-.47-.09-.13-.23-.19-.41-.18-.19.02-.39.09-.6.2-.21.11-.4.21-.57.29ZM100.54,19.93c.28.01.56,0,.84-.05.19-.03.36-.12.52-.27s.28-.32.36-.52.1-.4.07-.6-.15-.37-.34-.52c-.1-.07-.21-.11-.34-.13-.13-.02-.27-.03-.41-.02-.15,0-.29.01-.43.02-.14.01-.27.01-.39,0,0,.35,0,.69.03,1.04.02.34.05.69.09,1.04Z"/>
      <path class="cls-6" d="M112.85,22.64s-.2.05-.48.07c-.28.03-.62.05-1.02.08-.4.03-.84.05-1.31.08-.47.03-.92.05-1.35.07-.43.02-.8.02-1.12.02s-.54,0-.65-.02c-.12-.02-.21-.08-.26-.16-.06-.09-.08-.19-.08-.31,0-.25,0-.7-.01-1.34-.01-.64-.02-1.38-.02-2.2,0-.82,0-1.68,0-2.58s0-1.74.03-2.51c.02-.77.05-1.43.1-1.98s.11-.87.19-.98c.06-.08.15-.14.28-.18.05-.01.23-.02.53-.02s.66,0,1.09,0c.42,0,.88.02,1.36.03.49.02.94.03,1.37.05.43.02.8.03,1.12.05.32.02.51.03.58.04.07.01.12.05.15.11.03.06.04.13.04.21s0,.17-.02.25c-.01.09-.03.16-.04.21-.01.07-.02.21-.03.43,0,.22-.02.46-.04.7-.02.25-.04.47-.07.67-.03.2-.07.31-.11.33-.05.03-.13.05-.23.06-.11,0-.19,0-.26,0-.48.02-.96.02-1.44-.02-.48-.03-.96-.05-1.44-.07-.03.23-.06.46-.08.68-.03.22-.05.45-.07.68.19-.01.43-.03.71-.07s.58-.06.88-.09c.3-.03.58-.05.85-.06.27-.01.49,0,.66.02.14.02.22.1.23.25.01.14.02.27.02.39,0,.09,0,.26.01.51.01.25.02.51.02.78s0,.51,0,.74-.02.37-.05.41c-.05.09-.23.15-.55.18-.32.03-.67.05-1.05.06-.39,0-.75,0-1.1-.02-.35-.02-.58-.02-.71-.02v1.83c.39,0,.77,0,1.15-.02s.76-.03,1.14-.05c.13-.01.26-.03.4-.05s.27-.03.4-.03c.08,0,.13.01.17.03.03.02.06.07.09.15.03.07.05.22.06.47,0,.25.02.51.02.78s0,.54,0,.79c-.01.25-.02.43-.03.52Z"/>
    </g>
  </g>
  <g id="Schlücke">
    <g>
      <path class="cls-3" d="M9.42,250.32s0,.17,0,.37c0,.2,0,.41-.01.64s0,.43-.02.61c0,.18-.01.27-.01.28-.03.08-.13.14-.31.17-.17.03-.36.05-.58.06s-.42,0-.62,0-.34-.01-.42-.01c-.04,0-.09,0-.15,0-.06,0-.12,0-.18,0s-.12,0-.17-.02-.09-.04-.1-.08c0-.02-.01-.07-.01-.16s0-.21,0-.35c0-.14.01-.29.02-.45,0-.16.01-.31.02-.46,0-.15,0-.28.01-.39,0-.11,0-.19,0-.24-.07,0-.21,0-.43.01-.21,0-.43.01-.67.02-.23,0-.44,0-.64,0-.19,0-.31-.02-.35-.04-.06-.03-.11-.09-.13-.17,0-.03-.01-.15-.01-.34s0-.41.01-.65c0-.24.02-.46.03-.66s.02-.33.03-.39c.02-.11.07-.19.16-.24.04-.02.15-.04.33-.05.18-.01.38-.02.59-.03s.42-.01.61-.02c.2,0,.33,0,.4,0,0-.07,0-.2-.02-.38-.02-.18-.03-.37-.04-.56s-.01-.37-.02-.53c0-.16,0-.27.03-.31.04-.07.1-.12.17-.14.02,0,.13-.01.33-.02.2,0,.41,0,.65,0,.24,0,.46,0,.67.01.21,0,.34.01.39.02.05,0,.09.02.14.04.04.02.08.05.1.1.02.06.05.17.07.34.02.17.04.35.05.55.01.2.02.38.04.56.01.18.02.31.02.39.12,0,.26,0,.41,0,.16,0,.31,0,.47.01.16,0,.32.01.47.02.15.01.29.03.4.05.06.05.11.09.14.13.03.04.04.1.05.19v.63c0,.16,0,.32,0,.5,0,.18,0,.34-.01.49,0,.15,0,.27-.01.37s0,.15-.02.16c-.02.04-.12.06-.3.06s-.37,0-.58-.02c-.21-.01-.42-.03-.61-.05-.2-.02-.33-.03-.39-.03Z"/>
      <path class="cls-3" d="M16.67,247.92c.5.13.89.37,1.16.74.27.36.41.77.44,1.21.02.44-.07.89-.29,1.34-.22.45-.56.83-1.02,1.15s-1.05.51-1.76.61-1.54,0-2.49-.27c-.06-.02-.15-.04-.25-.06-.1-.02-.19-.06-.28-.1s-.15-.09-.2-.15c-.05-.06-.05-.14-.01-.23.08-.2.15-.4.2-.61.05-.21.09-.42.1-.62,0-.06.01-.15.01-.25s.03-.18.1-.22c.02,0,.08,0,.19.02.11.02.24.05.4.08.16.03.34.06.54.08.2.02.4.02.59,0,.2-.02.38-.08.56-.16s.33-.21.46-.38c.08-.1.13-.21.14-.33.02-.12,0-.23-.03-.34-.04-.11-.1-.21-.18-.29-.08-.09-.19-.16-.31-.2-.1-.03-.2-.05-.32-.06-.12,0-.24,0-.37,0-.12.01-.25.03-.37.04-.12.02-.23.03-.34.04h-.15c-.06,0-.1-.03-.11-.08.04-.21.08-.46.11-.76s.03-.55,0-.76c.02-.04.13-.07.33-.09s.41-.06.65-.11.45-.14.65-.25c.2-.12.32-.29.36-.51.03-.18-.01-.33-.13-.47-.12-.14-.26-.23-.42-.28-.21-.06-.45-.06-.73.02-.28.08-.54.16-.79.25s-.47.14-.64.16c-.18.02-.26-.06-.26-.23v-.84c0-.18,0-.34,0-.49,0-.15.01-.24.03-.27.04-.09.11-.15.2-.18.78-.27,1.49-.4,2.12-.38.63.02,1.17.13,1.61.33.45.2.8.48,1.07.82.26.34.42.7.47,1.08.05.38,0,.75-.18,1.12-.17.36-.47.67-.88.92Z"/>
    </g>
    <g>
      <path class="cls-3" d="M152.7,17.28s0,.17,0,.37c0,.2,0,.41-.01.64,0,.23-.01.43-.02.61,0,.18-.01.27-.01.28-.03.08-.13.14-.31.17-.17.03-.36.05-.58.06s-.42,0-.62,0-.34-.01-.42-.01c-.04,0-.09,0-.15,0-.06,0-.12,0-.18,0s-.12,0-.17-.02-.09-.04-.1-.08c0-.02-.01-.07-.01-.16s0-.21,0-.35c0-.14.01-.29.02-.45,0-.16.01-.31.02-.46,0-.15,0-.28.01-.39,0-.11,0-.19,0-.24-.07,0-.21,0-.43.01-.21,0-.43.01-.67.02-.23,0-.44,0-.64,0-.19,0-.31-.02-.35-.04-.06-.03-.11-.09-.13-.17,0-.03-.01-.15-.01-.34s0-.41.01-.65c0-.24.02-.46.03-.66.01-.2.02-.33.03-.39.02-.11.07-.19.16-.24.04-.02.15-.04.33-.05.18-.01.38-.02.59-.03s.42-.01.61-.02c.2,0,.33,0,.4,0,0-.07,0-.2-.02-.38-.02-.18-.03-.37-.04-.56s-.01-.37-.02-.53c0-.16,0-.27.03-.31.04-.07.1-.12.17-.14.02,0,.13-.01.33-.02s.41,0,.65,0c.24,0,.46,0,.67.01.21,0,.34.01.39.02.05,0,.09.02.14.04.04.02.08.05.1.1.02.06.05.17.07.34.02.17.04.35.05.55.01.2.02.38.04.56.01.18.02.31.02.39.12,0,.26,0,.41,0,.16,0,.31,0,.47.01.16,0,.32.01.47.02.15.01.28.03.4.05.06.05.11.09.14.13s.05.1.05.19v.63c0,.16,0,.32,0,.5,0,.18,0,.34-.01.49,0,.15,0,.27-.01.37s-.01.15-.02.16c-.02.04-.12.06-.3.06s-.37,0-.58-.02-.42-.03-.61-.05c-.2-.02-.33-.03-.39-.03Z"/>
      <path class="cls-3" d="M159.94,14.88c.5.13.89.37,1.16.74.27.36.41.77.44,1.21.02.44-.07.89-.29,1.34-.22.45-.56.83-1.02,1.15s-1.05.51-1.76.61-1.54,0-2.49-.27c-.06-.02-.15-.04-.25-.06-.1-.02-.19-.06-.28-.1s-.15-.09-.2-.15c-.05-.06-.05-.14-.01-.23.08-.2.15-.4.2-.61s.09-.42.1-.62c0-.06.01-.15.01-.25s.03-.18.1-.22c.02,0,.08,0,.19.02.11.02.24.05.4.08.16.03.34.06.54.08.2.02.4.02.59,0,.2-.02.38-.08.56-.16s.33-.21.46-.38c.08-.1.13-.21.14-.33.02-.12,0-.23-.03-.34-.04-.11-.1-.21-.18-.29-.08-.09-.19-.16-.31-.2-.1-.03-.2-.05-.32-.06-.12,0-.24,0-.37,0-.12.01-.25.03-.37.04-.12.02-.23.03-.34.04h-.15c-.06,0-.1-.03-.11-.08.04-.21.08-.46.11-.76.03-.3.03-.55,0-.76.02-.04.13-.07.33-.09.2-.02.41-.06.65-.11s.45-.14.65-.25c.2-.12.32-.29.36-.51.03-.18-.01-.33-.13-.47-.12-.14-.26-.23-.42-.28-.21-.06-.45-.06-.73.02-.28.08-.54.16-.79.25s-.47.14-.64.16c-.18.02-.26-.06-.26-.23v-.84c0-.18,0-.34,0-.49s.01-.24.03-.27c.04-.09.11-.15.2-.18.78-.27,1.49-.4,2.12-.38.63.02,1.17.13,1.61.33.45.2.8.48,1.07.82.26.34.42.7.47,1.08.05.38,0,.75-.18,1.12-.17.36-.47.67-.88.92Z"/>
    </g>
  </g>
  <g id="Motive">
    <path class="cls-2" d="M71.69,107.5c-.44-.88-.88-1.76-1.31-2.65.16,1.01.33,2.01.52,2.99.19.98.38,1.97.58,2.97.24-.13.49-.25.74-.37.26-.11.51-.21.77-.28-.42-.9-.85-1.78-1.3-2.66ZM71.69,107.5c-.44-.88-.88-1.76-1.31-2.65.16,1.01.33,2.01.52,2.99.19.98.38,1.97.58,2.97.24-.13.49-.25.74-.37.26-.11.51-.21.77-.28-.42-.9-.85-1.78-1.3-2.66ZM71.69,107.5c-.44-.88-.88-1.76-1.31-2.65.16,1.01.33,2.01.52,2.99.19.98.38,1.97.58,2.97.24-.13.49-.25.74-.37.26-.11.51-.21.77-.28-.42-.9-.85-1.78-1.3-2.66ZM97.88,96.95c-.44-.88-.88-1.76-1.31-2.65.16,1.01.34,2.01.53,2.99.18.98.38,1.97.58,2.96.23-.12.48-.24.74-.36.25-.11.51-.21.76-.29-.41-.89-.85-1.78-1.3-2.65ZM97.88,96.95c-.44-.88-.88-1.76-1.31-2.65.16,1.01.34,2.01.53,2.99.18.98.38,1.97.58,2.96.23-.12.48-.24.74-.36.25-.11.51-.21.76-.29-.41-.89-.85-1.78-1.3-2.65ZM71.69,107.5c-.44-.88-.88-1.76-1.31-2.65.16,1.01.33,2.01.52,2.99.19.98.38,1.97.58,2.97.24-.13.49-.25.74-.37.26-.11.51-.21.77-.28-.42-.9-.85-1.78-1.3-2.66ZM118.56,79.13c-3.59-1.89-7.62-2.11-11.53-1.17-.98.23-1.92.65-2.89.86-8.54-8.43-24.89-6.1-29.72,5.18-.98-.26-1.91-.67-2.89-.92-7.45-1.83-15.24,1.13-19.34,7.6-1.85,2.93-2.74,6.39-2.64,9.83-8.27,3.8-11.1,13.13-8.03,21.46,3.49,9.49,14.44,13.17,23.22,8.31,1.55.59,3.11,1.18,4.75,1.44,6.59,1.07,13.73-1.83,16.83-7.87.16-.03,1.2.84,1.45,1,3.22,2.12,8.19,3.68,12.05,3.21,1.78-.22,3.7-1.22,3.26-3.34-.17-.79-1.56-1.5-2.16-2.05-1.28-1.19-2.41-3.08-2.8-4.79,3.8,1.16,7.85,1.42,11.62,0,5.03-1.88,8.65-6.38,9.71-11.62,10.88-5.51,9.31-21.75-.89-27.13ZM65.77,118c-.32.17-.68.34-1.1.51-.42.17-.83.32-1.23.46-.4.14-.66.24-.8.29-.09.04-.16.04-.24,0-.07-.03-.13-.09-.19-.16-.06-.07-.11-.14-.16-.22-.04-.09-.08-.16-.1-.22-.37-.8-.69-1.61-.96-2.44-.28-.82-.61-1.63-1-2.42-.7.19-1.38.44-2.03.75.03.12.11.34.22.66.12.32.25.68.39,1.1.15.41.3.86.45,1.32s.29.89.42,1.28c.13.4.23.73.29,1,.07.27.09.42.08.45-.02.04-.05.06-.09.07-.05.01-.09.03-.13.04-.58.15-1.16.36-1.72.63-.56.27-1.12.5-1.69.7-.07.03-.15.05-.22.07-.07.01-.13-.03-.19-.12-.18-.34-.34-.74-.47-1.18-.13-.44-.27-.85-.41-1.22-.31-.84-.63-1.67-.96-2.5-.33-.82-.66-1.64-1-2.47-.21-.52-.42-1.03-.64-1.53-.21-.51-.44-1.01-.67-1.52-.04-.09-.06-.16-.08-.22-.02-.06.02-.12.09-.18.33-.16.61-.29.85-.41.24-.12.5-.25.78-.38.28-.14.55-.27.81-.39.25-.13.47-.23.66-.32.2-.1.32-.15.38-.18.07-.02.13-.04.2-.06.06-.01.13,0,.18.04.08.04.18.18.31.43.12.24.25.51.38.8.14.29.26.57.37.84.11.28.18.47.23.58.34-.18.68-.35,1.03-.5.34-.15.68-.31,1.04-.46-.04-.09-.11-.27-.22-.54s-.24-.59-.38-.96c-.15-.36-.31-.74-.48-1.14-.17-.4-.32-.77-.45-1.1-.14-.34-.25-.61-.33-.83-.09-.22-.13-.33-.12-.35.03-.1.17-.22.42-.37s.53-.3.83-.45c.31-.14.61-.28.9-.4.28-.12.49-.21.6-.25.07-.03.17-.07.3-.11.12-.05.25-.09.39-.13.13-.04.26-.07.39-.08.12-.01.21,0,.27.03.05.04.09.08.11.13s.04.1.06.14c.36,1.07.74,2.13,1.14,3.18.4,1.05.81,2.1,1.23,3.14.42,1.04.84,2.07,1.26,3.11s.83,2.08,1.24,3.13c.02.07.06.15.1.24.05.09.08.17.09.24.02.13-.12.28-.43.45ZM79.25,112.59s-.13.11-.33.2c-.19.09-.43.2-.71.32-.28.12-.59.25-.92.38-.34.14-.65.26-.94.37-.3.11-.55.21-.77.29-.22.08-.36.12-.41.13-.14.03-.23,0-.27-.08-.16-.21-.29-.45-.39-.71-.09-.26-.21-.51-.33-.75-.36.1-.72.23-1.07.37-.35.15-.7.3-1.04.44.02.07.05.2.1.36.06.17.11.34.16.52s.09.36.12.52c.03.16.03.26.01.31-.02.06-.16.14-.41.27-.26.12-.54.25-.85.38-.31.14-.61.26-.9.37-.28.12-.46.19-.55.23-.23.09-.41.14-.54.15-.14.01-.24-.13-.28-.42-.04-.19-.1-.52-.19-1-.09-.47-.2-1.04-.34-1.69-.13-.66-.27-1.38-.42-2.16-.15-.78-.3-1.57-.46-2.35-.15-.79-.29-1.55-.43-2.29-.14-.75-.26-1.41-.36-1.99-.1-.59-.18-1.07-.22-1.44-.05-.36-.06-.57-.03-.61.02-.02.06-.05.13-.09.07-.03.16-.07.25-.11.09-.03.18-.07.27-.1.09-.02.15-.05.19-.06.79-.29,1.53-.62,2.23-.99.7-.36,1.43-.74,2.18-1.11.12-.06.24-.08.36-.04.11.04.22.11.32.2.09.09.18.2.26.31.08.12.16.22.22.31.56.77,1.06,1.56,1.51,2.37s.89,1.62,1.33,2.44c.51.93,1.01,1.89,1.5,2.88.49.99,1.04,1.92,1.63,2.8.04.06.09.13.16.22.06.09.12.19.17.3.05.1.09.21.11.31.03.09.01.18-.05.24ZM91.96,107.45c-.31.17-.68.34-1.1.51-.42.17-.83.32-1.22.46-.4.14-.67.24-.8.29-.09.04-.17.03-.24,0-.07-.04-.14-.09-.19-.16-.06-.07-.11-.15-.16-.23s-.08-.15-.11-.21c-.37-.8-.69-1.62-.96-2.44-.27-.82-.61-1.63-1-2.42-.69.19-1.37.44-2.02.75.03.11.1.33.22.65.11.32.24.69.39,1.11.15.41.29.85.44,1.32.15.46.3.89.42,1.28.13.4.23.73.3.99.06.27.09.42.07.46-.01.03-.04.06-.09.07-.05.01-.09.02-.12.04-.59.15-1.16.36-1.72.63-.56.26-1.13.5-1.69.7-.08.03-.15.05-.22.06-.08.02-.14-.02-.19-.11-.18-.35-.34-.74-.48-1.18-.13-.44-.27-.85-.4-1.23-.31-.84-.63-1.67-.96-2.49-.34-.82-.67-1.65-1-2.48-.21-.52-.43-1.03-.64-1.53-.22-.5-.44-1.01-.68-1.52-.03-.08-.06-.15-.07-.21-.02-.06.01-.12.09-.18.32-.16.6-.3.84-.42.24-.11.5-.24.79-.38.28-.13.55-.26.8-.38.25-.13.47-.23.67-.33.19-.09.32-.15.38-.17.06-.03.13-.05.19-.06.07-.01.13,0,.19.03.07.05.17.19.3.43.13.25.26.51.39.81.13.29.25.57.36.84.11.27.19.46.23.58.35-.19.69-.35,1.03-.5.34-.16.69-.31,1.04-.47-.03-.08-.11-.26-.21-.53-.11-.28-.24-.59-.39-.96-.15-.36-.3-.75-.47-1.15-.17-.4-.32-.76-.46-1.1-.13-.33-.24-.61-.33-.82-.07-.2-.12-.32-.12-.35.04-.1.17-.23.42-.38.25-.15.53-.3.84-.44.31-.15.6-.28.89-.4.29-.13.49-.21.6-.26.07-.03.17-.06.3-.11.13-.04.26-.08.39-.12.14-.04.27-.07.39-.08.12-.02.21,0,.27.03.06.03.1.07.12.12.02.05.04.1.06.15.35,1.07.73,2.12,1.14,3.18.4,1.05.81,2.1,1.23,3.13.41,1.04.83,2.08,1.25,3.12.42,1.04.83,2.08,1.24,3.12.03.08.07.16.11.25.04.09.07.17.08.24.03.13-.12.28-.43.45ZM105.45,102.04s-.14.11-.33.2c-.2.09-.43.2-.72.32-.28.12-.59.25-.92.38-.33.14-.65.26-.94.37-.29.11-.55.2-.77.29-.22.08-.35.12-.41.13-.13.02-.22,0-.27-.09-.16-.21-.28-.44-.38-.7-.1-.27-.21-.52-.34-.75-.36.1-.71.22-1.06.37-.35.15-.7.29-1.05.43.02.08.05.21.11.37.05.17.1.34.15.52s.09.35.12.51c.03.16.04.27.01.32-.02.05-.16.14-.41.26-.25.13-.53.26-.85.39-.31.13-.61.26-.89.37-.29.12-.47.19-.56.23-.22.09-.4.14-.54.15s-.23-.13-.28-.43c-.03-.18-.1-.52-.19-.99-.09-.47-.2-1.04-.33-1.7-.14-.65-.28-1.37-.43-2.15-.15-.78-.3-1.57-.45-2.36-.15-.78-.3-1.55-.44-2.29s-.26-1.4-.36-1.99c-.1-.58-.17-1.06-.22-1.43s-.06-.57-.03-.61c.02-.02.06-.05.14-.09.07-.03.15-.07.24-.11.1-.04.19-.07.27-.1.09-.03.16-.05.19-.06.79-.29,1.54-.62,2.24-.99s1.43-.74,2.18-1.12c.12-.06.24-.07.35-.03.12.04.22.11.32.2.09.09.18.19.26.31.09.12.16.22.23.31.55.77,1.05,1.56,1.5,2.37s.89,1.62,1.34,2.44c.5.93,1,1.89,1.49,2.88.49.98,1.04,1.92,1.64,2.8.03.05.09.13.15.22s.12.18.17.29c.05.11.09.22.12.31.02.1.01.18-.05.25ZM107.16,96.17c-.15-.01-.35-.2-.6-.58-.26-.38-.53-.86-.83-1.45-.3-.58-.6-1.22-.9-1.91s-.58-1.35-.83-1.97c-.25-.63-.46-1.18-.64-1.66-.17-.47-.26-.79-.28-.96-.03-.12,0-.22.06-.29.06-.08.14-.14.25-.19.1-.05.21-.09.32-.12.11-.03.21-.05.3-.08.13-.03.37-.11.71-.23.35-.12.71-.23,1.1-.34.37-.11.72-.19,1.04-.25.31-.05.51-.03.59.06.06.08.12.2.17.36.05.16.1.33.15.51s.09.35.13.53c.03.17.06.31.09.41.26,1.04.56,2.05.9,3.04s.68,1.99,1.01,2.99c.03.11.08.27.14.48.06.2.06.37,0,.49-.03.07-.07.12-.11.14-.05.03-.1.06-.16.1-.09.05-.27.13-.53.23-.26.11-.53.21-.81.32-.28.1-.54.2-.78.27-.24.08-.41.11-.5.1ZM111.75,99.01c-.07.26-.26.5-.57.73s-.74.49-1.28.77c-.12.06-.25.11-.38.15-.12.03-.25.04-.37.02-.11-.02-.24-.12-.4-.33-.16-.2-.32-.42-.47-.67-.15-.25-.28-.49-.39-.73-.11-.23-.17-.41-.17-.52-.01-.21.07-.37.25-.48s.34-.22.48-.33c.1-.09.22-.18.37-.3.14-.12.3-.24.47-.35.17-.12.33-.22.5-.29.16-.07.31-.1.43-.08.11.03.2.07.28.13.07.05.15.12.22.21.42.48.72.88.89,1.21.16.32.22.61.14.86ZM96.57,94.3c.16,1.01.34,2.01.53,2.99.18.98.38,1.97.58,2.96.23-.12.48-.24.74-.36.25-.11.51-.21.76-.29-.41-.89-.85-1.78-1.3-2.65-.44-.88-.88-1.76-1.31-2.65ZM70.38,104.85c.16,1.01.33,2.01.52,2.99.19.98.38,1.97.58,2.97.24-.13.49-.25.74-.37.26-.11.51-.21.77-.28-.42-.9-.85-1.78-1.3-2.66-.44-.88-.88-1.76-1.31-2.65ZM71.69,107.5c-.44-.88-.88-1.76-1.31-2.65.16,1.01.33,2.01.52,2.99.19.98.38,1.97.58,2.97.24-.13.49-.25.74-.37.26-.11.51-.21.77-.28-.42-.9-.85-1.78-1.3-2.66ZM97.88,96.95c-.44-.88-.88-1.76-1.31-2.65.16,1.01.34,2.01.53,2.99.18.98.38,1.97.58,2.96.23-.12.48-.24.74-.36.25-.11.51-.21.76-.29-.41-.89-.85-1.78-1.3-2.65ZM97.88,96.95c-.44-.88-.88-1.76-1.31-2.65.16,1.01.34,2.01.53,2.99.18.98.38,1.97.58,2.96.23-.12.48-.24.74-.36.25-.11.51-.21.76-.29-.41-.89-.85-1.78-1.3-2.65ZM71.69,107.5c-.44-.88-.88-1.76-1.31-2.65.16,1.01.33,2.01.52,2.99.19.98.38,1.97.58,2.97.24-.13.49-.25.74-.37.26-.11.51-.21.77-.28-.42-.9-.85-1.78-1.3-2.66ZM71.69,107.5c-.44-.88-.88-1.76-1.31-2.65.16,1.01.33,2.01.52,2.99.19.98.38,1.97.58,2.97.24-.13.49-.25.74-.37.26-.11.51-.21.77-.28-.42-.9-.85-1.78-1.3-2.66ZM71.69,107.5c-.44-.88-.88-1.76-1.31-2.65.16,1.01.33,2.01.52,2.99.19.98.38,1.97.58,2.97.24-.13.49-.25.74-.37.26-.11.51-.21.77-.28-.42-.9-.85-1.78-1.3-2.66Z"/>
  </g>
  <g id="Kateg._Symbol" data-name="Kateg. Symbol">
    <g id="jCvsG5">
      <path class="cls-4" d="M14.94,10.67c.12-.09.3,0,.29.15-.04.89.15,1.8.59,2.57.7,1.21,1.87,1.54,2.22,3.08.71,3.1-2.81,5.2-5.44,3.74-1.15-.63-1.88-2.3-1.74-3.58.07-.65.37-1.28.78-1.78.1-.12.29-.09.35.05.29.68.74,1.35,1.45,1.62.21.08.41.15.61,0,.33-.24.03-.63-.08-.9-.74-1.8-.57-3.64.95-4.94,0,0,0,0,.01,0h0Z"/>
    </g>
    <g id="jCvsG5-2" data-name="jCvsG5">
      <path class="cls-4" d="M151.86,243.26c.12-.09.3,0,.29.15-.04.89.15,1.8.59,2.57.7,1.21,1.87,1.54,2.22,3.08.71,3.1-2.81,5.2-5.44,3.74-1.15-.63-1.88-2.3-1.74-3.58.07-.65.37-1.28.78-1.78.1-.12.29-.09.35.05.29.68.74,1.35,1.45,1.62.21.08.41.15.61,0,.33-.24.03-.63-.08-.9-.74-1.8-.57-3.64.95-4.94,0,0,0,0,.01,0h0Z"/>
    </g>
  </g>
  <g id="Kartentext">
    <g>
      <g>
        <path class="cls-4" d="M27.02,178.74v-5.9c0-.31.25-.55.55-.55h1.42c1.05,0,1.9.85,1.9,1.9,0,.43-.14.82-.38,1.14.6.38,1.01,1.05,1.01,1.81,0,1.19-.96,2.15-2.14,2.15h-1.77s0,0,0,0c-.02,0-.02,0-.03,0-.3,0-.55-.25-.55-.55ZM28.13,175h.86c.44,0,.79-.37.79-.81s-.35-.79-.79-.79h-.86v1.6ZM28.13,178.18h1.25c.57,0,1.03-.46,1.03-1.04s-.46-1.02-1.03-1.03h-1.25v2.07Z"/>
        <path class="cls-4" d="M35.73,174.82c0,.28-.23.53-.53.53-.23,0-.43.06-.6.19-.19.12-.34.29-.46.48-.24.32-.36.7-.41.84v1.9c0,.29-.25.53-.55.53s-.53-.24-.53-.53v-3.94c0-.29.24-.52.53-.52s.55.23.55.52v.07c.06-.07.14-.15.21-.2.33-.22.76-.4,1.26-.39.3,0,.53.23.53.52Z"/>
        <path class="cls-4" d="M37.93,173.04c0,.3-.23.55-.54.55s-.54-.25-.54-.55v-.21c0-.3.24-.54.54-.54s.54.24.54.54v.21ZM37.93,174.85v3.9c0,.3-.23.54-.54.54s-.54-.24-.54-.54v-3.9c0-.32.24-.55.54-.55s.54.23.54.55Z"/>
        <path class="cls-4" d="M43.62,176.37v2.39c0,.29-.23.53-.52.53s-.53-.24-.53-.53v-2.39c0-.56-.47-1.01-1.04-1.01s-1,.45-1,1.01v2.39s0,.06-.02.1c-.05.24-.27.43-.53.43-.3,0-.53-.24-.53-.53v-3.94c0-.29.23-.53.53-.53.21,0,.4.12.49.31.3-.19.67-.31,1.06-.31,1.16,0,2.09.95,2.09,2.08Z"/>
        <path class="cls-4" d="M49.85,176.82v1.86c0,1.31-1.07,2.4-2.4,2.4-.37,0-.74-.09-1.05-.25-.26-.12-.38-.45-.24-.72.13-.27.44-.37.72-.25.17.09.36.14.57.14.65,0,1.18-.46,1.31-1.07-.36.25-.82.4-1.31.4-.66,0-1.27-.29-1.7-.76-.43-.44-.7-1.06-.7-1.76s.27-1.31.7-1.78c.43-.45,1.04-.74,1.7-.74.52,0,.98.16,1.34.42.05-.24.27-.42.53-.42.3,0,.53.24.53.53v1.99h0ZM48.78,176.81c0-.4-.16-.78-.38-1.02-.26-.28-.57-.43-.95-.43-.35,0-.68.15-.92.43-.24.24-.4.62-.4,1.02,0,.42.16.8.4,1.03.24.27.57.41.92.41.38,0,.69-.14.95-.41.22-.23.38-.61.38-1.03Z"/>
        <path class="cls-4" d="M51.43,176.79c0-1.36,1.07-2.5,2.44-2.5s2.33.97,2.41,2.32v.05s0,.07-.01.09c-.03.24-.24.4-.52.4h-3.18c.05.23.16.49.34.66.21.24.61.42.96.45.36.03.79-.06,1.04-.25.21-.22.62-.19.75-.03.13.14.23.44,0,.65-.49.45-1.08.66-1.79.66-1.37,0-2.43-1.14-2.44-2.5ZM52.52,176.3h2.83c-.1-.4-.61-.99-1.48-1.06-.85.04-1.27.65-1.35,1.06Z"/>
        <path class="cls-4" d="M61.56,173.04c0,.3-.23.55-.54.55s-.54-.25-.54-.55v-.21c0-.3.24-.54.54-.54s.54.24.54.54v.21ZM61.56,174.85v3.9c0,.3-.23.54-.54.54s-.54-.24-.54-.54v-3.9c0-.32.24-.55.54-.55s.54.23.54.55Z"/>
        <path class="cls-4" d="M67.25,176.37v2.39c0,.29-.23.53-.52.53s-.53-.24-.53-.53v-2.39c0-.56-.47-1.01-1.04-1.01s-1,.45-1,1.01v2.39s0,.06-.02.1c-.05.24-.27.43-.53.43-.3,0-.53-.24-.53-.53v-3.94c0-.29.23-.53.53-.53.21,0,.4.12.49.31.3-.19.67-.31,1.06-.31,1.16,0,2.09.95,2.09,2.08Z"/>
        <path class="cls-4" d="M73.18,176.37v2.39c0,.29-.23.53-.52.53s-.53-.24-.53-.53v-2.39c0-.56-.47-1.01-1.04-1.01s-1,.45-1,1.01v2.39s0,.06-.02.1c-.05.24-.27.43-.53.43-.3,0-.53-.24-.53-.53v-3.94c0-.29.23-.53.53-.53.21,0,.4.12.49.31.3-.19.67-.31,1.06-.31,1.16,0,2.09.95,2.09,2.08Z"/>
        <path class="cls-4" d="M74.59,176.79c.01-1.36,1.07-2.5,2.44-2.5,1.3,0,2.33.97,2.41,2.32v.05s0,.07,0,.09c-.03.24-.24.4-.52.4h-3.18c.05.23.16.49.34.66.21.24.61.42.96.45.36.03.79-.06,1.04-.25.21-.22.62-.19.75-.03.13.14.23.44,0,.65-.49.45-1.08.66-1.79.66-1.37,0-2.43-1.14-2.44-2.5ZM75.68,176.3h2.83c-.1-.4-.61-.99-1.48-1.06-.85.04-1.27.65-1.35,1.06Z"/>
      </g>
      <g>
        <path class="cls-4" d="M83.7,174.82c0,.28-.23.53-.53.53-.23,0-.43.06-.6.19-.19.12-.34.29-.46.48-.24.32-.36.7-.41.84v1.9c0,.29-.25.53-.55.53s-.53-.24-.53-.53v-3.94c0-.29.24-.52.53-.52s.55.23.55.52v.07c.06-.07.14-.15.21-.2.33-.22.76-.4,1.26-.39.3,0,.53.23.53.52Z"/>
        <path class="cls-4" d="M85.92,178.74c0,.31-.25.55-.56.55-.25,0-.46-.18-.53-.41-.01-.04-.02-.09-.02-.14v-5.9c0-.31.25-.55.55-.55s.56.24.56.55v1.74c.32-.17.68-.29,1.07-.29,1.21,0,2.18.99,2.18,2.19v2.26c0,.31-.24.55-.55.55s-.55-.24-.55-.55v-2.26c0-.59-.48-1.07-1.08-1.08-.59,0-1.06.49-1.07,1.08v2.26Z"/>
      </g>
      <path class="cls-4" d="M95.38,176.8v1.96c0,.29-.24.53-.53.53-.26,0-.46-.19-.52-.43-.38.27-.83.43-1.33.43-.68,0-1.27-.28-1.7-.73-.43-.46-.68-1.08-.68-1.76s.25-1.31.68-1.76c.43-.46,1.02-.75,1.7-.75.5,0,.95.17,1.33.44.06-.25.26-.44.52-.44.29,0,.53.24.53.54v1.97ZM94.32,176.8c0-.42-.15-.78-.39-1.03-.24-.27-.58-.41-.93-.41s-.7.14-.93.41c-.24.25-.38.61-.38,1.03s.14.77.38,1.03c.23.25.57.39.93.39s.69-.14.93-.39c.24-.26.39-.62.39-1.03Z"/>
      <g>
        <path class="cls-4" d="M97.89,172.29c.31,0,.56.25.56.55v5.9c0,.3-.25.55-.56.55s-.55-.25-.55-.55v-5.9c0-.3.25-.55.55-.55Z"/>
        <path class="cls-4" d="M99.56,176.8h0v-3.97c0-.29.24-.54.54-.54s.55.25.55.54v1.88c.37-.26.85-.42,1.34-.42,1.35,0,2.43,1.14,2.43,2.51s-1.08,2.49-2.43,2.49c-.5,0-.98-.17-1.36-.43-.05.24-.26.43-.53.43-.3,0-.54-.25-.54-.54v-1.95ZM100.65,176.8c0,.38.15.74.4.99.25.26.57.41.94.41s.69-.15.94-.41c.25-.25.4-.61.4-.99,0-.4-.15-.76-.4-1.01-.25-.26-.58-.41-.94-.41s-.69.15-.94.41c-.25.25-.4.61-.4,1.01Z"/>
        <path class="cls-4" d="M112.71,175.09l-1.64,3.88s-.03.06-.04.07c0,.01,0,.01,0,.01-.02.02-.04.05-.06.07,0,0,0,0,0,0-.02.03-.04.04-.06.06,0,0-.01,0-.01.01-.02.02-.04.04-.07.05h-.02s-.06.02-.08.03h-.02s-.07,0-.1,0c-.02,0-.05,0-.09,0h-.02s-.05-.02-.08-.02h-.02s-.05-.04-.09-.06c0-.01-.01-.01-.01-.01-.02-.02-.04-.03-.06-.06t-.02,0s-.03-.05-.05-.07t0-.01s-.03-.04-.04-.07l-1.62-3.88c-.12-.27,0-.56.29-.68.24-.12.55.02.67.29l1.15,2.72,1.16-2.72c.11-.27.41-.41.67-.29.28.12.41.41.29.68Z"/>
      </g>
      <g>
        <path class="cls-4" d="M114.55,178.56c-.43-.44-.69-1.06-.69-1.76s.26-1.27.69-1.75c.45-.47,1.03-.76,1.72-.76s1.26.29,1.67.76c.45.48.7,1.07.7,1.75s-.25,1.32-.7,1.76c-.41.47-1.01.76-1.67.76s-1.27-.29-1.72-.76ZM114.95,176.8c0,.43.13.78.36,1.06.25.24.58.37.96.37.35,0,.67-.13.92-.37.25-.28.39-.63.39-1.06s-.14-.77-.39-1.04c-.25-.22-.57-.38-.92-.38-.38,0-.71.16-.96.38-.23.27-.36.63-.36,1.04Z"/>
        <path class="cls-4" d="M124.3,176.37v2.39c0,.29-.23.53-.52.53s-.53-.24-.53-.53v-2.39c0-.56-.47-1.01-1.04-1.01s-1,.45-1,1.01v2.39s0,.06-.02.1c-.05.24-.27.43-.53.43-.3,0-.53-.24-.53-.53v-3.94c0-.29.23-.53.53-.53.21,0,.4.12.49.31.3-.19.67-.31,1.06-.31,1.16,0,2.09.95,2.09,2.08Z"/>
        <path class="cls-4" d="M133.44,176.87c0,1.34-1.09,2.42-2.43,2.42-1.26,0-2.29-.95-2.41-2.17t-.01-.02c0-.19-.02-.38-.02-.57,0-.67.1-1.39.35-2.05.25-.66.66-1.29,1.29-1.71.42-.28.93-.45,1.5-.47.31,0,.56.22.58.53,0,.3-.23.55-.54.58-.38.01-.68.12-.94.28-.25.17-.46.4-.63.7-.05.08-.09.17-.13.26.29-.13.62-.2.96-.2,1.34,0,2.43,1.08,2.43,2.42ZM132.33,176.87c0-.72-.59-1.32-1.32-1.32s-1.31.6-1.31,1.32.58,1.31,1.31,1.31,1.32-.58,1.32-1.31Z"/>
        <path class="cls-4" d="M134.81,175.79c0-.92.24-1.75.68-2.39.42-.64,1.07-1.11,1.86-1.11s1.43.47,1.85,1.11c.43.64.67,1.47.67,2.39s-.24,1.75-.67,2.39c-.42.63-1.08,1.11-1.85,1.11s-1.44-.48-1.86-1.11c-.44-.64-.67-1.48-.68-2.39ZM138.75,175.79c0-.72-.2-1.35-.48-1.78-.29-.42-.62-.62-.93-.61-.31-.01-.65.19-.95.61-.28.43-.48,1.06-.48,1.78s.2,1.35.48,1.77c.3.43.64.62.95.62s.64-.19.93-.62c.28-.42.48-1.06.48-1.77Z"/>
      </g>
      <g>
        <path class="cls-4" d="M26.06,189.54c.18-.22.51-.25.73-.07.44.36,1.2.78,1.91.77.5,0,.95-.15,1.25-.37s.43-.47.43-.72c0-.13-.03-.22-.09-.32-.06-.1-.15-.2-.3-.3-.29-.19-.78-.36-1.37-.47h-.02c-.47-.09-.91-.21-1.29-.39-.38-.18-.71-.43-.93-.78-.15-.24-.23-.52-.23-.82,0-.6.34-1.12.8-1.46.47-.34,1.08-.53,1.73-.53.96,0,1.67.47,2.18.8.23.16.3.48.14.71-.15.24-.47.31-.71.15-.51-.34-1-.64-1.61-.64-.45,0-.85.14-1.12.34-.27.2-.38.42-.38.63,0,.12.02.2.07.28s.14.17.27.26c.26.18.71.34,1.25.44h.02c.51.1.98.23,1.38.42.41.2.77.46,1,.83.15.24.24.54.24.85,0,.64-.36,1.19-.86,1.55-.49.36-1.14.57-1.85.57-1.08-.01-1.99-.55-2.56-1-.22-.18-.25-.51-.08-.73Z"/>
        <path class="cls-4" d="M32.29,188.78c.01-1.36,1.07-2.5,2.44-2.5,1.3,0,2.33.97,2.41,2.32v.05s0,.07,0,.09c-.03.24-.24.4-.52.4h-3.18c.05.23.16.49.34.66.21.24.61.42.96.45.36.03.79-.06,1.04-.25.21-.22.62-.19.75-.03.13.14.23.44,0,.65-.49.45-1.08.66-1.79.66-1.37,0-2.43-1.14-2.44-2.5ZM33.38,188.29h2.83c-.1-.4-.61-.99-1.48-1.06-.85.04-1.27.65-1.35,1.06Z"/>
        <path class="cls-4" d="M38.53,190.73v-5.9c0-.3.24-.55.55-.55s.56.25.56.55v3.46l2.05-2.05c.21-.21.57-.21.78,0,.22.22.22.57,0,.78l-1.5,1.5,1.54,1.85c.19.24.16.59-.08.78-.1.09-.23.13-.35.13-.16,0-.32-.07-.42-.2l-1.47-1.78-.55.55v.88c0,.3-.25.55-.56.55s-.55-.25-.55-.55Z"/>
      </g>
      <g>
        <path class="cls-4" d="M45.81,191.28c-1.14,0-2.08-.94-2.08-2.08v-2.39c0-.28.24-.53.53-.53s.53.25.53.53v2.39c0,.57.45,1.02,1.02,1.02s1.04-.45,1.05-1.02v-2.39c0-.28.22-.53.52-.53.28,0,.54.25.54.53v2.39c0,1.14-.96,2.08-2.11,2.08Z"/>
        <path class="cls-4" d="M53.69,188.36v2.39c0,.29-.23.53-.52.53s-.53-.24-.53-.53v-2.39c0-.56-.47-1.01-1.04-1.01s-1,.45-1,1.01v2.39s0,.06-.02.1c-.05.24-.27.43-.53.43-.3,0-.53-.24-.53-.53v-3.94c0-.29.23-.53.53-.53.21,0,.4.12.49.31.3-.19.67-.31,1.06-.31,1.16,0,2.09.95,2.09,2.08Z"/>
        <path class="cls-4" d="M59.74,190.74c0,.29-.24.54-.54.54-.27,0-.48-.19-.53-.43-.38.26-.86.43-1.36.43-1.35,0-2.43-1.14-2.43-2.49s1.08-2.51,2.43-2.51c.49,0,.97.16,1.34.42v-1.88c0-.29.24-.54.55-.54s.54.25.54.54v3.96h0v1.96ZM57.31,187.37c-.36,0-.69.15-.94.41-.25.25-.4.61-.4,1.01s.15.74.4.99c.25.26.58.41.94.41s.69-.15.94-.41c.25-.25.4-.61.4-.99,0-.4-.15-.76-.4-1.01-.25-.26-.57-.41-.94-.41Z"/>
      </g>
      <g>
        <path class="cls-4" d="M61.14,188.78c.01-1.36,1.07-2.5,2.44-2.5,1.3,0,2.33.97,2.41,2.32v.05s0,.07,0,.09c-.03.24-.24.4-.52.4h-3.18c.05.23.16.49.34.66.21.24.61.42.96.45.36.03.79-.06,1.04-.25.21-.22.62-.19.75-.03.13.14.23.44,0,.65-.49.45-1.08.66-1.79.66-1.37,0-2.43-1.14-2.44-2.5ZM62.23,188.29h2.83c-.1-.4-.61-.99-1.48-1.06-.85.04-1.27.65-1.35,1.06Z"/>
        <path class="cls-4" d="M71.55,188.36v2.39c0,.29-.23.53-.52.53s-.53-.24-.53-.53v-2.39c0-.56-.47-1.01-1.04-1.01s-1,.45-1,1.01v2.39s0,.06-.02.1c-.05.24-.27.43-.53.43-.3,0-.53-.24-.53-.53v-3.94c0-.29.23-.53.53-.53.21,0,.4.12.49.31.3-.19.67-.31,1.06-.31,1.16,0,2.09.95,2.09,2.08Z"/>
        <path class="cls-4" d="M75.13,192.5c0-.29.23-.53.55-.53v-5.14c0-.31.25-.55.54-.55.31,0,.54.24.54.55v5.14c0,.59-.48,1.08-1.08,1.08-.32,0-.55-.23-.55-.55ZM75.69,185.04v-.2c0-.32.25-.55.55-.55s.54.23.54.55v.2c0,.29-.24.55-.54.55s-.55-.26-.55-.55Z"/>
        <path class="cls-4" d="M78.05,188.78c0-1.36,1.07-2.5,2.44-2.5s2.33.97,2.41,2.32v.05s0,.07-.01.09c-.03.24-.24.4-.52.4h-3.18c.05.23.16.49.34.66.21.24.61.42.96.45.36.03.79-.06,1.04-.25.21-.22.62-.19.75-.03.13.14.23.44,0,.65-.49.45-1.08.66-1.79.66-1.37,0-2.43-1.14-2.44-2.5ZM79.14,188.29h2.83c-.1-.4-.61-.99-1.48-1.06-.85.04-1.27.65-1.35,1.06Z"/>
        <path class="cls-4" d="M88.47,188.35v2.4c0,.29-.24.53-.53.53s-.54-.24-.54-.53v-2.4c-.01-.55-.47-1-1.03-1s-1.01.46-1.01,1.03v2.37s0,.05,0,.07v.03s-.01.04-.03.06v.05c-.09.18-.29.32-.5.32-.04,0-.07,0-.1,0-.24-.06-.43-.26-.43-.52v-2.37h0v-1.56c0-.31.24-.54.53-.54.21,0,.4.11.48.3.32-.19.69-.3,1.07-.3.63,0,1.19.26,1.57.69.37-.43.94-.69,1.57-.69,1.15,0,2.08.94,2.08,2.1v2.37c0,.29-.24.53-.53.53s-.54-.24-.54-.53v-2.37c0-.57-.46-1.03-1.01-1.03s-1.02.45-1.04,1Z"/>
        <path class="cls-4" d="M97.83,188.79v1.96c0,.29-.24.53-.53.53-.26,0-.46-.19-.52-.43-.38.27-.83.43-1.33.43-.68,0-1.27-.28-1.7-.73-.43-.46-.68-1.08-.68-1.76s.25-1.31.68-1.76c.43-.46,1.02-.75,1.7-.75.5,0,.95.17,1.33.44.06-.25.26-.44.52-.44.29,0,.53.24.53.54v1.97ZM96.77,188.79c0-.42-.15-.78-.39-1.03-.24-.27-.58-.41-.93-.41s-.7.14-.93.41c-.24.25-.38.61-.38,1.03s.14.77.38,1.03c.23.25.57.39.93.39s.69-.14.93-.39c.24-.26.39-.62.39-1.03Z"/>
      </g>
      <g>
        <path class="cls-4" d="M103.66,188.36v2.39c0,.29-.23.53-.52.53s-.53-.24-.53-.53v-2.39c0-.56-.47-1.01-1.04-1.01s-1,.45-1,1.01v2.39s0,.06-.02.1c-.05.24-.27.43-.53.43-.3,0-.53-.24-.53-.53v-3.94c0-.29.23-.53.53-.53.21,0,.4.12.49.31.3-.19.67-.31,1.06-.31,1.16,0,2.09.95,2.09,2.08Z"/>
        <path class="cls-4" d="M109.75,190.74c0,.29-.24.54-.54.54-.27,0-.48-.19-.53-.43-.38.26-.86.43-1.36.43-1.35,0-2.43-1.14-2.43-2.49s1.08-2.51,2.43-2.51c.49,0,.97.16,1.34.42v-1.88c0-.29.24-.54.55-.54s.54.25.54.54v3.96h0v1.96ZM107.32,187.37c-.36,0-.69.15-.94.41-.25.25-.4.61-.4,1.01s.15.74.4.99c.25.26.58.41.94.41s.69-.15.94-.41c.25-.25.4-.61.4-.99,0-.4-.15-.76-.4-1.01-.25-.26-.57-.41-.94-.41Z"/>
      </g>
      <g>
        <path class="cls-4" d="M111.13,188.78c0-1.36,1.07-2.5,2.44-2.5,1.3,0,2.33.97,2.41,2.32v.05s0,.07,0,.09c-.03.24-.24.4-.52.4h-3.18c.05.23.16.49.34.66.21.24.61.42.96.45.36.03.79-.06,1.04-.25.21-.22.62-.19.75-.03.13.14.23.44,0,.65-.49.45-1.08.66-1.79.66-1.37,0-2.43-1.14-2.44-2.5ZM112.22,188.29h2.83c-.1-.4-.61-.99-1.48-1.06-.85.04-1.27.65-1.35,1.06Z"/>
        <path class="cls-4" d="M121.53,188.36v2.39c0,.29-.23.53-.52.53s-.53-.24-.53-.53v-2.39c0-.56-.47-1.01-1.04-1.01s-1,.45-1,1.01v2.39s0,.06-.02.1c-.05.24-.27.43-.53.43-.3,0-.53-.24-.53-.53v-3.94c0-.29.23-.53.53-.53.21,0,.4.12.49.31.3-.19.67-.31,1.06-.31,1.16,0,2.09.95,2.09,2.08Z"/>
        <path class="cls-4" d="M130.32,188.79v1.96c0,.29-.24.53-.53.53-.26,0-.46-.19-.52-.43-.38.27-.83.43-1.33.43-.68,0-1.27-.28-1.7-.73-.43-.46-.68-1.08-.68-1.76s.25-1.31.68-1.76c.43-.46,1.02-.75,1.7-.75.5,0,.95.17,1.33.44.06-.25.26-.44.52-.44.29,0,.53.24.53.54v1.97ZM129.26,188.79c0-.42-.15-.78-.39-1.03-.24-.27-.58-.41-.93-.41s-.7.14-.93.41c-.24.25-.38.61-.38,1.03s.14.77.38,1.03c.23.25.57.39.93.39s.69-.14.93-.39c.24-.26.39-.62.39-1.03Z"/>
        <path class="cls-4" d="M134.06,191.28c-1.14,0-2.08-.94-2.08-2.08v-2.39c0-.28.24-.53.53-.53s.53.25.53.53v2.39c0,.57.45,1.02,1.02,1.02s1.04-.45,1.05-1.02v-2.39c0-.28.22-.53.52-.53.28,0,.54.25.54.53v2.39c0,1.14-.96,2.08-2.11,2.08Z"/>
        <path class="cls-4" d="M137.78,189.85c.18-.24.53-.27.75-.08.26.22.71.45,1.1.44.27,0,.52-.09.68-.19.14-.12.18-.22.18-.3,0-.05-.01-.07-.03-.1,0-.03-.05-.07-.13-.12-.14-.1-.44-.21-.8-.28h0c-.31-.06-.61-.14-.87-.26-.27-.13-.51-.31-.69-.58-.11-.18-.17-.4-.17-.63,0-.46.26-.85.59-1.1.35-.24.77-.37,1.23-.37.69,0,1.18.33,1.5.55.24.16.31.49.16.74-.16.24-.49.31-.74.14-.32-.21-.6-.37-.92-.37-.25,0-.47.08-.6.18-.13.09-.16.18-.16.23,0,.04,0,.05.02.08,0,.02.04.06.11.1.13.09.39.18.73.24h.01s0,.01,0,.01c.33.06.64.15.93.29.27.12.54.31.71.59.12.2.19.43.19.66,0,.49-.27.9-.63,1.16-.36.25-.81.4-1.3.4-.78,0-1.38-.37-1.78-.69-.22-.18-.25-.52-.07-.74Z"/>
      </g>
      <g>
        <path class="cls-4" d="M29.72,202.74c0,.29-.24.54-.54.54-.27,0-.48-.19-.53-.43-.38.26-.86.43-1.36.43-1.35,0-2.43-1.14-2.43-2.49s1.08-2.51,2.43-2.51c.49,0,.97.16,1.34.42v-1.88c0-.29.24-.54.55-.54s.54.25.54.54v3.96h0v1.96ZM27.29,199.37c-.36,0-.69.15-.94.41-.25.25-.4.61-.4,1.01s.15.74.4.99c.25.26.58.41.94.41s.69-.15.94-.41c.25-.25.4-.61.4-.99,0-.4-.15-.76-.4-1.01-.25-.26-.57-.41-.94-.41Z"/>
        <path class="cls-4" d="M31.09,200.78c.01-1.36,1.07-2.5,2.44-2.5,1.3,0,2.33.97,2.41,2.32v.05s0,.07,0,.09c-.03.24-.24.4-.52.4h-3.18c.05.23.16.49.34.66.21.24.61.42.96.45.36.03.79-.06,1.04-.25.21-.22.62-.19.75-.03.13.14.23.44,0,.65-.49.45-1.08.66-1.79.66-1.37,0-2.43-1.14-2.44-2.5ZM32.18,200.29h2.83c-.1-.4-.61-.99-1.48-1.06-.85.04-1.27.65-1.35,1.06Z"/>
      </g>
      <g>
        <path class="cls-4" d="M40.2,198.81c0,.28-.23.53-.53.53-.23,0-.43.06-.6.19-.19.12-.34.29-.46.48-.24.32-.36.7-.41.84v1.9c0,.29-.25.53-.55.53s-.53-.24-.53-.53v-3.94c0-.29.24-.52.53-.52s.55.23.55.52v.07c.06-.07.14-.15.21-.2.33-.22.76-.4,1.26-.39.3,0,.53.23.53.52Z"/>
        <path class="cls-4" d="M43.91,199.69c0-2.01,1.66-3.61,3.69-3.61.85,0,1.66.29,2.28.78.26.19.3.56.11.81-.19.24-.56.29-.81.09-.43-.33-.98-.54-1.58-.54-.72,0-1.35.27-1.8.73-.47.45-.75,1.06-.75,1.74s.28,1.27.75,1.72c.45.46,1.08.73,1.8.73.5,0,.97-.15,1.37-.38v-1.37h-1.43c-.31,0-.57-.26-.57-.57s.26-.56.57-.56h1.99c.32,0,.58.24.58.56v2.21c0,.07-.02.11-.03.17,0,.02,0,.03-.02.05h0c-.03.1-.09.18-.19.25-.63.49-1.42.78-2.27.78-2.03,0-3.69-1.59-3.69-3.59Z"/>
        <path class="cls-4" d="M55.13,198.81c0,.28-.23.53-.53.53-.23,0-.43.06-.6.19-.19.12-.34.29-.46.48-.24.32-.36.7-.41.84v1.9c0,.29-.25.53-.55.53s-.53-.24-.53-.53v-3.94c0-.29.24-.52.53-.52s.55.23.55.52v.07c.06-.07.14-.15.21-.2.33-.22.76-.4,1.26-.39.3,0,.53.23.53.52Z"/>
        <path class="cls-4" d="M58.22,203.28c-1.14,0-2.08-.94-2.08-2.08v-2.39c0-.28.24-.53.53-.53s.53.25.53.53v2.39c0,.57.45,1.02,1.02,1.02s1.04-.45,1.05-1.02v-2.39c0-.28.22-.53.52-.53.28,0,.54.25.54.53v2.39c0,1.14-.96,2.08-2.11,2.08Z"/>
        <path class="cls-4" d="M62.17,204.62v-3.82h0v-1.99c0-.29.24-.53.53-.53s.51.19.55.41c.37-.24.85-.41,1.36-.41,1.33,0,2.42,1.14,2.42,2.51s-1.09,2.48-2.42,2.48c-.5,0-.98-.15-1.34-.41v1.76c0,.28-.25.54-.57.54-.29,0-.53-.26-.53-.54ZM63.27,200.79c0,.39.13.77.39,1,.25.28.58.42.95.42.34,0,.68-.14.94-.42.23-.23.39-.61.39-1s-.16-.75-.39-1.01c-.26-.27-.6-.41-.94-.41-.37,0-.7.14-.95.41-.26.26-.39.62-.39,1.01Z"/>
        <path class="cls-4" d="M68.57,204.62v-3.82h0v-1.99c0-.29.24-.53.53-.53s.51.19.55.41c.37-.24.85-.41,1.36-.41,1.33,0,2.42,1.14,2.42,2.51s-1.09,2.48-2.42,2.48c-.5,0-.98-.15-1.34-.41v1.76c0,.28-.25.54-.57.54-.29,0-.53-.26-.53-.54ZM69.67,200.79c0,.39.13.77.39,1,.25.28.58.42.95.42.34,0,.68-.14.94-.42.23-.23.39-.61.39-1s-.16-.75-.39-1.01c-.26-.27-.6-.41-.94-.41-.37,0-.7.14-.95.41-.26.26-.39.62-.39,1.01Z"/>
        <path class="cls-4" d="M74.62,200.78c.01-1.36,1.07-2.5,2.44-2.5,1.3,0,2.33.97,2.41,2.32v.05s0,.07,0,.09c-.03.24-.24.4-.52.4h-3.18c.05.23.16.49.34.66.21.24.61.42.96.45.36.03.79-.06,1.04-.25.21-.22.62-.19.75-.03.13.14.23.44,0,.65-.49.45-1.08.66-1.79.66-1.37,0-2.43-1.14-2.44-2.5ZM75.71,200.29h2.83c-.1-.4-.61-.99-1.48-1.06-.85.04-1.27.65-1.35,1.06Z"/>
        <path class="cls-4" d="M87.17,199.12l-2.26,3.1h1.84c.28,0,.53.23.53.53s-.25.53-.53.53h-2.89s-.06,0-.1,0h-.03s-.04-.02-.06-.02c-.02-.01-.03-.01-.04-.02,0,0-.03-.02-.04-.02,0-.02-.02-.02-.02-.03t-.01,0s-.02-.01-.03-.02c0-.01-.04-.03-.04-.03-.02-.03-.03-.04-.04-.05,0-.02-.02-.03-.03-.04-.02,0-.02-.02-.02-.04-.02,0-.03-.02-.03-.05,0,0,0-.02-.02-.05,0-.01-.01-.03-.01-.04v-.07s0-.02,0-.03h0s0-.06,0-.08v-.04s.01-.03.02-.05c0-.02,0-.04,0-.05,0,0,.03-.03.03-.03,0-.02.02-.04.03-.05h.01l2.25-3.11h-1.83c-.28,0-.53-.23-.53-.53s.25-.53.53-.53h2.89s.04,0,.06,0h.05s.04.01.05.02c.02,0,.04.01.05.01.01,0,.02.03.03.03.02,0,.04.02.06.03.01,0,.01.01.01.01,0,0,.02,0,.02.02,0,0,.03.02.05.05.01,0,.02.02.03.03,0,.02.02.03.03.04,0,.01,0,.02.03.02,0,.03.02.04.02.06,0,.01,0,.03,0,.05,0,.02,0,.04.02.05v.06s0,.03,0,.04h0s0,.06,0,.06c0,.03,0,.04-.01.06,0,.01,0,.03,0,.05,0,.02,0,.04-.03.05v.03s-.03.04-.05.05h0Z"/>
        <path class="cls-4" d="M90.97,203.28c-1.14,0-2.08-.94-2.08-2.08v-2.39c0-.28.24-.53.53-.53s.53.25.53.53v2.39c0,.57.45,1.02,1.02,1.02s1.04-.45,1.05-1.02v-2.39c0-.28.22-.53.52-.53.28,0,.54.25.54.53v2.39c0,1.14-.96,2.08-2.11,2.08Z"/>
        <path class="cls-4" d="M99.1,200.35v2.4c0,.29-.24.53-.53.53s-.54-.24-.54-.53v-2.4c-.01-.55-.47-1-1.03-1s-1.01.46-1.01,1.03v2.37s0,.05,0,.07v.03s-.01.04-.03.06v.05c-.09.18-.29.32-.5.32-.04,0-.07,0-.1,0-.24-.06-.43-.26-.43-.52v-2.37h0v-1.56c0-.31.24-.54.53-.54.21,0,.4.11.48.3.32-.19.69-.3,1.07-.3.63,0,1.19.26,1.57.69.37-.43.94-.69,1.57-.69,1.15,0,2.08.94,2.08,2.1v2.37c0,.29-.24.53-.53.53s-.54-.24-.54-.53v-2.37c0-.57-.46-1.03-1.01-1.03s-1.02.45-1.04,1Z"/>
        <path class="cls-4" d="M107.15,202.73v-5.9c0-.3.24-.55.55-.55s.56.25.56.55v5.34h2.71c.29,0,.55.25.55.56s-.26.55-.55.55h-3.27c-.31,0-.55-.25-.55-.55Z"/>
        <path class="cls-4" d="M116.69,200.79v1.96c0,.29-.24.53-.53.53-.26,0-.46-.19-.52-.43-.38.27-.83.43-1.33.43-.68,0-1.27-.28-1.7-.73-.43-.46-.68-1.08-.68-1.76s.25-1.31.68-1.76c.43-.46,1.02-.75,1.7-.75.5,0,.95.17,1.33.44.06-.25.26-.44.52-.44.29,0,.53.24.53.54v1.97ZM115.63,200.79c0-.42-.15-.78-.39-1.03-.24-.27-.58-.41-.93-.41s-.7.14-.93.41c-.24.25-.38.61-.38,1.03s.14.77.38,1.03c.23.25.57.39.93.39s.69-.14.93-.39c.24-.26.39-.62.39-1.03Z"/>
        <path class="cls-4" d="M118.11,200.79c0-1.39,1.16-2.5,2.54-2.51.6,0,1.16.22,1.59.55.23.18.27.52.11.74-.2.24-.52.28-.75.1-.26-.19-.58-.32-.95-.32-.81,0-1.48.67-1.48,1.44s.67,1.43,1.48,1.43c.36,0,.69-.13.95-.32.22-.17.55-.13.75.11.16.22.12.54-.11.74-.43.31-.99.53-1.59.53-1.38,0-2.54-1.12-2.54-2.49Z"/>
        <path class="cls-4" d="M125.08,202.73c0,.31-.25.55-.56.55-.25,0-.46-.18-.53-.41,0-.04-.02-.09-.02-.14v-5.9c0-.31.25-.55.55-.55s.56.24.56.55v1.74c.32-.17.68-.29,1.07-.29,1.21,0,2.18.99,2.18,2.19v2.26c0,.31-.24.55-.55.55s-.55-.24-.55-.55v-2.26c0-.59-.48-1.07-1.08-1.08-.59,0-1.06.49-1.07,1.08v2.26Z"/>
        <path class="cls-4" d="M129.55,200.78c0-1.36,1.07-2.5,2.44-2.5,1.3,0,2.33.97,2.41,2.32v.05s0,.07,0,.09c-.03.24-.24.4-.52.4h-3.18c.05.23.16.49.34.66.21.24.61.42.96.45.36.03.79-.06,1.04-.25.21-.22.62-.19.75-.03.13.14.23.44,0,.65-.49.45-1.08.66-1.79.66-1.37,0-2.43-1.14-2.44-2.5ZM130.64,200.29h2.83c-.1-.4-.61-.99-1.48-1.06-.85.04-1.27.65-1.35,1.06Z"/>
        <path class="cls-4" d="M139.95,200.36v2.39c0,.29-.23.53-.52.53s-.53-.24-.53-.53v-2.39c0-.56-.47-1.01-1.04-1.01s-1,.45-1,1.01v2.39s0,.06-.02.1c-.05.24-.27.43-.53.43-.3,0-.53-.24-.53-.53v-3.94c0-.29.23-.53.53-.53.21,0,.4.12.49.31.3-.19.67-.31,1.06-.31,1.16,0,2.09.95,2.09,2.08Z"/>
        <path class="cls-4" d="M142.35,201.86c.41,0,.75.34.75.75s-.34.74-.75.74-.74-.33-.74-.74.33-.75.74-.75Z"/>
      </g>
    </g>
  </g>
</svg>