<?xml version="1.0" encoding="UTF-8"?>
<svg xmlns="http://www.w3.org/2000/svg" viewBox="0 0 167.24 260.79">
  <defs>
    <style>
      .cls-1 {
        fill: #010101;
      }

      .cls-2 {
        fill: #171717;
      }

      .cls-3 {
        stroke: #fff;
        stroke-miterlimit: 10;
        stroke-width: .15px;
      }

      .cls-3, .cls-4 {
        fill: #fff;
      }

      .cls-5 {
        fill: #171715;
      }

      .cls-6 {
        fill: #8d74b0;
      }
    </style>
  </defs>
  <g id="Background">
    <rect class="cls-6" width="167.24" height="260.79"/>
  </g>
  <g id="Rahmen">
    <path class="cls-1" d="M151.9,23.16c9.65,0,9.67-15,0-15s-9.67,15,0,15h0Z"/>
    <path class="cls-1" d="M152.22,254.59c9.65,0,9.67-15,0-15s-9.67,15,0,15h0Z"/>
    <path class="cls-1" d="M14.14,254.72c9.65,0,9.67-15,0-15s-9.67,15,0,15h0Z"/>
    <path class="cls-2" d="M11.56,15.67c18.49.32,36.98.69,55.46,1.04,19.51.36,39.05-.42,58.56-.82,10.18-.21,20.36-.38,30.54-.21l-3.75-3.75c-1.46,11.81-1.7,23.8-1.97,35.69-.33,14.15-.39,28.31-.37,42.46.01,9.3.14,18.61.07,27.91-.06,7.86-.43,15.71-.48,23.57-.07,11.29.08,22.59.37,33.88.56,22.38,1.59,44.74,2.18,67.12.07,2.79.14,5.57.2,8.36l3.75-3.75c-15.41-.13-30.81.06-46.22.48-24.85.69-49.67.84-74.52.24-8.25-.2-16.49-.49-24.74-.73l3.75,3.75c-.56-4.87-.34-9.89-.27-14.78.11-8.38.38-16.76.66-25.14.66-20.11,1.45-40.22,1.83-60.34.16-8.4.26-16.81.05-25.21-.13-5.24-.51-10.46-.61-15.7-.33-17.03-.19-34.08-.18-51.11,0-8.91,0-17.82-.06-26.73-.04-5.94-.04-11.89-.34-17.82-.04-.72-.08-1.43-.15-2.15-.19-1.95-1.59-3.85-3.75-3.75-1.87.08-3.96,1.66-3.75,3.75.48,4.83.39,9.76.44,14.61.09,8.42.1,16.84.11,25.25,0,17.78-.1,35.55.11,53.33.06,5.22.27,10.41.52,15.62.36,7.73.31,15.47.21,23.21-.24,20.03-1.02,40.04-1.7,60.06-.3,8.95-.6,17.9-.79,26.85-.13,5.9-.3,11.84,0,17.74.04.78.09,1.55.18,2.32.24,2.06,1.53,3.69,3.75,3.75,18.27.53,36.53,1.09,54.81,1.16,23.38.09,46.73-.97,70.1-1.19,6.85-.06,13.71-.03,20.56.02,2,.02,3.79-1.73,3.75-3.75-.48-22.44-1.5-44.87-2.16-67.3-.33-11.25-.57-22.51-.6-33.77-.03-10.16.25-20.29.47-30.44.18-8.23-.03-16.48-.05-24.72-.03-13.94,0-27.88.25-41.82.23-12.54.48-25.14,1.72-37.62.11-1.1.23-2.21.37-3.31.25-2.04-1.92-3.72-3.75-3.75-19.14-.32-38.3.42-57.44.81-9.78.2-19.58.45-29.37.27-7.76-.14-15.52-.3-23.28-.45-11.49-.22-22.99-.44-34.48-.63-1.96-.03-3.84,1.75-3.75,3.75s1.65,3.71,3.75,3.75h0Z"/>
    <polygon class="cls-2" points="26.61 14.43 14.5 29.16 14.18 13.04 26.61 14.43"/>
    <polygon class="cls-2" points="140.79 14.16 152.35 27.66 154.57 11.89 140.79 14.16"/>
    <polygon class="cls-2" points="139.48 248.15 153.14 235.93 156.07 248.65 139.48 248.15"/>
    <polygon class="cls-2" points="12.9 235.54 26.24 248.54 12.31 249.36 12.9 235.54"/>
    <rect class="cls-2" width="10.32" height="260.79"/>
    <rect class="cls-2" y="249.36" width="167.24" height="11.43"/>
    <rect class="cls-5" width="167.24" height="10.33"/>
    <rect class="cls-2" x="156.12" width="11.13" height="260.79"/>
    <path class="cls-2" d="M117.73,17.19c0-.85.31-3.85,0-4.78-.82-2.49-3.11-2.81-5.35-2.81h-57.51c-2.24,0-4.53.32-5.35,2.81-.31.93,0,3.93,0,4.78l-.25,5.71c-.49,5.31,7.64,4.59,10.71,4.59l17.71.37,5.93-.07h0l5.93.07,17.71-.37c3.08,0,11.2.72,10.71-4.59l-.24-5.71Z"/>
    <path class="cls-1" d="M151.9,23.16c9.65,0,9.67-15,0-15s-9.67,15,0,15h0Z"/>
    <path class="cls-1" d="M152.22,254.59c9.65,0,9.67-15,0-15s-9.67,15,0,15h0Z"/>
    <path class="cls-1" d="M14.14,254.72c9.65,0,9.67-15,0-15s-9.67,15,0,15h0Z"/>
    <path class="cls-2" d="M11.56,15.67c18.49.32,36.98.69,55.46,1.04,19.51.36,39.05-.42,58.56-.82,10.18-.21,20.36-.38,30.54-.21l-3.75-3.75c-1.46,11.81-1.7,23.8-1.97,35.69-.33,14.15-.39,28.31-.37,42.46.01,9.3.14,18.61.07,27.91-.06,7.86-.43,15.71-.48,23.57-.07,11.29.08,22.59.37,33.88.56,22.38,1.59,44.74,2.18,67.12.07,2.79.14,5.57.2,8.36l3.75-3.75c-15.41-.13-30.81.06-46.22.48-24.85.69-49.67.84-74.52.24-8.25-.2-16.49-.49-24.74-.73l3.75,3.75c-.56-4.87-.34-9.89-.27-14.78.11-8.38.38-16.76.66-25.14.66-20.11,1.45-40.22,1.83-60.34.16-8.4.26-16.81.05-25.21-.13-5.24-.51-10.46-.61-15.7-.33-17.03-.19-34.08-.18-51.11,0-8.91,0-17.82-.06-26.73-.04-5.94-.04-11.89-.34-17.82-.04-.72-.08-1.43-.15-2.15-.19-1.95-1.59-3.85-3.75-3.75-1.87.08-3.96,1.66-3.75,3.75.48,4.83.39,9.76.44,14.61.09,8.42.1,16.84.11,25.25,0,17.78-.1,35.55.11,53.33.06,5.22.27,10.41.52,15.62.36,7.73.31,15.47.21,23.21-.24,20.03-1.02,40.04-1.7,60.06-.3,8.95-.6,17.9-.79,26.85-.13,5.9-.3,11.84,0,17.74.04.78.09,1.55.18,2.32.24,2.06,1.53,3.69,3.75,3.75,18.27.53,36.53,1.09,54.81,1.16,23.38.09,46.73-.97,70.1-1.19,6.85-.06,13.71-.03,20.56.02,2,.02,3.79-1.73,3.75-3.75-.48-22.44-1.5-44.87-2.16-67.3-.33-11.25-.57-22.51-.6-33.77-.03-10.16.25-20.29.47-30.44.18-8.23-.03-16.48-.05-24.72-.03-13.94,0-27.88.25-41.82.23-12.54.48-25.14,1.72-37.62.11-1.1.23-2.21.37-3.31.25-2.04-1.92-3.72-3.75-3.75-19.14-.32-38.3.42-57.44.81-9.78.2-19.58.45-29.37.27-7.76-.14-15.52-.3-23.28-.45-11.49-.22-22.99-.44-34.48-.63-1.96-.03-3.84,1.75-3.75,3.75s1.65,3.71,3.75,3.75h0Z"/>
    <polygon class="cls-2" points="26.61 14.43 14.5 29.16 14.18 13.04 26.61 14.43"/>
    <polygon class="cls-2" points="140.79 14.16 152.35 27.66 154.57 11.89 140.79 14.16"/>
    <polygon class="cls-2" points="139.48 248.15 153.14 235.93 156.07 248.65 139.48 248.15"/>
    <polygon class="cls-2" points="12.9 235.54 26.24 248.54 12.31 249.36 12.9 235.54"/>
    <rect class="cls-2" width="10.32" height="260.79"/>
    <rect class="cls-2" y="249.36" width="167.24" height="11.43"/>
    <rect class="cls-5" width="167.24" height="10.33"/>
    <rect class="cls-2" x="156.12" width="11.13" height="260.79"/>
  </g>
  <g id="Kategorie_Name" data-name="Kategorie Name">
    <g>
      <path class="cls-6" d="M56.65,21.16c-.01.07-.02.17-.03.31s-.02.29-.04.44c-.01.15-.04.29-.06.42s-.05.21-.08.25c-.03.03-.15.06-.36.07-.21.02-.44.03-.7.03s-.5,0-.73,0h-.45c-.18,0-.32-.02-.42-.05s-.12-.17-.08-.41c.03-.15.08-.42.15-.81.07-.39.15-.85.24-1.39.09-.54.19-1.13.31-1.77.11-.64.23-1.28.35-1.92.11-.64.23-1.27.34-1.87.11-.6.21-1.14.31-1.62.1-.47.18-.86.25-1.15s.12-.45.15-.47c.02-.01.06-.02.12-.02s.13,0,.2,0,.15,0,.22,0c.07,0,.12,0,.15,0,.63.02,1.24,0,1.83-.07.59-.07,1.2-.13,1.83-.18.1-.01.19.02.26.08.07.07.12.15.17.25.04.1.07.2.1.32s.05.22.07.3c.17.75.3,1.5.38,2.26.08.75.17,1.5.25,2.26.09.86.17,1.74.23,2.64.06.9.18,1.77.35,2.62,0,.05.02.13.04.21s.03.18.04.28c0,.1,0,.19,0,.27,0,.08-.04.14-.1.17-.03.02-.12.04-.28.05-.16.01-.36.02-.58.02-.23,0-.48,0-.75,0s-.52,0-.76,0c-.23,0-.44-.01-.61-.02-.18,0-.28-.01-.32-.02-.1-.02-.16-.07-.17-.15-.05-.21-.07-.43-.07-.65,0-.23,0-.45-.02-.67-.28-.03-.56-.05-.85-.04-.28,0-.57,0-.85,0ZM57.91,14.04c-.17.82-.33,1.63-.47,2.43s-.29,1.61-.43,2.43c.2-.02.4-.04.61-.05s.42,0,.62.02c-.04-.81-.09-1.61-.16-2.41-.06-.8-.12-1.6-.17-2.41Z"/>
      <path class="cls-6" d="M67.76,22.32c-.41.12-.83.17-1.27.16-.44-.02-.85-.1-1.26-.25-.4-.15-.78-.37-1.12-.65-.34-.29-.62-.65-.83-1.07-.2-.39-.35-.81-.46-1.27s-.18-.9-.23-1.35c-.01-.11-.02-.3-.03-.59-.01-.28-.01-.6,0-.96,0-.35.02-.72.04-1.11.02-.39.05-.74.08-1.07.03-.33.08-.6.15-.81.06-.21.14-.32.23-.33.06-.01.22,0,.49,0,.26.02.55.04.85.06.3.02.58.05.84.07.26.03.42.05.49.06.11.02.16.09.15.21-.01.12-.02.22-.03.31-.05.35-.08.71-.09,1.07-.01.37-.02.72-.03,1.07,0,.17,0,.43,0,.76,0,.33.04.65.1.96.06.31.17.56.33.76.15.2.38.24.67.13.2-.08.36-.22.5-.44.13-.21.22-.48.26-.82s.06-.71.05-1.13c-.01-.41-.04-.84-.09-1.29-.05-.45-.11-.88-.17-1.3-.06-.42-.13-.81-.19-1.18-.06-.36-.1-.67-.13-.92-.02-.11-.02-.2.01-.27.03-.07.1-.12.21-.14.07-.01.24-.03.51-.06.27-.03.56-.05.86-.07.31-.02.58-.04.83-.04s.4,0,.44.02c.06.03.11.13.17.29.05.16.09.33.13.52.04.19.07.37.1.55.02.18.04.31.05.38.05.36.1.78.15,1.25.05.47.09.97.11,1.5.02.52.03,1.05.02,1.59,0,.54-.05,1.06-.12,1.56-.07.5-.17.97-.3,1.4-.13.43-.31.8-.52,1.1-.24.34-.53.62-.88.83-.35.22-.71.38-1.09.49Z"/>
      <path class="cls-6" d="M74.54,18.21v2.46c0,.38,0,.72,0,1.04,0,.32-.01.58-.02.79s-.02.32-.03.33c-.01.01-.08.02-.21.04-.13.02-.29.03-.47.03-.19,0-.39.01-.61.02-.22,0-.43.01-.62.02-.19,0-.35,0-.49,0-.13,0-.22-.01-.25-.02-.08-.03-.13-.09-.16-.18-.03-.09-.04-.17-.04-.25,0-.27,0-.72-.02-1.36-.01-.63-.02-1.35-.02-2.15,0-.8,0-1.64,0-2.51s0-1.69.02-2.44c.01-.76.04-1.41.07-1.95.04-.54.08-.89.14-1.05.05-.12.12-.21.21-.28.04-.02.21-.04.5-.05s.66-.01,1.09,0c.43,0,.89.01,1.4.02.5.01.97.02,1.42.04.45.02.84.04,1.17.06s.54.04.63.05c.02,0,.05.01.1.04.04.03.07.05.08.07.02.04.02.11,0,.19-.01.08-.03.15-.04.2-.02.15-.03.34-.04.56,0,.22-.02.44-.03.67-.01.23-.03.45-.05.66-.02.21-.05.38-.09.5-.09.07-.29.1-.61.11s-.65,0-1.02,0c-.37-.01-.72-.03-1.06-.05-.34-.02-.59-.03-.74-.03-.03.23-.06.46-.08.68-.03.22-.05.45-.07.68.51-.04,1.03-.09,1.56-.15s1.05-.07,1.56-.05c.1,0,.16.03.18.08.02.04.03.11.04.21,0,.1.02.2.02.31v.56c0,.08,0,.21.01.41.01.2.02.4.02.62s0,.42-.02.6c0,.18-.04.29-.07.34-.06.07-.25.11-.56.14-.31.03-.66.04-1.04.04s-.73,0-1.08-.02c-.34-.01-.58-.02-.7-.02Z"/>
      <path class="cls-6" d="M84.86,17.85c-.05,0-.13,0-.25.02-.11.02-.23.03-.36.03s-.24,0-.35,0-.17-.01-.2-.03c-.04-.03-.07-.15-.1-.36s-.04-.44-.05-.69c0-.25,0-.48,0-.69.01-.21.03-.33.06-.37.05-.05.13-.08.25-.09s.21,0,.28,0c.42-.01.83,0,1.22.02.4.03.8.02,1.22,0,.08-.01.19-.02.34-.03.15-.01.25,0,.32.02.08.02.16.06.24.11.08.05.13.13.15.21.03.09.05.2.06.33s.02.28.02.43,0,.29,0,.43c0,.14,0,.26,0,.36-.02.56-.07,1.09-.14,1.59-.07.51-.21.98-.39,1.41-.19.44-.44.82-.77,1.14-.33.33-.77.59-1.31.78-.52.19-1.08.26-1.67.22-.6-.04-1.15-.16-1.66-.35-.3-.12-.58-.27-.85-.46-.27-.19-.51-.4-.72-.65-.29-.35-.53-.79-.72-1.33s-.33-1.12-.41-1.75c-.08-.63-.12-1.27-.1-1.95s.09-1.31.22-1.93c.12-.62.3-1.18.52-1.7.23-.52.5-.94.82-1.27.36-.36.78-.63,1.25-.82s.97-.3,1.48-.34c.51-.04,1.02-.02,1.52.06.5.09.97.23,1.4.43.05.02.12.05.21.1.09.04.18.1.27.16.09.06.17.12.25.18.07.06.12.12.13.19,0,.04-.03.16-.11.34s-.18.39-.28.6c-.1.22-.21.42-.31.62-.1.2-.17.33-.19.39-.02.04-.05.11-.09.19-.04.08-.08.16-.13.25s-.09.16-.14.23c-.05.07-.1.11-.13.12-.01,0-.08-.04-.2-.11s-.29-.16-.49-.25c-.2-.09-.42-.16-.67-.22-.25-.06-.49-.07-.74-.04-.25.03-.49.13-.72.3s-.42.44-.58.81c-.12.27-.2.63-.25,1.06-.04.44-.05.88-.01,1.34.03.46.12.88.26,1.27s.34.67.6.84c.21.14.44.21.68.21s.46-.06.66-.17.37-.27.5-.48c.13-.21.2-.45.21-.74Z"/>
      <path class="cls-6" d="M91.03,21.16c-.01.07-.02.17-.03.31s-.02.29-.04.44c-.01.15-.04.29-.06.42s-.05.21-.08.25c-.03.03-.15.06-.36.07-.21.02-.44.03-.7.03s-.5,0-.73,0h-.45c-.18,0-.32-.02-.42-.05s-.12-.17-.08-.41c.03-.15.08-.42.15-.81.07-.39.15-.85.24-1.39.09-.54.19-1.13.31-1.77.11-.64.23-1.28.35-1.92.11-.64.23-1.27.34-1.87.11-.6.21-1.14.31-1.62.1-.47.18-.86.25-1.15s.12-.45.15-.47c.02-.01.06-.02.12-.02s.13,0,.2,0,.15,0,.22,0c.07,0,.12,0,.15,0,.63.02,1.24,0,1.83-.07.59-.07,1.2-.13,1.83-.18.1-.01.19.02.26.08.07.07.12.15.17.25.04.1.07.2.1.32s.05.22.07.3c.17.75.3,1.5.38,2.26.08.75.17,1.5.25,2.26.09.86.17,1.74.23,2.64.06.9.18,1.77.35,2.62,0,.05.02.13.04.21s.03.18.04.28c0,.1,0,.19,0,.27,0,.08-.04.14-.1.17-.03.02-.12.04-.28.05-.16.01-.36.02-.58.02-.23,0-.48,0-.75,0s-.52,0-.76,0c-.23,0-.44-.01-.61-.02-.18,0-.28-.01-.32-.02-.1-.02-.16-.07-.17-.15-.05-.21-.07-.43-.07-.65,0-.23,0-.45-.02-.67-.28-.03-.56-.05-.85-.04-.28,0-.57,0-.85,0ZM92.29,14.04c-.17.82-.33,1.63-.47,2.43s-.29,1.61-.43,2.43c.2-.02.4-.04.61-.05s.42,0,.62.02c-.04-.81-.09-1.61-.16-2.41-.06-.8-.12-1.6-.17-2.41Z"/>
      <path class="cls-6" d="M103.52,16.63c.51.19.94.5,1.3.94s.6.92.74,1.45c.14.52.15,1.05.04,1.57-.12.52-.39.96-.83,1.31-.44.35-.87.59-1.28.74s-.88.23-1.41.28c-.48.03-.97.06-1.46.08-.49.02-.98.02-1.46,0-.08,0-.19,0-.33-.02s-.28-.03-.42-.06c-.14-.03-.27-.06-.4-.09s-.22-.08-.28-.13c-.05-.05-.1-.1-.14-.15-.04-.04-.08-.1-.1-.18-.08-.26-.12-.55-.13-.87-.01-.32-.03-.62-.06-.91-.11-1.11-.18-2.22-.2-3.34s0-2.23.05-3.35c.02-.38.04-.77.07-1.17s.04-.79.04-1.17v-.35c0-.07,0-.13,0-.19,0-.05.01-.09.02-.11,0-.04.08-.08.22-.11.13-.03.3-.05.5-.07.2-.02.42-.04.66-.04.24,0,.47-.01.69-.02.22,0,.42,0,.59,0h.37s.1,0,.15,0c.05,0,.1.02.15.06.06,0,.1.04.11.11.02.08.02.17.02.27s0,.21-.02.31c-.01.1-.02.18-.02.22.11-.11.22-.21.34-.29.12-.09.24-.17.37-.25.66-.36,1.25-.51,1.78-.44.53.07.97.26,1.33.6.36.33.62.75.79,1.27.17.51.21,1.04.15,1.57s-.25,1.03-.57,1.5-.77.81-1.37,1.04ZM100.46,14.37c-.01.22-.02.44-.03.65-.01.22-.02.44-.02.65.2-.01.4-.02.6-.02.2,0,.39-.05.57-.14.19-.1.33-.24.43-.43.09-.19.14-.37.15-.56,0-.19-.04-.34-.13-.47-.09-.13-.23-.19-.41-.18-.19.02-.39.09-.6.2-.21.11-.4.21-.57.29ZM100.54,19.93c.28.01.56,0,.84-.05.19-.03.36-.12.52-.27s.28-.32.36-.52.1-.4.07-.6c-.04-.2-.15-.37-.34-.52-.1-.07-.21-.11-.34-.13-.13-.02-.27-.03-.41-.02-.15,0-.29.01-.43.02-.14.01-.27.01-.39,0,0,.35,0,.69.03,1.04.02.34.05.69.09,1.04Z"/>
      <path class="cls-6" d="M112.85,22.64s-.2.05-.48.07c-.28.03-.62.05-1.02.08-.4.03-.84.05-1.31.08-.47.03-.92.05-1.35.07-.43.02-.8.02-1.12.02s-.54,0-.65-.02c-.12-.02-.21-.08-.26-.16-.06-.09-.08-.19-.08-.31,0-.25,0-.7-.02-1.34-.01-.64-.02-1.38-.02-2.2,0-.82,0-1.68,0-2.58s0-1.74.03-2.51.05-1.43.1-1.98.11-.87.19-.98c.06-.08.15-.14.28-.18.05-.01.23-.02.53-.02s.66,0,1.09,0c.42,0,.88.02,1.36.03.48.02.94.03,1.37.05.43.02.8.03,1.12.05.31.02.51.03.58.04.07.01.12.05.15.11.03.06.04.13.04.21s0,.17-.02.25c-.02.09-.03.16-.04.21-.01.07-.02.21-.03.43-.01.22-.02.46-.04.7s-.04.47-.07.67c-.03.2-.07.31-.1.33-.05.03-.13.05-.23.06-.1,0-.19,0-.26,0-.48.02-.96.02-1.44-.02s-.96-.05-1.44-.07c-.03.23-.06.46-.08.68-.03.22-.05.45-.07.68.19-.01.43-.03.71-.07.28-.03.58-.06.88-.09.3-.03.58-.05.85-.06s.49,0,.66.02c.14.02.22.1.23.25.01.14.02.27.02.39,0,.09,0,.26.01.51.01.25.02.51.02.78s0,.51,0,.74c0,.23-.02.37-.05.41-.05.09-.23.15-.55.18s-.67.05-1.05.06c-.39,0-.75,0-1.1-.02-.35-.02-.58-.02-.71-.02v1.83c.4,0,.77,0,1.15-.02s.76-.03,1.14-.05c.13-.01.26-.03.4-.05s.27-.03.4-.03c.08,0,.14.01.17.03s.06.07.09.15c.03.07.05.22.06.47,0,.25.02.51.02.78s0,.54,0,.79c-.01.25-.02.43-.03.52Z"/>
    </g>
  </g>
  <g id="Schlücke">
    <g>
      <path class="cls-3" d="M9.26,250.32s0,.17,0,.37c0,.2,0,.41-.01.64,0,.23-.01.43-.02.61,0,.18-.01.27-.01.28-.03.08-.13.14-.31.17-.17.03-.36.05-.58.06s-.42,0-.62,0c-.2,0-.34-.01-.42-.01-.04,0-.09,0-.15,0-.06,0-.12,0-.18,0s-.12,0-.17-.02c-.05-.02-.09-.04-.1-.08,0-.02-.01-.07-.01-.16s0-.21,0-.35c0-.14.01-.29.02-.45,0-.16.01-.31.02-.46,0-.15,0-.28.01-.39,0-.11,0-.19,0-.24-.07,0-.21,0-.43.01-.21,0-.43.01-.67.02-.23,0-.44,0-.64,0-.19,0-.31-.02-.35-.04-.06-.03-.11-.09-.13-.17,0-.03-.01-.15-.01-.34s0-.41.01-.65c0-.24.02-.46.03-.66.01-.2.02-.33.03-.39.02-.11.07-.19.16-.24.04-.02.15-.04.33-.05.18-.01.38-.02.59-.03s.42-.01.61-.02c.2,0,.33,0,.4,0,0-.07,0-.2-.02-.38-.02-.18-.03-.37-.04-.56s-.01-.37-.02-.53c0-.16,0-.27.03-.31.04-.07.1-.12.17-.14.02,0,.13-.01.33-.02.2,0,.41,0,.65,0,.24,0,.46,0,.67.01.21,0,.34.01.39.02.05,0,.09.02.14.04.04.02.08.05.1.1.02.06.05.17.07.34s.04.35.05.55c.01.2.02.38.04.56.01.18.02.31.02.39.12,0,.26,0,.41,0,.16,0,.31,0,.47.01.16,0,.32.01.47.02.15.01.28.03.4.05.06.05.11.09.14.13.03.04.05.1.05.19v.63c0,.16,0,.32,0,.5,0,.18,0,.34-.01.49,0,.15,0,.27-.01.37s-.01.15-.02.16c-.02.04-.12.06-.3.06s-.37,0-.58-.02-.42-.03-.61-.05c-.2-.02-.33-.03-.39-.03Z"/>
      <path class="cls-3" d="M17.54,252.94c-.22.02-.46.03-.73.02-.26-.01-.52-.03-.76-.06-.24-.03-.41-.05-.5-.07-.03-.42-.05-.84-.06-1.25,0-.41-.01-.83-.01-1.25-.34.02-.67.01-1.01,0-.34-.02-.67-.03-1.01-.03-.18,0-.37,0-.56.01-.19,0-.38.01-.56.01-.09,0-.18,0-.28,0-.1,0-.16-.05-.19-.15,0-.03,0-.2.01-.49s.04-.66.07-1.08c.03-.42.06-.88.1-1.37.04-.49.08-.94.11-1.36.04-.42.07-.77.1-1.06.03-.28.05-.43.05-.45.02-.03.08-.06.19-.08.11-.02.25-.04.4-.05.16-.02.33-.03.52-.03s.37,0,.53,0,.31,0,.44.01c.12,0,.21.02.26.04.07.02.11.06.11.11v.17c-.03.66-.08,1.31-.15,1.97s-.13,1.31-.17,1.97c.22-.03.43-.05.65-.07.22-.01.44,0,.65.04,0-.44.02-.89.03-1.34.01-.46.05-.9.11-1.33.02-.06.03-.11.05-.13s.06-.04.13-.05c.04,0,.12-.02.24-.02.12,0,.26-.02.42-.02.16,0,.33-.01.5-.02.18,0,.34,0,.49,0s.28,0,.38,0,.16.01.17.02c.04.04.06.13.06.27s0,.29-.02.45c-.02.16-.03.32-.05.47s-.03.26-.04.32c-.06.63-.12,1.26-.17,1.89-.05.63-.09,1.26-.1,1.9,0,.3,0,.61,0,.91.01.3.01.6,0,.91v.13c-.06.09-.19.14-.41.17Z"/>
    </g>
    <g>
      <path class="cls-3" d="M152.54,17.28s0,.17,0,.37c0,.2,0,.41-.01.64,0,.23-.01.43-.02.61,0,.18-.01.27-.01.28-.03.08-.13.14-.31.17-.17.03-.36.05-.58.06s-.42,0-.62,0c-.2,0-.34-.01-.42-.01-.04,0-.09,0-.15,0-.06,0-.12,0-.18,0s-.12,0-.17-.02c-.05-.02-.09-.04-.1-.08,0-.02-.01-.07-.01-.16s0-.21,0-.35c0-.14.01-.29.02-.45,0-.16.01-.31.02-.46,0-.15,0-.28.01-.39,0-.11,0-.19,0-.24-.07,0-.21,0-.43.01-.21,0-.43.01-.67.02-.23,0-.44,0-.64,0-.19,0-.31-.02-.35-.04-.06-.03-.11-.09-.13-.17,0-.03-.01-.15-.01-.34s0-.41.01-.65c0-.24.02-.46.03-.66.01-.2.02-.33.03-.39.02-.11.07-.19.16-.24.04-.02.15-.04.33-.05.18-.01.38-.02.59-.03s.42-.01.61-.02c.2,0,.33,0,.4,0,0-.07,0-.2-.02-.38-.02-.18-.03-.37-.04-.56s-.01-.37-.02-.53c0-.16,0-.27.03-.31.04-.07.1-.12.17-.14.02,0,.13-.01.33-.02.2,0,.41,0,.65,0,.24,0,.46,0,.67.01.21,0,.34.01.39.02.05,0,.09.02.14.04.04.02.08.05.1.1.02.06.05.17.07.34s.04.35.05.55c.01.2.02.38.04.56.01.18.02.31.02.39.12,0,.26,0,.41,0,.16,0,.31,0,.47.01.16,0,.32.01.47.02.15.01.28.03.4.05.06.05.11.09.14.13.03.04.05.1.05.19v.63c0,.16,0,.32,0,.5,0,.18,0,.34-.01.49,0,.15,0,.27-.01.37s-.01.15-.02.16c-.02.04-.12.06-.3.06s-.37,0-.58-.02-.42-.03-.61-.05c-.2-.02-.33-.03-.39-.03Z"/>
      <path class="cls-3" d="M160.81,19.89c-.22.02-.46.03-.73.02-.26-.01-.52-.03-.76-.06-.24-.03-.41-.05-.5-.07-.03-.42-.05-.84-.06-1.25,0-.41-.01-.83-.01-1.25-.34.02-.67.01-1.01,0-.34-.02-.67-.03-1.01-.03-.18,0-.37,0-.56.01-.19,0-.38.01-.56.01-.09,0-.18,0-.28,0-.1,0-.16-.05-.19-.15,0-.03,0-.2.01-.49s.04-.66.07-1.08c.03-.42.06-.88.1-1.37.04-.49.08-.94.11-1.36.04-.42.07-.77.1-1.06.03-.28.05-.43.05-.45.02-.03.08-.06.19-.08.11-.02.25-.04.4-.05.16-.02.33-.03.52-.03s.37,0,.53,0,.31,0,.44.01c.12,0,.21.02.26.04.07.02.11.06.11.11v.17c-.03.66-.08,1.31-.15,1.97s-.13,1.31-.17,1.97c.22-.03.43-.05.65-.07.22-.01.44,0,.65.04,0-.44.02-.89.03-1.34.01-.46.05-.9.11-1.33.02-.06.03-.11.05-.13s.06-.04.13-.05c.04,0,.12-.02.24-.02.12,0,.26-.02.42-.02.16,0,.33-.01.5-.02.18,0,.34,0,.49,0s.28,0,.38,0,.16.01.17.02c.04.04.06.13.06.27s0,.29-.02.45c-.02.16-.03.32-.05.47s-.03.26-.04.32c-.06.63-.12,1.26-.17,1.89-.05.63-.09,1.26-.1,1.9,0,.3,0,.61,0,.91.01.3.01.6,0,.91v.13c-.06.09-.19.14-.41.17Z"/>
    </g>
  </g>
  <g id="Motive">
    <g>
      <path class="cls-2" d="M77.55,86.09c4.25-1.49,7.89-1.48,12.13,0l1.23-3.3c-2.18-2.14-2.23-6.39-1.84-9.28.44-3.23,3.74-5.62,6.84-5.93,3.86-.39,12.78-.42,16.61,0,5.88.64,7.53,6.06,6.78,11.25-.22,1.56-1.81,3.57-1.81,4.23,0,1,1.94,3.49,1.59,4.94,2.04-.08,5.72-.29,5.42,2.7-.33,3.23-4.04,1.54-5.12,2.25-2.14,9.93-12.03,15.47-21.6,11.4-5.46-2.32-8.13-7.35-9.05-12.98-3.24-2.24-7.21-2.26-10.37.16-1.8,18.03-26.83,18.99-30.49,1.42-1.13-.75-4.14.95-4.98-1.73-1.04-3.28,3.06-3.43,5.28-3.22-.29-1.61,1.83-4.19,1.48-5.42-.16-.58-1-1.41-1.3-2.24-1.87-5.21.25-12.1,6.38-12.76,3.83-.42,12.75-.38,16.61,0,3.1.31,6.4,2.7,6.84,5.93.4,2.88.35,7.13-1.84,9.28l1.23,3.3ZM53.97,85.19c-4.06,8.49,2.06,17,11.53,15.51,6.46-1.02,10.18-9.97,6.63-15.41l-18.16-.1ZM113.27,85.19l-18.16.1c-3.55,5.44.17,14.39,6.63,15.41,9.47,1.49,15.59-7.03,11.53-15.51Z"/>
      <path class="cls-2" d="M66.04,113.99c.04.27.13.58.32.79,9.26,9.73,25.24,9.73,34.51,0,.19-.2.28-.51.32-.79,1.24.41,2.16,1.32,3.39,1.86,3.88,1.73,7.59,1.77,11.51.1,1.85-.78,4.83-3.71,6.3-3.57,2.22.22,2.19,2.61,2.12,4.32-.95,21.29-34.55,33.63-40.58,7.33-.11-.5.21-.55-.63-.48-2.9,22.51-31.8,18-38.89.4-.99-2.45-3.76-12.07,1.01-11.58.98.1,4.26,2.98,5.94,3.66,3.64,1.47,6.95,1.5,10.62.09,1.51-.58,2.6-1.57,4.06-2.15Z"/>
      <path class="cls-2" d="M78.44,100.61c1.95-4.22,7.91-4.39,10.16-.33.17.3.28.52.3.6.54,1.74-.39,4.81.49,6.21.77,1.22,4.36.53,6.17,3.09s-.14,3.39-2.37,4.61c-6.03,3.32-13.39,3.3-19.38-.11-2.09-1.19-3.81-1.9-2.29-4.31,1.77-2.81,5.49-2.01,6.3-3.28.89-1.4-.05-4.47.49-6.21.02-.06.06-.15.11-.26Z"/>
    </g>
  </g>
  <g id="Kateg._Symbol" data-name="Kateg. Symbol">
    <g id="jCvsG5">
      <path class="cls-4" d="M14.94,10.67c.12-.09.3,0,.29.15-.04.89.15,1.8.59,2.57.7,1.21,1.87,1.54,2.22,3.08.71,3.1-2.81,5.2-5.44,3.74-1.15-.63-1.88-2.3-1.74-3.58.07-.65.37-1.28.78-1.78.1-.12.29-.09.35.05.29.68.74,1.35,1.45,1.62.21.08.41.15.61,0,.33-.24.03-.63-.08-.9-.74-1.8-.57-3.64.95-4.94,0,0,0,0,.01,0h0Z"/>
    </g>
    <g id="jCvsG5-2" data-name="jCvsG5">
      <path class="cls-4" d="M151.86,243.26c.12-.09.3,0,.29.15-.04.89.15,1.8.59,2.57.7,1.21,1.87,1.54,2.22,3.08.71,3.1-2.81,5.2-5.44,3.74-1.15-.63-1.88-2.3-1.74-3.58.07-.65.37-1.28.78-1.78.1-.12.29-.09.35.05.29.68.74,1.35,1.45,1.62.21.08.41.15.61,0,.33-.24.03-.63-.08-.9-.74-1.8-.57-3.64.95-4.94,0,0,0,0,.01,0h0Z"/>
    </g>
  </g>
  <g id="Kartentext">
    <g>
      <g>
        <path class="cls-4" d="M64.04,173.12l-2.45,5.83s-.03.07-.05.09h-.01s-.03.05-.05.07c0,.02-.01.02-.01.03-.02,0-.05.03-.07.05h0s-.05.05-.09.06h0s0,0,0,.01c-.02,0-.05,0-.08.02h-.02s-.06,0-.1,0c-.03,0-.06,0-.09,0h-.03s-.05-.02-.07-.02t-.02-.01s-.07-.04-.09-.06h0s-.05-.04-.07-.05t-.02-.03s-.03-.04-.04-.06c-.02,0-.02-.01-.02-.01-.02-.02-.03-.06-.04-.09l-1.31-3.1-1.31,3.1s-.03.07-.04.09c0,0,0,.01,0,.01l-.06.06s-.01.02-.01.03c-.02,0-.04.03-.06.05h-.02s-.06.05-.08.06h-.01s0,0,0,.01c-.04,0-.06,0-.08.02h-.03s-.06,0-.09,0-.07,0-.1,0h-.03s-.05-.02-.07-.02t-.02-.01s-.07-.04-.09-.06h0s-.04-.04-.07-.05t-.02-.03s-.03-.04-.05-.06h0s-.03-.07-.05-.1l-2.46-5.83c-.11-.27.01-.6.3-.71.27-.12.6,0,.71.29l1.96,4.63,1.29-3.07c.09-.22.3-.34.52-.34s.42.12.52.34l1.29,3.07,1.95-4.63c.12-.28.44-.41.73-.29.27.11.4.44.28.71Z"/>
        <path class="cls-4" d="M64.54,176.79c.01-1.36,1.07-2.5,2.44-2.5,1.3,0,2.33.97,2.41,2.32v.05s0,.07-.01.09c-.03.24-.24.4-.52.4h-3.18c.05.23.16.49.34.66.21.24.61.42.96.45.36.03.79-.06,1.04-.25.21-.22.62-.19.75-.03.13.14.23.44,0,.65-.49.45-1.08.66-1.79.66-1.37,0-2.43-1.14-2.44-2.5ZM65.63,176.3h2.83c-.1-.4-.61-.99-1.48-1.06-.85.04-1.27.65-1.35,1.06Z"/>
      </g>
      <g>
        <path class="cls-4" d="M73.65,174.82c0,.28-.23.53-.53.53-.23,0-.43.06-.6.19-.19.12-.34.29-.46.48-.24.32-.36.7-.41.84v1.9c0,.29-.25.53-.55.53s-.53-.24-.53-.53v-3.94c0-.29.24-.52.53-.52s.55.23.55.52v.07c.06-.07.14-.15.21-.2.33-.22.76-.4,1.26-.39.3,0,.53.23.53.52Z"/>
        <path class="cls-4" d="M77.56,176.8h0v-3.97c0-.29.24-.54.54-.54s.55.25.55.54v1.88c.37-.26.85-.42,1.34-.42,1.35,0,2.43,1.14,2.43,2.51s-1.08,2.49-2.43,2.49c-.5,0-.98-.17-1.36-.43-.05.24-.26.43-.53.43-.3,0-.54-.25-.54-.54v-1.95ZM78.65,176.8c0,.38.15.74.4.99.25.26.57.41.94.41s.69-.15.94-.41c.25-.25.4-.61.4-.99,0-.4-.15-.76-.4-1.01-.25-.26-.58-.41-.94-.41s-.69.15-.94.41c-.25.25-.4.61-.4,1.01Z"/>
        <path class="cls-4" d="M85.05,173.04c0,.3-.23.55-.54.55s-.54-.25-.54-.55v-.21c0-.3.24-.54.54-.54s.54.24.54.54v.21ZM85.05,174.85v3.9c0,.3-.23.54-.54.54s-.54-.24-.54-.54v-3.9c0-.32.24-.55.54-.55s.54.23.54.55Z"/>
        <path class="cls-4" d="M90.74,176.37v2.39c0,.29-.23.53-.52.53s-.53-.24-.53-.53v-2.39c0-.56-.47-1.01-1.04-1.01s-1,.45-1,1.01v2.39s0,.06-.02.1c-.05.24-.27.43-.53.43-.3,0-.53-.24-.53-.53v-3.94c0-.29.23-.53.53-.53.21,0,.4.12.49.31.3-.19.67-.31,1.06-.31,1.16,0,2.09.95,2.09,2.08Z"/>
        <path class="cls-4" d="M96.39,173.04c0,.3-.23.55-.54.55s-.54-.25-.54-.55v-.21c0-.3.24-.54.54-.54s.54.24.54.54v.21ZM96.39,174.85v3.9c0,.3-.23.54-.54.54s-.54-.24-.54-.54v-3.9c0-.32.24-.55.54-.55s.54.23.54.55Z"/>
        <path class="cls-4" d="M97.56,176.8c0-1.39,1.16-2.5,2.54-2.51.6,0,1.16.22,1.59.55.23.18.27.52.11.74-.2.24-.52.28-.75.1-.26-.19-.58-.32-.95-.32-.81,0-1.48.67-1.48,1.44s.67,1.43,1.48,1.43c.36,0,.69-.13.95-.32.22-.17.55-.13.75.11.16.22.12.54-.11.74-.43.31-.99.53-1.59.53-1.38,0-2.54-1.12-2.54-2.49Z"/>
        <path class="cls-4" d="M104.53,178.74c0,.31-.25.55-.56.55-.25,0-.46-.18-.53-.41,0-.04-.02-.09-.02-.14v-5.9c0-.31.25-.55.55-.55s.56.24.56.55v1.74c.32-.17.68-.29,1.07-.29,1.21,0,2.18.99,2.18,2.19v2.26c0,.31-.24.55-.55.55s-.55-.24-.55-.55v-2.26c0-.59-.48-1.07-1.08-1.08-.59,0-1.06.49-1.07,1.08v2.26Z"/>
      </g>
      <path class="cls-4" d="M110.93,176.43v.65c0,.28-.21.49-.49.49-.26,0-.49-.21-.49-.49v-1.04s0-.01,0-.02t0-.02c0-.26.23-.49.49-.49.63,0,1.14-.5,1.14-1.12s-.51-1.12-1.14-1.12c-.41,0-.77.22-.96.55-.14.24-.44.32-.68.18-.23-.14-.31-.43-.17-.67.36-.62,1.04-1.04,1.81-1.04,1.16,0,2.11.94,2.11,2.1,0,.99-.69,1.82-1.62,2.04ZM110.93,178.62v.18c0,.28-.21.49-.49.49-.26,0-.49-.21-.49-.49v-.18c0-.27.23-.49.49-.49.28,0,.49.22.49.49Z"/>
      <g>
        <path class="cls-4" d="M27.87,190.73v-5.9c0-.31.24-.55.55-.55h1.18c1.93,0,3.49,1.57,3.49,3.49s-1.56,3.51-3.49,3.51h-1.18c-.31,0-.55-.25-.55-.55ZM28.98,190.17h.62c1.32,0,2.38-1.07,2.38-2.4s-1.06-2.38-2.38-2.38h-.62v4.78Z"/>
        <path class="cls-4" d="M34.4,188.78c.01-1.36,1.07-2.5,2.44-2.5,1.3,0,2.33.97,2.41,2.32v.05s0,.07-.01.09c-.03.24-.24.4-.52.4h-3.18c.05.23.16.49.34.66.21.24.61.42.96.45.36.03.79-.06,1.04-.25.21-.22.62-.19.75-.03.13.14.23.44,0,.65-.49.45-1.08.66-1.79.66-1.37,0-2.43-1.14-2.44-2.5ZM35.49,188.29h2.83c-.1-.4-.61-.99-1.48-1.06-.85.04-1.27.65-1.35,1.06Z"/>
        <path class="cls-4" d="M41.73,185.03c0,.3-.23.55-.54.55s-.54-.25-.54-.55v-.21c0-.3.24-.54.54-.54s.54.24.54.54v.21ZM41.73,186.84v3.9c0,.3-.23.54-.54.54s-.54-.24-.54-.54v-3.9c0-.32.24-.55.54-.55s.54.23.54.55Z"/>
        <path class="cls-4" d="M47.41,188.36v2.39c0,.29-.23.53-.52.53s-.53-.24-.53-.53v-2.39c0-.56-.47-1.01-1.04-1.01s-1,.45-1,1.01v2.39s0,.06-.02.1c-.05.24-.27.43-.53.43-.3,0-.53-.24-.53-.53v-3.94c0-.29.23-.53.53-.53.21,0,.4.12.49.31.3-.19.67-.31,1.06-.31,1.16,0,2.09.95,2.09,2.08Z"/>
        <path class="cls-4" d="M48.83,188.78c.01-1.36,1.07-2.5,2.44-2.5,1.3,0,2.33.97,2.41,2.32v.05s0,.07-.01.09c-.03.24-.24.4-.52.4h-3.18c.05.23.16.49.34.66.21.24.61.42.96.45.36.03.79-.06,1.04-.25.21-.22.62-.19.75-.03.13.14.23.44,0,.65-.49.45-1.08.66-1.79.66-1.37,0-2.43-1.14-2.44-2.5ZM49.92,188.29h2.83c-.1-.4-.61-.99-1.48-1.06-.85.04-1.27.65-1.35,1.06Z"/>
        <path class="cls-4" d="M63.99,184.83v5.9c0,.3-.26.55-.56.55s-.55-.25-.55-.55v-4.21l-1.44,2c-.11.15-.27.23-.45.23h-.02c-.18,0-.35-.08-.46-.23l-1.43-2v4.21c0,.3-.25.55-.56.55s-.55-.25-.55-.55v-5.9c0-.3.25-.55.55-.55h.03c.16,0,.34.08.44.23l1.99,2.76,1.99-2.76c.11-.15.27-.23.45-.23h.01c.3,0,.56.25.56.55Z"/>
        <path class="cls-4" d="M67.2,185.03c0,.3-.23.55-.54.55s-.54-.25-.54-.55v-.21c0-.3.24-.54.54-.54s.54.24.54.54v.21ZM67.2,186.84v3.9c0,.3-.23.54-.54.54s-.54-.24-.54-.54v-3.9c0-.32.24-.55.54-.55s.54.23.54.55Z"/>
        <path class="cls-4" d="M70.97,186.83c0,.3-.26.55-.56.55h-.25v2.79c.31,0,.55.25.55.56s-.24.55-.55.55c-.61,0-1.11-.5-1.11-1.11v-2.79h-.29c-.31,0-.55-.25-.55-.55s.24-.55.55-.55h.29v-1.45c0-.31.25-.55.56-.55s.55.24.55.55v1.45h.25c.3,0,.56.24.56.55Z"/>
        <path class="cls-4" d="M72.28,189.85c.18-.24.53-.27.75-.08.26.22.71.45,1.1.44.27,0,.52-.09.68-.19.14-.12.18-.22.18-.3,0-.05,0-.07-.03-.1-.01-.03-.05-.07-.13-.12-.14-.1-.44-.21-.8-.28h0c-.31-.06-.61-.14-.87-.26-.27-.13-.51-.31-.69-.58-.11-.18-.17-.4-.17-.63,0-.46.26-.85.59-1.1.35-.24.77-.37,1.23-.37.69,0,1.18.33,1.5.55.24.16.31.49.16.74-.16.24-.49.31-.74.14-.32-.21-.6-.37-.92-.37-.25,0-.47.08-.6.18-.13.09-.16.18-.16.23,0,.04,0,.05.02.08.01.02.04.06.11.1.13.09.39.18.73.24h0s.01.01.01.01c.33.06.64.15.93.29.27.12.54.31.71.59.12.2.19.43.19.66,0,.49-.27.9-.63,1.16-.36.25-.81.4-1.3.4-.78,0-1.38-.37-1.78-.69-.22-.18-.25-.52-.07-.74Z"/>
        <path class="cls-4" d="M77.24,192.62v-3.82h0v-1.99c0-.29.24-.53.53-.53s.51.19.55.41c.37-.24.85-.41,1.36-.41,1.33,0,2.42,1.14,2.42,2.51s-1.09,2.48-2.42,2.48c-.5,0-.98-.15-1.34-.41v1.76c0,.28-.25.54-.57.54-.29,0-.53-.26-.53-.54ZM78.34,188.79c0,.39.13.77.39,1,.25.28.58.42.95.42.34,0,.68-.14.94-.42.23-.23.39-.61.39-1s-.16-.75-.39-1.01c-.26-.27-.6-.41-.94-.41-.37,0-.7.14-.95.41-.26.26-.39.62-.39,1.01Z"/>
      </g>
      <g>
        <path class="cls-4" d="M84.42,185.03c0,.3-.23.55-.54.55s-.54-.25-.54-.55v-.21c0-.3.24-.54.54-.54s.54.24.54.54v.21ZM84.42,186.84v3.9c0,.3-.23.54-.54.54s-.54-.24-.54-.54v-3.9c0-.32.24-.55.54-.55s.54.23.54.55Z"/>
        <path class="cls-4" d="M85.59,188.78c0-1.36,1.07-2.5,2.44-2.5,1.3,0,2.33.97,2.41,2.32v.05s0,.07,0,.09c-.03.24-.24.4-.52.4h-3.18c.05.23.16.49.34.66.21.24.61.42.96.45.36.03.79-.06,1.04-.25.21-.22.62-.19.75-.03.13.14.23.44,0,.65-.49.45-1.08.66-1.79.66-1.37,0-2.43-1.14-2.44-2.5ZM86.68,188.29h2.83c-.1-.4-.61-.99-1.48-1.06-.85.04-1.27.65-1.35,1.06Z"/>
        <path class="cls-4" d="M92.45,184.28c.31,0,.56.25.56.55v5.9c0,.3-.25.55-.56.55s-.55-.25-.55-.55v-5.9c0-.3.25-.55.55-.55Z"/>
      </g>
      <g>
        <path class="cls-4" d="M94.22,188.78c0-1.36,1.07-2.5,2.44-2.5,1.3,0,2.33.97,2.41,2.32v.05s0,.07,0,.09c-.03.24-.24.4-.52.4h-3.18c.05.23.16.49.34.66.21.24.61.42.96.45.36.03.79-.06,1.04-.25.21-.22.62-.19.75-.03.13.14.23.44,0,.65-.49.45-1.08.66-1.79.66-1.37,0-2.43-1.14-2.44-2.5ZM95.31,188.29h2.83c-.1-.4-.61-.99-1.48-1.06-.85.04-1.27.65-1.35,1.06Z"/>
        <path class="cls-4" d="M103.33,186.81c0,.28-.23.53-.53.53-.23,0-.43.06-.6.19-.19.12-.34.29-.46.48-.24.32-.36.7-.41.84v1.9c0,.29-.25.53-.55.53s-.53-.24-.53-.53v-3.94c0-.29.24-.52.53-.52s.55.23.55.52v.07c.06-.07.14-.15.21-.2.33-.22.76-.4,1.26-.39.3,0,.53.23.53.52Z"/>
      </g>
      <g>
        <path class="cls-4" d="M107,189.85c.18-.24.53-.27.75-.08.26.22.71.45,1.1.44.27,0,.52-.09.68-.19.14-.12.18-.22.18-.3,0-.05-.01-.07-.03-.1,0-.03-.05-.07-.13-.12-.14-.1-.44-.21-.8-.28h0c-.31-.06-.61-.14-.87-.26-.27-.13-.51-.31-.69-.58-.11-.18-.17-.4-.17-.63,0-.46.26-.85.59-1.1.35-.24.77-.37,1.23-.37.69,0,1.18.33,1.5.55.24.16.31.49.16.74-.16.24-.49.31-.74.14-.32-.21-.6-.37-.92-.37-.25,0-.47.08-.6.18-.13.09-.16.18-.16.23,0,.04,0,.05.02.08,0,.02.04.06.11.1.13.09.39.18.73.24h.01s0,.01,0,.01c.33.06.64.15.93.29.27.12.54.31.71.59.12.2.19.43.19.66,0,.49-.27.9-.63,1.16-.36.25-.81.4-1.3.4-.78,0-1.38-.37-1.78-.69-.22-.18-.25-.52-.07-.74Z"/>
        <path class="cls-4" d="M113.94,191.28c-1.14,0-2.08-.94-2.08-2.08v-2.39c0-.28.24-.53.53-.53s.53.25.53.53v2.39c0,.57.45,1.02,1.02,1.02s1.04-.45,1.05-1.02v-2.39c0-.28.22-.53.52-.53.28,0,.54.25.54.53v2.39c0,1.14-.96,2.08-2.11,2.08Z"/>
        <path class="cls-4" d="M117.54,188.79c0-1.39,1.16-2.5,2.54-2.51.6,0,1.16.22,1.59.55.23.18.27.52.11.74-.2.24-.52.28-.75.1-.26-.19-.58-.32-.95-.32-.81,0-1.48.67-1.48,1.44s.67,1.43,1.48,1.43c.36,0,.69-.13.95-.32.22-.17.55-.13.75.11.16.22.12.54-.11.74-.43.31-.99.53-1.59.53-1.38,0-2.54-1.12-2.54-2.49Z"/>
        <path class="cls-4" d="M124.51,190.73c0,.31-.25.55-.56.55-.25,0-.46-.18-.53-.41,0-.04-.02-.09-.02-.14v-5.9c0-.31.25-.55.55-.55s.56.24.56.55v1.74c.32-.17.68-.29,1.07-.29,1.21,0,2.18.99,2.18,2.19v2.26c0,.31-.24.55-.55.55s-.55-.24-.55-.55v-2.26c0-.59-.48-1.07-1.08-1.08-.59,0-1.06.49-1.07,1.08v2.26Z"/>
        <path class="cls-4" d="M128.98,188.78c0-1.36,1.07-2.5,2.44-2.5,1.3,0,2.33.97,2.41,2.32v.05s0,.07,0,.09c-.03.24-.24.4-.52.4h-3.18c.05.23.16.49.34.66.21.24.61.42.96.45.36.03.79-.06,1.04-.25.21-.22.62-.19.75-.03.13.14.23.44,0,.65-.49.45-1.08.66-1.79.66-1.37,0-2.43-1.14-2.44-2.5ZM130.07,188.29h2.83c-.1-.4-.61-.99-1.48-1.06-.85.04-1.27.65-1.35,1.06Z"/>
        <path class="cls-4" d="M139.38,188.36v2.39c0,.29-.23.53-.52.53s-.53-.24-.53-.53v-2.39c0-.56-.47-1.01-1.04-1.01s-1,.45-1,1.01v2.39s0,.06-.02.1c-.05.24-.27.43-.53.43-.3,0-.53-.24-.53-.53v-3.94c0-.29.23-.53.53-.53.21,0,.4.12.49.31.3-.19.67-.31,1.06-.31,1.16,0,2.09.95,2.09,2.08Z"/>
      </g>
      <g>
        <path class="cls-4" d="M21.46,204.5c0-.29.23-.53.55-.53v-5.14c0-.31.25-.55.54-.55.31,0,.54.24.54.55v5.14c0,.59-.48,1.08-1.08,1.08-.32,0-.55-.23-.55-.55ZM22.02,197.04v-.2c0-.32.25-.55.55-.55s.54.23.54.55v.2c0,.29-.24.55-.54.55s-.55-.26-.55-.55Z"/>
        <path class="cls-4" d="M24.38,200.78c.01-1.36,1.07-2.5,2.44-2.5,1.3,0,2.33.97,2.41,2.32v.05s0,.07-.01.09c-.03.24-.24.4-.52.4h-3.18c.05.23.16.49.34.66.21.24.61.42.96.45.36.03.79-.06,1.04-.25.21-.22.62-.19.75-.03.13.14.23.44,0,.65-.49.45-1.08.66-1.79.66-1.37,0-2.43-1.14-2.44-2.5ZM25.47,200.29h2.83c-.1-.4-.61-.99-1.48-1.06-.85.04-1.27.65-1.35,1.06Z"/>
        <path class="cls-4" d="M34.79,200.35v2.4c0,.29-.24.53-.53.53s-.54-.24-.54-.53v-2.4c0-.55-.47-1-1.03-1s-1.01.46-1.01,1.03v2.37s-.01.05-.01.07v.03s0,.04-.03.06v.05c-.09.18-.29.32-.5.32-.04,0-.07,0-.1,0-.24-.06-.43-.26-.43-.52v-2.37h0v-1.56c0-.31.24-.54.53-.54.21,0,.4.11.48.3.32-.19.69-.3,1.07-.3.63,0,1.19.26,1.57.69.37-.43.94-.69,1.57-.69,1.15,0,2.08.94,2.08,2.1v2.37c0,.29-.24.53-.53.53s-.54-.24-.54-.53v-2.37c0-.57-.46-1.03-1.01-1.03s-1.02.45-1.04,1Z"/>
        <path class="cls-4" d="M44.15,200.79v1.96c0,.29-.24.53-.53.53-.26,0-.46-.19-.52-.43-.38.27-.83.43-1.33.43-.68,0-1.27-.28-1.7-.73-.43-.46-.68-1.08-.68-1.76s.25-1.31.68-1.76c.43-.46,1.02-.75,1.7-.75.5,0,.95.17,1.33.44.06-.25.26-.44.52-.44.29,0,.53.24.53.54v1.97ZM43.1,200.79c0-.42-.15-.78-.39-1.03-.24-.27-.58-.41-.93-.41s-.7.14-.93.41c-.24.25-.38.61-.38,1.03s.14.77.38,1.03c.23.25.57.39.93.39s.69-.14.93-.39c.24-.26.39-.62.39-1.03Z"/>
      </g>
      <g>
        <path class="cls-4" d="M49.99,200.36v2.39c0,.29-.23.53-.52.53s-.53-.24-.53-.53v-2.39c0-.56-.47-1.01-1.04-1.01s-1,.45-1,1.01v2.39s0,.06-.02.1c-.05.24-.27.43-.53.43-.3,0-.53-.24-.53-.53v-3.94c0-.29.23-.53.53-.53.21,0,.4.12.49.31.3-.19.67-.31,1.06-.31,1.16,0,2.09.95,2.09,2.08Z"/>
        <path class="cls-4" d="M56.08,202.74c0,.29-.24.54-.54.54-.27,0-.48-.19-.53-.43-.38.26-.86.43-1.36.43-1.35,0-2.43-1.14-2.43-2.49s1.08-2.51,2.43-2.51c.49,0,.97.16,1.34.42v-1.88c0-.29.24-.54.55-.54s.54.25.54.54v3.96h0v1.96ZM53.65,199.37c-.36,0-.69.15-.94.41-.25.25-.4.61-.4,1.01s.15.74.4.99c.25.26.58.41.94.41s.69-.15.94-.41c.25-.25.4-.61.4-.99,0-.4-.15-.76-.4-1.01-.25-.26-.57-.41-.94-.41Z"/>
      </g>
      <g>
        <path class="cls-4" d="M57.45,200.78c.01-1.36,1.07-2.5,2.44-2.5,1.3,0,2.33.97,2.41,2.32v.05s0,.07-.01.09c-.03.24-.24.4-.52.4h-3.18c.05.23.16.49.34.66.21.24.61.42.96.45.36.03.79-.06,1.04-.25.21-.22.62-.19.75-.03.13.14.23.44,0,.65-.49.45-1.08.66-1.79.66-1.37,0-2.43-1.14-2.44-2.5ZM58.54,200.29h2.83c-.1-.4-.61-.99-1.48-1.06-.85.04-1.27.65-1.35,1.06Z"/>
        <path class="cls-4" d="M67.85,200.36v2.39c0,.29-.23.53-.52.53s-.53-.24-.53-.53v-2.39c0-.56-.47-1.01-1.04-1.01s-1,.45-1,1.01v2.39s0,.06-.02.1c-.05.24-.27.43-.53.43-.3,0-.53-.24-.53-.53v-3.94c0-.29.23-.53.53-.53.21,0,.4.12.49.31.3-.19.67-.31,1.06-.31,1.16,0,2.09.95,2.09,2.08Z"/>
        <path class="cls-4" d="M74.06,197.95v.14h.3c.3,0,.55.24.55.55s-.25.55-.55.55h-.3v3.53c0,.3-.24.55-.55.55s-.55-.25-.55-.55v-3.53h-.26c-.31,0-.56-.25-.56-.55s.25-.55.56-.55h.26v-.14c0-.37.04-.69.19-.98.14-.3.42-.53.72-.62.2-.06.39-.08.6-.08.3,0,.55.25.55.55s-.25.56-.55.56c-.13,0-.22.01-.26.03-.04,0-.05.02-.06.03-.01,0-.09.14-.09.51Z"/>
        <path class="cls-4" d="M77.81,203.28c-1.14,0-2.08-.94-2.08-2.08v-2.39c0-.28.24-.53.53-.53s.53.25.53.53v2.39c0,.57.45,1.02,1.02,1.02s1.04-.45,1.05-1.02v-2.39c0-.28.22-.53.52-.53.28,0,.54.25.54.53v2.39c0,1.14-.96,2.08-2.11,2.08ZM76.83,196.3c.36,0,.65.29.65.65s-.29.64-.65.64-.64-.28-.64-.64.28-.65.64-.65ZM78.82,196.3c.36,0,.65.29.65.65s-.29.64-.65.64-.64-.28-.64-.64.28-.65.64-.65Z"/>
        <path class="cls-4" d="M84.84,198.81c0,.28-.23.53-.53.53-.23,0-.43.06-.6.19-.19.12-.34.29-.46.48-.24.32-.36.7-.41.84v1.9c0,.29-.25.53-.55.53s-.53-.24-.53-.53v-3.94c0-.29.24-.52.53-.52s.55.23.55.52v.07c.06-.07.14-.15.21-.2.33-.22.76-.4,1.26-.39.3,0,.53.23.53.52Z"/>
        <path class="cls-4" d="M93.28,202.74c0,.29-.24.54-.54.54-.27,0-.48-.19-.53-.43-.38.26-.86.43-1.36.43-1.35,0-2.43-1.14-2.43-2.49s1.08-2.51,2.43-2.51c.49,0,.97.16,1.34.42v-1.88c0-.29.24-.54.55-.54s.54.25.54.54v3.96h0v1.96ZM90.85,199.37c-.36,0-.69.15-.94.41-.25.25-.4.61-.4,1.01s.15.74.4.99c.25.26.58.41.94.41s.69-.15.94-.41c.25-.25.4-.61.4-.99,0-.4-.15-.76-.4-1.01-.25-.26-.57-.41-.94-.41Z"/>
        <path class="cls-4" d="M96.25,197.03c0,.3-.23.55-.54.55s-.54-.25-.54-.55v-.21c0-.3.24-.54.54-.54s.54.24.54.54v.21ZM96.25,198.84v3.9c0,.3-.23.54-.54.54s-.54-.24-.54-.54v-3.9c0-.32.24-.55.54-.55s.54.23.54.55Z"/>
        <path class="cls-4" d="M97.42,200.79c0-1.39,1.16-2.5,2.54-2.51.6,0,1.16.22,1.59.55.23.18.27.52.11.74-.2.24-.52.28-.75.1-.26-.19-.58-.32-.95-.32-.81,0-1.48.67-1.48,1.44s.67,1.43,1.48,1.43c.36,0,.69-.13.95-.32.22-.17.55-.13.75.11.16.22.12.54-.11.74-.43.31-.99.53-1.59.53-1.38,0-2.54-1.12-2.54-2.49Z"/>
        <path class="cls-4" d="M104.39,202.73c0,.31-.25.55-.56.55-.25,0-.46-.18-.53-.41,0-.04-.02-.09-.02-.14v-5.9c0-.31.25-.55.55-.55s.56.24.56.55v1.74c.32-.17.68-.29,1.07-.29,1.21,0,2.18.99,2.18,2.19v2.26c0,.31-.24.55-.55.55s-.55-.24-.55-.55v-2.26c0-.59-.48-1.07-1.08-1.08-.59,0-1.06.49-1.07,1.08v2.26Z"/>
        <path class="cls-4" d="M116.23,200.79v1.96c0,.29-.24.53-.53.53-.26,0-.46-.19-.52-.43-.38.27-.83.43-1.33.43-.68,0-1.27-.28-1.7-.73-.43-.46-.68-1.08-.68-1.76s.25-1.31.68-1.76c.43-.46,1.02-.75,1.7-.75.5,0,.95.17,1.33.44.06-.25.26-.44.52-.44.29,0,.53.24.53.54v1.97ZM115.17,200.79c0-.42-.15-.78-.39-1.03-.24-.27-.58-.41-.93-.41s-.7.14-.93.41c-.24.25-.38.61-.38,1.03s.14.77.38,1.03c.23.25.57.39.93.39s.69-.14.93-.39c.24-.26.39-.62.39-1.03Z"/>
        <path class="cls-4" d="M119.97,203.28c-1.14,0-2.08-.94-2.08-2.08v-2.39c0-.28.24-.53.53-.53s.53.25.53.53v2.39c0,.57.45,1.02,1.02,1.02s1.04-.45,1.05-1.02v-2.39c0-.28.22-.53.52-.53.28,0,.54.25.54.53v2.39c0,1.14-.96,2.08-2.11,2.08Z"/>
        <path class="cls-4" d="M123.69,201.85c.18-.24.53-.27.75-.08.26.22.71.45,1.1.44.27,0,.52-.09.68-.19.14-.12.18-.22.18-.3,0-.05-.01-.07-.03-.1,0-.03-.05-.07-.13-.12-.14-.1-.44-.21-.8-.28h0c-.31-.06-.61-.14-.87-.26-.27-.13-.51-.31-.69-.58-.11-.18-.17-.4-.17-.63,0-.46.26-.85.59-1.1.35-.24.77-.37,1.23-.37.69,0,1.18.33,1.5.55.24.16.31.49.16.74-.16.24-.49.31-.74.14-.32-.21-.6-.37-.92-.37-.25,0-.47.08-.6.18-.13.09-.16.18-.16.23,0,.04,0,.05.02.08,0,.02.04.06.11.1.13.09.39.18.73.24h.01s0,.01,0,.01c.33.06.64.15.93.29.27.12.54.31.71.59.12.2.19.43.19.66,0,.49-.27.9-.63,1.16-.36.25-.81.4-1.3.4-.78,0-1.38-.37-1.78-.69-.22-.18-.25-.52-.07-.74Z"/>
        <path class="cls-4" d="M129.28,201.86c.41,0,.75.34.75.75s-.34.74-.75.74-.74-.33-.74-.74.33-.75.74-.75Z"/>
        <path class="cls-4" d="M133.66,202.73v-5.9c0-.31.24-.55.55-.55h1.18c1.93,0,3.49,1.57,3.49,3.49s-1.56,3.51-3.49,3.51h-1.18c-.31,0-.55-.25-.55-.55ZM134.76,202.17h.62c1.32,0,2.38-1.07,2.38-2.4s-1.06-2.38-2.38-2.38h-.62v4.78Z"/>
        <path class="cls-4" d="M142.51,203.28c-1.14,0-2.08-.94-2.08-2.08v-2.39c0-.28.24-.53.53-.53s.53.25.53.53v2.39c0,.57.45,1.02,1.02,1.02s1.04-.45,1.05-1.02v-2.39c0-.28.22-.53.52-.53.28,0,.54.25.54.53v2.39c0,1.14-.96,2.08-2.11,2.08Z"/>
      </g>
      <g>
        <path class="cls-4" d="M24.27,214.73c0,.31-.25.55-.56.55-.25,0-.46-.18-.53-.41-.01-.04-.02-.09-.02-.14v-5.9c0-.31.25-.55.55-.55s.56.24.56.55v1.74c.32-.17.68-.29,1.07-.29,1.21,0,2.18.99,2.18,2.19v2.26c0,.31-.24.55-.55.55s-.55-.24-.55-.55v-2.26c0-.59-.48-1.07-1.08-1.08-.59,0-1.06.49-1.07,1.08v2.26Z"/>
        <path class="cls-4" d="M33.72,212.79v1.96c0,.29-.24.53-.53.53-.26,0-.46-.19-.52-.43-.38.27-.83.43-1.33.43-.68,0-1.27-.28-1.7-.73-.43-.46-.68-1.08-.68-1.76s.25-1.31.68-1.76c.43-.46,1.02-.75,1.7-.75.5,0,.95.17,1.33.44.06-.25.26-.44.52-.44.29,0,.53.24.53.54v1.97ZM32.66,212.79c0-.42-.15-.78-.39-1.03-.24-.27-.58-.41-.93-.41s-.7.14-.93.41c-.24.25-.38.61-.38,1.03s.14.77.38,1.03c.23.25.57.39.93.39s.69-.14.93-.39c.24-.26.39-.62.39-1.03Z"/>
      </g>
      <g>
        <path class="cls-4" d="M35.24,213.85c.18-.24.53-.27.75-.08.26.22.71.45,1.1.44.27,0,.52-.09.68-.19.14-.12.18-.22.18-.3,0-.05,0-.07-.03-.1,0-.03-.05-.07-.13-.12-.14-.1-.44-.21-.8-.28h0c-.31-.06-.61-.14-.87-.26-.27-.13-.51-.31-.69-.58-.11-.18-.17-.4-.17-.63,0-.46.26-.85.59-1.1.35-.24.77-.37,1.23-.37.69,0,1.18.33,1.5.55.24.16.31.49.16.74-.16.24-.49.31-.74.14-.32-.21-.6-.37-.92-.37-.25,0-.47.08-.6.18-.13.09-.16.18-.16.23,0,.04,0,.05.02.08.01.02.04.06.11.1.13.09.39.18.73.24h0s.01.01.01.01c.33.06.64.15.93.29.27.12.54.31.71.59.12.2.19.43.19.66,0,.49-.27.9-.63,1.16-.36.25-.81.4-1.3.4-.78,0-1.38-.37-1.78-.69-.22-.18-.25-.52-.07-.74Z"/>
        <path class="cls-4" d="M42.6,210.83c0,.3-.26.55-.56.55h-.25v2.79c.31,0,.55.25.55.56s-.24.55-.55.55c-.61,0-1.11-.5-1.11-1.11v-2.79h-.29c-.31,0-.55-.25-.55-.55s.24-.55.55-.55h.29v-1.45c0-.31.25-.55.56-.55s.55.24.55.55v1.45h.25c.3,0,.56.24.56.55Z"/>
      </g>
      <g>
        <path class="cls-4" d="M48.75,208.83v5.9c0,.31-.26.55-.56.55s-.55-.24-.55-.55v-4.92l-.4.23c-.09.06-.19.08-.28.08-.19,0-.37-.1-.47-.28-.17-.25-.08-.6.18-.75l1.23-.73s.03-.01.04-.02c.02,0,.03-.02.05-.03.02,0,.04,0,.06,0,.01-.01.03-.01.04-.01.02,0,.05,0,.07,0h.11s.03,0,.04,0c.03,0,.04.01.06.02.01,0,.03,0,.04.01.03.02.04.03.06.03,0,.01.02.02.04.03,0,0,.03.02.04.03.02,0,.03.03.04.04.01,0,.02.02.03.04l.04.04v.02s.02.02.02.03c0,.02.02.03.02.05,0,.02,0,.04.02.05,0,.02,0,.04,0,.05,0,.03,0,.05.02.07v.03Z"/>
        <path class="cls-4" d="M49.82,211.78c.01-.92.24-1.75.68-2.39.42-.64,1.07-1.11,1.86-1.11s1.43.47,1.85,1.11c.43.64.67,1.47.67,2.39s-.24,1.75-.67,2.39c-.42.63-1.08,1.11-1.85,1.11s-1.44-.48-1.86-1.11c-.44-.64-.67-1.48-.68-2.39ZM53.77,211.78c0-.72-.2-1.35-.48-1.78-.29-.42-.62-.62-.93-.61-.31-.01-.65.19-.95.61-.28.43-.48,1.06-.48,1.78s.2,1.35.48,1.77c.3.43.64.62.95.62s.64-.19.93-.62c.28-.42.48-1.06.48-1.77Z"/>
        <path class="cls-4" d="M59.91,214.73v-5.9c0-.3.24-.55.55-.55h3.27c.29,0,.55.25.55.55s-.26.56-.55.56h-2.71v1.83h2.33c.3,0,.55.26.55.55,0,.31-.25.56-.55.56h-2.33v2.4c0,.3-.25.55-.56.55s-.55-.25-.55-.55Z"/>
        <path class="cls-4" d="M68.73,210.81c0,.28-.23.53-.53.53-.23,0-.43.06-.6.19-.19.12-.34.29-.46.48-.24.32-.36.7-.41.84v1.9c0,.29-.25.53-.55.53s-.53-.24-.53-.53v-3.94c0-.29.24-.52.53-.52s.55.23.55.52v.07c.06-.07.14-.15.21-.2.33-.22.76-.4,1.26-.39.3,0,.53.23.53.52Z"/>
      </g>
      <path class="cls-4" d="M73.82,212.79v1.96c0,.29-.24.53-.53.53-.26,0-.46-.19-.52-.43-.38.27-.83.43-1.33.43-.68,0-1.27-.28-1.7-.73-.43-.46-.68-1.08-.68-1.76s.25-1.31.68-1.76c.43-.46,1.02-.75,1.7-.75.5,0,.95.17,1.33.44.06-.25.26-.44.52-.44.29,0,.53.24.53.54v1.97ZM72.76,212.79c0-.42-.15-.78-.39-1.03-.24-.27-.58-.41-.93-.41s-.7.14-.93.41c-.24.25-.38.61-.38,1.03s.14.77.38,1.03c.23.25.57.39.93.39s.69-.14.93-.39c.24-.26.39-.62.39-1.03Z"/>
      <g>
        <path class="cls-4" d="M80.4,212.81v1.86c0,1.31-1.07,2.4-2.4,2.4-.37,0-.74-.09-1.05-.25-.26-.12-.38-.45-.24-.72.13-.27.44-.37.72-.25.17.09.36.14.57.14.65,0,1.18-.46,1.31-1.07-.36.25-.82.4-1.31.4-.66,0-1.27-.29-1.7-.76-.43-.44-.7-1.06-.7-1.76s.27-1.31.7-1.78c.43-.45,1.04-.74,1.7-.74.52,0,.98.16,1.34.42.05-.24.27-.42.53-.42.3,0,.53.24.53.53v1.99h0ZM79.33,212.8c0-.4-.16-.78-.38-1.02-.26-.28-.57-.43-.95-.43-.35,0-.68.15-.92.43-.24.24-.4.62-.4,1.02,0,.42.16.8.4,1.03.24.27.57.41.92.41.38,0,.69-.14.95-.41.22-.23.38-.61.38-1.03Z"/>
        <path class="cls-4" d="M81.98,212.78c.01-1.36,1.07-2.5,2.44-2.5,1.3,0,2.33.97,2.41,2.32v.05s0,.07,0,.09c-.03.24-.24.4-.52.4h-3.18c.05.23.16.49.34.66.21.24.61.42.96.45.36.03.79-.06,1.04-.25.21-.22.62-.19.75-.03.13.14.23.44,0,.65-.49.45-1.08.66-1.79.66-1.37,0-2.43-1.14-2.44-2.5ZM83.07,212.29h2.83c-.1-.4-.61-.99-1.48-1.06-.85.04-1.27.65-1.35,1.06Z"/>
        <path class="cls-4" d="M92.39,212.36v2.39c0,.29-.23.53-.52.53s-.53-.24-.53-.53v-2.39c0-.56-.47-1.01-1.04-1.01s-1,.45-1,1.01v2.39s0,.06-.02.1c-.05.24-.27.43-.53.43-.3,0-.53-.24-.53-.53v-3.94c0-.29.23-.53.53-.53.21,0,.4.12.49.31.3-.19.67-.31,1.06-.31,1.16,0,2.09.95,2.09,2.08Z"/>
        <path class="cls-4" d="M102.05,209.16l-3.68,5.01h3.22c.31,0,.56.25.56.56s-.25.55-.56.55h-4.31s-.06,0-.1,0c0,0-.02,0-.03-.01-.02,0-.04,0-.07,0,0-.01-.02-.01-.03-.03,0,0-.03,0-.05-.02-.02,0-.03,0-.04-.02h0s-.02-.02-.03-.03c0-.01-.03-.03-.04-.05-.02-.01-.03-.02-.04-.03,0,0-.02-.03-.03-.04,0-.03-.02-.04-.02-.05,0-.02-.03-.03-.03-.05-.01-.02-.01-.04-.02-.06,0-.01,0-.02,0-.04,0-.03,0-.05,0-.07v-.03h0s0-.06,0-.08v-.05s0-.03.02-.05c0-.01.01-.03.01-.05.02,0,.03-.03.03-.04.01-.01.02-.03.03-.05h0l3.67-5.02h-3.23c-.31,0-.55-.26-.55-.56s.24-.55.55-.55h4.39s.03,0,.04,0c.03,0,.04.01.06.01,0,0,.03,0,.04.02.03,0,.04.02.05.03.02.01.03.02.05.03h0s.02.02.03.03c.02,0,.03.03.04.04,0,0,.02.03.03.04.02,0,.03.02.04.04,0,.02.02.04.03.05,0,0,0,.03.02.04,0,.03,0,.05,0,.06.02.02.02.03.02.05.01.03.01.04.01.06v.11s-.01.03-.01.04c0,.03-.02.04-.02.06,0,.02,0,.03-.02.06,0,.01,0,.02-.02.03,0,.02-.02.04-.03.05v.02Z"/>
      </g>
      <g>
        <path class="cls-4" d="M102.82,212.78c0-1.36,1.07-2.5,2.44-2.5,1.3,0,2.33.97,2.41,2.32v.05s0,.07,0,.09c-.03.24-.24.4-.52.4h-3.18c.05.23.16.49.34.66.21.24.61.42.96.45.36.03.79-.06,1.04-.25.21-.22.62-.19.75-.03.13.14.23.44,0,.65-.49.45-1.08.66-1.79.66-1.37,0-2.43-1.14-2.44-2.5ZM103.91,212.29h2.83c-.1-.4-.61-.99-1.48-1.06-.85.04-1.27.65-1.35,1.06Z"/>
        <path class="cls-4" d="M110.15,209.03c0,.3-.23.55-.54.55s-.54-.25-.54-.55v-.21c0-.3.24-.54.54-.54s.54.24.54.54v.21ZM110.15,210.84v3.9c0,.3-.23.54-.54.54s-.54-.24-.54-.54v-3.9c0-.32.24-.55.54-.55s.54.23.54.55Z"/>
        <path class="cls-4" d="M113.92,210.83c0,.3-.26.55-.56.55h-.25v2.79c.31,0,.55.25.55.56s-.24.55-.55.55c-.61,0-1.11-.5-1.11-1.11v-2.79h-.29c-.31,0-.55-.25-.55-.55s.24-.55.55-.55h.29v-1.45c0-.31.25-.55.56-.55s.55.24.55.55v1.45h.25c.3,0,.56.24.56.55Z"/>
        <path class="cls-4" d="M115.31,216.18c.46-.15.7-.46.68-.9-.29-.08-.57-.32-.57-.68v-.08c0-.38.27-.67.68-.67.45,0,.72.34.72.88v.11c0,.68-.18,1.14-.49,1.46-.27.26-.66.43-.94.43-.21,0-.31-.13-.31-.28,0-.14.1-.24.23-.27Z"/>
        <path class="cls-4" d="M120.13,213.85c.18-.24.53-.27.75-.08.26.22.71.45,1.1.44.27,0,.52-.09.68-.19.14-.12.18-.22.18-.3,0-.05-.01-.07-.03-.1,0-.03-.05-.07-.13-.12-.14-.1-.44-.21-.8-.28h0c-.31-.06-.61-.14-.87-.26-.27-.13-.51-.31-.69-.58-.11-.18-.17-.4-.17-.63,0-.46.26-.85.59-1.1.35-.24.77-.37,1.23-.37.69,0,1.18.33,1.5.55.24.16.31.49.16.74-.16.24-.49.31-.74.14-.32-.21-.6-.37-.92-.37-.25,0-.47.08-.6.18-.13.09-.16.18-.16.23,0,.04,0,.05.02.08,0,.02.04.06.11.1.13.09.39.18.73.24h.01s0,.01,0,.01c.33.06.64.15.93.29.27.12.54.31.71.59.12.2.19.43.19.66,0,.49-.27.9-.63,1.16-.36.25-.81.4-1.3.4-.78,0-1.38-.37-1.78-.69-.22-.18-.25-.52-.07-.74Z"/>
        <path class="cls-4" d="M125.55,214.55c-.43-.44-.69-1.06-.69-1.76s.26-1.27.69-1.75c.45-.47,1.03-.76,1.72-.76s1.26.29,1.67.76c.45.48.7,1.07.7,1.75s-.25,1.32-.7,1.76c-.41.47-1.01.76-1.67.76s-1.27-.29-1.72-.76ZM125.95,212.79c0,.43.13.78.36,1.06.25.24.58.37.96.37.35,0,.67-.13.92-.37.25-.28.39-.63.39-1.06s-.14-.77-.39-1.04c-.25-.22-.57-.38-.92-.38-.38,0-.71.16-.96.38-.23.27-.36.63-.36,1.04Z"/>
        <path class="cls-4" d="M135.31,212.36v2.39c0,.29-.23.53-.52.53s-.53-.24-.53-.53v-2.39c0-.56-.47-1.01-1.04-1.01s-1,.45-1,1.01v2.39s0,.06-.02.1c-.05.24-.27.43-.53.43-.3,0-.53-.24-.53-.53v-3.94c0-.29.23-.53.53-.53.21,0,.4.12.49.31.3-.19.67-.31,1.06-.31,1.16,0,2.09.95,2.09,2.08Z"/>
        <path class="cls-4" d="M136.83,213.85c.18-.24.53-.27.75-.08.26.22.71.45,1.1.44.27,0,.52-.09.68-.19.14-.12.18-.22.18-.3,0-.05-.01-.07-.03-.1,0-.03-.05-.07-.13-.12-.14-.1-.44-.21-.8-.28h0c-.31-.06-.61-.14-.87-.26-.27-.13-.51-.31-.69-.58-.11-.18-.17-.4-.17-.63,0-.46.26-.85.59-1.1.35-.24.77-.37,1.23-.37.69,0,1.18.33,1.5.55.24.16.31.49.16.74-.16.24-.49.31-.74.14-.32-.21-.6-.37-.92-.37-.25,0-.47.08-.6.18-.13.09-.16.18-.16.23,0,.04,0,.05.02.08,0,.02.04.06.11.1.13.09.39.18.73.24h.01s0,.01,0,.01c.33.06.64.15.93.29.27.12.54.31.71.59.12.2.19.43.19.66,0,.49-.27.9-.63,1.16-.36.25-.81.4-1.3.4-.78,0-1.38-.37-1.78-.69-.22-.18-.25-.52-.07-.74Z"/>
      </g>
      <path class="cls-4" d="M144.19,210.83c0,.3-.26.55-.56.55h-.25v2.79c.31,0,.55.25.55.56s-.24.55-.55.55c-.61,0-1.11-.5-1.11-1.11v-2.79h-.29c-.31,0-.55-.25-.55-.55s.24-.55.55-.55h.29v-1.45c0-.31.25-.55.56-.55s.55.24.55.55v1.45h.25c.3,0,.56.24.56.55Z"/>
      <path class="cls-4" d="M63.13,222.83c0,.3-.26.55-.56.55h-.25v2.79c.31,0,.55.25.55.56s-.24.55-.55.55c-.61,0-1.11-.5-1.11-1.11v-2.79h-.29c-.31,0-.55-.25-.55-.55s.24-.55.55-.55h.29v-1.45c0-.31.25-.55.56-.55s.55.24.55.55v1.45h.25c.3,0,.56.24.56.55Z"/>
      <g>
        <path class="cls-4" d="M67.06,222.81c0,.28-.23.53-.53.53-.23,0-.43.06-.6.19-.19.12-.34.29-.46.48-.24.32-.36.7-.41.84v1.9c0,.29-.25.53-.55.53s-.53-.24-.53-.53v-3.94c0-.29.24-.52.53-.52s.55.23.55.52v.07c.06-.07.14-.15.21-.2.33-.22.76-.4,1.26-.39.3,0,.53.23.53.52Z"/>
        <path class="cls-4" d="M69.26,221.03c0,.3-.23.55-.54.55s-.54-.25-.54-.55v-.21c0-.3.24-.54.54-.54s.54.24.54.54v.21ZM69.26,222.84v3.9c0,.3-.23.54-.54.54s-.54-.24-.54-.54v-3.9c0-.32.24-.55.54-.55s.54.23.54.55Z"/>
        <path class="cls-4" d="M74.95,224.36v2.39c0,.29-.23.53-.52.53s-.53-.24-.53-.53v-2.39c0-.56-.47-1.01-1.04-1.01s-1,.45-1,1.01v2.39s0,.06-.02.1c-.05.24-.27.43-.53.43-.3,0-.53-.24-.53-.53v-3.94c0-.29.23-.53.53-.53.21,0,.4.12.49.31.3-.19.67-.31,1.06-.31,1.16,0,2.09.95,2.09,2.08Z"/>
        <path class="cls-4" d="M76.71,226.73v-5.9c0-.3.24-.55.55-.55s.56.25.56.55v3.46l2.05-2.05c.21-.21.57-.21.78,0,.22.22.22.57,0,.78l-1.5,1.5,1.54,1.85c.19.24.16.59-.08.78-.1.09-.23.13-.35.13-.16,0-.32-.07-.42-.2l-1.47-1.78-.55.55v.88c0,.3-.25.55-.56.55s-.55-.25-.55-.55Z"/>
        <path class="cls-4" d="M81.87,225.85c.18-.24.53-.27.75-.08.26.22.71.45,1.1.44.27,0,.52-.09.68-.19.14-.12.18-.22.18-.3,0-.05,0-.07-.03-.1,0-.03-.05-.07-.13-.12-.14-.1-.44-.21-.8-.28h0c-.31-.06-.61-.14-.87-.26-.27-.13-.51-.31-.69-.58-.11-.18-.17-.4-.17-.63,0-.46.26-.85.59-1.1.35-.24.77-.37,1.23-.37.69,0,1.18.33,1.5.55.24.16.31.49.16.74-.16.24-.49.31-.74.14-.32-.21-.6-.37-.92-.37-.25,0-.47.08-.6.18-.13.09-.16.18-.16.23,0,.04,0,.05.02.08.01.02.04.06.11.1.13.09.39.18.73.24h0s.01.01.01.01c.33.06.64.15.93.29.27.12.54.31.71.59.12.2.19.43.19.66,0,.49-.27.9-.63,1.16-.36.25-.81.4-1.3.4-.78,0-1.38-.37-1.78-.69-.22-.18-.25-.52-.07-.74Z"/>
      </g>
      <g>
        <path class="cls-4" d="M89.23,222.83c0,.3-.26.55-.56.55h-.25v2.79c.31,0,.55.25.55.56s-.24.55-.55.55c-.61,0-1.11-.5-1.11-1.11v-2.79h-.29c-.31,0-.55-.25-.55-.55s.24-.55.55-.55h.29v-1.45c0-.31.25-.55.56-.55s.55.24.55.55v1.45h.25c.3,0,.56.24.56.55Z"/>
        <path class="cls-4" d="M98.11,226.74c0,.29-.24.54-.54.54-.27,0-.48-.19-.53-.43-.38.26-.86.43-1.36.43-1.35,0-2.43-1.14-2.43-2.49s1.08-2.51,2.43-2.51c.49,0,.97.16,1.34.42v-1.88c0-.29.24-.54.55-.54s.54.25.54.54v3.96h0v1.96ZM95.68,223.37c-.36,0-.69.15-.94.41-.25.25-.4.61-.4,1.01s.15.74.4.99c.25.26.58.41.94.41s.69-.15.94-.41c.25-.25.4-.61.4-.99,0-.4-.15-.76-.4-1.01-.25-.26-.57-.41-.94-.41Z"/>
        <path class="cls-4" d="M101.96,227.28c-1.14,0-2.08-.94-2.08-2.08v-2.39c0-.28.24-.53.53-.53s.53.25.53.53v2.39c0,.57.45,1.02,1.02,1.02s1.04-.45,1.05-1.02v-2.39c0-.28.22-.53.52-.53.28,0,.54.25.54.53v2.39c0,1.14-.96,2.08-2.11,2.08Z"/>
        <path class="cls-4" d="M106.54,225.86c.41,0,.75.34.75.75s-.34.74-.75.74-.74-.33-.74-.74.33-.75.74-.75Z"/>
      </g>
    </g>
  </g>
</svg>