<?xml version="1.0" encoding="UTF-8"?>
<svg xmlns="http://www.w3.org/2000/svg" viewBox="0 0 167.24 260.79">
  <defs>
    <style>
      .cls-1 {
        fill: #eaab3c;
      }

      .cls-2 {
        stroke: #fff;
        stroke-miterlimit: 10;
        stroke-width: .15px;
      }

      .cls-2, .cls-3 {
        fill: #fff;
      }

      .cls-4 {
        fill: #3580c5;
      }

      .cls-5 {
        fill: #60a737;
      }

      .cls-6 {
        fill: #8067a5;
      }

      .cls-7 {
        fill: #d44650;
      }

      .cls-8 {
        fill: #8066a5;
      }

      .cls-9 {
        fill: #60a637;
      }

      .cls-10 {
        fill: #3481c5;
      }

      .cls-11 {
        fill: #161616;
      }
    </style>
  </defs>
  <g id="Ebene_2" data-name="Ebene 2">
    <rect class="cls-11" width="167.24" height="260.79"/>
  </g>
  <g id="Ebene_5" data-name="Ebene 5">
    <g>
      <g>
        <path class="cls-3" d="M43.97,124.91c-.91.11-1.86.12-2.85.04-.99-.08-1.92-.27-2.79-.58-.31-.11-.57-.32-.78-.64-.21-.32-.39-.68-.52-1.07-.13-.39-.23-.79-.28-1.19-.05-.4-.07-.74-.06-1.02.01-.17.03-.35.06-.53s.11-.34.24-.47c.09-.09.31-.16.64-.2.33-.04.69-.06,1.07-.07.38,0,.74.01,1.07.05.33.04.55.09.64.16.08.07.12.17.13.31,0,.14,0,.29,0,.45-.01.16-.01.32,0,.48.01.16.07.29.16.4.09.11.31.19.66.24s.7.06,1.07,0c.37-.05.69-.15.96-.3s.38-.39.33-.71c-.07-.36-.25-.67-.55-.92-.3-.25-.66-.49-1.09-.72-.43-.23-.89-.45-1.39-.68-.5-.23-.97-.49-1.41-.78-.44-.29-.83-.64-1.16-1.05-.33-.41-.55-.9-.64-1.49-.09-.51-.09-1.01,0-1.51s.28-.96.55-1.39c.32-.51.74-.91,1.26-1.22.43-.24.87-.41,1.34-.51s.94-.18,1.42-.23c.33-.04.77-.07,1.3-.08.53-.01,1.07,0,1.61.06s1.04.16,1.51.31c.47.15.81.38,1.04.67.23.31.38.7.46,1.18s.12.91.12,1.3c0,.08,0,.18,0,.31,0,.13-.02.26-.04.39-.02.13-.05.26-.08.37-.03.11-.07.2-.11.25-.07.08-.25.13-.56.15s-.65.03-1.02.02c-.37,0-.73-.02-1.07-.04-.34-.02-.57-.04-.69-.05-.11-.01-.16-.1-.17-.27,0-.17-.02-.35-.04-.55-.02-.2-.08-.38-.18-.53-.1-.15-.3-.23-.61-.23-.25.01-.49.11-.72.28-.23.17-.36.39-.4.66-.05.32.03.6.24.85.21.25.49.48.84.71.35.23.74.45,1.18.68s.87.47,1.3.74c.43.27.81.57,1.16.91s.6.74.76,1.19c.13.37.2.81.21,1.31,0,.5-.05,1-.16,1.5s-.29.96-.53,1.38c-.24.42-.54.74-.9.95-.39.23-.8.39-1.23.49-.43.1-.86.18-1.29.23Z"/>
        <path class="cls-3" d="M57.21,124.55c-.72.23-1.47.32-2.26.27-.79-.05-1.53-.2-2.22-.45-.71-.25-1.29-.61-1.76-1.06s-.83-.96-1.1-1.53c-.27-.57-.46-1.18-.57-1.85-.11-.67-.18-1.34-.19-2.02-.01-1.05.05-2.07.19-3.06.14-.99.42-1.87.84-2.64.42-.77,1.01-1.41,1.78-1.9.77-.49,1.78-.78,3.03-.86.72-.04,1.47.01,2.26.16.79.15,1.49.4,2.12.76.08.05.18.12.31.21.13.09.2.18.23.27,0,.01-.03.09-.1.24-.07.15-.16.33-.27.55-.11.22-.24.46-.38.71-.14.25-.27.49-.4.72-.13.23-.24.43-.34.6s-.17.28-.21.32c-.07.07-.13.12-.18.17-.05.05-.13.04-.24,0-.13-.07-.26-.14-.37-.23-.11-.09-.24-.16-.39-.23-.49-.21-1.03-.31-1.6-.28-.57.03-1.06.23-1.46.62-.2.2-.36.44-.49.73-.13.29-.22.59-.28.9-.06.31-.1.63-.11.95s0,.62.02.9c.03.39.09.78.18,1.18.09.4.24.76.44,1.07.2.31.46.55.79.7.33.15.74.17,1.23.05.35-.09.65-.22.92-.39.27-.17.54-.36.82-.57.05-.04.11-.06.18-.07.07,0,.13.02.18.07.05.05.18.22.39.51s.42.59.65.92c.23.33.53.76.9,1.29.07.23,0,.46-.19.7-.19.24-.44.47-.73.69-.29.22-.6.41-.91.57-.31.16-.55.27-.71.32Z"/>
        <path class="cls-3" d="M67.57,115.53v-1.61c0-.39,0-.81-.01-1.24,0-.43,0-.83,0-1.19v-.89c0-.23,0-.36.02-.37.07-.08.24-.14.53-.19s.6-.08.94-.1c.34-.02.67-.03.98-.04.31,0,.53-.01.65-.01.08,0,.19,0,.32.01.13,0,.27.02.41.03.14.01.27.04.39.07.12.03.2.08.24.13s.06.11.06.16v.16c-.07,1.12-.11,2.24-.13,3.37-.02,1.13-.03,2.25-.03,3.37v3.36c0,1.12,0,2.24-.02,3.36,0,.08,0,.17.01.27,0,.1,0,.18-.01.25-.03.13-.22.22-.57.26-.35.04-.76.06-1.21.06s-.89-.01-1.31-.03-.7-.03-.85-.03c-.09,0-.17-.03-.22-.09-.05-.06-.09-.13-.12-.22-.03-.09-.05-.18-.06-.27-.01-.09-.02-.17-.02-.24-.04-.88-.03-1.75.02-2.62s.05-1.74-.02-2.62c-.72-.08-1.44-.1-2.16-.06-.01.12-.03.35-.04.69-.01.34-.03.73-.05,1.17-.02.44-.05.9-.08,1.39-.03.49-.06.94-.09,1.35-.03.41-.06.76-.1,1.03-.04.27-.07.42-.1.45s-.06.04-.11.03c-.05,0-.09,0-.13,0-.6-.08-1.21-.1-1.83-.06s-1.23.05-1.83.02c-.08,0-.16,0-.23-.02-.07-.01-.12-.07-.13-.18-.04-.39-.04-.81,0-1.27.04-.46.07-.89.08-1.29.03-.89.04-1.78.04-2.67v-2.67c0-.56,0-1.11-.02-1.66-.01-.55-.03-1.1-.06-1.66,0-.09,0-.17,0-.23s.06-.1.15-.13c.36-.03.67-.05.94-.07s.56-.04.87-.06.61-.04.89-.06.53-.04.74-.05c.21-.01.35-.02.42-.02s.13,0,.2.02c.07.01.12.05.16.1.05.07.09.24.12.51.03.27.05.57.06.89.01.32.02.63.02.92v.62c.39-.04.77-.07,1.14-.08.37-.01.75-.03,1.14-.04Z"/>
        <path class="cls-3" d="M77.57,120.91c.11-.01.32-.03.63-.05.31-.02.64-.04.99-.06.35-.02.66-.03.95-.04.29,0,.46,0,.53.01.17.05.28.12.33.2s.08.21.11.38c.01.11.03.33.04.67.01.34.02.7,0,1.07,0,.37-.03.72-.06,1.03-.03.31-.09.49-.17.53-.12.07-.25.1-.39.09-.14,0-.28,0-.41,0-.21,0-.49,0-.84.02-.35.01-.73.03-1.14.04-.41.01-.84.02-1.28.03-.44,0-.86.01-1.25.01s-.74-.01-1.05-.03-.53-.06-.68-.11c-.23-.08-.38-.22-.47-.43-.09-.21-.14-.44-.16-.69-.02-.25-.01-.51.02-.77.03-.26.06-.48.07-.67.11-1.28.19-2.55.25-3.81.06-1.26.12-2.53.19-3.81.03-.56.04-1.14.04-1.74s.04-1.18.12-1.74c.01-.13.06-.23.15-.3.09-.07.19-.11.3-.13s.23-.03.35-.02c.12,0,.23,0,.34,0h.68c.33,0,.68,0,1.04.01s.69.03.99.06c.3.03.48.08.55.15.07.07.1.17.11.31,0,.14,0,.29,0,.45-.01.16-.03.32-.06.47s-.05.27-.06.35c-.19,1.41-.32,2.83-.41,4.25-.09,1.42-.2,2.84-.35,4.27Z"/>
        <path class="cls-3" d="M88.67,124.33c-.55.15-1.11.21-1.69.19-.58-.02-1.14-.12-1.68-.3-.54-.18-1.04-.45-1.49-.8-.45-.35-.82-.79-1.1-1.31-.27-.48-.47-1-.61-1.55-.14-.55-.24-1.1-.31-1.65-.01-.13-.03-.37-.04-.72-.01-.35-.02-.74,0-1.17s.02-.89.05-1.36c.03-.47.06-.91.11-1.31.05-.4.11-.73.2-.99.09-.26.19-.4.31-.41.08-.01.3,0,.65.01.35.02.73.04,1.13.07.4.03.77.06,1.12.09.35.03.57.06.66.07.15.03.21.11.2.26-.01.15-.03.27-.04.38-.07.43-.11.86-.12,1.31-.01.45-.03.88-.04,1.31,0,.21,0,.52.01.93,0,.41.05.8.14,1.18.09.38.23.69.44.93.21.24.5.29.89.16.27-.09.49-.27.66-.54.17-.25.29-.59.35-1,.06-.41.08-.87.07-1.38-.01-.51-.05-1.03-.12-1.58-.07-.55-.14-1.08-.23-1.59s-.17-.99-.25-1.44-.14-.82-.18-1.13c-.03-.13-.02-.24.02-.33.04-.09.13-.14.28-.17.09-.01.32-.04.68-.07.36-.03.74-.06,1.15-.09s.78-.04,1.11-.05c.33,0,.53,0,.58.03.08.04.15.16.22.35.07.19.13.4.18.63.05.23.1.45.13.67.03.22.06.38.07.47.07.44.13.95.2,1.53.07.58.12,1.19.15,1.83.03.64.04,1.29.03,1.95-.01.66-.07,1.3-.16,1.91-.09.61-.23,1.18-.4,1.71-.17.53-.41.98-.7,1.35-.32.41-.71.75-1.17,1.02s-.94.47-1.45.6Z"/>
        <path class="cls-3" d="M101.59,124.55c-.72.23-1.47.32-2.26.27-.79-.05-1.53-.2-2.22-.45-.71-.25-1.29-.61-1.76-1.06s-.83-.96-1.1-1.53c-.27-.57-.46-1.18-.57-1.85-.11-.67-.18-1.34-.19-2.02-.01-1.05.05-2.07.19-3.06s.42-1.87.84-2.64,1.01-1.41,1.78-1.9,1.78-.78,3.03-.86c.72-.04,1.47.01,2.26.16.79.15,1.49.4,2.12.76.08.05.18.12.31.21s.2.18.23.27c0,.01-.03.09-.1.24-.07.15-.16.33-.27.55-.11.22-.24.46-.38.71-.14.25-.27.49-.4.72-.13.23-.24.43-.34.6s-.17.28-.21.32c-.07.07-.13.12-.18.17-.05.05-.13.04-.24,0-.13-.07-.26-.14-.37-.23-.11-.09-.24-.16-.39-.23-.49-.21-1.03-.31-1.6-.28-.57.03-1.06.23-1.46.62-.2.2-.36.44-.49.73-.13.29-.22.59-.28.9-.06.31-.1.63-.11.95s0,.62.02.9c.03.39.09.78.18,1.18.09.4.24.76.44,1.07.2.31.46.55.79.7.33.15.74.17,1.23.05.35-.09.65-.22.92-.39.27-.17.54-.36.82-.57.05-.04.11-.06.18-.07s.13.02.18.07c.05.05.18.22.39.51.21.29.42.59.65.92s.53.76.9,1.29c.07.23,0,.46-.19.7-.19.24-.44.47-.73.69-.29.22-.6.41-.91.57-.31.16-.55.27-.71.32Z"/>
        <path class="cls-3" d="M109.65,124.77s-.04.07-.08.12-.08.08-.12.08h-1.62c-.53,0-1.07.01-1.62.04-.04,0-.11,0-.2.02-.09.01-.18.02-.27.02s-.17,0-.24-.02c-.07-.01-.12-.05-.13-.12-.01-.03-.03-.19-.04-.48-.01-.29-.03-.66-.04-1.1-.01-.44-.03-.92-.04-1.43-.01-.51-.02-1-.03-1.47,0-.47,0-.88,0-1.23v-.69c0-.19,0-.51,0-.97s.01-.98.02-1.57c0-.59.01-1.2.01-1.84s0-1.24-.01-1.79c0-.55-.02-1.03-.03-1.42-.01-.39-.03-.64-.06-.73.04-.12.13-.18.26-.18h3.29c.3,0,.55,0,.75.01.2,0,.31,0,.32,0,.08.04.13.11.16.22,0,.01,0,.16,0,.44,0,.28-.02.63-.04,1.05-.02.42-.04.88-.06,1.38-.02.5-.04.97-.06,1.42-.02.45-.04.84-.06,1.18-.02.34-.03.56-.03.65.77-1.04,1.5-2.11,2.19-3.2s1.4-2.17,2.13-3.24c.07-.11.15-.15.26-.14.16.03.41.14.74.33.33.19.67.42,1.01.69s.64.54.9.82c.26.28.39.51.39.68.01.07-.07.21-.24.43-.17.22-.39.49-.66.8s-.57.65-.9,1c-.33.35-.65.69-.95,1.01-.3.32-.57.6-.82.85l-.51.51c.51.92,1.12,1.84,1.83,2.77.71.93,1.46,1.74,2.25,2.45.03.08.04.15.04.2,0,.01-.11.11-.34.3-.23.19-.48.4-.77.63-.29.23-.56.45-.82.66-.26.21-.42.34-.49.39-.03.03-.09.08-.18.15-.09.07-.19.14-.3.2-.11.06-.2.09-.28.1s-.13-.05-.14-.17c-.32-.32-.66-.69-1.02-1.11-.36-.42-.71-.86-1.04-1.31-.33-.45-.64-.91-.93-1.37s-.52-.9-.71-1.33c-.13.13-.26.27-.39.4-.13.13-.26.27-.41.4-.05.72-.07,1.47-.04,2.26.03.79.09,1.53.18,2.24Z"/>
      </g>
      <g>
        <path class="cls-3" d="M97.23,132.62c0,.54.01,1.09.03,1.63.02.54.05,1.08.08,1.63.02.21.04.43.07.65.03.23.03.45.02.65,0,.06-.02.1-.05.12-.03.02-.07.04-.11.05s-.09,0-.14,0c-.05,0-.1,0-.14,0h-.73c-.24,0-.48,0-.73-.02-.08.06-.13.04-.16-.05-.02-.09-.03-.2-.03-.32,0-.13.01-.26.03-.38.02-.13.02-.2.02-.23.04-.82.07-1.63.08-2.44.01-.81.04-1.62.08-2.44.02-.33.03-.65.05-.98.02-.32.02-.65,0-.98-.02-.05-.02-.09,0-.12.02-.03.06-.05.11-.06.17-.02.34-.01.53,0,.18.02.36.03.54.03.25,0,.49,0,.73-.01s.48-.03.73-.05c.04,0,.08,0,.11.01.04,0,.07.03.09.07.13.23.25.54.38.91.12.38.25.77.38,1.19.13.42.26.83.38,1.24s.26.76.4,1.07c.11-.47.22-.94.34-1.4.11-.46.23-.93.35-1.39.11-.41.23-.81.36-1.21s.24-.8.32-1.21c0-.04.02-.09.02-.14,0-.06.02-.11.03-.16.01-.05.03-.09.06-.12.03-.03.07-.04.13-.04.12.02.24.03.36.04.12,0,.24.02.36.02.24.02.48.04.73.07.25.03.49.03.73.02.12,0,.25-.03.39-.07.14-.04.27-.05.38-.04.06,0,.1.03.12.07.02.04.03.08.05.14.04.21.06.43.05.65,0,.23,0,.45,0,.65.02.58.03,1.16.04,1.74,0,.58.02,1.15.04,1.73,0,.07,0,.21.02.43.02.21.03.46.05.74.02.28.04.57.06.88s.04.58.05.84c.02.26.03.47.03.65s0,.27,0,.29c-.02.03-.09.05-.22.06s-.27.01-.42.01-.3,0-.44,0-.24,0-.29,0c-.21,0-.42,0-.63.05s-.42.06-.62.05c-.03,0-.06-.02-.09-.05s-.05-.07-.05-.1c-.04-.21-.07-.5-.08-.87s-.02-.76-.01-1.17c0-.41,0-.81.02-1.2,0-.39.01-.71.01-.96-.22.62-.41,1.25-.59,1.88s-.38,1.25-.61,1.88c.02.04.03.07,0,.1-.02.02-.04.04-.07.06-.03.02-.15.04-.36.04s-.44,0-.7.01c-.26,0-.51,0-.75.02-.24,0-.41.02-.5.04l-.1-.04s-.06-.13-.12-.32c-.06-.19-.14-.43-.23-.7-.09-.28-.18-.58-.28-.9s-.19-.63-.28-.93-.18-.56-.25-.79c-.08-.23-.13-.39-.16-.47Z"/>
        <path class="cls-3" d="M107.88,135.99s-.02.12-.02.23c0,.1-.02.21-.03.32s-.03.22-.05.31c-.02.1-.04.16-.07.18s-.12.04-.29.05-.35.02-.56.02-.4,0-.58,0h-.36c-.14,0-.26-.01-.34-.04-.08-.02-.1-.12-.06-.3.02-.11.06-.31.12-.59.06-.28.12-.62.19-1.02.07-.4.15-.83.25-1.3.09-.47.18-.94.28-1.41s.18-.93.27-1.37c.09-.44.17-.84.25-1.19s.14-.63.2-.85c.06-.22.1-.33.12-.35.02,0,.05-.01.1-.02s.1,0,.16,0,.12,0,.17,0,.1,0,.12,0c.5.02.99,0,1.46-.05.47-.05.96-.09,1.46-.13.08,0,.15.01.2.06.06.05.1.11.13.18.03.07.06.15.08.23.02.08.04.16.05.22.14.55.24,1.1.31,1.66.07.55.13,1.1.2,1.66.07.63.13,1.28.19,1.94s.15,1.3.28,1.93c0,.04.02.09.04.16.02.06.03.13.03.2,0,.07,0,.14,0,.2,0,.06-.04.1-.08.13-.02.02-.1.03-.23.04s-.28.01-.47.02c-.18,0-.38,0-.6,0s-.42,0-.61,0c-.19,0-.35,0-.49-.01-.14,0-.23,0-.26-.02-.08-.02-.12-.05-.13-.11-.04-.15-.06-.31-.05-.48s0-.33-.02-.49c-.22-.02-.45-.03-.68-.03-.23,0-.45,0-.68,0ZM108.89,130.77c-.14.6-.26,1.19-.38,1.78-.12.59-.23,1.18-.34,1.78.16-.02.32-.03.49-.04s.33,0,.49.01c-.03-.59-.07-1.18-.13-1.77-.05-.59-.1-1.18-.14-1.77Z"/>
        <path class="cls-3" d="M115.31,134.79c.06,0,.19-.02.38-.03.19-.01.39-.02.59-.04s.4-.02.57-.02c.17,0,.28,0,.32,0,.1.03.17.07.2.12.03.05.05.12.07.23,0,.06.02.2.02.4s0,.42,0,.64c0,.22-.02.43-.04.62s-.05.29-.1.32c-.07.04-.15.06-.23.05s-.17,0-.25,0c-.13,0-.3,0-.5.01s-.44.02-.68.02c-.25,0-.5.01-.77.02-.26,0-.51,0-.75,0s-.45,0-.63-.02c-.18-.01-.32-.03-.41-.07-.14-.05-.23-.13-.28-.26-.05-.12-.08-.26-.1-.41-.01-.15,0-.31.01-.46.02-.16.03-.29.04-.4.06-.77.11-1.53.15-2.29.04-.76.07-1.52.11-2.29.02-.34.02-.68.02-1.04s.02-.71.07-1.04c0-.08.04-.14.09-.18.05-.04.11-.07.18-.08.07-.01.14-.02.21-.01.07,0,.14,0,.2,0h.41c.2,0,.41,0,.62,0,.22,0,.41.02.59.04.18.02.29.05.33.09.04.04.06.1.07.19s0,.17,0,.27c0,.1-.02.19-.04.28-.02.09-.03.16-.04.21-.11.85-.19,1.7-.25,2.55-.05.85-.12,1.71-.21,2.56Z"/>
      </g>
      <path class="cls-3" d="M126.55,128.52c-.2.02-.55.04-1.07.04s-1.05,0-1.61-.02c-.55-.01-1.07-.04-1.54-.07-.47-.04-.78-.09-.92-.17-.25-.12-.46-.6-.63-1.42-.17-.83-.31-1.84-.42-3.05-.11-1.21-.19-2.51-.22-3.9-.04-1.39-.05-2.71-.05-3.96s.02-2.34.05-3.27c.04-.94.09-1.55.17-1.85.05-.22.15-.38.31-.46.16-.09.34-.14.55-.15.21-.01.42,0,.63.02.21.02.4.05.57.07.25.02.71.06,1.39.09s1.38.09,2.11.17c.73.07,1.38.17,1.96.3.58.12.91.3.98.52.05.17.06.41.04.72-.02.31-.06.64-.09.98-.04.35-.09.68-.15,1-.06.32-.11.58-.13.78-.27,1.95-.46,3.89-.55,5.83-.1,1.94-.21,3.88-.33,5.83-.03.22-.06.53-.09.92-.04.4-.14.68-.31.85-.1.1-.2.15-.3.17-.1.01-.21.03-.33.06ZM123.11,137.62c-.25.02-.49.02-.74,0-.25-.02-.47-.1-.67-.22-.17-.1-.33-.38-.46-.83s-.25-.95-.33-1.48c-.09-.53-.14-1.04-.17-1.52-.03-.48,0-.82.07-1.02.12-.37.38-.59.76-.65.38-.06.73-.14,1.05-.24.22-.07.5-.16.83-.26.33-.1.68-.19,1.05-.28.37-.09.72-.14,1.05-.15.33-.01.6.04.8.17.17.12.3.26.39.41.09.15.17.32.24.52.39,1.11.62,2,.68,2.68.06.68-.06,1.21-.35,1.59-.3.38-.79.67-1.48.85-.69.18-1.6.33-2.74.42Z"/>
      <g>
        <rect class="cls-7" x="84.27" y="128.94" width="8.3" height="8.08"/>
        <path class="cls-7" d="M83.64,128.94v8.08c0,.34.29.62.62.62h8.3c.34,0,.62-.29.62-.62v-8.08c0-.34-.29-.62-.62-.62h-8.3c-.8,0-.81,1.25,0,1.25h8.3l-.62-.62v8.08l.62-.62h-8.3l.62.62v-8.08c0-.8-1.25-.81-1.25,0Z"/>
      </g>
      <path class="cls-3" d="M91.78,132.83c.35-.48.11-1.1-.47-1.21-.46-.09-.97-.1-1.42-.21-.08-.02-.12-.04-.16-.12-.25-.41-.41-.91-.66-1.33-.14-.25-.4-.39-.69-.38-.27.01-.49.16-.62.39-.24.41-.41.89-.64,1.3-.04.08-.08.12-.17.14-.47.1-1.01.11-1.48.21-.58.13-.76.83-.36,1.26.25.27.56.53.83.8.07.07.26.23.27.33-.05.49-.19.99-.25,1.49-.04.35.12.68.46.82.27.11.46.05.71-.07.42-.21.83-.46,1.25-.65.09-.02.17.04.25.08.39.19.82.48,1.22.64.55.22,1.08-.22,1.03-.8-.04-.46-.2-.97-.25-1.43,0-.07,0-.13.05-.18l1.1-1.08Z"/>
      <g>
        <rect class="cls-9" x="60.91" y="128.94" width="8.3" height="8.08"/>
        <path class="cls-5" d="M60.28,128.94v8.08c0,.34.29.62.62.62h8.3c.34,0,.62-.29.62-.62v-8.08c0-.34-.29-.62-.62-.62h-8.3c-.8,0-.81,1.25,0,1.25h8.3l-.62-.62v8.08l.62-.62h-8.3l.62.62v-8.08c0-.8-1.25-.81-1.25,0Z"/>
      </g>
      <g>
        <path class="cls-2" d="M68.02,132.78c-.43-.07-2.37-.06-2.79.01-.28.05-.51.29-.57.57-.12.6.69,2.06.88,2.73,0,.02.02.04.03.06.28.33,1.18.29,1.58.24.38-.04.49-.16.65-.49.18-.36.68-1.67.76-2.05.09-.44-.04-.99-.54-1.07Z"/>
        <path class="cls-2" d="M64.53,132.56c.11-.11.03-.3-.12-.3h-2.32c-.19,0-.54.52-.55.72-.04.53.75,1.95.9,2.58,0,.02.01.05.03.06.29.35,1.35.32,1.75.24.98-.2.06-1.42-.06-1.99-.12-.56.04-.96.37-1.31Z"/>
        <path class="cls-2" d="M63.56,131.86c1.38-.03,1.43-2.02.32-2.26-1.85-.42-1.97,2.3-.32,2.26Z"/>
        <path class="cls-2" d="M66.49,132.37c1.71.18,1.71-2.65-.19-2.26-1.1.23-1.09,2.12.19,2.26Z"/>
      </g>
      <g>
        <rect class="cls-1" x="72.55" y="128.94" width="8.3" height="8.08"/>
        <path class="cls-1" d="M71.93,128.94v8.08c0,.34.29.62.62.62h8.3c.34,0,.62-.29.62-.62v-8.08c0-.34-.29-.62-.62-.62h-8.3c-.8,0-.81,1.25,0,1.25h8.3l-.62-.62v8.08l.62-.62h-8.3l.62.62v-8.08c0-.8-1.25-.81-1.25,0Z"/>
      </g>
      <g>
        <rect class="cls-10" x="49.26" y="128.94" width="8.3" height="8.08"/>
        <path class="cls-4" d="M48.64,128.94v8.08c0,.34.29.62.62.62h8.3c.34,0,.62-.29.62-.62v-8.08c0-.34-.29-.62-.62-.62h-8.3c-.8,0-.81,1.25,0,1.25h8.3l-.62-.62v8.08l.62-.62h-8.3l.62.62v-8.08c0-.8-1.25-.81-1.25,0Z"/>
      </g>
      <g>
        <path class="cls-3" d="M54.89,129.89c-.55-.35-1.15-.47-1.79-.41-.87.07-1.73.64-2.15,1.4-.09.16-.09.2.05.33.16.15.66.54.85.65.09.05.18.08.28.03.34-.36.57-.8,1.13-.84.46-.03,1.09.24.92.8-.11.35-.47.44-.75.6-.41.24-.92.71-.96,1.22,0,.1-.01.36,0,.45.02.11.14.15.23.16.27.02,1.06.04,1.31,0,.21-.04.16-.17.21-.32.15-.47.64-.61.99-.87,1.2-.91.84-2.44-.32-3.18Z"/>
        <rect class="cls-3" x="52.45" y="134.76" width="1.75" height="1.74" rx=".29" ry=".29"/>
      </g>
      <g>
        <rect class="cls-8" x="37.62" y="128.94" width="8.3" height="8.08"/>
        <path class="cls-6" d="M37,128.94v8.08c0,.34.29.62.62.62h8.3c.34,0,.62-.29.62-.62v-8.08c0-.34-.29-.62-.62-.62h-8.3c-.8,0-.81,1.25,0,1.25h8.3l-.62-.62v8.08l.62-.62h-8.3l.62.62v-8.08c0-.8-1.25-.81-1.25,0Z"/>
      </g>
      <path class="cls-3" d="M44.26,133.56c-.25-1.08-1.07-1.32-1.56-2.16-.31-.54-.44-1.18-.42-1.8,0-.11-.12-.17-.2-.11,0,0,0,0,0,0-1.07.91-1.19,2.21-.67,3.47.08.19.29.47.06.63-.14.1-.28.05-.43,0-.5-.18-.81-.66-1.01-1.13-.04-.1-.18-.12-.24-.03-.29.35-.5.79-.55,1.25-.1.9.41,2.07,1.22,2.51,1.84,1.02,4.31-.45,3.81-2.63Z"/>
      <path class="cls-3" d="M78.43,131.58l-.71.02.35-1.45c.1-.48-.22-.97-.72-1-.51-.04-.75.36-.99.73-.37.57-.72,1.15-1.09,1.73-.28.44-.59.88-.85,1.34-.13.24-.23.41-.2.7.05.37.36.68.73.72h.77c-.08.36-.2.71-.29,1.06-.12.48-.17,1.09.39,1.32.5.21.86-.07,1.11-.47.51-.8,1.02-1.6,1.53-2.4.24-.37.7-1,.73-1.43.03-.46-.32-.8-.76-.87Z"/>
    </g>
  </g>
</svg>