<?xml version="1.0" encoding="UTF-8"?>
<svg xmlns="http://www.w3.org/2000/svg" viewBox="0 0 167.24 260.79">
  <defs>
    <style>
      .cls-1 {
        fill: #010101;
      }

      .cls-2 {
        fill: #171717;
      }

      .cls-3 {
        font-family: Namaku, Namaku;
        font-size: 12px;
      }

      .cls-3, .cls-4 {
        stroke: #fff;
        stroke-miterlimit: 10;
        stroke-width: .15px;
      }

      .cls-3, .cls-4, .cls-5 {
        fill: #fff;
      }

      .cls-6 {
        fill: #171715;
      }

      .cls-7 {
        fill: #f5ae36;
      }
    </style>
  </defs>
  <g id="Background">
    <rect class="cls-7" width="167.24" height="260.79"/>
  </g>
  <g id="Rahmen">
    <path class="cls-1" d="M151.9,23.16c9.65,0,9.67-15,0-15s-9.67,15,0,15h0Z"/>
    <path class="cls-1" d="M152.22,254.59c9.65,0,9.67-15,0-15s-9.67,15,0,15h0Z"/>
    <path class="cls-1" d="M14.14,254.72c9.65,0,9.67-15,0-15s-9.67,15,0,15h0Z"/>
    <path class="cls-2" d="M11.56,15.67c18.49.32,36.98.69,55.46,1.04,19.51.36,39.05-.42,58.56-.82,10.18-.21,20.36-.38,30.54-.21l-3.75-3.75c-1.46,11.81-1.7,23.8-1.97,35.69-.33,14.15-.39,28.31-.37,42.46.01,9.3.14,18.61.07,27.91-.06,7.86-.43,15.71-.48,23.57-.07,11.29.08,22.59.37,33.88.56,22.38,1.59,44.74,2.18,67.12.07,2.79.14,5.57.2,8.36l3.75-3.75c-15.41-.13-30.81.06-46.22.48-24.85.69-49.67.84-74.52.24-8.25-.2-16.49-.49-24.74-.73l3.75,3.75c-.56-4.87-.34-9.89-.27-14.78.11-8.38.38-16.76.66-25.14.66-20.11,1.45-40.22,1.83-60.34.16-8.4.26-16.81.05-25.21-.13-5.24-.51-10.46-.61-15.7-.33-17.03-.19-34.08-.18-51.11,0-8.91,0-17.82-.06-26.73-.04-5.94-.04-11.89-.34-17.82-.04-.72-.08-1.43-.15-2.15-.19-1.95-1.59-3.85-3.75-3.75-1.87.08-3.96,1.66-3.75,3.75.48,4.83.39,9.76.44,14.61.09,8.42.1,16.84.11,25.25,0,17.78-.1,35.55.11,53.33.06,5.22.27,10.41.52,15.62.36,7.73.31,15.47.21,23.21-.24,20.03-1.02,40.04-1.7,60.06-.3,8.95-.6,17.9-.79,26.85-.13,5.9-.3,11.84,0,17.74.04.78.09,1.55.18,2.32.24,2.06,1.53,3.69,3.75,3.75,18.27.53,36.53,1.09,54.81,1.16,23.38.09,46.73-.97,70.1-1.19,6.85-.06,13.71-.03,20.56.02,2,.02,3.79-1.73,3.75-3.75-.48-22.44-1.5-44.87-2.16-67.3-.33-11.25-.57-22.51-.6-33.77-.03-10.16.25-20.29.47-30.44.18-8.23-.03-16.48-.05-24.72-.03-13.94,0-27.88.25-41.82.23-12.54.48-25.14,1.72-37.62.11-1.1.23-2.21.37-3.31.25-2.04-1.92-3.72-3.75-3.75-19.14-.32-38.3.42-57.44.81-9.78.2-19.58.45-29.37.27-7.76-.14-15.52-.3-23.28-.45-11.49-.22-22.99-.44-34.48-.63-1.96-.03-3.84,1.75-3.75,3.75s1.65,3.71,3.75,3.75h0Z"/>
    <polygon class="cls-2" points="26.61 14.43 14.5 29.16 14.18 13.04 26.61 14.43"/>
    <polygon class="cls-2" points="140.79 14.16 152.35 27.66 154.57 11.89 140.79 14.16"/>
    <polygon class="cls-2" points="139.48 248.15 153.14 235.93 156.07 248.65 139.48 248.15"/>
    <polygon class="cls-2" points="12.9 235.54 26.24 248.54 12.31 249.36 12.9 235.54"/>
    <rect class="cls-2" width="10.32" height="260.79"/>
    <rect class="cls-2" y="249.36" width="167.24" height="11.43"/>
    <rect class="cls-6" width="167.24" height="10.33"/>
    <rect class="cls-2" x="156.12" width="11.13" height="260.79"/>
    <path class="cls-2" d="M107.87,17.19c0-.85.22-3.85,0-4.78-.58-2.49-2.21-2.81-3.8-2.81h-40.89c-1.59,0-3.22.32-3.8,2.81-.22.93,0,3.93,0,4.78l-.17,5.71c-.35,5.31,5.43,4.59,7.62,4.59l12.59.37,4.21-.07h0l4.21.07,12.59-.37c2.19,0,7.96.72,7.62-4.59l-.17-5.71Z"/>
    <path class="cls-1" d="M151.9,23.16c9.65,0,9.67-15,0-15s-9.67,15,0,15h0Z"/>
    <path class="cls-1" d="M152.22,254.59c9.65,0,9.67-15,0-15s-9.67,15,0,15h0Z"/>
    <path class="cls-1" d="M14.14,254.72c9.65,0,9.67-15,0-15s-9.67,15,0,15h0Z"/>
    <path class="cls-2" d="M11.56,15.67c18.49.32,36.98.69,55.46,1.04,19.51.36,39.05-.42,58.56-.82,10.18-.21,20.36-.38,30.54-.21l-3.75-3.75c-1.46,11.81-1.7,23.8-1.97,35.69-.33,14.15-.39,28.31-.37,42.46.01,9.3.14,18.61.07,27.91-.06,7.86-.43,15.71-.48,23.57-.07,11.29.08,22.59.37,33.88.56,22.38,1.59,44.74,2.18,67.12.07,2.79.14,5.57.2,8.36l3.75-3.75c-15.41-.13-30.81.06-46.22.48-24.85.69-49.67.84-74.52.24-8.25-.2-16.49-.49-24.74-.73l3.75,3.75c-.56-4.87-.34-9.89-.27-14.78.11-8.38.38-16.76.66-25.14.66-20.11,1.45-40.22,1.83-60.34.16-8.4.26-16.81.05-25.21-.13-5.24-.51-10.46-.61-15.7-.33-17.03-.19-34.08-.18-51.11,0-8.91,0-17.82-.06-26.73-.04-5.94-.04-11.89-.34-17.82-.04-.72-.08-1.43-.15-2.15-.19-1.95-1.59-3.85-3.75-3.75-1.87.08-3.96,1.66-3.75,3.75.48,4.83.39,9.76.44,14.61.09,8.42.1,16.84.11,25.25,0,17.78-.1,35.55.11,53.33.06,5.22.27,10.41.52,15.62.36,7.73.31,15.47.21,23.21-.24,20.03-1.02,40.04-1.7,60.06-.3,8.95-.6,17.9-.79,26.85-.13,5.9-.3,11.84,0,17.74.04.78.09,1.55.18,2.32.24,2.06,1.53,3.69,3.75,3.75,18.27.53,36.53,1.09,54.81,1.16,23.38.09,46.73-.97,70.1-1.19,6.85-.06,13.71-.03,20.56.02,2,.02,3.79-1.73,3.75-3.75-.48-22.44-1.5-44.87-2.16-67.3-.33-11.25-.57-22.51-.6-33.77-.03-10.16.25-20.29.47-30.44.18-8.23-.03-16.48-.05-24.72-.03-13.94,0-27.88.25-41.82.23-12.54.48-25.14,1.72-37.62.11-1.1.23-2.21.37-3.31.25-2.04-1.92-3.72-3.75-3.75-19.14-.32-38.3.42-57.44.81-9.78.2-19.58.45-29.37.27-7.76-.14-15.52-.3-23.28-.45-11.49-.22-22.99-.44-34.48-.63-1.96-.03-3.84,1.75-3.75,3.75s1.65,3.71,3.75,3.75h0Z"/>
    <polygon class="cls-2" points="26.61 14.43 14.5 29.16 14.18 13.04 26.61 14.43"/>
    <polygon class="cls-2" points="140.79 14.16 152.35 27.66 154.57 11.89 140.79 14.16"/>
    <polygon class="cls-2" points="139.48 248.15 153.14 235.93 156.07 248.65 139.48 248.15"/>
    <polygon class="cls-2" points="12.9 235.54 26.24 248.54 12.31 249.36 12.9 235.54"/>
    <rect class="cls-2" width="10.32" height="260.79"/>
    <rect class="cls-2" y="249.36" width="167.24" height="11.43"/>
    <rect class="cls-6" width="167.24" height="10.33"/>
    <rect class="cls-2" x="156.12" width="11.13" height="260.79"/>
  </g>
  <g id="Kategorie_Name" data-name="Kategorie Name">
    <g>
      <path class="cls-7" d="M67.75,11.54c.29-.3.63-.56,1.02-.76.39-.2.79-.29,1.22-.27.54.02,1.02.18,1.45.47.42.29.79.68,1.1,1.16.31.48.56,1.03.75,1.65.19.62.31,1.27.38,1.95s.05,1.35-.02,2.04-.21,1.32-.44,1.91c-.22.59-.51,1.13-.88,1.6s-.81.84-1.33,1.09c-.35.16-.71.28-1.08.34-.37.07-.74.11-1.11.13-.51.03-1.01.04-1.5.03-.49-.01-.99,0-1.5.02-.09,0-.2,0-.34.02-.13.02-.27.02-.4,0-.14-.01-.26-.04-.37-.1s-.18-.14-.21-.26c-.03-.12-.04-.25-.03-.38,0-.13.02-.26.03-.38.04-.78.05-1.57.04-2.35s-.01-1.56-.01-2.35c0-1.01,0-2.02.02-3.02.01-1,0-2.01-.04-3.02v-.28c0-.1.04-.18.12-.25.02-.02.11-.04.27-.07.16-.02.35-.04.58-.05s.47-.02.73-.02.5.01.73.03c.23.02.42.06.58.11.15.05.25.11.28.19.01.02.01.07,0,.14,0,.07-.01.15-.02.24,0,.09-.01.17-.02.25-.01.08-.02.13-.02.16ZM67.6,19.28c.28.03.58.03.89-.02.31-.04.61-.14.9-.28s.54-.32.76-.55c.22-.22.37-.5.45-.83.06-.25.1-.5.11-.76.01-.26.01-.51,0-.76-.02-.23-.05-.46-.08-.7s-.1-.47-.19-.69c-.12-.27-.29-.48-.51-.62-.22-.14-.46-.22-.71-.25-.25-.02-.5.01-.76.11-.26.09-.47.24-.65.43-.02.02-.04.05-.06.08s-.04.06-.06.08c0,.8,0,1.59-.03,2.37-.02.79-.04,1.58-.06,2.37Z"/>
      <path class="cls-7" d="M79.53,22.32c-.41.12-.83.17-1.27.16-.44-.02-.85-.1-1.26-.25-.4-.15-.78-.37-1.12-.65-.34-.29-.62-.65-.83-1.07-.2-.39-.35-.81-.46-1.27s-.18-.9-.23-1.35c-.01-.11-.02-.3-.03-.59-.01-.28-.01-.6,0-.96,0-.35.02-.72.04-1.11.02-.39.05-.74.08-1.07.03-.33.08-.6.15-.81.06-.21.14-.32.23-.33.06-.01.22,0,.49,0,.26.02.55.04.85.06.3.02.58.05.84.07.26.03.42.05.49.06.11.02.16.09.15.21-.01.12-.02.22-.03.31-.05.35-.08.71-.09,1.07-.01.37-.02.72-.03,1.07,0,.17,0,.43,0,.76,0,.33.04.65.1.96.06.31.17.56.33.76.15.2.38.24.67.13.2-.08.36-.22.5-.44.13-.21.22-.48.26-.82s.06-.71.05-1.13c-.01-.41-.04-.84-.09-1.29-.05-.45-.11-.88-.17-1.3-.06-.42-.13-.81-.19-1.18-.06-.36-.1-.67-.13-.92-.02-.11-.02-.2.01-.27.03-.07.1-.12.21-.14.07-.01.24-.03.51-.06.27-.03.56-.05.86-.07.31-.02.58-.04.83-.04s.4,0,.44.02c.06.03.11.13.17.29.05.16.09.33.13.52.04.19.07.37.1.55.02.18.04.31.05.38.05.36.1.78.15,1.25.05.47.09.97.11,1.5.02.52.03,1.05.02,1.59,0,.54-.05,1.06-.12,1.56-.07.5-.17.97-.3,1.4-.13.43-.31.8-.52,1.1-.24.34-.53.62-.88.83-.35.22-.71.38-1.09.49Z"/>
      <path class="cls-7" d="M89.7,22.64s-.2.05-.48.07c-.28.03-.62.05-1.02.08-.4.03-.84.05-1.31.08-.47.03-.92.05-1.35.07-.43.02-.8.02-1.12.02s-.54,0-.65-.02c-.12-.02-.21-.08-.26-.16-.06-.09-.08-.19-.08-.31,0-.25,0-.7-.02-1.34-.01-.64-.02-1.38-.02-2.2,0-.82,0-1.68,0-2.58s0-1.74.03-2.51.05-1.43.1-1.98.11-.87.19-.98c.06-.08.15-.14.28-.18.05-.01.23-.02.53-.02s.66,0,1.09,0c.42,0,.88.02,1.36.03.48.02.94.03,1.37.05.43.02.8.03,1.12.05.31.02.51.03.58.04.07.01.12.05.15.11.03.06.04.13.04.21s0,.17-.02.25c-.02.09-.03.16-.04.21-.01.07-.02.21-.03.43-.01.22-.02.46-.04.7s-.04.47-.07.67c-.03.2-.07.31-.1.33-.05.03-.13.05-.23.06-.1,0-.19,0-.26,0-.48.02-.96.02-1.44-.02s-.96-.05-1.44-.07c-.03.23-.06.46-.08.68-.03.22-.05.45-.07.68.19-.01.43-.03.71-.07.28-.03.58-.06.88-.09.3-.03.58-.05.85-.06s.49,0,.66.02c.14.02.22.1.23.25.01.14.02.27.02.39,0,.09,0,.26.01.51.01.25.02.51.02.78s0,.51,0,.74c0,.23-.02.37-.05.41-.05.09-.23.15-.55.18s-.67.05-1.05.06c-.39,0-.75,0-1.1-.02-.35-.02-.58-.02-.71-.02v1.83c.4,0,.77,0,1.15-.02s.76-.03,1.14-.05c.13-.01.26-.03.4-.05s.27-.03.4-.03c.08,0,.14.01.17.03s.06.07.09.15c.03.07.05.22.06.47,0,.25.02.51.02.78s0,.54,0,.79c-.01.25-.02.43-.03.52Z"/>
      <path class="cls-7" d="M94.14,19.52c.08-.01.24-.02.47-.04.23-.02.48-.03.74-.05.26-.02.5-.03.71-.03.21,0,.35,0,.4,0,.13.04.21.1.25.16s.06.17.08.31c0,.09.02.27.03.55.01.28.01.57,0,.88,0,.31-.02.59-.04.84-.03.26-.07.4-.13.43-.09.05-.19.08-.29.07s-.21,0-.31,0c-.16,0-.37,0-.63.02-.26.01-.54.02-.85.03-.31.01-.63.02-.96.02s-.64,0-.94,0-.56,0-.79-.02c-.23-.02-.4-.05-.51-.09-.17-.06-.29-.18-.35-.35s-.1-.36-.12-.56c-.01-.21,0-.42.02-.63s.04-.4.05-.55c.08-1.05.14-2.08.19-3.11.04-1.03.09-2.07.14-3.11.02-.46.03-.93.03-1.42s.03-.96.09-1.42c0-.11.05-.19.11-.25.06-.05.14-.09.22-.11.08-.02.17-.02.26-.02s.17,0,.25,0h.51c.25,0,.51,0,.78,0,.27,0,.52.02.74.05s.36.07.41.12c.05.05.08.14.08.25,0,.11,0,.24,0,.37,0,.13-.02.26-.04.38-.02.13-.04.22-.04.29-.14,1.16-.24,2.31-.31,3.47-.06,1.16-.15,2.32-.26,3.49Z"/>
      <path class="cls-7" d="M100.54,19.52c.08-.01.24-.02.47-.04.23-.02.48-.03.74-.05.26-.02.5-.03.71-.03.21,0,.35,0,.4,0,.13.04.21.1.25.16s.06.17.08.31c0,.09.02.27.03.55.01.28.01.57,0,.88,0,.31-.02.59-.04.84-.03.26-.07.4-.13.43-.09.05-.19.08-.29.07s-.21,0-.31,0c-.16,0-.37,0-.63.02-.26.01-.54.02-.85.03-.31.01-.63.02-.96.02s-.64,0-.94,0-.56,0-.79-.02c-.23-.02-.4-.05-.51-.09-.17-.06-.29-.18-.35-.35s-.1-.36-.12-.56c-.01-.21,0-.42.02-.63s.04-.4.05-.55c.08-1.05.14-2.08.19-3.11.04-1.03.09-2.07.14-3.11.02-.46.03-.93.03-1.42s.03-.96.09-1.42c0-.11.05-.19.11-.25.06-.05.14-.09.22-.11.08-.02.17-.02.26-.02s.17,0,.25,0h.51c.25,0,.51,0,.78,0,.27,0,.52.02.74.05s.36.07.41.12c.05.05.08.14.08.25,0,.11,0,.24,0,.37,0,.13-.02.26-.04.38-.02.13-.04.22-.04.29-.14,1.16-.24,2.31-.31,3.47-.06,1.16-.15,2.32-.26,3.49Z"/>
    </g>
  </g>
  <g id="Schlücke">
    <text class="cls-3" transform="translate(4.4 252.82)"><tspan x="0" y="0">+3</tspan></text>
    <g>
      <path class="cls-4" d="M152.7,17.28s0,.17,0,.37c0,.2,0,.41-.01.64,0,.23-.01.43-.02.61,0,.18-.01.27-.01.28-.03.08-.13.14-.31.17-.17.03-.36.05-.58.06s-.42,0-.62,0c-.2,0-.34-.01-.42-.01-.04,0-.09,0-.15,0-.06,0-.12,0-.18,0s-.12,0-.17-.02c-.05-.02-.09-.04-.1-.08,0-.02-.01-.07-.01-.16s0-.21,0-.35c0-.14.01-.29.02-.45,0-.16.01-.31.02-.46,0-.15,0-.28.01-.39,0-.11,0-.19,0-.24-.07,0-.21,0-.43.01-.21,0-.43.01-.67.02-.23,0-.44,0-.64,0-.19,0-.31-.02-.35-.04-.06-.03-.11-.09-.13-.17,0-.03-.01-.15-.01-.34s0-.41.01-.65c0-.24.02-.46.03-.66.01-.2.02-.33.03-.39.02-.11.07-.19.16-.24.04-.02.15-.04.33-.05.18-.01.38-.02.59-.03s.42-.01.61-.02c.2,0,.33,0,.4,0,0-.07,0-.2-.02-.38-.02-.18-.03-.37-.04-.56s-.01-.37-.02-.53c0-.16,0-.27.03-.31.04-.07.1-.12.17-.14.02,0,.13-.01.33-.02.2,0,.41,0,.65,0,.24,0,.46,0,.67.01.21,0,.34.01.39.02.05,0,.09.02.14.04.04.02.08.05.1.1.02.06.05.17.07.34s.04.35.05.55c.01.2.02.38.04.56.01.18.02.31.02.39.12,0,.26,0,.41,0,.16,0,.31,0,.47.01.16,0,.32.01.47.02.15.01.28.03.4.05.06.05.11.09.14.13.03.04.05.1.05.19v.63c0,.16,0,.32,0,.5,0,.18,0,.34-.01.49,0,.15,0,.27-.01.37s-.01.15-.02.16c-.02.04-.12.06-.3.06s-.37,0-.58-.02-.42-.03-.61-.05c-.2-.02-.33-.03-.39-.03Z"/>
      <path class="cls-4" d="M159.94,14.88c.5.13.89.37,1.16.74.27.36.41.77.44,1.21.02.44-.07.89-.29,1.34-.22.45-.56.83-1.02,1.15s-1.05.51-1.76.61-1.54,0-2.49-.27c-.06-.02-.15-.04-.25-.06-.1-.02-.19-.06-.28-.1s-.15-.09-.2-.15c-.05-.06-.05-.14-.01-.23.08-.2.15-.4.2-.61.05-.21.09-.42.1-.62,0-.06.01-.15.01-.25s.03-.18.1-.22c.02,0,.08,0,.19.02.11.02.24.05.4.08.16.03.34.06.54.08.2.02.4.02.59,0,.2-.02.38-.08.56-.16s.33-.21.46-.38c.08-.1.13-.21.14-.33.02-.12,0-.23-.03-.34-.04-.11-.1-.21-.18-.29-.08-.09-.19-.16-.31-.2-.1-.03-.2-.05-.32-.06-.12,0-.24,0-.37,0-.12.01-.25.03-.37.04-.12.02-.23.03-.34.04h-.15c-.06,0-.1-.03-.11-.08.04-.21.08-.46.11-.76.03-.3.03-.55,0-.76.02-.04.13-.07.33-.09.2-.02.41-.06.65-.11.24-.05.45-.14.65-.25.2-.12.32-.29.36-.51.03-.18-.01-.33-.13-.47-.12-.14-.26-.23-.42-.28-.21-.06-.45-.06-.73.02-.28.08-.54.16-.79.25s-.47.14-.64.16c-.18.02-.26-.06-.26-.23v-.84c0-.18,0-.34,0-.49,0-.15.01-.24.03-.27.04-.09.11-.15.2-.18.78-.27,1.49-.4,2.12-.38.63.02,1.17.13,1.61.33.45.2.8.48,1.07.82.26.34.42.7.47,1.08.05.38,0,.75-.18,1.12-.17.36-.47.67-.88.92Z"/>
    </g>
  </g>
  <g id="Motive">
    <g>
      <path class="cls-2" d="M103.29,113.14c1.01,0,1.82.82,1.82,1.82v17.25c0,2.17,3.48,3.35,4.51,1.54.09-.16.62-2.07.62-2.18v-16.61c0-1.01.82-1.82,1.82-1.82h5.65c1.01,0,1.82.82,1.82,1.82v27.83c0,.83-1.5,1.35-2.27,1.45-.07.01-.15.01-.22.01-9.2-.02-19.58-.02-28.77,0-.64.03-2.07-.85-2.07-1.46v-27.83c0-1.01.82-1.82,1.82-1.82h15.27ZM96.69,120.25c-2.92.6-2.14,5.36,1.13,4.7,2.92-.6,2.14-5.36-1.13-4.7ZM96.68,130.54c-1.34-1.66-4.28-.77-4.09,1.99.3,4.33,6.66,1.2,4.09-1.99Z"/>
      <path class="cls-2" d="M80.47,117.79c-.47,1.44-1.15,2.8-2.1,3.98-.46.57-.54,1.35-.2,1.99,1.3,2.48,2.62,4.91,2.89,7.81.15,1.58.19,10.98-.3,11.79-.04.07-1.07.86-1.14.86h-4.41c-1.02,0-1.83-.83-1.82-1.85.02-2-.17-4.18-2.41-4.27-2.57-.1-2.77,2.16-2.75,4.28,0,1.01-.81,1.84-1.82,1.84h-4.01c-1.02,0-1.83-.83-1.82-1.85.02-2-.17-4.18-2.41-4.27-2.57-.1-2.77,2.16-2.75,4.28,0,1.01-.81,1.84-1.82,1.84h-4.41c-.07,0-1.1-.79-1.14-.86-.49-.81-.44-10.21-.3-11.79.27-2.91,1.59-5.34,2.9-7.82.33-.64.27-1.41-.18-1.97-.96-1.19-1.69-2.56-2.17-4.02-.39-1.17.51-2.38,1.74-2.38h28.73c1.25,0,2.12,1.22,1.73,2.41Z"/>
      <path class="cls-2" d="M69.75,76.91c.96,0,1.74.74,1.82,1.69.09,1.19.26,2.41.78,3.34.87,1.54,3.12,2.38,4.39,3.62,1.55,1.53,2.85,3.71,3.65,5.91.43,1.18-.46,2.42-1.72,2.42h-28.55c-1.27,0-2.14-1.26-1.71-2.45.77-2.12,2-4.15,3.52-5.69,1.25-1.26,3.73-2.42,4.52-3.82.53-.94.69-2.16.78-3.34.07-.95.86-1.69,1.82-1.69h10.7Z"/>
      <rect class="cls-2" x="47.73" y="99.03" width="33.34" height="11.54" rx="1.85" ry="1.85"/>
      <path class="cls-2" d="M105.11,98.03v8.1c0,1.04-.84,1.88-1.88,1.88h-15.15c-1.04,0-1.88-.84-1.88-1.88v-8.54c0-.37,1.31-1.44,1.44-1.44h15.59c1.04,0,1.88.84,1.88,1.88Z"/>
      <path class="cls-2" d="M57.34,63.61c.18-.96,1.54-1.39,2.38-1.46,2.07-.19,8.02-.27,9.94.04.54.09,1.78.86,1.78,1.42v6.3c0,1.21-.98,2.19-2.19,2.19h-9.65c-1.18,0-2.16-.94-2.19-2.12-.06-2.17-.4-4.6-.07-6.38Z"/>
      <path class="cls-2" d="M118.01,96.22c1.38.13,1.52.49,1.52,1.58v8.38c0,1.01-.82,1.83-1.83,1.83h-5.64c-1.01,0-1.83-.82-1.83-1.83v-8.12c0-1,.8-1.8,1.79-1.83,2.06-.05,4.44-.07,5.98-.01Z"/>
      <path class="cls-2" d="M105.74,82.59c.41-.45,1.13-.77,1.66-.86.07-.01.13-.02.2-.01,1.93,0,8.56-.04,10.29.09.08,0,.16.02.24.04,1.51.44,1.84,2.6,1.1,3.83-.04.07-1.07.86-1.14.86h-6.89c-.71,0-1.28.57-1.28,1.28v7.05c0,.71-.57,1.28-1.28,1.28h-1.92c-.71,0-1.28-.57-1.28-1.28,0-3.67-.01-8.19,0-11.45,0-.31.1-.61.31-.83Z"/>
    </g>
  </g>
  <g id="Kateg._Symbol" data-name="Kateg. Symbol">
    <g>
      <path class="cls-5" d="M16.91,14.58l-2.12.03.79-3.25c0-.3-.37-.37-.52-.12l-3.2,5.08c-.11.17,0,.4.2.43h2.18l-.8,3.16c-.04.26.17.44.41.3.86-1.32,1.71-2.66,2.54-4,.22-.35.55-.8.73-1.16.13-.25.06-.4-.21-.46Z"/>
      <path class="cls-5" d="M16.91,13.95l-2.12.03.6.79.7-2.86c.14-.56.17-1.23-.55-1.42-.56-.14-.9.25-1.16.66l-1.76,2.8c-.43.68-.92,1.35-1.29,2.05-.32.6.05,1.3.74,1.37.18.02.36,0,.54,0h1.64l-.6-.79c-.16.63-.32,1.25-.48,1.88s-.61,1.62-.1,2.15c.25.26.62.32.95.19.41-.16.62-.67.85-1.02.48-.74.95-1.48,1.42-2.22.41-.66.86-1.3,1.25-1.98s.34-1.35-.46-1.61-1.1.96-.33,1.21l-.18-.41s-.05.08-.07.12c-.07.07-.13.21-.18.29-.11.18-.23.35-.35.53-.29.45-.57.9-.85,1.36-.59.94-1.19,1.87-1.8,2.81l.37-.29c.19.51.31.66.36.46v-.04s.02-.07.03-.09c.04-.12.06-.25.09-.37l.27-1.07c.13-.53.27-1.05.4-1.58.1-.39-.19-.79-.6-.79h-1.86c-.07,0-.15-.01-.22,0-.02,0-.06,0-.08,0-.21.07.24.57.32.51.13-.1.24-.38.32-.52l.74-1.17,1.64-2.62c.14-.22.37-.48.46-.73s-.48-.62-.6-.36c-.06.13-.08.32-.11.46l-.67,2.74c-.09.39.19.8.6.79l2.12-.03c.8,0,.81-1.26,0-1.25Z"/>
    </g>
    <g>
      <path class="cls-5" d="M153.83,247.16l-2.12.03.79-3.25c0-.3-.37-.37-.52-.12l-3.2,5.08c-.11.17,0,.4.2.43h2.18l-.8,3.16c-.04.26.17.44.41.3.86-1.32,1.71-2.66,2.54-4,.22-.35.55-.8.73-1.16.13-.25.06-.4-.21-.46Z"/>
      <path class="cls-5" d="M153.83,246.54l-2.12.03.6.79.7-2.86c.14-.56.17-1.23-.55-1.42-.56-.14-.9.25-1.16.66l-1.76,2.8c-.43.68-.92,1.35-1.29,2.05-.32.6.05,1.3.74,1.37.18.02.36,0,.54,0h1.64l-.6-.79c-.16.63-.32,1.25-.48,1.88s-.61,1.62-.1,2.15c.25.26.62.32.95.19.41-.16.62-.67.85-1.02.48-.74.95-1.48,1.42-2.22.41-.66.86-1.3,1.25-1.98s.34-1.35-.46-1.61-1.1.96-.33,1.21l-.18-.41s-.05.08-.07.12c-.07.07-.13.21-.18.29-.11.18-.23.35-.35.53-.29.45-.57.9-.85,1.36-.59.94-1.19,1.87-1.8,2.81l.37-.29c.19.51.31.66.36.46v-.04s.02-.07.03-.09c.04-.12.06-.25.09-.37l.27-1.07.4-1.58c.1-.39-.19-.79-.6-.79h-1.86c-.07,0-.15-.01-.22,0-.02,0-.06,0-.08,0-.21.07.24.57.32.51.13-.1.24-.38.32-.52l.74-1.17,1.64-2.62c.14-.22.37-.48.46-.73s-.48-.62-.6-.36c-.06.13-.08.32-.11.46l-.67,2.74c-.09.39.19.8.6.79l2.12-.03c.8,0,.81-1.26,0-1.25Z"/>
    </g>
  </g>
  <g id="Text_Karte" data-name="Text Karte">
    <g>
      <g>
        <path class="cls-5" d="M35.61,173.12l-2.45,5.83s-.03.07-.05.09h-.01s-.03.05-.05.07c0,.02-.01.02-.01.03-.02,0-.05.03-.07.05h0s-.05.05-.09.06h0s0,0,0,.01c-.02,0-.05,0-.08.02h-.02s-.06,0-.1,0c-.03,0-.06,0-.09,0h-.03s-.05-.02-.07-.02t-.02-.01s-.07-.04-.09-.06h0s-.05-.04-.07-.05t-.02-.03s-.03-.04-.04-.06c-.02,0-.02-.01-.02-.01-.02-.02-.03-.06-.04-.09l-1.31-3.1-1.31,3.1s-.03.07-.04.09c0,0,0,.01,0,.01l-.06.06s-.01.02-.01.03c-.02,0-.04.03-.06.05h-.02s-.06.05-.08.06h-.01s0,0,0,.01c-.04,0-.06,0-.08.02h-.03s-.06,0-.09,0-.07,0-.1,0h-.03s-.05-.02-.07-.02t-.02-.01s-.07-.04-.09-.06h0s-.04-.04-.07-.05t-.02-.03s-.03-.04-.05-.06h0s-.03-.07-.05-.1l-2.46-5.83c-.11-.27.01-.6.3-.71.27-.12.6,0,.71.29l1.96,4.63,1.29-3.07c.09-.22.3-.34.52-.34s.42.12.52.34l1.29,3.07,1.95-4.63c.12-.28.44-.41.73-.29.27.11.4.44.28.71Z"/>
        <path class="cls-5" d="M36.11,176.79c.01-1.36,1.07-2.5,2.44-2.5,1.3,0,2.33.97,2.41,2.32v.05s0,.07-.01.09c-.03.24-.24.4-.52.4h-3.18c.05.23.16.49.34.66.21.24.61.42.96.45.36.03.79-.06,1.04-.25.21-.22.62-.19.75-.03.13.14.23.44,0,.65-.49.45-1.08.66-1.79.66-1.37,0-2.43-1.14-2.44-2.5ZM37.2,176.3h2.83c-.1-.4-.61-.99-1.48-1.06-.85.04-1.27.65-1.35,1.06Z"/>
      </g>
      <g>
        <path class="cls-5" d="M45.22,174.82c0,.28-.23.53-.53.53-.23,0-.43.06-.6.19-.19.12-.34.29-.46.48-.24.32-.36.7-.41.84v1.9c0,.29-.25.53-.55.53s-.53-.24-.53-.53v-3.94c0-.29.24-.52.53-.52s.55.23.55.52v.07c.06-.07.14-.15.21-.2.33-.22.76-.4,1.26-.39.3,0,.53.23.53.52Z"/>
        <path class="cls-5" d="M48.89,177.86c.18-.24.53-.27.75-.08.26.22.71.45,1.1.44.27,0,.52-.09.68-.19.14-.12.18-.22.18-.3,0-.05,0-.07-.03-.1-.01-.03-.05-.07-.13-.12-.14-.1-.44-.21-.8-.28h0c-.31-.06-.61-.14-.87-.26-.27-.13-.51-.31-.69-.58-.11-.18-.17-.4-.17-.63,0-.46.26-.85.59-1.1.35-.24.77-.37,1.23-.37.69,0,1.18.33,1.5.55.24.16.31.49.16.74-.16.24-.49.31-.74.14-.32-.21-.6-.37-.92-.37-.25,0-.47.08-.6.18-.13.09-.16.18-.16.23,0,.04,0,.05.02.08.01.02.04.06.11.1.13.09.39.18.73.24h0s.01.01.01.01c.33.06.64.15.93.29.27.12.54.31.71.59.12.2.19.43.19.66,0,.49-.27.9-.63,1.16-.36.25-.81.4-1.3.4-.78,0-1.38-.37-1.78-.69-.22-.18-.25-.52-.07-.74Z"/>
        <path class="cls-5" d="M53.5,176.8c0-1.39,1.16-2.5,2.54-2.51.6,0,1.16.22,1.59.55.23.18.27.52.11.74-.2.24-.52.28-.75.1-.26-.19-.58-.32-.95-.32-.81,0-1.48.67-1.48,1.44s.67,1.43,1.48,1.43c.36,0,.69-.13.95-.32.22-.17.55-.13.75.11.16.22.12.54-.11.74-.43.31-.99.53-1.59.53-1.38,0-2.54-1.12-2.54-2.49Z"/>
        <path class="cls-5" d="M60.47,178.74c0,.31-.25.55-.56.55-.25,0-.46-.18-.53-.41-.01-.04-.02-.09-.02-.14v-5.9c0-.31.25-.55.55-.55s.56.24.56.55v1.74c.32-.17.68-.29,1.07-.29,1.21,0,2.18.99,2.18,2.19v2.26c0,.31-.24.55-.55.55s-.55-.24-.55-.55v-2.26c0-.59-.48-1.07-1.08-1.08-.59,0-1.06.49-1.07,1.08v2.26Z"/>
      </g>
      <g>
        <path class="cls-5" d="M69.92,176.8v1.96c0,.29-.24.53-.53.53-.26,0-.46-.19-.52-.43-.38.27-.83.43-1.33.43-.68,0-1.27-.28-1.7-.73-.43-.46-.68-1.08-.68-1.76s.25-1.31.68-1.76c.43-.46,1.02-.75,1.7-.75.5,0,.95.17,1.33.44.06-.25.26-.44.52-.44.29,0,.53.24.53.54v1.97ZM68.86,176.8c0-.42-.15-.78-.39-1.03-.24-.27-.58-.41-.93-.41s-.7.14-.93.41c-.24.25-.38.61-.38,1.03s.14.77.38,1.03c.23.25.57.39.93.39s.69-.14.93-.39c.24-.26.39-.62.39-1.03Z"/>
        <path class="cls-5" d="M73.32,173.96v.14h.3c.3,0,.55.24.55.55s-.25.55-.55.55h-.3v3.53c0,.3-.24.55-.55.55s-.55-.25-.55-.55v-3.53h-.26c-.31,0-.56-.25-.56-.55s.25-.55.56-.55h.26v-.14c0-.37.04-.69.19-.98.14-.3.42-.53.72-.62.2-.06.39-.08.6-.08.3,0,.55.25.55.55s-.25.56-.55.56c-.13,0-.22.01-.26.03-.04,0-.05.02-.06.03-.01,0-.09.14-.09.51Z"/>
        <path class="cls-5" d="M76.74,173.96v.14h.3c.3,0,.55.24.55.55s-.25.55-.55.55h-.3v3.53c0,.3-.24.55-.55.55s-.55-.25-.55-.55v-3.53h-.26c-.31,0-.56-.25-.56-.55s.25-.55.56-.55h.26v-.14c0-.37.04-.69.19-.98.14-.3.42-.53.72-.62.2-.06.39-.08.6-.08.3,0,.55.25.55.55s-.25.56-.55.56c-.13,0-.22.01-.26.03-.04,0-.05.02-.06.03-.01,0-.09.14-.09.51Z"/>
        <path class="cls-5" d="M80.77,174.84c0,.3-.26.55-.56.55h-.25v2.79c.31,0,.55.25.55.56s-.24.55-.55.55c-.61,0-1.11-.5-1.11-1.11v-2.79h-.29c-.31,0-.55-.25-.55-.55s.24-.55.55-.55h.29v-1.45c0-.31.25-.55.56-.55s.55.24.55.55v1.45h.25c.3,0,.56.24.56.55Z"/>
        <path class="cls-5" d="M84.77,176.79c.01-1.36,1.07-2.5,2.44-2.5,1.3,0,2.33.97,2.41,2.32v.05s0,.07,0,.09c-.03.24-.24.4-.52.4h-3.18c.05.23.16.49.34.66.21.24.61.42.96.45.36.03.79-.06,1.04-.25.21-.22.62-.19.75-.03.13.14.23.44,0,.65-.49.45-1.08.66-1.79.66-1.37,0-2.43-1.14-2.44-2.5ZM85.86,176.3h2.83c-.1-.4-.61-.99-1.48-1.06-.85.04-1.27.65-1.35,1.06Z"/>
        <path class="cls-5" d="M90.77,177.86c.18-.24.53-.27.75-.08.26.22.71.45,1.1.44.27,0,.52-.09.68-.19.14-.12.18-.22.18-.3,0-.05-.01-.07-.03-.1,0-.03-.05-.07-.13-.12-.14-.1-.44-.21-.8-.28h0c-.31-.06-.61-.14-.87-.26-.27-.13-.51-.31-.69-.58-.11-.18-.17-.4-.17-.63,0-.46.26-.85.59-1.1.35-.24.77-.37,1.23-.37.69,0,1.18.33,1.5.55.24.16.31.49.16.74-.16.24-.49.31-.74.14-.32-.21-.6-.37-.92-.37-.25,0-.47.08-.6.18-.13.09-.16.18-.16.23,0,.04,0,.05.02.08,0,.02.04.06.11.1.13.09.39.18.73.24h.01s0,.01,0,.01c.33.06.64.15.93.29.27.12.54.31.71.59.12.2.19.43.19.66,0,.49-.27.9-.63,1.16-.36.25-.81.4-1.3.4-.78,0-1.38-.37-1.78-.69-.22-.18-.25-.52-.07-.74Z"/>
        <path class="cls-5" d="M98.29,177.86c.18-.24.53-.27.75-.08.26.22.71.45,1.1.44.27,0,.52-.09.68-.19.14-.12.18-.22.18-.3,0-.05-.01-.07-.03-.1,0-.03-.05-.07-.13-.12-.14-.1-.44-.21-.8-.28h0c-.31-.06-.61-.14-.87-.26-.27-.13-.51-.31-.69-.58-.11-.18-.17-.4-.17-.63,0-.46.26-.85.59-1.1.35-.24.77-.37,1.23-.37.69,0,1.18.33,1.5.55.24.16.31.49.16.74-.16.24-.49.31-.74.14-.32-.21-.6-.37-.92-.37-.25,0-.47.08-.6.18-.13.09-.16.18-.16.23,0,.04,0,.05.02.08,0,.02.04.06.11.1.13.09.39.18.73.24h.01s0,.01,0,.01c.33.06.64.15.93.29.27.12.54.31.71.59.12.2.19.43.19.66,0,.49-.27.9-.63,1.16-.36.25-.81.4-1.3.4-.78,0-1.38-.37-1.78-.69-.22-.18-.25-.52-.07-.74Z"/>
        <path class="cls-5" d="M102.9,176.8c0-1.39,1.16-2.5,2.54-2.51.6,0,1.16.22,1.59.55.23.18.27.52.11.74-.2.24-.52.28-.75.1-.26-.19-.58-.32-.95-.32-.81,0-1.48.67-1.48,1.44s.67,1.43,1.48,1.43c.36,0,.69-.13.95-.32.22-.17.55-.13.75.11.16.22.12.54-.11.74-.43.31-.99.53-1.59.53-1.38,0-2.54-1.12-2.54-2.49Z"/>
        <path class="cls-5" d="M109.87,178.74c0,.31-.25.55-.56.55-.25,0-.46-.18-.53-.41,0-.04-.02-.09-.02-.14v-5.9c0-.31.25-.55.55-.55s.56.24.56.55v1.74c.32-.17.68-.29,1.07-.29,1.21,0,2.18.99,2.18,2.19v2.26c0,.31-.24.55-.55.55s-.55-.24-.55-.55v-2.26c0-.59-.48-1.07-1.08-1.08-.59,0-1.06.49-1.07,1.08v2.26Z"/>
        <path class="cls-5" d="M118.85,176.37v2.39c0,.29-.23.53-.52.53s-.53-.24-.53-.53v-2.39c0-.56-.47-1.01-1.04-1.01s-1,.45-1,1.01v2.39s0,.06-.02.1c-.05.24-.27.43-.53.43-.3,0-.53-.24-.53-.53v-3.94c0-.29.23-.53.53-.53.21,0,.4.12.49.31.3-.19.67-.31,1.06-.31,1.16,0,2.09.95,2.09,2.08Z"/>
        <path class="cls-5" d="M120.27,176.79c0-1.36,1.07-2.5,2.44-2.5,1.3,0,2.33.97,2.41,2.32v.05s0,.07,0,.09c-.03.24-.24.4-.52.4h-3.18c.05.23.16.49.34.66.21.24.61.42.96.45.36.03.79-.06,1.04-.25.21-.22.62-.19.75-.03.13.14.23.44,0,.65-.49.45-1.08.66-1.79.66-1.37,0-2.43-1.14-2.44-2.5ZM121.36,176.3h2.83c-.1-.4-.61-.99-1.48-1.06-.85.04-1.27.65-1.35,1.06Z"/>
        <path class="cls-5" d="M127.13,172.29c.31,0,.56.25.56.55v5.9c0,.3-.25.55-.56.55s-.55-.25-.55-.55v-5.9c0-.3.25-.55.55-.55Z"/>
        <path class="cls-5" d="M129.42,172.29c.31,0,.56.25.56.55v5.9c0,.3-.25.55-.56.55s-.55-.25-.55-.55v-5.9c0-.3.25-.55.55-.55Z"/>
      </g>
      <g>
        <path class="cls-5" d="M131.19,176.79c0-1.36,1.07-2.5,2.44-2.5,1.3,0,2.33.97,2.41,2.32v.05s0,.07,0,.09c-.03.24-.24.4-.52.4h-3.18c.05.23.16.49.34.66.21.24.61.42.96.45.36.03.79-.06,1.04-.25.21-.22.62-.19.75-.03.13.14.23.44,0,.65-.49.45-1.08.66-1.79.66-1.37,0-2.43-1.14-2.44-2.5ZM132.28,176.3h2.83c-.1-.4-.61-.99-1.48-1.06-.85.04-1.27.65-1.35,1.06Z"/>
        <path class="cls-5" d="M140.3,174.82c0,.28-.23.53-.53.53-.23,0-.43.06-.6.19-.19.12-.34.29-.46.48-.24.32-.36.7-.41.84v1.9c0,.29-.25.53-.55.53s-.53-.24-.53-.53v-3.94c0-.29.24-.52.53-.52s.55.23.55.52v.07c.06-.07.14-.15.21-.2.33-.22.76-.4,1.26-.39.3,0,.53.23.53.52Z"/>
      </g>
      <path class="cls-5" d="M140.35,180.19c.46-.15.7-.46.68-.9-.29-.08-.57-.32-.57-.68v-.08c0-.38.27-.67.68-.67.45,0,.72.34.72.88v.11c0,.68-.18,1.14-.49,1.46-.27.26-.66.43-.94.43-.21,0-.31-.13-.31-.28,0-.14.1-.24.23-.27Z"/>
      <g>
        <path class="cls-5" d="M23.82,188.78c.01-1.36,1.07-2.5,2.44-2.5,1.3,0,2.33.97,2.41,2.32v.05s0,.07-.01.09c-.03.24-.24.4-.52.4h-3.18c.05.23.16.49.34.66.21.24.61.42.96.45.36.03.79-.06,1.04-.25.21-.22.62-.19.75-.03.13.14.23.44,0,.65-.49.45-1.08.66-1.79.66-1.37,0-2.43-1.14-2.44-2.5ZM24.91,188.29h2.83c-.1-.4-.61-.99-1.48-1.06-.85.04-1.27.65-1.35,1.06Z"/>
        <path class="cls-5" d="M31.15,185.03c0,.3-.23.55-.54.55s-.54-.25-.54-.55v-.21c0-.3.24-.54.54-.54s.54.24.54.54v.21ZM31.15,186.84v3.9c0,.3-.23.54-.54.54s-.54-.24-.54-.54v-3.9c0-.32.24-.55.54-.55s.54.23.54.55Z"/>
        <path class="cls-5" d="M36.84,188.36v2.39c0,.29-.23.53-.52.53s-.53-.24-.53-.53v-2.39c0-.56-.47-1.01-1.04-1.01s-1,.45-1,1.01v2.39s0,.06-.02.1c-.05.24-.27.43-.53.43-.3,0-.53-.24-.53-.53v-3.94c0-.29.23-.53.53-.53.21,0,.4.12.49.31.3-.19.67-.31,1.06-.31,1.16,0,2.09.95,2.09,2.08Z"/>
        <path class="cls-5" d="M41.2,187.69c0-2.01,1.66-3.61,3.69-3.61.85,0,1.66.29,2.28.78.26.19.3.56.11.81-.19.24-.56.29-.81.09-.43-.33-.98-.54-1.58-.54-.72,0-1.35.27-1.8.73-.47.45-.75,1.06-.75,1.74s.28,1.27.75,1.72c.45.46,1.08.73,1.8.73.5,0,.97-.15,1.37-.38v-1.37h-1.43c-.31,0-.57-.26-.57-.57s.26-.56.57-.56h1.99c.32,0,.58.24.58.56v2.21c0,.07-.02.11-.03.17,0,.02,0,.03-.02.05h0c-.03.1-.09.18-.19.25-.63.49-1.42.78-2.27.78-2.03,0-3.69-1.59-3.69-3.59Z"/>
        <path class="cls-5" d="M49.96,184.28c.31,0,.56.25.56.55v5.9c0,.3-.25.55-.56.55s-.55-.25-.55-.55v-5.9c0-.3.25-.55.55-.55Z"/>
        <path class="cls-5" d="M55.86,188.79v1.96c0,.29-.24.53-.53.53-.26,0-.46-.19-.52-.43-.38.27-.83.43-1.33.43-.68,0-1.27-.28-1.7-.73-.43-.46-.68-1.08-.68-1.76s.25-1.31.68-1.76c.43-.46,1.02-.75,1.7-.75.5,0,.95.17,1.33.44.06-.25.26-.44.52-.44.29,0,.53.24.53.54v1.97ZM54.8,188.79c0-.42-.15-.78-.39-1.03-.24-.27-.58-.41-.93-.41s-.7.14-.93.41c-.24.25-.38.61-.38,1.03s.14.77.38,1.03c.23.25.57.39.93.39s.69-.14.93-.39c.24-.26.39-.62.39-1.03Z"/>
        <path class="cls-5" d="M57.38,189.85c.18-.24.53-.27.75-.08.26.22.71.45,1.1.44.27,0,.52-.09.68-.19.14-.12.18-.22.18-.3,0-.05,0-.07-.03-.1,0-.03-.05-.07-.13-.12-.14-.1-.44-.21-.8-.28h0c-.31-.06-.61-.14-.87-.26-.27-.13-.51-.31-.69-.58-.11-.18-.17-.4-.17-.63,0-.46.26-.85.59-1.1.35-.24.77-.37,1.23-.37.69,0,1.18.33,1.5.55.24.16.31.49.16.74-.16.24-.49.31-.74.14-.32-.21-.6-.37-.92-.37-.25,0-.47.08-.6.18-.13.09-.16.18-.16.23,0,.04,0,.05.02.08.01.02.04.06.11.1.13.09.39.18.73.24h0s.01.01.01.01c.33.06.64.15.93.29.27.12.54.31.71.59.12.2.19.43.19.66,0,.49-.27.9-.63,1.16-.36.25-.81.4-1.3.4-.78,0-1.38-.37-1.78-.69-.22-.18-.25-.52-.07-.74Z"/>
      </g>
      <g>
        <path class="cls-5" d="M74.47,185.11l-2.45,5.83s-.03.07-.05.09h-.01s-.03.05-.05.07c0,.02-.01.02-.01.03-.02,0-.05.03-.07.05h0s-.05.05-.09.06h0s0,0,0,.01c-.02,0-.05,0-.08.02h-.02s-.06,0-.1,0c-.03,0-.06,0-.09,0h-.03s-.05-.02-.07-.02t-.02-.01s-.07-.04-.09-.06h0s-.05-.04-.07-.05t-.02-.03s-.03-.04-.04-.06c-.02,0-.02-.01-.02-.01-.02-.02-.03-.06-.04-.09l-1.31-3.1-1.31,3.1s-.03.07-.04.09c0,0,0,.01,0,.01l-.06.06s-.01.02-.01.03c-.02,0-.04.03-.06.05h-.02s-.06.05-.08.06h-.01s0,0,0,.01c-.04,0-.06,0-.08.02h-.03s-.06,0-.09,0-.07,0-.1,0h-.03s-.05-.02-.07-.02t-.02-.01s-.07-.04-.09-.06h0s-.04-.04-.07-.05t-.02-.03s-.03-.04-.05-.06h0s-.03-.07-.05-.1l-2.46-5.83c-.11-.27.01-.6.3-.71.27-.12.6,0,.71.29l1.96,4.63,1.29-3.07c.09-.22.3-.34.52-.34s.42.12.52.34l1.29,3.07,1.95-4.63c.12-.28.44-.41.73-.29.27.11.4.44.28.71Z"/>
        <path class="cls-5" d="M79.49,188.79v1.96c0,.29-.24.53-.53.53-.26,0-.46-.19-.52-.43-.38.27-.83.43-1.33.43-.68,0-1.27-.28-1.7-.73-.43-.46-.68-1.08-.68-1.76s.25-1.31.68-1.76c.43-.46,1.02-.75,1.7-.75.5,0,.95.17,1.33.44.06-.25.26-.44.52-.44.29,0,.53.24.53.54v1.97ZM78.43,188.79c0-.42-.15-.78-.39-1.03-.24-.27-.58-.41-.93-.41s-.7.14-.93.41c-.24.25-.38.61-.38,1.03s.14.77.38,1.03c.23.25.57.39.93.39s.69-.14.93-.39c.24-.26.39-.62.39-1.03Z"/>
      </g>
      <g>
        <path class="cls-5" d="M81.01,189.85c.18-.24.53-.27.75-.08.26.22.71.45,1.1.44.27,0,.52-.09.68-.19.14-.12.18-.22.18-.3,0-.05,0-.07-.03-.1,0-.03-.05-.07-.13-.12-.14-.1-.44-.21-.8-.28h0c-.31-.06-.61-.14-.87-.26-.27-.13-.51-.31-.69-.58-.11-.18-.17-.4-.17-.63,0-.46.26-.85.59-1.1.35-.24.77-.37,1.23-.37.69,0,1.18.33,1.5.55.24.16.31.49.16.74-.16.24-.49.31-.74.14-.32-.21-.6-.37-.92-.37-.25,0-.47.08-.6.18-.13.09-.16.18-.16.23,0,.04,0,.05.02.08.01.02.04.06.11.1.13.09.39.18.73.24h0s.01.01.01.01c.33.06.64.15.93.29.27.12.54.31.71.59.12.2.19.43.19.66,0,.49-.27.9-.63,1.16-.36.25-.81.4-1.3.4-.78,0-1.38-.37-1.78-.69-.22-.18-.25-.52-.07-.74Z"/>
        <path class="cls-5" d="M85.63,189.85c.18-.24.53-.27.75-.08.26.22.71.45,1.1.44.27,0,.52-.09.68-.19.14-.12.18-.22.18-.3,0-.05-.01-.07-.03-.1,0-.03-.05-.07-.13-.12-.14-.1-.44-.21-.8-.28h0c-.31-.06-.61-.14-.87-.26-.27-.13-.51-.31-.69-.58-.11-.18-.17-.4-.17-.63,0-.46.26-.85.59-1.1.35-.24.77-.37,1.23-.37.69,0,1.18.33,1.5.55.24.16.31.49.16.74-.16.24-.49.31-.74.14-.32-.21-.6-.37-.92-.37-.25,0-.47.08-.6.18-.13.09-.16.18-.16.23,0,.04,0,.05.02.08,0,.02.04.06.11.1.13.09.39.18.73.24h.01s0,.01,0,.01c.33.06.64.15.93.29.27.12.54.31.71.59.12.2.19.43.19.66,0,.49-.27.9-.63,1.16-.36.25-.81.4-1.3.4-.78,0-1.38-.37-1.78-.69-.22-.18-.25-.52-.07-.74Z"/>
      </g>
      <g>
        <path class="cls-5" d="M90.24,188.78c0-1.36,1.07-2.5,2.44-2.5,1.3,0,2.33.97,2.41,2.32v.05s0,.07,0,.09c-.03.24-.24.4-.52.4h-3.18c.05.23.16.49.34.66.21.24.61.42.96.45.36.03.79-.06,1.04-.25.21-.22.62-.19.75-.03.13.14.23.44,0,.65-.49.45-1.08.66-1.79.66-1.37,0-2.43-1.14-2.44-2.5ZM91.33,188.29h2.83c-.1-.4-.61-.99-1.48-1.06-.85.04-1.27.65-1.35,1.06Z"/>
        <path class="cls-5" d="M99.35,186.81c0,.28-.23.53-.53.53-.23,0-.43.06-.6.19-.19.12-.34.29-.46.48-.24.32-.36.7-.41.84v1.9c0,.29-.25.53-.55.53s-.53-.24-.53-.53v-3.94c0-.29.24-.52.53-.52s.55.23.55.52v.07c.06-.07.14-.15.21-.2.33-.22.76-.4,1.26-.39.3,0,.53.23.53.52Z"/>
      </g>
      <g>
        <path class="cls-5" d="M106.78,187.12l-2.26,3.1h1.84c.28,0,.53.23.53.53s-.25.53-.53.53h-2.89s-.06,0-.1,0h-.03s-.04-.02-.06-.02c-.02-.01-.03-.01-.04-.02,0,0-.03-.02-.04-.02,0-.02-.02-.02-.02-.03t0,0s-.02-.01-.03-.02c0-.01-.04-.03-.04-.03-.02-.03-.03-.04-.04-.05,0-.02-.02-.03-.03-.04-.02,0-.02-.02-.02-.04-.02,0-.03-.02-.03-.05,0,0,0-.02-.02-.05,0-.01,0-.03,0-.04v-.07s-.01-.02-.01-.03h0s.01-.06.01-.08v-.04s0-.03.02-.05c0-.02,0-.04,0-.05,0,0,.03-.03.03-.03,0-.02.02-.04.03-.05h0l2.25-3.11h-1.83c-.28,0-.53-.23-.53-.53s.25-.53.53-.53h2.89s.04,0,.06,0h.05s.04.01.05.02c.02,0,.04.01.05.01.01,0,.02.03.03.03.02,0,.04.02.06.03.01,0,.01.01.01.01,0,0,.02,0,.02.02,0,0,.03.02.05.05.01,0,.02.02.03.03,0,.02.02.03.03.04,0,.01,0,.02.03.02,0,.03.02.04.02.06,0,.01,0,.03,0,.05,0,.02,0,.04.02.05v.06s0,.03,0,.04h0s0,.06,0,.06c0,.03,0,.04-.01.06,0,.01,0,.03,0,.05,0,.02,0,.04-.03.05v.03s-.03.04-.05.05h0Z"/>
        <path class="cls-5" d="M110.58,191.28c-1.14,0-2.08-.94-2.08-2.08v-2.39c0-.28.24-.53.53-.53s.53.25.53.53v2.39c0,.57.45,1.02,1.02,1.02s1.04-.45,1.05-1.02v-2.39c0-.28.22-.53.52-.53.28,0,.54.25.54.53v2.39c0,1.14-.96,2.08-2.11,2.08Z"/>
      </g>
      <g>
        <path class="cls-5" d="M116.98,188.78c0-1.36,1.07-2.5,2.44-2.5,1.3,0,2.33.97,2.41,2.32v.05s0,.07,0,.09c-.03.24-.24.4-.52.4h-3.18c.05.23.16.49.34.66.21.24.61.42.96.45.36.03.79-.06,1.04-.25.21-.22.62-.19.75-.03.13.14.23.44,0,.65-.49.45-1.08.66-1.79.66-1.37,0-2.43-1.14-2.44-2.5ZM118.07,188.29h2.83c-.1-.4-.61-.99-1.48-1.06-.85.04-1.27.65-1.35,1.06Z"/>
        <path class="cls-5" d="M126.53,187.16l-1.19,1.64,1.19,1.65c.17.22.11.57-.1.72-.1.07-.21.11-.32.11-.16,0-.31-.09-.44-.22l-1-1.37-1,1.37c-.11.13-.25.22-.41.22-.11,0-.23-.04-.32-.11-.23-.15-.28-.5-.11-.72l1.2-1.65-1.2-1.64c-.17-.21-.12-.55.11-.71.24-.17.55-.12.73.11l1,1.34,1-1.34c.19-.23.51-.28.76-.11.21.16.27.5.1.71Z"/>
      </g>
      <g>
        <path class="cls-5" d="M127.72,188.78c0-1.36,1.07-2.5,2.44-2.5,1.3,0,2.33.97,2.41,2.32v.05s0,.07,0,.09c-.03.24-.24.4-.52.4h-3.18c.05.23.16.49.34.66.21.24.61.42.96.45.36.03.79-.06,1.04-.25.21-.22.62-.19.75-.03.13.14.23.44,0,.65-.49.45-1.08.66-1.79.66-1.37,0-2.43-1.14-2.44-2.5ZM128.81,188.29h2.83c-.1-.4-.61-.99-1.48-1.06-.85.04-1.27.65-1.35,1.06Z"/>
        <path class="cls-5" d="M138.13,188.36v2.39c0,.29-.23.53-.52.53s-.53-.24-.53-.53v-2.39c0-.56-.47-1.01-1.04-1.01s-1,.45-1,1.01v2.39s0,.06-.02.1c-.05.24-.27.43-.53.43-.3,0-.53-.24-.53-.53v-3.94c0-.29.23-.53.53-.53.21,0,.4.12.49.31.3-.19.67-.31,1.06-.31,1.16,0,2.09.95,2.09,2.08Z"/>
      </g>
      <path class="cls-5" d="M141.47,188.42v.65c0,.28-.21.49-.49.49-.26,0-.49-.21-.49-.49v-1.04s0-.01,0-.02t0-.02c0-.26.23-.49.49-.49.63,0,1.14-.5,1.14-1.12s-.51-1.12-1.14-1.12c-.41,0-.77.22-.96.55-.14.24-.44.32-.68.18-.23-.14-.31-.43-.17-.67.36-.62,1.04-1.04,1.81-1.04,1.16,0,2.11.94,2.11,2.1,0,.99-.69,1.82-1.62,2.04ZM141.47,190.61v.18c0,.28-.21.49-.49.49-.26,0-.49-.21-.49-.49v-.18c0-.27.23-.49.49-.49.28,0,.49.22.49.49Z"/>
      <g>
        <path class="cls-5" d="M21.89,202.73v-5.9c0-.31.24-.55.55-.55h1.18c1.93,0,3.49,1.57,3.49,3.49s-1.56,3.51-3.49,3.51h-1.18c-.31,0-.55-.25-.55-.55ZM23,202.17h.62c1.32,0,2.38-1.07,2.38-2.4s-1.06-2.38-2.38-2.38h-.62v4.78Z"/>
        <path class="cls-5" d="M28.42,200.78c.01-1.36,1.07-2.5,2.44-2.5,1.3,0,2.33.97,2.41,2.32v.05s0,.07-.01.09c-.03.24-.24.4-.52.4h-3.18c.05.23.16.49.34.66.21.24.61.42.96.45.36.03.79-.06,1.04-.25.21-.22.62-.19.75-.03.13.14.23.44,0,.65-.49.45-1.08.66-1.79.66-1.37,0-2.43-1.14-2.44-2.5ZM29.51,200.29h2.83c-.1-.4-.61-.99-1.48-1.06-.85.04-1.27.65-1.35,1.06Z"/>
      </g>
      <path class="cls-5" d="M37.52,198.81c0,.28-.23.53-.53.53-.23,0-.43.06-.6.19-.19.12-.34.29-.46.48-.24.32-.36.7-.41.84v1.9c0,.29-.25.53-.55.53s-.53-.24-.53-.53v-3.94c0-.29.24-.52.53-.52s.55.23.55.52v.07c.06-.07.14-.15.21-.2.33-.22.76-.4,1.26-.39.3,0,.53.23.53.52Z"/>
      <g>
        <path class="cls-5" d="M43.83,203.18s-.04-.03-.07-.05c0-.01,0-.01,0-.03-.02-.02-.04-.04-.05-.06,0,0-.01,0-.01-.01,0-.02-.03-.06-.05-.08l-2.45-5.84c-.12-.27,0-.6.3-.71.27-.12.59,0,.71.29l1.95,4.63,1.95-4.63c.12-.28.45-.41.72-.29.28.11.41.44.3.71l-2.47,5.84s-.02.06-.04.08t0,.01s-.04.04-.05.06t-.02.03s-.04.03-.06.05h-.02s-.05.05-.08.06t-.02.01s-.05,0-.08.02h-.02s-.07,0-.1,0-.07,0-.1,0h-.02s-.06-.02-.08-.02c0-.01,0-.01,0-.01h-.01s-.06-.04-.09-.06h0Z"/>
        <path class="cls-5" d="M47.69,200.78c.01-1.36,1.07-2.5,2.44-2.5,1.3,0,2.33.97,2.41,2.32v.05s0,.07-.01.09c-.03.24-.24.4-.52.4h-3.18c.05.23.16.49.34.66.21.24.61.42.96.45.36.03.79-.06,1.04-.25.21-.22.62-.19.75-.03.13.14.23.44,0,.65-.49.45-1.08.66-1.79.66-1.37,0-2.43-1.14-2.44-2.5ZM48.78,200.29h2.83c-.1-.4-.61-.99-1.48-1.06-.85.04-1.27.65-1.35,1.06Z"/>
      </g>
      <g>
        <path class="cls-5" d="M56.8,198.81c0,.28-.23.53-.53.53-.23,0-.43.06-.6.19-.19.12-.34.29-.46.48-.24.32-.36.7-.41.84v1.9c0,.29-.25.53-.55.53s-.53-.24-.53-.53v-3.94c0-.29.24-.52.53-.52s.55.23.55.52v.07c.06-.07.14-.15.21-.2.33-.22.76-.4,1.26-.39.3,0,.53.23.53.52Z"/>
        <path class="cls-5" d="M58.53,196.28c.31,0,.56.25.56.55v5.9c0,.3-.25.55-.56.55s-.55-.25-.55-.55v-5.9c0-.3.25-.55.55-.55Z"/>
        <path class="cls-5" d="M61.29,197.03c0,.3-.23.55-.54.55s-.54-.25-.54-.55v-.21c0-.3.24-.54.54-.54s.54.24.54.54v.21ZM61.29,198.84v3.9c0,.3-.23.54-.54.54s-.54-.24-.54-.54v-3.9c0-.32.24-.55.54-.55s.54.23.54.55Z"/>
        <path class="cls-5" d="M62.46,200.78c.01-1.36,1.07-2.5,2.44-2.5,1.3,0,2.33.97,2.41,2.32v.05s0,.07-.01.09c-.03.24-.24.4-.52.4h-3.18c.05.23.16.49.34.66.21.24.61.42.96.45.36.03.79-.06,1.04-.25.21-.22.62-.19.75-.03.13.14.23.44,0,.65-.49.45-1.08.66-1.79.66-1.37,0-2.43-1.14-2.44-2.5ZM63.55,200.29h2.83c-.1-.4-.61-.99-1.48-1.06-.85.04-1.27.65-1.35,1.06Z"/>
      </g>
      <g>
        <path class="cls-5" d="M71.57,198.81c0,.28-.23.53-.53.53-.23,0-.43.06-.6.19-.19.12-.34.29-.46.48-.24.32-.36.7-.41.84v1.9c0,.29-.25.53-.55.53s-.53-.24-.53-.53v-3.94c0-.29.24-.52.53-.52s.55.23.55.52v.07c.06-.07.14-.15.21-.2.33-.22.76-.4,1.26-.39.3,0,.53.23.53.52Z"/>
        <path class="cls-5" d="M71.83,200.78c.01-1.36,1.07-2.5,2.44-2.5,1.3,0,2.33.97,2.41,2.32v.05s0,.07-.01.09c-.03.24-.24.4-.52.4h-3.18c.05.23.16.49.34.66.21.24.61.42.96.45.36.03.79-.06,1.04-.25.21-.22.62-.19.75-.03.13.14.23.44,0,.65-.49.45-1.08.66-1.79.66-1.37,0-2.43-1.14-2.44-2.5ZM72.92,200.29h2.83c-.1-.4-.61-.99-1.48-1.06-.85.04-1.27.65-1.35,1.06Z"/>
      </g>
      <g>
        <path class="cls-5" d="M80.94,198.81c0,.28-.23.53-.53.53-.23,0-.43.06-.6.19-.19.12-.34.29-.46.48-.24.32-.36.7-.41.84v1.9c0,.29-.25.53-.55.53s-.53-.24-.53-.53v-3.94c0-.29.24-.52.53-.52s.55.23.55.52v.07c.06-.07.14-.15.21-.2.33-.22.76-.4,1.26-.39.3,0,.53.23.53.52Z"/>
        <path class="cls-5" d="M89.03,200.35v2.4c0,.29-.24.53-.53.53s-.54-.24-.54-.53v-2.4c0-.55-.47-1-1.03-1s-1.01.46-1.01,1.03v2.37s0,.05,0,.07v.03s0,.04-.03.06v.05c-.09.18-.29.32-.5.32-.04,0-.07,0-.1,0-.24-.06-.43-.26-.43-.52v-2.37h0v-1.56c0-.31.24-.54.53-.54.21,0,.4.11.48.3.32-.19.69-.3,1.07-.3.63,0,1.19.26,1.57.69.37-.43.94-.69,1.57-.69,1.15,0,2.08.94,2.08,2.1v2.37c0,.29-.24.53-.53.53s-.54-.24-.54-.53v-2.37c0-.57-.46-1.03-1.01-1.03s-1.02.45-1.04,1Z"/>
        <path class="cls-5" d="M96.14,203.28c-1.14,0-2.08-.94-2.08-2.08v-2.39c0-.28.24-.53.53-.53s.53.25.53.53v2.39c0,.57.45,1.02,1.02,1.02s1.04-.45,1.05-1.02v-2.39c0-.28.22-.53.52-.53.28,0,.54.25.54.53v2.39c0,1.14-.96,2.08-2.11,2.08Z"/>
        <path class="cls-5" d="M99.85,201.85c.18-.24.53-.27.75-.08.26.22.71.45,1.1.44.27,0,.52-.09.68-.19.14-.12.18-.22.18-.3,0-.05-.01-.07-.03-.1,0-.03-.05-.07-.13-.12-.14-.1-.44-.21-.8-.28h0c-.31-.06-.61-.14-.87-.26-.27-.13-.51-.31-.69-.58-.11-.18-.17-.4-.17-.63,0-.46.26-.85.59-1.1.35-.24.77-.37,1.23-.37.69,0,1.18.33,1.5.55.24.16.31.49.16.74-.16.24-.49.31-.74.14-.32-.21-.6-.37-.92-.37-.25,0-.47.08-.6.18-.13.09-.16.18-.16.23,0,.04,0,.05.02.08,0,.02.04.06.11.1.13.09.39.18.73.24h.01s0,.01,0,.01c.33.06.64.15.93.29.27.12.54.31.71.59.12.2.19.43.19.66,0,.49-.27.9-.63,1.16-.36.25-.81.4-1.3.4-.78,0-1.38-.37-1.78-.69-.22-.18-.25-.52-.07-.74Z"/>
        <path class="cls-5" d="M104.57,201.85c.18-.24.53-.27.75-.08.26.22.71.45,1.1.44.27,0,.52-.09.68-.19.14-.12.18-.22.18-.3,0-.05-.01-.07-.03-.1,0-.03-.05-.07-.13-.12-.14-.1-.44-.21-.8-.28h0c-.31-.06-.61-.14-.87-.26-.27-.13-.51-.31-.69-.58-.11-.18-.17-.4-.17-.63,0-.46.26-.85.59-1.1.35-.24.77-.37,1.23-.37.69,0,1.18.33,1.5.55.24.16.31.49.16.74-.16.24-.49.31-.74.14-.32-.21-.6-.37-.92-.37-.25,0-.47.08-.6.18-.13.09-.16.18-.16.23,0,.04,0,.05.02.08,0,.02.04.06.11.1.13.09.39.18.73.24h.01s0,.01,0,.01c.33.06.64.15.93.29.27.12.54.31.71.59.12.2.19.43.19.66,0,.49-.27.9-.63,1.16-.36.25-.81.4-1.3.4-.78,0-1.38-.37-1.78-.69-.22-.18-.25-.52-.07-.74Z"/>
        <path class="cls-5" d="M114.58,198.83c0,.3-.26.55-.56.55h-.25v2.79c.31,0,.55.25.55.56s-.24.55-.55.55c-.61,0-1.11-.5-1.11-1.11v-2.79h-.29c-.31,0-.55-.25-.55-.55s.24-.55.55-.55h.29v-1.45c0-.31.25-.55.56-.55s.55.24.55.55v1.45h.25c.3,0,.56.24.56.55Z"/>
      </g>
      <g>
        <path class="cls-5" d="M118.4,198.81c0,.28-.23.53-.53.53-.23,0-.43.06-.6.19-.19.12-.34.29-.46.48-.24.32-.36.7-.41.84v1.9c0,.29-.25.53-.55.53s-.53-.24-.53-.53v-3.94c0-.29.24-.52.53-.52s.55.23.55.52v.07c.06-.07.14-.15.21-.2.33-.22.76-.4,1.26-.39.3,0,.53.23.53.52Z"/>
        <path class="cls-5" d="M120.6,197.03c0,.3-.23.55-.54.55s-.54-.25-.54-.55v-.21c0-.3.24-.54.54-.54s.54.24.54.54v.21ZM120.6,198.84v3.9c0,.3-.23.54-.54.54s-.54-.24-.54-.54v-3.9c0-.32.24-.55.54-.55s.54.23.54.55Z"/>
        <path class="cls-5" d="M126.29,200.36v2.39c0,.29-.23.53-.52.53s-.53-.24-.53-.53v-2.39c0-.56-.47-1.01-1.04-1.01s-1,.45-1,1.01v2.39s0,.06-.02.1c-.05.24-.27.43-.53.43-.3,0-.53-.24-.53-.53v-3.94c0-.29.23-.53.53-.53.21,0,.4.12.49.31.3-.19.67-.31,1.06-.31,1.16,0,2.09.95,2.09,2.08Z"/>
        <path class="cls-5" d="M128.05,202.73v-5.9c0-.3.24-.55.55-.55s.56.25.56.55v3.46l2.05-2.05c.21-.21.57-.21.78,0s.22.57,0,.78l-1.5,1.5,1.54,1.85c.19.24.16.59-.08.78-.1.09-.23.13-.35.13-.16,0-.32-.07-.42-.2l-1.47-1.78-.55.55v.88c0,.3-.25.55-.56.55s-.55-.25-.55-.55Z"/>
      </g>
      <g>
        <path class="cls-5" d="M132.85,200.78c0-1.36,1.07-2.5,2.44-2.5,1.3,0,2.33.97,2.41,2.32v.05s0,.07,0,.09c-.03.24-.24.4-.52.4h-3.18c.05.23.16.49.34.66.21.24.61.42.96.45.36.03.79-.06,1.04-.25.21-.22.62-.19.75-.03.13.14.23.44,0,.65-.49.45-1.08.66-1.79.66-1.37,0-2.43-1.14-2.44-2.5ZM133.94,200.29h2.83c-.1-.4-.61-.99-1.48-1.06-.85.04-1.27.65-1.35,1.06Z"/>
        <path class="cls-5" d="M143.26,200.36v2.39c0,.29-.23.53-.52.53s-.53-.24-.53-.53v-2.39c0-.56-.47-1.01-1.04-1.01s-1,.45-1,1.01v2.39s0,.06-.02.1c-.05.24-.27.43-.53.43-.3,0-.53-.24-.53-.53v-3.94c0-.29.23-.53.53-.53.21,0,.4.12.49.31.3-.19.67-.31,1.06-.31,1.16,0,2.09.95,2.09,2.08Z"/>
        <path class="cls-5" d="M145.65,201.86c.41,0,.75.34.75.75s-.34.74-.75.74-.74-.33-.74-.74.33-.75.74-.75Z"/>
      </g>
    </g>
  </g>
</svg>