<?xml version="1.0" encoding="UTF-8"?>
<svg xmlns="http://www.w3.org/2000/svg" viewBox="0 0 167.24 260.79">
  <defs>
    <style>
      .cls-1 {
        fill: #010101;
      }

      .cls-2 {
        fill: #171717;
      }

      .cls-3 {
        stroke: #fff;
        stroke-miterlimit: 10;
        stroke-width: .15px;
      }

      .cls-3, .cls-4 {
        fill: #fff;
      }

      .cls-5 {
        fill: #171715;
      }

      .cls-6 {
        fill: #0a90ce;
      }
    </style>
  </defs>
  <g id="Background">
    <rect class="cls-6" width="167.24" height="260.79"/>
  </g>
  <g id="Rahmen">
    <path class="cls-1" d="M151.9,23.16c9.65,0,9.67-15,0-15s-9.67,15,0,15h0Z"/>
    <path class="cls-1" d="M152.22,254.59c9.65,0,9.67-15,0-15s-9.67,15,0,15h0Z"/>
    <path class="cls-1" d="M14.14,254.72c9.65,0,9.67-15,0-15s-9.67,15,0,15h0Z"/>
    <path class="cls-2" d="M11.56,15.67c18.49.32,36.98.69,55.46,1.04,19.51.36,39.05-.42,58.56-.82,10.18-.21,20.36-.38,30.54-.21l-3.75-3.75c-1.46,11.81-1.7,23.8-1.97,35.69-.33,14.15-.39,28.31-.37,42.46.01,9.3.14,18.61.07,27.91-.06,7.86-.43,15.71-.48,23.57-.07,11.29.08,22.59.37,33.88.56,22.38,1.59,44.74,2.18,67.12.07,2.79.14,5.57.2,8.36l3.75-3.75c-15.41-.13-30.81.06-46.22.48-24.85.69-49.67.84-74.52.24-8.25-.2-16.49-.49-24.74-.73l3.75,3.75c-.56-4.87-.34-9.89-.27-14.78.11-8.38.38-16.76.66-25.14.66-20.11,1.45-40.22,1.83-60.34.16-8.4.26-16.81.05-25.21-.13-5.24-.51-10.46-.61-15.7-.33-17.03-.19-34.08-.18-51.11,0-8.91,0-17.82-.06-26.73-.04-5.94-.04-11.89-.34-17.82-.04-.72-.08-1.43-.15-2.15-.19-1.95-1.59-3.85-3.75-3.75-1.87.08-3.96,1.66-3.75,3.75.48,4.83.39,9.76.44,14.61.09,8.42.1,16.84.11,25.25,0,17.78-.1,35.55.11,53.33.06,5.22.27,10.41.52,15.62.36,7.73.31,15.47.21,23.21-.24,20.03-1.02,40.04-1.7,60.06-.3,8.95-.6,17.9-.79,26.85-.13,5.9-.3,11.84,0,17.74.04.78.09,1.55.18,2.32.24,2.06,1.53,3.69,3.75,3.75,18.27.53,36.53,1.09,54.81,1.16,23.38.09,46.73-.97,70.1-1.19,6.85-.06,13.71-.03,20.56.02,2,.02,3.79-1.73,3.75-3.75-.48-22.44-1.5-44.87-2.16-67.3-.33-11.25-.57-22.51-.6-33.77-.03-10.16.25-20.29.47-30.44.18-8.23-.03-16.48-.05-24.72-.03-13.94,0-27.88.25-41.82.23-12.54.48-25.14,1.72-37.62.11-1.1.23-2.21.37-3.31.25-2.04-1.92-3.72-3.75-3.75-19.14-.32-38.3.42-57.44.81-9.78.2-19.58.45-29.37.27-7.76-.14-15.52-.3-23.28-.45-11.49-.22-22.99-.44-34.48-.63-1.96-.03-3.84,1.75-3.75,3.75s1.65,3.71,3.75,3.75h0Z"/>
    <polygon class="cls-2" points="26.61 14.43 14.5 29.16 14.18 13.04 26.61 14.43"/>
    <polygon class="cls-2" points="140.79 14.16 152.35 27.66 154.57 11.89 140.79 14.16"/>
    <polygon class="cls-2" points="139.48 248.15 153.14 235.93 156.07 248.65 139.48 248.15"/>
    <polygon class="cls-2" points="12.9 235.54 26.24 248.54 12.31 249.36 12.9 235.54"/>
    <rect class="cls-2" width="10.32" height="260.79"/>
    <rect class="cls-2" y="249.36" width="167.24" height="11.43"/>
    <rect class="cls-5" width="167.24" height="10.33"/>
    <rect class="cls-2" x="156.12" width="11.13" height="260.79"/>
    <path class="cls-2" d="M122.85,17.19c0-.85.35-3.85,0-4.78-.94-2.49-3.57-2.81-6.15-2.81H50.54c-2.58,0-5.21.32-6.15,2.81-.35.93,0,3.93,0,4.78l-.28,5.71c-.56,5.31,8.78,4.59,12.32,4.59l20.37.37,6.82-.07h0l6.82.07,20.37-.37c3.54,0,12.88.72,12.32-4.59l-.28-5.71Z"/>
  </g>
  <g id="Kategorie_Name" data-name="Kategorie Name">
    <g>
      <path class="cls-6" d="M54.66,17.33c-.03.09-.09.28-.17.57s-.19.64-.31,1.04-.25.81-.38,1.25-.25.84-.35,1.2-.23.79-.38,1.27c-.05.05-.19.09-.41.11-.22.02-.46.02-.73.02s-.53-.02-.77-.03c-.25-.02-.41-.02-.5-.02h-.33c-.16,0-.33,0-.5,0-.18,0-.34-.01-.48-.02-.15-.01-.23-.02-.26-.03-.12-.05-.18-.15-.18-.29s0-.27.01-.39c.28-3.61.6-7.22.95-10.84,0-.08.02-.14.06-.18.03-.03.15-.05.38-.07.22-.01.46-.01.73,0s.53.02.77.03c.24.01.41.02.49.02.05,0,.11,0,.19,0,.08,0,.15,0,.22,0,.07,0,.13.02.19.06.05.03.09.08.11.15s.02.23,0,.51c-.03.27-.06.6-.1,1-.04.39-.09.81-.14,1.26-.06.45-.11.87-.16,1.28-.05.41-.1.77-.14,1.09-.04.32-.06.53-.07.65.03-.09.07-.23.13-.44s.13-.44.22-.7c.08-.26.18-.53.28-.82.1-.28.2-.54.29-.79.09-.24.19-.44.28-.6.09-.16.17-.26.23-.28,0,0,.11,0,.29,0,.19,0,.4-.01.63-.02s.46,0,.66,0h.4s.09,0,.14,0c.04,0,.08.02.12.04.03.01.08.12.14.32s.14.45.22.74c.08.29.17.61.26.96.1.35.18.68.26,1,.08.32.15.59.21.83s.1.4.12.49c-.03-.76-.07-1.52-.13-2.27-.05-.75-.11-1.51-.16-2.27-.02-.33-.05-.66-.08-1.01-.04-.34-.05-.67-.05-.99,0-.13.05-.2.16-.21s.2-.02.29-.02c.44,0,.89.02,1.33.07.45.05.89.04,1.32-.04.05-.01.12-.03.22-.07.09-.03.16-.04.2-.02.08.02.13.1.15.23s.03.23.04.31c0,.13.02.39.02.78s0,.85,0,1.4c0,.55-.01,1.14-.02,1.8,0,.65-.02,1.31-.04,1.97-.01.66-.03,1.3-.04,1.93-.01.63-.03,1.19-.04,1.68s-.03.89-.05,1.19c-.02.3-.04.46-.05.48-.02.02-.13.04-.32.06-.19.02-.44.03-.72.03-.28,0-.59,0-.93,0s-.65,0-.95,0c-.3,0-.56-.01-.79-.02s-.37-.02-.44-.03c-.12-.01-.22-.06-.29-.16-.04-.04-.09-.19-.15-.43s-.13-.53-.21-.86-.16-.69-.24-1.09c-.08-.39-.16-.77-.24-1.13s-.15-.69-.22-.98c-.07-.29-.12-.51-.16-.64Z"/>
      <path class="cls-6" d="M64.24,21.16c-.01.07-.02.17-.03.31s-.02.29-.04.44c-.01.15-.04.29-.06.42s-.05.21-.08.25c-.03.03-.15.06-.36.07-.21.02-.44.03-.7.03s-.5,0-.73,0h-.45c-.18,0-.32-.02-.42-.05s-.12-.17-.08-.41c.03-.15.08-.42.15-.81.07-.39.15-.85.24-1.39.09-.54.19-1.13.31-1.77.11-.64.23-1.28.35-1.92.11-.64.23-1.27.34-1.87.11-.6.21-1.14.31-1.62.1-.47.18-.86.25-1.15s.12-.45.15-.47c.02-.01.06-.02.12-.02s.13,0,.2,0,.15,0,.22,0c.07,0,.12,0,.15,0,.63.02,1.24,0,1.83-.07.59-.07,1.2-.13,1.83-.18.1-.01.19.02.26.08.07.07.12.15.17.25.04.1.07.2.1.32s.05.22.07.3c.17.75.3,1.5.38,2.26.08.75.17,1.5.25,2.26.09.86.17,1.74.23,2.64.06.9.18,1.77.35,2.62,0,.05.02.13.04.21s.03.18.04.28c0,.1,0,.19,0,.27,0,.08-.04.14-.1.17-.03.02-.12.04-.28.05-.16.01-.36.02-.58.02-.23,0-.48,0-.75,0s-.52,0-.76,0c-.23,0-.44-.01-.61-.02-.18,0-.28-.01-.32-.02-.1-.02-.16-.07-.17-.15-.05-.21-.07-.43-.07-.65,0-.23,0-.45-.02-.67-.28-.03-.56-.05-.85-.04-.28,0-.57,0-.85,0ZM65.5,14.04c-.17.82-.33,1.63-.47,2.43s-.29,1.61-.43,2.43c.2-.02.4-.04.61-.05s.42,0,.62.02c-.04-.81-.09-1.61-.16-2.41-.06-.8-.12-1.6-.17-2.41Z"/>
      <path class="cls-6" d="M75.46,15.12v-1.32c0-.32,0-.66,0-1.01,0-.35,0-.68,0-.97v-.73c0-.19,0-.29.02-.3.05-.07.18-.12.4-.16.21-.04.45-.07.71-.08.25-.02.5-.03.73-.03.23,0,.4,0,.49,0,.06,0,.14,0,.24,0,.1,0,.2.01.31.02s.2.03.29.06c.09.03.15.06.18.11.03.04.04.09.04.13v.13c-.05.92-.08,1.83-.1,2.75-.02.92-.02,1.84-.02,2.76v2.75c0,.92,0,1.83-.02,2.75,0,.06,0,.14,0,.22,0,.08,0,.15,0,.2-.02.11-.16.18-.43.21-.26.03-.57.05-.91.05s-.67,0-.98-.02c-.31-.02-.53-.02-.64-.02-.07,0-.12-.02-.17-.07-.04-.05-.07-.11-.09-.18-.02-.07-.04-.14-.04-.22-.01-.08-.02-.14-.02-.2-.03-.72-.02-1.43.02-2.14.04-.71.03-1.42-.02-2.14-.54-.07-1.08-.08-1.62-.05,0,.1-.02.29-.03.56-.01.28-.02.6-.04.96-.02.36-.04.74-.06,1.14-.02.4-.05.77-.07,1.1s-.04.62-.08.84c-.03.22-.06.35-.07.37-.02.02-.05.03-.08.02-.04,0-.07,0-.1,0-.45-.07-.91-.08-1.37-.05-.46.03-.92.04-1.37.02-.06,0-.12,0-.17-.02-.06-.01-.09-.06-.1-.15-.03-.32-.03-.66,0-1.04.03-.38.05-.73.06-1.05.02-.73.03-1.46.03-2.18v-2.18c0-.46,0-.91-.02-1.36-.01-.45-.02-.9-.04-1.36,0-.08,0-.14,0-.19,0-.05.04-.08.11-.11.27-.02.5-.04.7-.06.2-.02.42-.03.65-.05.23-.02.46-.03.67-.05.21-.02.4-.03.55-.04.16-.01.27-.02.31-.02s.1,0,.15.02c.05.01.09.04.12.08.04.05.07.19.09.42.02.22.03.47.04.73,0,.26.02.51.02.75v.51c.29-.03.57-.05.85-.07.28-.01.56-.02.85-.03Z"/>
      <path class="cls-6" d="M86.29,23.36c-.07.1-.15.11-.24.03-.74-1.35-1.57-2.67-2.48-3.94,0,.15.03.41.06.78.03.37.05.74.05,1.13,0,.39-.01.74-.06,1.06-.05.32-.13.51-.26.56-.09.03-.24.06-.46.09-.22.03-.46.04-.73.05s-.55,0-.84-.02c-.29-.02-.56-.05-.79-.09-.24-.04-.44-.1-.59-.18-.16-.08-.23-.17-.23-.29,0-.38.02-.77.07-1.15s.08-.77.1-1.15c.1-1.61.17-3.23.23-4.86.02-.63.03-1.26.03-1.88s0-1.25-.03-1.88c-.01-.12,0-.23,0-.34.02-.11.08-.19.2-.23.08-.03.26-.06.53-.09s.56-.04.87-.05c.31,0,.58,0,.84.02.26.02.41.06.46.12.01.02.02.07.04.14.02.07.03.15.04.23.02.08.03.16.04.24s.02.13.02.16c.64-.46,1.22-.73,1.75-.82.52-.09.99-.04,1.4.13.4.17.74.46,1.02.85.27.39.49.84.64,1.35s.23,1.05.26,1.62c.02.57-.03,1.12-.14,1.65-.12.53-.3,1.02-.55,1.46s-.57.8-.96,1.05c.28.46.6.9.97,1.32.36.42.67.83.92,1.22.05.09.08.16.1.22s0,.13-.08.22c-.03.03-.15.11-.35.24-.21.13-.43.26-.68.41-.25.15-.49.28-.71.4-.23.12-.37.2-.44.23ZM83.43,16.38c.43.15.78.16,1.04.03.26-.13.45-.32.56-.57.11-.25.15-.53.13-.83s-.11-.55-.26-.74c-.15-.2-.35-.3-.61-.33-.26-.02-.56.12-.92.44.02.34.03.67.04,1,0,.33.01.66.02,1Z"/>
      <path class="cls-6" d="M94.39,15.12v-1.32c0-.32,0-.66,0-1.01,0-.35,0-.68,0-.97v-.73c0-.19,0-.29.02-.3.05-.07.18-.12.4-.16.21-.04.45-.07.71-.08.25-.02.5-.03.73-.03.23,0,.4,0,.49,0,.06,0,.14,0,.24,0,.1,0,.2.01.31.02s.2.03.29.06c.09.03.15.06.18.11.03.04.04.09.04.13v.13c-.05.92-.08,1.83-.1,2.75-.02.92-.02,1.84-.02,2.76v2.75c0,.92,0,1.83-.02,2.75,0,.06,0,.14,0,.22,0,.08,0,.15,0,.2-.02.11-.16.18-.43.21-.26.03-.57.05-.91.05s-.67,0-.98-.02c-.31-.02-.53-.02-.64-.02-.07,0-.12-.02-.17-.07-.04-.05-.07-.11-.09-.18-.02-.07-.04-.14-.04-.22-.01-.08-.02-.14-.02-.2-.03-.72-.02-1.43.02-2.14.04-.71.03-1.42-.02-2.14-.54-.07-1.08-.08-1.62-.05,0,.1-.02.29-.03.56-.01.28-.02.6-.04.96-.02.36-.04.74-.06,1.14-.02.4-.05.77-.07,1.1s-.04.62-.08.84c-.03.22-.06.35-.07.37-.02.02-.05.03-.08.02-.04,0-.07,0-.1,0-.45-.07-.91-.08-1.37-.05-.46.03-.92.04-1.37.02-.06,0-.12,0-.17-.02-.06-.01-.09-.06-.1-.15-.03-.32-.03-.66,0-1.04.03-.38.05-.73.06-1.05.02-.73.03-1.46.03-2.18v-2.18c0-.46,0-.91-.02-1.36-.01-.45-.02-.9-.04-1.36,0-.08,0-.14,0-.19,0-.05.04-.08.11-.11.27-.02.5-.04.7-.06.2-.02.42-.03.65-.05.23-.02.46-.03.67-.05.21-.02.4-.03.55-.04.16-.01.27-.02.31-.02s.1,0,.15.02c.05.01.09.04.12.08.04.05.07.19.09.42.02.22.03.47.04.73,0,.26.02.51.02.75v.51c.29-.03.57-.05.85-.07.28-.01.56-.02.85-.03Z"/>
      <path class="cls-6" d="M105.16,22.64s-.2.05-.48.07c-.28.03-.62.05-1.02.08-.4.03-.84.05-1.31.08-.47.03-.92.05-1.35.07-.43.02-.8.02-1.12.02s-.54,0-.65-.02c-.12-.02-.21-.08-.26-.16-.06-.09-.08-.19-.08-.31,0-.25,0-.7-.02-1.34-.01-.64-.02-1.38-.02-2.2,0-.82,0-1.68,0-2.58s0-1.74.03-2.51.05-1.43.1-1.98.11-.87.19-.98c.06-.08.15-.14.28-.18.05-.01.23-.02.53-.02s.66,0,1.09,0c.42,0,.88.02,1.36.03.48.02.94.03,1.37.05.43.02.8.03,1.12.05.31.02.51.03.58.04.07.01.12.05.15.11.03.06.04.13.04.21s0,.17-.02.25c-.02.09-.03.16-.04.21-.01.07-.02.21-.03.43-.01.22-.02.46-.04.7s-.04.47-.07.67c-.03.2-.07.31-.1.33-.05.03-.13.05-.23.06-.1,0-.19,0-.26,0-.48.02-.96.02-1.44-.02s-.96-.05-1.44-.07c-.03.23-.06.46-.08.68-.03.22-.05.45-.07.68.19-.01.43-.03.71-.07.28-.03.58-.06.88-.09.3-.03.58-.05.85-.06s.49,0,.66.02c.14.02.22.1.23.25.01.14.02.27.02.39,0,.09,0,.26.01.51.01.25.02.51.02.78s0,.51,0,.74c0,.23-.02.37-.05.41-.05.09-.23.15-.55.18s-.67.05-1.05.06c-.39,0-.75,0-1.1-.02-.35-.02-.58-.02-.71-.02v1.83c.4,0,.77,0,1.15-.02s.76-.03,1.14-.05c.13-.01.26-.03.4-.05s.27-.03.4-.03c.08,0,.14.01.17.03s.06.07.09.15c.03.07.05.22.06.47,0,.25.02.51.02.78s0,.54,0,.79c-.01.25-.02.43-.03.52Z"/>
      <path class="cls-6" d="M108.27,22.73c-.09,0-.23,0-.41,0-.19,0-.38,0-.57,0-.19-.01-.37-.04-.52-.09-.15-.05-.23-.13-.24-.24-.01-.08-.02-.29-.02-.63s0-.77,0-1.28c0-.51,0-1.09.01-1.72s.01-1.29.02-1.95c.01-.66.02-1.31.03-1.94,0-.63.02-1.2.03-1.69,0-.5.02-.9.04-1.23.02-.32.03-.5.04-.53,0-.05.04-.09.1-.11.06-.02.13-.04.2-.05.07-.01.15-.02.22-.02h.19c.06,0,.22,0,.49-.02.26-.01.54-.02.84-.02s.56-.01.8-.02c.24,0,.37,0,.39,0,.02.01.04.03.05.07s.03.06.04.08c.02.07.03.22.03.47v.87c0,.33,0,.7-.02,1.09,0,.39-.02.77-.03,1.13-.01.36-.02.68-.02.97,0,.29,0,.5,0,.63,0,.71,0,1.41.01,2.12,0,.7.02,1.41.04,2.12.01.25.03.52.05.81.02.29.03.56,0,.81,0,.09-.03.15-.07.19s-.09.07-.17.09c-.22.05-.48.08-.79.09-.31,0-.57,0-.8,0Z"/>
      <path class="cls-6" d="M116.22,22.95c0,.1-.07.17-.22.23-.15.05-.33.09-.54.11-.22.02-.46.02-.72,0-.27-.01-.52-.02-.75-.04-.24-.02-.45-.04-.63-.07-.19-.03-.31-.05-.37-.06-.05.02-.1.02-.14,0-.04-.02-.08-.05-.1-.11l.1-2.04c.04-1.18.09-2.35.16-3.52.06-1.17.11-2.34.13-3.52-.07,0-.22,0-.45-.02s-.48-.02-.73-.03c-.26-.01-.5-.02-.71-.04-.22-.02-.34-.04-.37-.06-.04-.03-.07-.09-.09-.18-.02-.09-.04-.18-.04-.29-.01-.1-.02-.2-.02-.29v-.22c0-.08,0-.22,0-.43,0-.21,0-.42,0-.65,0-.22.01-.43.03-.61.02-.19.05-.3.1-.34l.21-.02c.78-.02,1.57-.01,2.36.03s1.59.06,2.38.05c.08,0,.27,0,.56-.02.29-.02.59-.03.91-.04.31-.01.6-.02.85-.02.25,0,.38,0,.39.02.02.04.04.11.05.19.01.08.03.15.04.2,0,.07.02.24.02.52v.88c0,.31,0,.6,0,.86,0,.26-.01.41-.02.44-.02.08-.14.13-.35.16-.22.03-.46.04-.72.04s-.52,0-.77-.02c-.25-.01-.42-.02-.51-.02v8.89Z"/>
    </g>
  </g>
  <g id="Schlücke">
    <g>
      <path class="cls-3" d="M9.42,250.32s0,.17,0,.37c0,.2,0,.41-.01.64,0,.23-.01.43-.02.61,0,.18-.01.27-.01.28-.03.08-.13.14-.31.17-.17.03-.36.05-.58.06s-.42,0-.62,0c-.2,0-.34-.01-.42-.01-.04,0-.09,0-.15,0-.06,0-.12,0-.18,0s-.12,0-.17-.02c-.05-.02-.09-.04-.1-.08,0-.02-.01-.07-.01-.16s0-.21,0-.35c0-.14.01-.29.02-.45,0-.16.01-.31.02-.46,0-.15,0-.28.01-.39,0-.11,0-.19,0-.24-.07,0-.21,0-.43.01-.21,0-.43.01-.67.02-.23,0-.44,0-.64,0-.19,0-.31-.02-.35-.04-.06-.03-.11-.09-.13-.17,0-.03-.01-.15-.01-.34s0-.41.01-.65c0-.24.02-.46.03-.66.01-.2.02-.33.03-.39.02-.11.07-.19.16-.24.04-.02.15-.04.33-.05.18-.01.38-.02.59-.03s.42-.01.61-.02c.2,0,.33,0,.4,0,0-.07,0-.2-.02-.38-.02-.18-.03-.37-.04-.56s-.01-.37-.02-.53c0-.16,0-.27.03-.31.04-.07.1-.12.17-.14.02,0,.13-.01.33-.02.2,0,.41,0,.65,0,.24,0,.46,0,.67.01.21,0,.34.01.39.02.05,0,.09.02.14.04.04.02.08.05.1.1.02.06.05.17.07.34s.04.35.05.55c.01.2.02.38.04.56.01.18.02.31.02.39.12,0,.26,0,.41,0,.16,0,.31,0,.47.01.16,0,.32.01.47.02.15.01.28.03.4.05.06.05.11.09.14.13.03.04.05.1.05.19v.63c0,.16,0,.32,0,.5,0,.18,0,.34-.01.49,0,.15,0,.27-.01.37s-.01.15-.02.16c-.02.04-.12.06-.3.06s-.37,0-.58-.02-.42-.03-.61-.05c-.2-.02-.33-.03-.39-.03Z"/>
      <path class="cls-3" d="M16.67,247.92c.5.13.89.37,1.16.74.27.36.41.77.44,1.21.02.44-.07.89-.29,1.34-.22.45-.56.83-1.02,1.15s-1.05.51-1.76.61-1.54,0-2.49-.27c-.06-.02-.15-.04-.25-.06-.1-.02-.19-.06-.28-.1s-.15-.09-.2-.15c-.05-.06-.05-.14-.01-.23.08-.2.15-.4.2-.61.05-.21.09-.42.1-.62,0-.06.01-.15.01-.25s.03-.18.1-.22c.02,0,.08,0,.19.02.11.02.24.05.4.08.16.03.34.06.54.08.2.02.4.02.59,0,.2-.02.38-.08.56-.16s.33-.21.46-.38c.08-.1.13-.21.14-.33.02-.12,0-.23-.03-.34-.04-.11-.1-.21-.18-.29-.08-.09-.19-.16-.31-.2-.1-.03-.2-.05-.32-.06-.12,0-.24,0-.37,0-.12.01-.25.03-.37.04-.12.02-.23.03-.34.04h-.15c-.06,0-.1-.03-.11-.08.04-.21.08-.46.11-.76.03-.3.03-.55,0-.76.02-.04.13-.07.33-.09.2-.02.41-.06.65-.11.24-.05.45-.14.65-.25.2-.12.32-.29.36-.51.03-.18-.01-.33-.13-.47-.12-.14-.26-.23-.42-.28-.21-.06-.45-.06-.73.02-.28.08-.54.16-.79.25s-.47.14-.64.16c-.18.02-.26-.06-.26-.23v-.84c0-.18,0-.34,0-.49,0-.15.01-.24.03-.27.04-.09.11-.15.2-.18.78-.27,1.49-.4,2.12-.38.63.02,1.17.13,1.61.33.45.2.8.48,1.07.82.26.34.42.7.47,1.08.05.38,0,.75-.18,1.12-.17.36-.47.67-.88.92Z"/>
    </g>
    <g>
      <path class="cls-3" d="M152.7,17.28s0,.17,0,.37c0,.2,0,.41-.01.64,0,.23-.01.43-.02.61,0,.18-.01.27-.01.28-.03.08-.13.14-.31.17-.17.03-.36.05-.58.06s-.42,0-.62,0c-.2,0-.34-.01-.42-.01-.04,0-.09,0-.15,0-.06,0-.12,0-.18,0s-.12,0-.17-.02c-.05-.02-.09-.04-.1-.08,0-.02-.01-.07-.01-.16s0-.21,0-.35c0-.14.01-.29.02-.45,0-.16.01-.31.02-.46,0-.15,0-.28.01-.39,0-.11,0-.19,0-.24-.07,0-.21,0-.43.01-.21,0-.43.01-.67.02-.23,0-.44,0-.64,0-.19,0-.31-.02-.35-.04-.06-.03-.11-.09-.13-.17,0-.03-.01-.15-.01-.34s0-.41.01-.65c0-.24.02-.46.03-.66.01-.2.02-.33.03-.39.02-.11.07-.19.16-.24.04-.02.15-.04.33-.05.18-.01.38-.02.59-.03s.42-.01.61-.02c.2,0,.33,0,.4,0,0-.07,0-.2-.02-.38-.02-.18-.03-.37-.04-.56s-.01-.37-.02-.53c0-.16,0-.27.03-.31.04-.07.1-.12.17-.14.02,0,.13-.01.33-.02.2,0,.41,0,.65,0,.24,0,.46,0,.67.01.21,0,.34.01.39.02.05,0,.09.02.14.04.04.02.08.05.1.1.02.06.05.17.07.34s.04.35.05.55c.01.2.02.38.04.56.01.18.02.31.02.39.12,0,.26,0,.41,0,.16,0,.31,0,.47.01.16,0,.32.01.47.02.15.01.28.03.4.05.06.05.11.09.14.13.03.04.05.1.05.19v.63c0,.16,0,.32,0,.5,0,.18,0,.34-.01.49,0,.15,0,.27-.01.37s-.01.15-.02.16c-.02.04-.12.06-.3.06s-.37,0-.58-.02-.42-.03-.61-.05c-.2-.02-.33-.03-.39-.03Z"/>
      <path class="cls-3" d="M159.94,14.88c.5.13.89.37,1.16.74.27.36.41.77.44,1.21.02.44-.07.89-.29,1.34-.22.45-.56.83-1.02,1.15s-1.05.51-1.76.61-1.54,0-2.49-.27c-.06-.02-.15-.04-.25-.06-.1-.02-.19-.06-.28-.1s-.15-.09-.2-.15c-.05-.06-.05-.14-.01-.23.08-.2.15-.4.2-.61.05-.21.09-.42.1-.62,0-.06.01-.15.01-.25s.03-.18.1-.22c.02,0,.08,0,.19.02.11.02.24.05.4.08.16.03.34.06.54.08.2.02.4.02.59,0,.2-.02.38-.08.56-.16s.33-.21.46-.38c.08-.1.13-.21.14-.33.02-.12,0-.23-.03-.34-.04-.11-.1-.21-.18-.29-.08-.09-.19-.16-.31-.2-.1-.03-.2-.05-.32-.06-.12,0-.24,0-.37,0-.12.01-.25.03-.37.04-.12.02-.23.03-.34.04h-.15c-.06,0-.1-.03-.11-.08.04-.21.08-.46.11-.76.03-.3.03-.55,0-.76.02-.04.13-.07.33-.09.2-.02.41-.06.65-.11.24-.05.45-.14.65-.25.2-.12.32-.29.36-.51.03-.18-.01-.33-.13-.47-.12-.14-.26-.23-.42-.28-.21-.06-.45-.06-.73.02-.28.08-.54.16-.79.25s-.47.14-.64.16c-.18.02-.26-.06-.26-.23v-.84c0-.18,0-.34,0-.49,0-.15.01-.24.03-.27.04-.09.11-.15.2-.18.78-.27,1.49-.4,2.12-.38.63.02,1.17.13,1.61.33.45.2.8.48,1.07.82.26.34.42.7.47,1.08.05.38,0,.75-.18,1.12-.17.36-.47.67-.88.92Z"/>
    </g>
  </g>
  <g id="Motive">
    <g>
      <path class="cls-2" d="M53.31,118.61c5.47-2.81,7.83-3.7-1.03-6.36,1.63-.15,11.09,3.1,14.04-.44,2.51-1.77-9.61-3.99-10.35-5.76,2.36,1.48,12.71,6.06,14.63,1.92-.3-1.48-1.77-4.29-6.95-5.76,1.48.59,4.58.3,5.76-.89-.44-1.33-6.21-4.88-6.8-9.46,1.92,2.66,4.29,7.24,7.24,8.13,0,0,.89-2.22,4.14-3.1-2.96,0-5.91-1.77-6.36-3.25,2.07,3.4,9.46,1.63,12.56,4.43,0,0-.59-1.92,1.48-4.43.15-.59-1.18-1.63-.44-1.92.3.3.3,1.33,1.18,1.18,1.92-.74,3.7-3.25,2.51-5.62.89.44,1.03,2.51,1.18,3.7,1.18,0,3.25-.15,5.47,1.92.44-.3.3-1.03.74-1.33.44,1.48.44,4.58,2.51,4.43,1.63,0,3.7-3.55,3.99-5.03-.15,3.4,1.77,2.96,2.36,3.1,1.48-.15,3.1-5.03,3.84-5.03-.3.59-.3,2.51-.15,3.55,1.63.3,5.76-1.63,6.65-2.51-.15.74-.44,1.03-.3,1.92,1.48.3,9.9-3.7,11.82-7.83-2.22-1.03-3.99-2.22-5.76-2.81-1.03.89-1.03,4.58-2.36,4.29.59-.89,2.07-3.99.89-5.03-5.62-3.84-2.81,2.96-3.4,3.55,0-1.18-2.51-8.13-4.88-7.54-.44.59-1.33-3.4-2.96,5.32.15-1.48,1.92-7.24-6.65-9.61-.44,2.22,2.51,8.87,1.77,10.35-.3-2.81-2.51-9.61-3.99-11.38-3.25-1.33-9.02-3.7-11.53-2.81-2.96.74,4.43,7.39,2.36,10.05.44-3.84-4.14-7.98-7.24-7.98-6.36,3.25-1.18,9.31-2.22,12.27-.59-3.55-2.36-4.29-2.07-8.43-1.63,1.18-1.77,3.25-3.55,4.88-.89.3-1.33-.15-2.22,0-1.48,1.63,1.33,5.03.74,6.36-1.03-2.22-1.03-5.47-3.55-5.76-2.07-1.33-6.36-.3-9.61,1.92-3.7,1.03-7.24,11.09-7.09,12.42.3,1.77,3.4,2.07,3.55,3.84-1.33-.74-1.77-2.22-3.84-2.07-.74,1.63-1.18,2.81-1.33,5.17,2.22,1.48,5.03,2.81,5.76,5.03-2.07-.74-3.25-3.84-5.91-2.96-3.4,9.61.74,7.83,1.18,9.16-1.18.44-2.36-.74-2.81,0-2.66,4.88.44,4.88.74,5.76h-1.92c-1.03.89-1.18,3.99-.89,5.47,2.22-1.03,6.95-2.07,5.76-4.73,1.18.3,2.51.3,3.25-.3"/>
      <path class="cls-2" d="M111.7,93.49c-2.51.59-10.2,1.18-12.12,3.4,2.22,3.55,10.94,4.14,13.16,7.69-3.4-2.07-10.35-5.03-14.78-6.21-5.32-1.18-3.7,1.77-5.47,6.06.74,1.63,3.25,6.06,3.4,7.54-1.33-1.48-2.51-8.28-4.73-4.58-3.55,5.76,1.92,6.95,4.29,12.27-1.48-2.07-4.43-6.06-6.36-8.43l-1.33,2.22c-2.22-.59-3.25-.44-3.25-.44,1.33,3.25,5.47,9.9,6.65,11.97-3.99-3.99-5.76-7.83-7.83-12.12-1.77,0-3.4-.74-5.17-1.03-.15,3.7,1.48,6.06,1.48,8.72-1.33-3.99-2.22-12.56-10.05-9.76-2.22,4.58,1.03,13.45,1.18,17.29-1.48-4.29-1.33-10.35-3.25-14.04-2.51-.15-6.5-.3-5.76,1.33-5.03,1.33-18.18,9.16-15.96,11.23,3.99,3.84,12.71,8.87,18.33,9.9.3-1.48.89-3.99,1.48-4.88.59,2.36,1.33,5.32,3.7,5.91.59-.74-.3-2.66-.15-3.84,2.07,2.51,7.69,5.47,11.68,3.55.44-1.48-1.18-3.55-.3-4.58.59,3.99,9.76,4.29,10.49.74.3-1.63-1.33-2.66-1.33-3.7,1.33,1.48,1.92,3.4,4.14,3.25,4.88-.3,1.63-7.09.74-9.76,1.18,2.36,2.66,5.91,4.43,7.69,1.33-.3,1.92-2.22,1.18-3.84,4.29,2.96,4.73.59,3.1-5.32,0-.15-.15-.3-.15-.44,0,.15.15.3.15.44.44,1.18,2.07,3.99,3.1,4.43,3.84-1.63-1.63-8.13-2.36-9.31,1.63,1.33,3.55,5.62,6.06,6.21.44-.3.44-2.66.74-3.1-.89-5.76-6.65-9.46-8.87-13.16,3.55,3.25,7.09,10.05,11.68,12.42,1.48-1.92-1.33-7.09-2.22-8.57,1.33.59,3.55,3.99,5.17,4.14,1.63-.89-.74-5.17-1.77-6.65.74.3,2.81,2.51,3.99,2.22.44-2.07-2.22-4.58-2.81-6.21.74.15,3.1,2.51,4.14,2.51,1.03-4.29,2.81-9.31,2.51-19.36-1.48.15-9.02,5.76-10.94,6.21"/>
    </g>
  </g>
  <g id="Kategorien">
    <g>
      <path class="cls-4" d="M16.88,11.24c-.78-.5-1.64-.67-2.56-.59-1.24.1-2.47.91-3.06,2-.13.23-.13.29.07.48.23.22.95.76,1.22.92.13.07.25.12.39.05.49-.52.81-1.14,1.61-1.2.66-.05,1.55.34,1.31,1.14-.15.5-.67.63-1.07.86-.58.35-1.31,1.02-1.37,1.73-.01.14-.02.52,0,.64.03.16.19.21.33.22.39.03,1.51.05,1.87,0,.3-.05.23-.25.3-.46.22-.67.92-.87,1.42-1.25,1.71-1.3,1.2-3.47-.46-4.54Z"/>
      <rect class="cls-4" x="13.41" y="18.19" width="2.49" height="2.49" rx=".42" ry=".42"/>
    </g>
    <g>
      <path class="cls-4" d="M153.52,243.89c-.78-.5-1.64-.67-2.56-.59-1.24.1-2.47.91-3.06,2-.13.23-.13.29.07.48.23.22.95.76,1.22.92.13.07.25.12.39.05.49-.52.81-1.14,1.61-1.2.66-.05,1.55.34,1.31,1.14-.15.5-.67.63-1.07.86-.58.35-1.31,1.02-1.37,1.73-.01.14-.02.52,0,.64.03.16.19.21.33.22.39.03,1.51.05,1.87,0,.3-.05.23-.25.3-.46.22-.67.92-.87,1.42-1.25,1.71-1.3,1.2-3.47-.46-4.54Z"/>
      <rect class="cls-4" x="150.05" y="250.83" width="2.49" height="2.49" rx=".42" ry=".42"/>
    </g>
  </g>
  <g id="Text_Karte" data-name="Text Karte">
    <g>
      <path class="cls-4" d="M30.91,173.12l-2.45,5.83s-.03.07-.05.09h-.01s-.03.05-.05.07c0,.02-.01.02-.01.03-.02,0-.05.03-.07.05h0s-.05.05-.09.06h0s0,0,0,.01c-.02,0-.05,0-.08.02h-.02s-.06,0-.1,0c-.03,0-.06,0-.09,0h-.03s-.05-.02-.07-.02t-.02-.01s-.07-.04-.09-.06h0s-.05-.04-.07-.05t-.02-.03s-.03-.04-.04-.06c-.02,0-.02-.01-.02-.01-.02-.02-.03-.06-.04-.09l-1.31-3.1-1.31,3.1s-.03.07-.04.09c0,0,0,.01,0,.01l-.06.06s-.01.02-.01.03c-.02,0-.04.03-.06.05h-.02s-.06.05-.08.06h-.01s0,0,0,.01c-.04,0-.06,0-.08.02h-.03s-.06,0-.09,0-.07,0-.1,0h-.03s-.05-.02-.07-.02t-.02-.01s-.07-.04-.09-.06h0s-.04-.04-.07-.05t-.02-.03s-.03-.04-.05-.06h0s-.03-.07-.05-.1l-2.46-5.83c-.11-.27.01-.6.3-.71.27-.12.6,0,.71.29l1.96,4.63,1.29-3.07c.09-.22.3-.34.52-.34s.42.12.52.34l1.29,3.07,1.95-4.63c.12-.28.44-.41.73-.29.27.11.4.44.28.71Z"/>
      <g>
        <path class="cls-4" d="M35.93,176.8v1.96c0,.29-.24.53-.53.53-.26,0-.46-.19-.52-.43-.38.27-.83.43-1.33.43-.68,0-1.27-.28-1.7-.73-.43-.46-.68-1.08-.68-1.76s.25-1.31.68-1.76c.43-.46,1.02-.75,1.7-.75.5,0,.95.17,1.33.44.06-.25.26-.44.52-.44.29,0,.53.24.53.54v1.97ZM34.87,176.8c0-.42-.15-.78-.39-1.03-.24-.27-.58-.41-.93-.41s-.7.14-.93.41c-.24.25-.38.61-.38,1.03s.14.77.38,1.03c.23.25.57.39.93.39s.69-.14.93-.39c.24-.26.39-.62.39-1.03Z"/>
        <path class="cls-4" d="M37.45,177.86c.18-.24.53-.27.75-.08.26.22.71.45,1.1.44.27,0,.52-.09.68-.19.14-.12.18-.22.18-.3,0-.05,0-.07-.03-.1-.01-.03-.05-.07-.13-.12-.14-.1-.44-.21-.8-.28h0c-.31-.06-.61-.14-.87-.26-.27-.13-.51-.31-.69-.58-.11-.18-.17-.4-.17-.63,0-.46.26-.85.59-1.1.35-.24.77-.37,1.23-.37.69,0,1.18.33,1.5.55.24.16.31.49.16.74-.16.24-.49.31-.74.14-.32-.21-.6-.37-.92-.37-.25,0-.47.08-.6.18-.13.09-.16.18-.16.23,0,.04,0,.05.02.08.01.02.04.06.11.1.13.09.39.18.73.24h0s.01.01.01.01c.33.06.64.15.93.29.27.12.54.31.71.59.12.2.19.43.19.66,0,.49-.27.9-.63,1.16-.36.25-.81.4-1.3.4-.78,0-1.38-.37-1.78-.69-.22-.18-.25-.52-.07-.74Z"/>
      </g>
      <path class="cls-4" d="M51.51,175.09l-1.65,3.88s-.02.05-.04.08c0,0-.01,0-.01,0,0,.02-.03.04-.05.06-.01,0-.02,0-.02,0-.02.02-.04.04-.06.05,0,0,0,0,0,.02-.03.02-.05.04-.09.05,0,0-.01,0-.01.01-.02,0-.05,0-.08.02h-.02s-.06,0-.1,0c-.03,0-.06,0-.09,0h-.02s-.04-.02-.07-.02h-.02s-.06-.04-.09-.07h0s-.04-.04-.06-.06c0,0-.02,0-.02,0-.02-.02-.04-.04-.05-.06,0,0,0,0,0,0-.02-.03-.03-.06-.04-.08l-.73-1.73-.71,1.73s-.03.05-.05.08h0s-.04.05-.06.07c0,0,0,0,0,0l-.06.06s-.06.05-.09.06h-.02s-.01,0-.01.01c-.02,0-.05,0-.06.02h-.02s-.07,0-.1,0c-.04,0-.07,0-.1,0h-.03s-.04-.02-.06-.02t-.02-.01s-.07-.03-.09-.06t-.01,0s-.03-.03-.06-.05h-.02s-.03-.05-.04-.07t0,0s-.03-.06-.05-.08l-1.64-3.88c-.12-.27,0-.57.29-.69.24-.11.55,0,.66.3l1.18,2.69.7-1.67c.09-.2.28-.32.49-.32.22,0,.41.12.49.32l.71,1.67,1.18-2.69c.1-.29.42-.41.67-.3.27.12.41.42.29.69Z"/>
      <g>
        <path class="cls-4" d="M57.52,176.8v1.96c0,.29-.24.53-.53.53-.26,0-.46-.19-.52-.43-.38.27-.83.43-1.33.43-.68,0-1.27-.28-1.7-.73-.43-.46-.68-1.08-.68-1.76s.25-1.31.68-1.76c.43-.46,1.02-.75,1.7-.75.5,0,.95.17,1.33.44.06-.25.26-.44.52-.44.29,0,.53.24.53.54v1.97ZM56.46,176.8c0-.42-.15-.78-.39-1.03-.24-.27-.58-.41-.93-.41s-.7.14-.93.41c-.24.25-.38.61-.38,1.03s.14.77.38,1.03c.23.25.57.39.93.39s.69-.14.93-.39c.24-.26.39-.62.39-1.03Z"/>
        <path class="cls-4" d="M62.36,174.82c0,.28-.23.53-.53.53-.23,0-.43.06-.6.19-.19.12-.34.29-.46.48-.24.32-.36.7-.41.84v1.9c0,.29-.25.53-.55.53s-.53-.24-.53-.53v-3.94c0-.29.24-.52.53-.52s.55.23.55.52v.07c.06-.07.14-.15.21-.2.33-.22.76-.4,1.26-.39.3,0,.53.23.53.52Z"/>
      </g>
      <path class="cls-4" d="M70.68,178.75c0,.29-.24.54-.54.54-.27,0-.48-.19-.53-.43-.38.26-.86.43-1.36.43-1.35,0-2.43-1.14-2.43-2.49s1.08-2.51,2.43-2.51c.49,0,.97.16,1.34.42v-1.88c0-.29.24-.54.55-.54s.54.25.54.54v3.96h0v1.96ZM68.25,175.38c-.36,0-.69.15-.94.41-.25.25-.4.61-.4,1.01s.15.74.4.99c.25.26.58.41.94.41s.69-.15.94-.41c.25-.25.4-.61.4-.99,0-.4-.15-.76-.4-1.01-.25-.26-.57-.41-.94-.41Z"/>
      <g>
        <path class="cls-4" d="M72.05,176.79c.01-1.36,1.07-2.5,2.44-2.5,1.3,0,2.33.97,2.41,2.32v.05s0,.07-.01.09c-.03.24-.24.4-.52.4h-3.18c.05.23.16.49.34.66.21.24.61.42.96.45.36.03.79-.06,1.04-.25.21-.22.62-.19.75-.03.13.14.23.44,0,.65-.49.45-1.08.66-1.79.66-1.37,0-2.43-1.14-2.44-2.5ZM73.14,176.3h2.83c-.1-.4-.61-.99-1.48-1.06-.85.04-1.27.65-1.35,1.06Z"/>
        <path class="cls-4" d="M79.38,173.04c0,.3-.23.55-.54.55s-.54-.25-.54-.55v-.21c0-.3.24-.54.54-.54s.54.24.54.54v.21ZM79.38,174.85v3.9c0,.3-.23.54-.54.54s-.54-.24-.54-.54v-3.9c0-.32.24-.55.54-.55s.54.23.54.55Z"/>
        <path class="cls-4" d="M85.07,176.37v2.39c0,.29-.23.53-.52.53s-.53-.24-.53-.53v-2.39c0-.56-.47-1.01-1.04-1.01s-1,.45-1,1.01v2.39s0,.06-.02.1c-.05.24-.27.43-.53.43-.3,0-.53-.24-.53-.53v-3.94c0-.29.23-.53.53-.53.21,0,.4.12.49.31.3-.19.67-.31,1.06-.31,1.16,0,2.09.95,2.09,2.08Z"/>
      </g>
      <g>
        <path class="cls-4" d="M89.26,177.86c.18-.24.53-.27.75-.08.26.22.71.45,1.1.44.27,0,.52-.09.68-.19.14-.12.18-.22.18-.3,0-.05-.01-.07-.03-.1,0-.03-.05-.07-.13-.12-.14-.1-.44-.21-.8-.28h0c-.31-.06-.61-.14-.87-.26-.27-.13-.51-.31-.69-.58-.11-.18-.17-.4-.17-.63,0-.46.26-.85.59-1.1.35-.24.77-.37,1.23-.37.69,0,1.18.33,1.5.55.24.16.31.49.16.74-.16.24-.49.31-.74.14-.32-.21-.6-.37-.92-.37-.25,0-.47.08-.6.18-.13.09-.16.18-.16.23,0,.04,0,.05.02.08,0,.02.04.06.11.1.13.09.39.18.73.24h.01s0,.01,0,.01c.33.06.64.15.93.29.27.12.54.31.71.59.12.2.19.43.19.66,0,.49-.27.9-.63,1.16-.36.25-.81.4-1.3.4-.78,0-1.38-.37-1.78-.69-.22-.18-.25-.52-.07-.74Z"/>
        <path class="cls-4" d="M93.87,176.8c0-1.39,1.16-2.5,2.54-2.51.6,0,1.16.22,1.59.55.23.18.27.52.11.74-.2.24-.52.28-.75.1-.26-.19-.58-.32-.95-.32-.81,0-1.48.67-1.48,1.44s.67,1.43,1.48,1.43c.36,0,.69-.13.95-.32.22-.17.55-.13.75.11.16.22.12.54-.11.74-.43.31-.99.53-1.59.53-1.38,0-2.54-1.12-2.54-2.49Z"/>
        <path class="cls-4" d="M100.84,178.74c0,.31-.25.55-.56.55-.25,0-.46-.18-.53-.41,0-.04-.02-.09-.02-.14v-5.9c0-.31.25-.55.55-.55s.56.24.56.55v1.74c.32-.17.68-.29,1.07-.29,1.21,0,2.18.99,2.18,2.19v2.26c0,.31-.24.55-.55.55s-.55-.24-.55-.55v-2.26c0-.59-.48-1.07-1.08-1.08-.59,0-1.06.49-1.07,1.08v2.26Z"/>
        <path class="cls-4" d="M106.28,172.29c.31,0,.56.25.56.55v5.9c0,.3-.25.55-.56.55s-.55-.25-.55-.55v-5.9c0-.3.25-.55.55-.55Z"/>
        <path class="cls-4" d="M109.04,173.04c0,.3-.23.55-.54.55s-.54-.25-.54-.55v-.21c0-.3.24-.54.54-.54s.54.24.54.54v.21ZM109.04,174.85v3.9c0,.3-.23.54-.54.54s-.54-.24-.54-.54v-3.9c0-.32.24-.55.54-.55s.54.23.54.55Z"/>
        <path class="cls-4" d="M114.74,176.36v2.4c0,.29-.24.53-.53.53s-.54-.24-.54-.53v-2.4c-.01-.55-.47-1-1.03-1s-1.01.46-1.01,1.03v2.37s0,.05,0,.07v.03s-.01.04-.03.06v.05c-.09.18-.29.32-.5.32-.04,0-.07,0-.1,0-.24-.06-.43-.26-.43-.52v-2.37h0v-1.56c0-.31.24-.54.53-.54.21,0,.4.11.48.3.32-.19.69-.3,1.07-.3.63,0,1.19.26,1.57.69.37-.43.94-.69,1.57-.69,1.15,0,2.08.94,2.08,2.1v2.37c0,.29-.24.53-.53.53s-.54-.24-.54-.53v-2.37c0-.57-.46-1.03-1.01-1.03s-1.02.45-1.04,1Z"/>
        <path class="cls-4" d="M124.05,176.36v2.4c0,.29-.24.53-.53.53s-.54-.24-.54-.53v-2.4c-.01-.55-.47-1-1.03-1s-1.01.46-1.01,1.03v2.37s0,.05,0,.07v.03s-.01.04-.03.06v.05c-.09.18-.29.32-.5.32-.04,0-.07,0-.1,0-.24-.06-.43-.26-.43-.52v-2.37h0v-1.56c0-.31.24-.54.53-.54.21,0,.4.11.48.3.32-.19.69-.3,1.07-.3.63,0,1.19.26,1.57.69.37-.43.94-.69,1.57-.69,1.15,0,2.08.94,2.08,2.1v2.37c0,.29-.24.53-.53.53s-.54-.24-.54-.53v-2.37c0-.57-.46-1.03-1.01-1.03s-1.02.45-1.04,1Z"/>
        <path class="cls-4" d="M128.94,177.86c.18-.24.53-.27.75-.08.26.22.71.45,1.1.44.27,0,.52-.09.68-.19.14-.12.18-.22.18-.3,0-.05-.01-.07-.03-.1,0-.03-.05-.07-.13-.12-.14-.1-.44-.21-.8-.28h0c-.31-.06-.61-.14-.87-.26-.27-.13-.51-.31-.69-.58-.11-.18-.17-.4-.17-.63,0-.46.26-.85.59-1.1.35-.24.77-.37,1.23-.37.69,0,1.18.33,1.5.55.24.16.31.49.16.74-.16.24-.49.31-.74.14-.32-.21-.6-.37-.92-.37-.25,0-.47.08-.6.18-.13.09-.16.18-.16.23,0,.04,0,.05.02.08,0,.02.04.06.11.1.13.09.39.18.73.24h.01s0,.01,0,.01c.33.06.64.15.93.29.27.12.54.31.71.59.12.2.19.43.19.66,0,.49-.27.9-.63,1.16-.36.25-.81.4-1.3.4-.78,0-1.38-.37-1.78-.69-.22-.18-.25-.52-.07-.74Z"/>
      </g>
      <g>
        <path class="cls-4" d="M136.3,174.84c0,.3-.26.55-.56.55h-.25v2.79c.31,0,.55.25.55.56s-.24.55-.55.55c-.61,0-1.11-.5-1.11-1.11v-2.79h-.29c-.31,0-.55-.25-.55-.55s.24-.55.55-.55h.29v-1.45c0-.31.25-.55.56-.55s.55.24.55.55v1.45h.25c.3,0,.56.24.56.55Z"/>
        <path class="cls-4" d="M137.1,176.79c0-1.36,1.07-2.5,2.44-2.5,1.3,0,2.33.97,2.41,2.32v.05s0,.07,0,.09c-.03.24-.24.4-.52.4h-3.18c.05.23.16.49.34.66.21.24.61.42.96.45.36.03.79-.06,1.04-.25.21-.22.62-.19.75-.03.13.14.23.44,0,.65-.49.45-1.08.66-1.79.66-1.37,0-2.43-1.14-2.44-2.5ZM138.19,176.3h2.83c-.1-.4-.61-.99-1.48-1.06-.85.04-1.27.65-1.35,1.06Z"/>
      </g>
      <path class="cls-4" d="M146.2,174.82c0,.28-.23.53-.53.53-.23,0-.43.06-.6.19-.19.12-.34.29-.46.48-.24.32-.36.7-.41.84v1.9c0,.29-.25.53-.55.53s-.53-.24-.53-.53v-3.94c0-.29.24-.52.53-.52s.55.23.55.52v.07c.06-.07.14-.15.21-.2.33-.22.76-.4,1.26-.39.3,0,.53.23.53.52Z"/>
      <g>
        <path class="cls-4" d="M42.61,190.73v-5.85c0-.29.24-.55.55-.55s.55.26.55.55v2.87l3.24-3.25c.22-.22.56-.22.78,0,.21.21.21.56,0,.78l-2.2,2.19,2.22,2.91c.2.23.16.58-.08.77-.1.09-.22.13-.35.13-.15,0-.3-.07-.41-.2l-2.16-2.83-1.04,1.06v1.42c0,.3-.24.55-.55.55s-.55-.25-.55-.55Z"/>
        <path class="cls-4" d="M51.23,191.28c-1.14,0-2.08-.94-2.08-2.08v-2.39c0-.28.24-.53.53-.53s.53.25.53.53v2.39c0,.57.45,1.02,1.02,1.02s1.04-.45,1.05-1.02v-2.39c0-.28.22-.53.52-.53.28,0,.54.25.54.53v2.39c0,1.14-.96,2.08-2.11,2.08Z"/>
      </g>
      <g>
        <path class="cls-4" d="M54.94,189.85c.18-.24.53-.27.75-.08.26.22.71.45,1.1.44.27,0,.52-.09.68-.19.14-.12.18-.22.18-.3,0-.05,0-.07-.03-.1,0-.03-.05-.07-.13-.12-.14-.1-.44-.21-.8-.28h0c-.31-.06-.61-.14-.87-.26-.27-.13-.51-.31-.69-.58-.11-.18-.17-.4-.17-.63,0-.46.26-.85.59-1.1.35-.24.77-.37,1.23-.37.69,0,1.18.33,1.5.55.24.16.31.49.16.74-.16.24-.49.31-.74.14-.32-.21-.6-.37-.92-.37-.25,0-.47.08-.6.18-.13.09-.16.18-.16.23,0,.04,0,.05.02.08.01.02.04.06.11.1.13.09.39.18.73.24h0s.01.01.01.01c.33.06.64.15.93.29.27.12.54.31.71.59.12.2.19.43.19.66,0,.49-.27.9-.63,1.16-.36.25-.81.4-1.3.4-.78,0-1.38-.37-1.78-.69-.22-.18-.25-.52-.07-.74Z"/>
        <path class="cls-4" d="M59.56,189.85c.18-.24.53-.27.75-.08.26.22.71.45,1.1.44.27,0,.52-.09.68-.19.14-.12.18-.22.18-.3,0-.05,0-.07-.03-.1,0-.03-.05-.07-.13-.12-.14-.1-.44-.21-.8-.28h0c-.31-.06-.61-.14-.87-.26-.27-.13-.51-.31-.69-.58-.11-.18-.17-.4-.17-.63,0-.46.26-.85.59-1.1.35-.24.77-.37,1.23-.37.69,0,1.18.33,1.5.55.24.16.31.49.16.74-.16.24-.49.31-.74.14-.32-.21-.6-.37-.92-.37-.25,0-.47.08-.6.18-.13.09-.16.18-.16.23,0,.04,0,.05.02.08.01.02.04.06.11.1.13.09.39.18.73.24h0s.01.01.01.01c.33.06.64.15.93.29.27.12.54.31.71.59.12.2.19.43.19.66,0,.49-.27.9-.63,1.16-.36.25-.81.4-1.3.4-.78,0-1.38-.37-1.78-.69-.22-.18-.25-.52-.07-.74Z"/>
      </g>
      <g>
        <path class="cls-4" d="M69.3,191.28c-1.14,0-2.08-.94-2.08-2.08v-2.39c0-.28.24-.53.53-.53s.53.25.53.53v2.39c0,.57.45,1.02,1.02,1.02s1.04-.45,1.05-1.02v-2.39c0-.28.22-.53.52-.53.28,0,.54.25.54.53v2.39c0,1.14-.96,2.08-2.11,2.08Z"/>
        <path class="cls-4" d="M77.18,188.36v2.39c0,.29-.23.53-.52.53s-.53-.24-.53-.53v-2.39c0-.56-.47-1.01-1.04-1.01s-1,.45-1,1.01v2.39s0,.06-.02.1c-.05.24-.27.43-.53.43-.3,0-.53-.24-.53-.53v-3.94c0-.29.23-.53.53-.53.21,0,.4.12.49.31.3-.19.67-.31,1.06-.31,1.16,0,2.09.95,2.09,2.08Z"/>
      </g>
      <g>
        <path class="cls-4" d="M83.26,190.74c0,.29-.24.54-.54.54-.27,0-.48-.19-.53-.43-.38.26-.86.43-1.36.43-1.35,0-2.43-1.14-2.43-2.49s1.08-2.51,2.43-2.51c.49,0,.97.16,1.34.42v-1.88c0-.29.24-.54.55-.54s.54.25.54.54v3.96h0v1.96ZM80.83,187.37c-.36,0-.69.15-.94.41-.25.25-.4.61-.4,1.01s.15.74.4.99c.25.26.58.41.94.41s.69-.15.94-.41c.25-.25.4-.61.4-.99,0-.4-.15-.76-.4-1.01-.25-.26-.57-.41-.94-.41Z"/>
        <path class="cls-4" d="M94.36,187.08l-1.65,3.88s-.02.05-.04.08c0,0,0,0,0,0-.01.02-.03.04-.05.06,0,0-.02,0-.02,0-.02.02-.04.04-.06.05,0,0-.01,0-.01.02-.03.02-.05.04-.09.05,0,0,0,0,0,.01-.02,0-.05,0-.08.02h-.02s-.06,0-.1,0c-.03,0-.06,0-.09,0h-.02s-.04-.02-.07-.02h-.02s-.06-.04-.09-.07h0s-.04-.04-.06-.06c0,0-.02,0-.02,0-.02-.02-.04-.04-.05-.06,0,0-.01,0-.01,0-.02-.03-.03-.06-.04-.08l-.73-1.73-.71,1.73s-.03.05-.05.08h0s-.04.05-.06.07c0,0,0,0,0,0-.02.02-.04.04-.06.06-.04.03-.06.05-.09.06h-.02s0,0,0,.01c-.02,0-.05,0-.06.02h-.02s-.07,0-.1,0c-.04,0-.07,0-.1,0h-.03s-.04-.02-.06-.02t-.02-.01s-.07-.03-.09-.06t0,0s-.03-.03-.06-.05h-.02s-.03-.05-.04-.07t0,0s-.03-.06-.05-.08l-1.64-3.88c-.12-.27.01-.57.29-.69.24-.11.55,0,.66.3l1.18,2.69.7-1.67c.09-.2.28-.32.49-.32s.41.12.49.32l.71,1.67,1.18-2.69c.1-.29.42-.41.67-.3.27.12.41.42.29.69Z"/>
      </g>
      <g>
        <path class="cls-4" d="M100.38,188.79v1.96c0,.29-.24.53-.53.53-.26,0-.46-.19-.52-.43-.38.27-.83.43-1.33.43-.68,0-1.27-.28-1.7-.73-.43-.46-.68-1.08-.68-1.76s.25-1.31.68-1.76c.43-.46,1.02-.75,1.7-.75.5,0,.95.17,1.33.44.06-.25.26-.44.52-.44.29,0,.53.24.53.54v1.97ZM99.32,188.79c0-.42-.15-.78-.39-1.03-.24-.27-.58-.41-.93-.41s-.7.14-.93.41c-.24.25-.38.61-.38,1.03s.14.77.38,1.03c.23.25.57.39.93.39s.69-.14.93-.39c.24-.26.39-.62.39-1.03Z"/>
        <path class="cls-4" d="M105.22,186.81c0,.28-.23.53-.53.53-.23,0-.43.06-.6.19-.19.12-.34.29-.46.48-.24.32-.36.7-.41.84v1.9c0,.29-.25.53-.55.53s-.53-.24-.53-.53v-3.94c0-.29.24-.52.53-.52s.55.23.55.52v.07c.06-.07.14-.15.21-.2.33-.22.76-.4,1.26-.39.3,0,.53.23.53.52Z"/>
        <path class="cls-4" d="M108.31,191.28c-1.14,0-2.08-.94-2.08-2.08v-2.39c0-.28.24-.53.53-.53s.53.25.53.53v2.39c0,.57.45,1.02,1.02,1.02s1.04-.45,1.05-1.02v-2.39c0-.28.22-.53.52-.53.28,0,.54.25.54.53v2.39c0,1.14-.96,2.08-2.11,2.08Z"/>
        <path class="cls-4" d="M116.44,188.35v2.4c0,.29-.24.53-.53.53s-.54-.24-.54-.53v-2.4c-.01-.55-.47-1-1.03-1s-1.01.46-1.01,1.03v2.37s0,.05,0,.07v.03s-.01.04-.03.06v.05c-.09.18-.29.32-.5.32-.04,0-.07,0-.1,0-.24-.06-.43-.26-.43-.52v-2.37h0v-1.56c0-.31.24-.54.53-.54.21,0,.4.11.48.3.32-.19.69-.3,1.07-.3.63,0,1.19.26,1.57.69.37-.43.94-.69,1.57-.69,1.15,0,2.08.94,2.08,2.1v2.37c0,.29-.24.53-.53.53s-.54-.24-.54-.53v-2.37c0-.57-.46-1.03-1.01-1.03s-1.02.45-1.04,1Z"/>
      </g>
      <path class="cls-4" d="M123.14,188.42v.65c0,.28-.21.49-.49.49-.26,0-.49-.21-.49-.49v-1.04s0-.01,0-.02t0-.02c0-.26.23-.49.49-.49.63,0,1.14-.5,1.14-1.12s-.51-1.12-1.14-1.12c-.41,0-.77.22-.96.55-.14.24-.44.32-.68.18-.23-.14-.31-.43-.17-.67.36-.62,1.04-1.04,1.81-1.04,1.16,0,2.11.94,2.11,2.1,0,.99-.69,1.82-1.62,2.04ZM123.14,190.61v.18c0,.28-.21.49-.49.49-.26,0-.49-.21-.49-.49v-.18c0-.27.23-.49.49-.49.28,0,.49.22.49.49Z"/>
    </g>
  </g>
</svg>