<?xml version="1.0" encoding="UTF-8"?>
<svg xmlns="http://www.w3.org/2000/svg" viewBox="0 0 167.24 260.79">
  <defs>
    <style>
      .cls-1 {
        fill: #010101;
      }

      .cls-2 {
        fill: #171717;
      }

      .cls-3 {
        stroke: #fff;
        stroke-miterlimit: 10;
        stroke-width: .15px;
      }

      .cls-3, .cls-4 {
        fill: #fff;
      }

      .cls-5 {
        fill: #171715;
      }

      .cls-6 {
        fill: #0a90ce;
      }
    </style>
  </defs>
  <g id="Background">
    <rect class="cls-6" width="167.24" height="260.79"/>
  </g>
  <g id="Rahmen">
    <path class="cls-1" d="M151.9,23.16c9.65,0,9.67-15,0-15s-9.67,15,0,15h0Z"/>
    <path class="cls-1" d="M152.22,254.59c9.65,0,9.67-15,0-15s-9.67,15,0,15h0Z"/>
    <path class="cls-1" d="M14.14,254.72c9.65,0,9.67-15,0-15s-9.67,15,0,15h0Z"/>
    <path class="cls-2" d="M11.56,15.67c18.49.32,36.98.69,55.46,1.04,19.51.36,39.05-.42,58.56-.82,10.18-.21,20.36-.38,30.54-.21l-3.75-3.75c-1.46,11.81-1.7,23.8-1.97,35.69-.33,14.15-.39,28.31-.37,42.46.01,9.3.14,18.61.07,27.91-.06,7.86-.43,15.71-.48,23.57-.07,11.29.08,22.59.37,33.88.56,22.38,1.59,44.74,2.18,67.12.07,2.79.14,5.57.2,8.36l3.75-3.75c-15.41-.13-30.81.06-46.22.48-24.85.69-49.67.84-74.52.24-8.25-.2-16.49-.49-24.74-.73l3.75,3.75c-.56-4.87-.34-9.89-.27-14.78.11-8.38.38-16.76.66-25.14.66-20.11,1.45-40.22,1.83-60.34.16-8.4.26-16.81.05-25.21-.13-5.24-.51-10.46-.61-15.7-.33-17.03-.19-34.08-.18-51.11,0-8.91,0-17.82-.06-26.73-.04-5.94-.04-11.89-.34-17.82-.04-.72-.08-1.43-.15-2.15-.19-1.95-1.59-3.85-3.75-3.75-1.87.08-3.96,1.66-3.75,3.75.48,4.83.39,9.76.44,14.61.09,8.42.1,16.84.11,25.25,0,17.78-.1,35.55.11,53.33.06,5.22.27,10.41.52,15.62.36,7.73.31,15.47.21,23.21-.24,20.03-1.02,40.04-1.7,60.06-.3,8.95-.6,17.9-.79,26.85-.13,5.9-.3,11.84,0,17.74.04.78.09,1.55.18,2.32.24,2.06,1.53,3.69,3.75,3.75,18.27.53,36.53,1.09,54.81,1.16,23.38.09,46.73-.97,70.1-1.19,6.85-.06,13.71-.03,20.56.02,2,.02,3.79-1.73,3.75-3.75-.48-22.44-1.5-44.87-2.16-67.3-.33-11.25-.57-22.51-.6-33.77-.03-10.16.25-20.29.47-30.44.18-8.23-.03-16.48-.05-24.72-.03-13.94,0-27.88.25-41.82.23-12.54.48-25.14,1.72-37.62.11-1.1.23-2.21.37-3.31.25-2.04-1.92-3.72-3.75-3.75-19.14-.32-38.3.42-57.44.81-9.78.2-19.58.45-29.37.27-7.76-.14-15.52-.3-23.28-.45-11.49-.22-22.99-.44-34.48-.63-1.96-.03-3.84,1.75-3.75,3.75s1.65,3.71,3.75,3.75h0Z"/>
    <polygon class="cls-2" points="26.61 14.43 14.5 29.16 14.18 13.04 26.61 14.43"/>
    <polygon class="cls-2" points="140.79 14.16 152.35 27.66 154.57 11.89 140.79 14.16"/>
    <polygon class="cls-2" points="139.48 248.15 153.14 235.93 156.07 248.65 139.48 248.15"/>
    <polygon class="cls-2" points="12.9 235.54 26.24 248.54 12.31 249.36 12.9 235.54"/>
    <rect class="cls-2" width="10.32" height="260.79"/>
    <rect class="cls-2" y="249.36" width="167.24" height="11.43"/>
    <rect class="cls-5" width="167.24" height="10.33"/>
    <rect class="cls-2" x="156.12" width="11.13" height="260.79"/>
    <path class="cls-2" d="M122.85,17.19c0-.85.35-3.85,0-4.78-.94-2.49-3.57-2.81-6.15-2.81H50.54c-2.58,0-5.21.32-6.15,2.81-.35.93,0,3.93,0,4.78l-.28,5.71c-.56,5.31,8.78,4.59,12.32,4.59l20.37.37,6.82-.07h0l6.82.07,20.37-.37c3.54,0,12.88.72,12.32-4.59l-.28-5.71Z"/>
  </g>
  <g id="Kategorie_Name" data-name="Kategorie Name">
    <g>
      <path class="cls-6" d="M54.66,17.33c-.03.09-.09.28-.17.57s-.19.64-.31,1.04-.25.81-.38,1.25-.25.84-.35,1.2-.23.79-.38,1.27c-.05.05-.18.09-.4.11-.22.02-.46.02-.74.02s-.53-.02-.77-.03c-.25-.02-.41-.02-.5-.02h-.33c-.16,0-.33,0-.5,0s-.33-.01-.48-.02c-.15-.01-.23-.02-.26-.03-.12-.05-.18-.15-.18-.29s0-.27.02-.39c.28-3.61.59-7.22.95-10.84,0-.08.02-.14.06-.18.03-.03.16-.05.38-.07s.46-.01.74,0c.27.01.53.02.77.03.25.01.41.02.49.02.05,0,.11,0,.19,0,.07,0,.15,0,.22,0s.13.02.19.06.09.08.11.15c.02.07.02.23,0,.51s-.06.6-.1,1c-.04.39-.09.81-.14,1.26-.05.45-.11.87-.16,1.28-.05.41-.09.77-.14,1.09-.04.32-.06.53-.07.65.03-.09.07-.23.13-.44s.13-.44.22-.7.18-.53.28-.82c.1-.28.2-.54.29-.79.1-.24.19-.44.28-.6.09-.16.17-.26.23-.28,0,0,.11,0,.29,0,.19,0,.4-.01.63-.02.23,0,.46,0,.66,0h.4c.05,0,.1,0,.14,0s.08.02.12.04c.03.01.08.12.14.32.06.2.14.45.22.74.08.29.17.61.26.96.09.35.18.68.26,1,.08.32.15.59.21.83s.1.4.12.49c-.03-.76-.07-1.52-.13-2.27-.05-.75-.11-1.51-.16-2.27-.02-.33-.05-.66-.08-1.01-.04-.34-.05-.67-.05-.99,0-.13.05-.2.16-.21s.2-.02.29-.02c.44,0,.89.02,1.34.07.45.05.89.04,1.32-.04.05-.01.12-.03.22-.07.09-.03.16-.04.2-.02.08.02.13.1.15.23s.03.23.04.31c0,.13.01.39.01.78s0,.85,0,1.4c0,.55-.01,1.14-.02,1.8,0,.65-.02,1.31-.04,1.97s-.03,1.3-.04,1.93-.03,1.19-.04,1.68-.03.89-.05,1.19c-.02.3-.04.46-.05.48-.02.02-.13.04-.32.06-.19.02-.43.03-.72.03-.29,0-.6,0-.93,0s-.65,0-.95,0c-.3,0-.56-.01-.79-.02-.23-.01-.37-.02-.44-.03-.12-.01-.21-.06-.29-.16-.04-.04-.09-.19-.15-.43s-.13-.53-.21-.86-.16-.69-.24-1.09c-.08-.39-.16-.77-.24-1.13s-.15-.69-.22-.98c-.07-.29-.12-.51-.16-.64Z"/>
      <path class="cls-6" d="M64.24,21.16c-.01.07-.02.17-.03.31s-.02.29-.04.44c-.01.15-.04.29-.06.42-.02.13-.05.21-.08.25-.03.03-.15.06-.36.07-.21.02-.44.03-.7.03-.26,0-.5,0-.73,0h-.45c-.18,0-.32-.02-.42-.05-.1-.03-.12-.17-.08-.41.03-.15.08-.42.15-.81s.15-.85.24-1.39.19-1.13.31-1.77c.11-.64.23-1.28.34-1.92s.23-1.27.34-1.87c.11-.6.21-1.14.31-1.62.1-.47.18-.86.25-1.15s.12-.45.15-.47c.02-.01.06-.02.12-.02.06,0,.13,0,.2,0s.15,0,.22,0c.07,0,.12,0,.15,0,.63.02,1.24,0,1.83-.07s1.2-.13,1.83-.18c.1-.01.19.02.26.08.07.07.12.15.16.25s.07.2.1.32.05.22.07.3c.17.75.3,1.5.38,2.26.08.75.17,1.5.25,2.26.09.86.17,1.74.23,2.64.07.9.18,1.77.35,2.62,0,.05.02.13.04.21.02.09.03.18.04.28,0,.1,0,.19,0,.27,0,.08-.04.14-.11.17-.03.02-.12.04-.28.05-.16.01-.36.02-.58.02-.23,0-.48,0-.75,0s-.52,0-.76,0c-.23,0-.44-.01-.62-.02-.17,0-.28-.01-.32-.02-.1-.02-.16-.07-.17-.15-.05-.21-.07-.43-.07-.65,0-.23,0-.45-.02-.67-.28-.03-.56-.05-.85-.04-.28,0-.57,0-.85,0ZM65.5,14.04c-.17.82-.33,1.63-.47,2.43-.15.8-.29,1.61-.43,2.43.2-.02.4-.04.62-.05.21-.01.41,0,.62.02-.04-.81-.09-1.61-.16-2.41-.06-.8-.12-1.6-.17-2.41Z"/>
      <path class="cls-6" d="M75.46,15.12v-1.32c0-.32,0-.66,0-1.01,0-.35,0-.68,0-.97v-.73c0-.19,0-.29.01-.3.05-.07.18-.12.4-.16.21-.04.45-.07.71-.08.25-.02.5-.03.73-.03.23,0,.4,0,.49,0,.06,0,.14,0,.24,0,.1,0,.2.01.31.02s.2.03.29.06c.09.03.15.06.18.11.03.04.04.09.04.13v.13c-.05.92-.08,1.83-.1,2.75-.02.92-.02,1.84-.02,2.76v2.75c0,.92,0,1.83-.01,2.75,0,.06,0,.14,0,.22,0,.08,0,.15,0,.2-.02.11-.16.18-.43.21-.27.03-.57.05-.91.05s-.67,0-.98-.02c-.31-.02-.53-.02-.64-.02-.07,0-.12-.02-.17-.07-.04-.05-.07-.11-.09-.18-.02-.07-.04-.14-.04-.22,0-.08-.01-.14-.01-.2-.03-.72-.02-1.43.01-2.14.04-.71.04-1.42-.01-2.14-.54-.07-1.08-.08-1.62-.05,0,.1-.02.29-.03.56-.01.28-.02.6-.04.96-.01.36-.04.74-.06,1.14-.03.4-.05.77-.07,1.1-.02.34-.04.62-.07.84-.03.22-.06.35-.08.37-.02.02-.05.03-.08.02-.04,0-.07,0-.1,0-.45-.07-.91-.08-1.37-.05-.46.03-.92.04-1.37.02-.06,0-.12,0-.17-.02-.06-.01-.09-.06-.1-.15-.03-.32-.03-.66,0-1.04s.05-.73.06-1.05c.02-.73.03-1.46.03-2.18v-2.18c0-.46,0-.91-.02-1.36,0-.45-.03-.9-.04-1.36,0-.08,0-.14,0-.19,0-.05.04-.08.11-.11.27-.02.5-.04.7-.06.2-.02.42-.03.65-.05.24-.02.46-.03.67-.05.21-.02.4-.03.55-.04.16-.01.27-.02.32-.02s.1,0,.15.02.09.04.12.08c.04.05.07.19.09.42.02.22.04.47.04.73s.02.51.02.75v.51c.29-.03.57-.05.85-.07.28-.01.56-.02.85-.03Z"/>
      <path class="cls-6" d="M86.29,23.36c-.07.1-.15.11-.24.03-.74-1.35-1.56-2.67-2.47-3.94,0,.15.03.41.06.78.03.37.05.74.05,1.13,0,.39-.01.74-.06,1.06-.04.32-.13.51-.26.56-.09.03-.24.06-.46.09-.21.03-.46.04-.73.05-.27,0-.55,0-.84-.02-.29-.02-.56-.05-.79-.09-.24-.04-.44-.1-.59-.18-.15-.08-.23-.17-.23-.29,0-.38.02-.77.07-1.15s.08-.77.1-1.15c.1-1.61.17-3.23.22-4.86.02-.63.03-1.26.03-1.88s0-1.25-.03-1.88c0-.12,0-.23,0-.34.01-.11.08-.19.2-.23.08-.03.26-.06.53-.09s.56-.04.87-.05c.31,0,.58,0,.84.02.25.02.41.06.46.12,0,.02.02.07.04.14.02.07.03.15.04.23.02.08.03.16.04.24s.02.13.02.16c.64-.46,1.22-.73,1.75-.82.52-.09.99-.04,1.39.13.4.17.74.46,1.02.85.28.39.49.84.64,1.35s.24,1.05.25,1.62-.03,1.12-.14,1.65-.3,1.02-.55,1.46-.57.8-.96,1.05c.28.46.6.9.97,1.32.36.42.67.83.92,1.22.05.09.08.16.11.22.02.06,0,.13-.08.22-.03.03-.15.11-.35.24-.21.13-.43.26-.68.41-.25.15-.49.28-.71.4-.23.12-.37.2-.44.23ZM83.43,16.38c.43.15.78.16,1.04.03.26-.13.45-.32.56-.57.11-.25.15-.53.13-.83-.02-.3-.11-.55-.26-.74s-.36-.3-.62-.33-.56.12-.92.44c.02.34.03.67.04,1,0,.33.01.66.02,1Z"/>
      <path class="cls-6" d="M94.39,15.12v-1.32c0-.32,0-.66,0-1.01,0-.35,0-.68,0-.97v-.73c0-.19,0-.29.01-.3.05-.07.18-.12.4-.16s.45-.07.71-.08c.25-.02.5-.03.73-.03.24,0,.4,0,.49,0,.06,0,.14,0,.24,0,.1,0,.2.01.31.02.11.01.2.03.29.06s.15.06.18.11c.03.04.04.09.04.13v.13c-.05.92-.08,1.83-.1,2.75-.01.92-.02,1.84-.02,2.76v2.75c0,.92,0,1.83-.02,2.75,0,.06,0,.14,0,.22,0,.08,0,.15,0,.2-.02.11-.16.18-.43.21-.26.03-.57.05-.91.05s-.67,0-.98-.02c-.32-.02-.53-.02-.64-.02-.07,0-.12-.02-.17-.07-.04-.05-.07-.11-.09-.18-.02-.07-.04-.14-.04-.22-.01-.08-.01-.14-.01-.2-.03-.72-.03-1.43.01-2.14s.03-1.42-.01-2.14c-.54-.07-1.08-.08-1.62-.05,0,.1-.02.29-.03.56,0,.28-.02.6-.04.96-.02.36-.04.74-.06,1.14-.03.4-.05.77-.07,1.1s-.04.62-.08.84c-.03.22-.05.35-.07.37-.02.02-.05.03-.08.02-.04,0-.07,0-.1,0-.45-.07-.91-.08-1.37-.05-.46.03-.92.04-1.37.02-.06,0-.12,0-.17-.02-.06-.01-.09-.06-.1-.15-.03-.32-.03-.66,0-1.04.03-.38.05-.73.06-1.05.02-.73.03-1.46.03-2.18v-2.18c0-.46,0-.91-.02-1.36,0-.45-.02-.9-.04-1.36,0-.08,0-.14,0-.19,0-.05.04-.08.11-.11.27-.02.5-.04.7-.06.2-.02.42-.03.65-.05.23-.02.46-.03.67-.05.21-.02.4-.03.55-.04.16-.01.26-.02.32-.02s.1,0,.15.02c.05.01.09.04.12.08.04.05.07.19.09.42.02.22.04.47.04.73s.02.51.02.75v.51c.29-.03.57-.05.86-.07.28-.01.56-.02.85-.03Z"/>
      <path class="cls-6" d="M105.16,22.64s-.2.05-.48.07c-.28.03-.62.05-1.02.08-.4.03-.84.05-1.31.08-.47.03-.92.05-1.35.07-.42.02-.8.02-1.12.02s-.54,0-.65-.02c-.12-.02-.21-.08-.26-.16-.05-.09-.08-.19-.08-.31,0-.25,0-.7-.02-1.34s-.02-1.38-.02-2.2c0-.82,0-1.68,0-2.58s0-1.74.03-2.51.05-1.43.1-1.98.11-.87.19-.98c.06-.08.15-.14.29-.18.05-.01.22-.02.53-.02s.66,0,1.09,0,.88.02,1.36.03c.49.02.94.03,1.37.05.43.02.8.03,1.12.05.32.02.51.03.58.04.07.01.12.05.15.11.03.06.04.13.04.21s0,.17-.02.25c-.01.09-.03.16-.04.21,0,.07-.02.21-.03.43-.01.22-.02.46-.04.7s-.04.47-.07.67c-.03.2-.07.31-.11.33-.05.03-.13.05-.23.06-.11,0-.19,0-.26,0-.48.02-.96.02-1.44-.02s-.96-.05-1.44-.07c-.03.23-.06.46-.08.68-.03.22-.05.45-.07.68.19-.01.43-.03.71-.07s.58-.06.88-.09.58-.05.85-.06c.27-.01.49,0,.66.02.14.02.22.1.23.25.02.14.02.27.02.39,0,.09,0,.26.01.51.01.25.02.51.02.78s0,.51,0,.74c0,.23-.02.37-.05.41-.05.09-.23.15-.55.18s-.67.05-1.05.06c-.39,0-.75,0-1.1-.02-.35-.02-.58-.02-.71-.02v1.83c.39,0,.78,0,1.15-.02.38-.01.76-.03,1.14-.05.13-.01.26-.03.4-.05s.27-.03.4-.03c.08,0,.13.01.17.03s.06.07.09.15c.03.07.05.22.06.47,0,.25.02.51.02.78,0,.28,0,.54,0,.79,0,.25-.02.43-.03.52Z"/>
      <path class="cls-6" d="M108.27,22.73c-.09,0-.23,0-.41,0-.19,0-.38,0-.57,0-.19-.01-.37-.04-.52-.09-.15-.05-.23-.13-.24-.24-.01-.08-.01-.29-.01-.63s0-.77,0-1.28c0-.51,0-1.09.01-1.72,0-.64.01-1.29.02-1.95,0-.66.02-1.31.03-1.94,0-.63.02-1.2.03-1.69,0-.5.02-.9.04-1.23.01-.32.03-.5.04-.53,0-.05.04-.09.11-.11.06-.02.13-.04.2-.05s.15-.02.22-.02h.19c.06,0,.22,0,.49-.02.27-.01.54-.02.84-.02s.56-.01.8-.02c.24,0,.37,0,.39,0,.02.01.04.03.05.07.01.03.03.06.04.08.02.07.03.22.03.47v.87c0,.33,0,.7-.01,1.09,0,.39-.02.77-.03,1.13,0,.36-.02.68-.02.97,0,.29,0,.5,0,.63,0,.71,0,1.41.01,2.12,0,.7.02,1.41.04,2.12.01.25.03.52.05.81.02.29.03.56,0,.81,0,.09-.03.15-.07.19s-.09.07-.17.09c-.22.05-.48.08-.79.09s-.57,0-.8,0Z"/>
      <path class="cls-6" d="M116.22,22.95c0,.1-.07.17-.22.23s-.33.09-.54.11c-.22.02-.46.02-.72,0-.27-.01-.52-.02-.75-.04-.24-.02-.45-.04-.63-.07-.19-.03-.31-.05-.37-.06-.05.02-.1.02-.14,0-.04-.02-.08-.05-.1-.11l.1-2.04c.04-1.18.09-2.35.16-3.52.07-1.17.11-2.34.13-3.52-.07,0-.22,0-.45-.02s-.47-.02-.73-.03c-.26-.01-.5-.02-.71-.04-.21-.02-.34-.04-.37-.06-.04-.03-.07-.09-.09-.18-.02-.09-.04-.18-.04-.29-.01-.1-.02-.2-.02-.29v-.22c0-.08,0-.22,0-.43,0-.21,0-.42,0-.65,0-.22.02-.43.03-.61.01-.19.05-.3.1-.34l.21-.02c.78-.02,1.57-.01,2.36.03s1.58.06,2.38.05c.08,0,.27,0,.56-.02.29-.02.59-.03.91-.04.31-.01.6-.02.85-.02.25,0,.38,0,.39.02.02.04.04.11.05.19.02.08.03.15.04.2,0,.07.02.24.02.52v.88c0,.31,0,.6,0,.86,0,.26-.01.41-.02.44-.02.08-.14.13-.35.16-.21.03-.46.04-.72.04s-.52,0-.77-.02c-.25-.01-.42-.02-.51-.02v8.89Z"/>
    </g>
  </g>
  <g id="Schlücke">
    <g>
      <path class="cls-3" d="M9.42,250.32s0,.17,0,.37c0,.2,0,.41-.01.64s0,.43-.02.61c0,.18-.01.27-.01.28-.03.08-.13.14-.31.17-.17.03-.36.05-.58.06s-.42,0-.62,0c-.2,0-.34-.01-.42-.01-.04,0-.09,0-.15,0-.06,0-.12,0-.18,0s-.12,0-.17-.02c-.05-.02-.09-.04-.1-.08,0-.02-.01-.07-.01-.16s0-.21,0-.35c0-.14,0-.29.02-.45,0-.16.01-.31.02-.46,0-.15,0-.28.01-.39,0-.11,0-.19,0-.24-.07,0-.21,0-.43.01-.21,0-.43.01-.67.02-.23,0-.44,0-.64,0-.19,0-.31-.02-.35-.04-.06-.03-.11-.09-.13-.17,0-.03-.01-.15-.01-.34s0-.41.01-.65.02-.46.03-.66.02-.33.03-.39c.02-.11.07-.19.16-.24.04-.02.15-.04.33-.05.18-.01.38-.02.59-.03s.42-.01.61-.02c.2,0,.33,0,.4,0,0-.07,0-.2-.02-.38-.02-.18-.03-.37-.04-.56s-.01-.37-.02-.53c0-.16,0-.27.03-.31.04-.07.1-.12.17-.14.02,0,.13-.01.33-.02.2,0,.41,0,.65,0s.46,0,.67.01c.21,0,.34.01.39.02.05,0,.09.02.14.04.04.02.08.05.1.1.02.06.05.17.07.34.02.17.04.35.05.55.01.2.02.38.04.56.01.18.02.31.02.39.12,0,.26,0,.41,0,.16,0,.31,0,.47.01.16,0,.32.01.47.02.15.01.28.03.4.05.06.05.11.09.14.13.03.04.05.1.05.19v.63c0,.16,0,.32,0,.5,0,.18,0,.34-.01.49,0,.15,0,.27-.01.37s0,.15-.02.16c-.02.04-.12.06-.3.06s-.37,0-.58-.02-.42-.03-.61-.05-.33-.03-.39-.03Z"/>
      <path class="cls-3" d="M16.67,247.92c.5.13.89.37,1.16.74.27.36.41.77.44,1.21.02.44-.07.89-.29,1.34-.22.45-.56.83-1.02,1.15s-1.05.51-1.76.61-1.54,0-2.49-.27c-.06-.02-.15-.04-.25-.06-.1-.02-.19-.06-.28-.1s-.15-.09-.2-.15c-.05-.06-.05-.14-.01-.23.08-.2.15-.4.2-.61.05-.21.09-.42.1-.62,0-.06.01-.15.01-.25s.03-.18.1-.22c.02,0,.08,0,.19.02s.24.05.4.08c.16.03.34.06.54.08.2.02.4.02.59,0s.38-.08.56-.16.33-.21.46-.38c.08-.1.13-.21.14-.33.02-.12,0-.23-.03-.34s-.1-.21-.18-.29c-.08-.09-.19-.16-.31-.2-.1-.03-.2-.05-.32-.06-.12,0-.24,0-.37,0-.12.01-.25.03-.37.04s-.23.03-.34.04h-.15c-.06,0-.1-.03-.11-.08.04-.21.08-.46.11-.76s.03-.55,0-.76c.02-.04.13-.07.33-.09s.41-.06.65-.11c.24-.05.45-.14.65-.25.2-.12.32-.29.36-.51.03-.18-.01-.33-.13-.47-.12-.14-.26-.23-.42-.28-.21-.06-.45-.06-.73.02-.28.08-.54.16-.79.25s-.47.14-.64.16c-.18.02-.26-.06-.26-.23v-.84c0-.18,0-.34,0-.49,0-.15.01-.24.03-.27.04-.09.11-.15.2-.18.78-.27,1.49-.4,2.12-.38s1.17.13,1.61.33c.45.2.8.48,1.07.82.26.34.42.7.47,1.08.05.38,0,.75-.18,1.12-.17.36-.47.67-.88.92Z"/>
    </g>
    <g>
      <path class="cls-3" d="M152.7,17.28s0,.17,0,.37c0,.2,0,.41-.01.64s0,.43-.02.61c0,.18-.01.27-.01.28-.03.08-.13.14-.31.17-.17.03-.36.05-.58.06s-.42,0-.62,0-.34-.01-.42-.01c-.04,0-.09,0-.15,0-.06,0-.12,0-.18,0s-.12,0-.17-.02-.09-.04-.1-.08c0-.02-.01-.07-.01-.16s0-.21,0-.35c0-.14.01-.29.02-.45,0-.16.01-.31.02-.46,0-.15,0-.28.01-.39,0-.11,0-.19,0-.24-.07,0-.21,0-.43.01-.21,0-.43.01-.67.02-.23,0-.44,0-.64,0-.19,0-.31-.02-.35-.04-.06-.03-.11-.09-.13-.17,0-.03-.01-.15-.01-.34s0-.41.01-.65c0-.24.02-.46.03-.66s.02-.33.03-.39c.02-.11.07-.19.16-.24.04-.02.15-.04.33-.05.18-.01.38-.02.59-.03s.42-.01.61-.02c.2,0,.33,0,.4,0,0-.07,0-.2-.02-.38-.02-.18-.03-.37-.04-.56s-.01-.37-.02-.53c0-.16,0-.27.03-.31.04-.07.1-.12.17-.14.02,0,.13-.01.33-.02.2,0,.41,0,.65,0,.24,0,.46,0,.67.01.21,0,.34.01.39.02.05,0,.09.02.14.04.04.02.08.05.1.1.02.06.05.17.07.34.02.17.04.35.05.55.01.2.02.38.04.56.01.18.02.31.02.39.12,0,.26,0,.41,0,.16,0,.31,0,.47.01.16,0,.32.01.47.02.15.01.29.03.4.05.06.05.11.09.14.13.03.04.04.1.05.19v.63c0,.16,0,.32,0,.5,0,.18,0,.34-.01.49,0,.15,0,.27-.01.37s0,.15-.02.16c-.02.04-.12.06-.3.06s-.37,0-.58-.02c-.21-.01-.42-.03-.61-.05-.2-.02-.33-.03-.39-.03Z"/>
      <path class="cls-3" d="M159.94,14.88c.5.13.89.37,1.16.74.27.36.41.77.44,1.21.02.44-.07.89-.29,1.34-.22.45-.56.83-1.02,1.15s-1.05.51-1.76.61-1.54,0-2.49-.27c-.06-.02-.15-.04-.25-.06-.1-.02-.19-.06-.28-.1s-.15-.09-.2-.15c-.05-.06-.05-.14-.01-.23.08-.2.15-.4.2-.61.05-.21.09-.42.1-.62,0-.06.01-.15.01-.25s.03-.18.1-.22c.02,0,.08,0,.19.02.11.02.24.05.4.08.16.03.34.06.54.08.2.02.4.02.59,0,.2-.02.38-.08.56-.16s.33-.21.46-.38c.08-.1.13-.21.14-.33.02-.12,0-.23-.03-.34-.04-.11-.1-.21-.18-.29-.08-.09-.19-.16-.31-.2-.1-.03-.2-.05-.32-.06-.12,0-.24,0-.37,0-.12.01-.25.03-.37.04-.12.02-.23.03-.34.04h-.15c-.06,0-.1-.03-.11-.08.04-.21.08-.46.11-.76s.03-.55,0-.76c.02-.04.13-.07.33-.09s.41-.06.65-.11.45-.14.65-.25c.2-.12.32-.29.36-.51.03-.18-.01-.33-.13-.47-.12-.14-.26-.23-.42-.28-.21-.06-.45-.06-.73.02-.28.08-.54.16-.79.25s-.47.14-.64.16c-.18.02-.26-.06-.26-.23v-.84c0-.18,0-.34,0-.49,0-.15.01-.24.03-.27.04-.09.11-.15.2-.18.78-.27,1.49-.4,2.12-.38.63.02,1.17.13,1.61.33.45.2.8.48,1.07.82.26.34.42.7.47,1.08.05.38,0,.75-.18,1.12-.17.36-.47.67-.88.92Z"/>
    </g>
  </g>
  <g id="Motive">
    <g>
      <g>
        <path class="cls-2" d="M97.27,120.91c-.31,4.17-1.73,7.02-4.63,9.93-2.77,2.79-5.7,5.49-8.45,8.31-.19.18-.43.19-.69.15l-6.16-6.26c-.26-.65.58-1.12.96-1.5,5.72-5.64,11.39-11.3,17.14-16.92.71-.31.9.26,1.09.81s.57,2.05.65,2.9c.09,1.01.1,2.52.09,2.58Z"/>
        <path class="cls-2" d="M67.18,146.4c-.17-.29-.16-.26-.26-.49-.57-1.42-.23-2.86.79-3.96,2.18-2.34,4.71-4.61,7.01-6.87.56-.55,1.1-1.12,1.64-1.68h.13s4.94,5.13,4.94,5.13c-1.89,1.77-3.68,3.65-5.52,5.46-1.03,1.01-2.14,2.18-3.21,3.13-1.44,1.28-3.43,1.28-4.89.03l-.63-.76"/>
      </g>
      <g>
        <path class="cls-2" d="M94.37,95.15c5.52,4.55,4.27,13.26-2.2,16.19-6.91,3.13-14.75-2.47-13.74-10.04s10.01-11.05,15.94-6.15ZM93.06,96.64c-5.68-4.72-14.21.47-12.52,7.69,1.41,6.03,8.85,7.56,13.38,3.33,1.03-.96,1.63-2.94,1.63-2.94.57-1.94.35-4.03-.61-5.81-.47-.88-1.13-1.63-1.89-2.27Z"/>
        <path class="cls-2" d="M81.96,94.2s-1.54,1.4-1.54,1.4c0,0-.34-.13-.44-.17-1.04-.4-2.17-.64-3.29-.59-5.4.24-9.01,5.77-6.8,10.8.37.83.9,1.58,1.48,2.25.35.4,1.11,1.09,1.94,1.43,1.97.81,4.12,1.19,6.15.54.33-.11.97-.36.97-.36l1.54,1.34s-.73.45-1.1.6c-3.28,1.38-7.15,1.06-9.84-1.25-.07-.06-.49-.42-.65-.57-.39-.36-.49-.46-.55-.53-.47-.49-.86-1.05-1.21-1.64-4.2-7.08,1.87-15.7,9.9-14.46,1.22.19,2.38.64,3.46,1.22Z"/>
        <path class="cls-2" d="M74.75,89.09l.18,3.36-1.21.29-1.56-2.93,2.59-.71Z"/>
        <polygon class="cls-2" points="75.54 92.27 75.4 88.92 77.46 88.36 75.88 92.14 75.54 92.27"/>
        <polygon class="cls-2" points="73.09 92.92 72.74 92.99 69.44 90.5 71.51 89.94 73.09 92.92"/>
        <polygon class="cls-2" points="74.49 88.51 72.1 89.12 72.39 87.91 73.63 87.59 74.49 88.51"/>
        <polygon class="cls-2" points="71.66 88.13 71.4 89.31 69.53 89.82 70.56 88.42 71.66 88.13"/>
        <polygon class="cls-2" points="77.03 87.78 75.2 88.33 74.37 87.37 75.43 87.11 77.03 87.78"/>
        <path class="cls-2" d="M84.63,96.49s0,.05.02.06c1.4,1.63,2.16,4.04,2.12,6.18,0,.18-.07.91-.09,1.02l-.13.84c-.37,1.49-1.01,2.92-2.02,4.07-.58-.31-1.07-.74-1.56-1.18v-.07s.06-.02.07-.04c.99-1.25,1.64-2.8,1.71-4.42.09-1.97-.52-3.83-1.78-5.34.14-.14.3-.32.45-.45.2-.17.47-.37.7-.52.06-.04.36-.23.4-.23.03,0,.09.03.11.06Z"/>
        <path class="cls-2" d="M86.53,103.22c.19-.02.14.13.02.2l-.1-.1.08-.1Z"/>
      </g>
      <path class="cls-2" d="M84.66,62.12c.37.31.84-.92,1.11-1.21,5.91-6.49,15.9-.98,14.74,7.46-.66,4.84-7.61,11.72-11.33,14.76-4.25,3.46-4.72,3.17-8.83-.22s-10.76-9.91-11.17-15.13c-.65-8.2,9.3-13.21,14.91-6.73.26.3.53,1.05.58,1.09Z"/>
    </g>
  </g>
  <g id="Kategorien">
    <g>
      <path class="cls-4" d="M16.88,11.24c-.78-.5-1.64-.67-2.56-.59-1.24.1-2.47.91-3.06,2-.13.23-.13.29.07.48.23.22.95.76,1.22.92.13.07.25.12.39.05.49-.52.81-1.14,1.61-1.2.66-.05,1.55.34,1.31,1.14-.15.5-.67.63-1.07.86-.58.35-1.31,1.02-1.37,1.73-.01.14-.02.52,0,.64.03.16.19.21.33.22.39.03,1.51.05,1.87,0,.3-.05.23-.25.3-.46.22-.67.92-.87,1.42-1.25,1.71-1.3,1.2-3.47-.46-4.54Z"/>
      <rect class="cls-4" x="13.41" y="18.19" width="2.49" height="2.49" rx=".42" ry=".42"/>
    </g>
    <g>
      <path class="cls-4" d="M153.52,243.89c-.78-.5-1.64-.67-2.56-.59-1.24.1-2.47.91-3.06,2-.13.23-.13.29.07.48.23.22.95.76,1.22.92.13.07.25.12.39.05.49-.52.81-1.14,1.61-1.2.66-.05,1.55.34,1.31,1.14-.15.5-.67.63-1.07.86-.58.35-1.31,1.02-1.37,1.73-.01.14-.02.52,0,.64.03.16.19.21.33.22.39.03,1.51.05,1.87,0,.3-.05.23-.25.3-.46.22-.67.92-.87,1.42-1.25,1.71-1.3,1.2-3.47-.46-4.54Z"/>
      <rect class="cls-4" x="150.05" y="250.83" width="2.49" height="2.49" rx=".42" ry=".42"/>
    </g>
  </g>
  <g id="Text_Karte" data-name="Text Karte">
    <g>
      <g>
        <path class="cls-4" d="M48.48,178.74v-5.85c0-.29.24-.55.55-.55s.55.26.55.55v2.87l3.24-3.25c.22-.22.56-.22.78,0,.21.21.21.56,0,.78l-2.2,2.19,2.22,2.91c.2.23.16.58-.08.77-.1.09-.22.13-.35.13-.15,0-.3-.07-.41-.2l-2.16-2.83-1.04,1.06v1.42c0,.3-.24.55-.55.55s-.55-.25-.55-.55Z"/>
        <path class="cls-4" d="M56.41,173.04c0,.3-.23.55-.54.55s-.54-.25-.54-.55v-.21c0-.3.24-.54.54-.54s.54.24.54.54v.21ZM56.41,174.85v3.9c0,.3-.23.54-.54.54s-.54-.24-.54-.54v-3.9c0-.32.24-.55.54-.55s.54.23.54.55Z"/>
        <path class="cls-4" d="M57.69,177.86c.18-.24.53-.27.75-.08.26.22.71.45,1.1.44.27,0,.52-.09.68-.19.14-.12.18-.22.18-.3,0-.05,0-.07-.03-.1-.01-.03-.05-.07-.13-.12-.14-.1-.44-.21-.8-.28h0c-.31-.06-.61-.14-.87-.26-.27-.13-.51-.31-.69-.58-.11-.18-.17-.4-.17-.63,0-.46.26-.85.59-1.1.35-.24.77-.37,1.23-.37.69,0,1.18.33,1.5.55.24.16.31.49.16.74-.16.24-.49.31-.74.14-.32-.21-.6-.37-.92-.37-.25,0-.47.08-.6.18-.13.09-.16.18-.16.23,0,.04,0,.05.02.08.01.02.04.06.11.1.13.09.39.18.73.24h0s.01.01.01.01c.33.06.64.15.93.29.27.12.54.31.71.59.12.2.19.43.19.66,0,.49-.27.9-.63,1.16-.36.25-.81.4-1.3.4-.78,0-1.38-.37-1.78-.69-.22-.18-.25-.52-.07-.74Z"/>
        <path class="cls-4" d="M62.41,177.86c.18-.24.53-.27.75-.08.26.22.71.45,1.1.44.27,0,.52-.09.68-.19.14-.12.18-.22.18-.3,0-.05,0-.07-.03-.1-.01-.03-.05-.07-.13-.12-.14-.1-.44-.21-.8-.28h0c-.31-.06-.61-.14-.87-.26-.27-.13-.51-.31-.69-.58-.11-.18-.17-.4-.17-.63,0-.46.26-.85.59-1.1.35-.24.77-.37,1.23-.37.69,0,1.18.33,1.5.55.24.16.31.49.16.74-.16.24-.49.31-.74.14-.32-.21-.6-.37-.92-.37-.25,0-.47.08-.6.18-.13.09-.16.18-.16.23,0,.04,0,.05.02.08.01.02.04.06.11.1.13.09.39.18.73.24h0s.01.01.01.01c.33.06.64.15.93.29.27.12.54.31.71.59.12.2.19.43.19.66,0,.49-.27.9-.63,1.16-.36.25-.81.4-1.3.4-.78,0-1.38-.37-1.78-.69-.22-.18-.25-.52-.07-.74Z"/>
        <path class="cls-4" d="M67.21,180.19c.46-.15.7-.46.68-.9-.29-.08-.57-.32-.57-.68v-.08c0-.38.27-.67.68-.67.45,0,.72.34.72.88v.11c0,.68-.18,1.14-.49,1.46-.27.26-.66.43-.94.43-.21,0-.31-.13-.31-.28,0-.14.1-.24.23-.27Z"/>
        <path class="cls-4" d="M78.39,172.84v5.9c0,.3-.26.55-.56.55s-.55-.25-.55-.55v-4.21l-1.44,2c-.11.15-.27.23-.45.23h-.02c-.18,0-.35-.08-.46-.23l-1.43-2v4.21c0,.3-.25.55-.56.55s-.55-.25-.55-.55v-5.9c0-.3.25-.55.55-.55h.03c.16,0,.34.08.44.23l1.99,2.76,1.99-2.76c.11-.15.27-.23.45-.23h.01c.3,0,.56.25.56.55Z"/>
        <path class="cls-4" d="M84.73,176.8v1.96c0,.29-.24.53-.53.53-.26,0-.46-.19-.52-.43-.38.27-.83.43-1.33.43-.68,0-1.27-.28-1.7-.73-.43-.46-.68-1.08-.68-1.76s.25-1.31.68-1.76c.43-.46,1.02-.75,1.7-.75.5,0,.95.17,1.33.44.06-.25.26-.44.52-.44.29,0,.53.24.53.54v1.97ZM83.67,176.8c0-.42-.15-.78-.39-1.03-.24-.27-.58-.41-.93-.41s-.7.14-.93.41c-.24.25-.38.61-.38,1.03s.14.77.38,1.03c.23.25.57.39.93.39s.69-.14.93-.39c.24-.26.39-.62.39-1.03Z"/>
        <path class="cls-4" d="M89.57,174.82c0,.28-.23.53-.53.53-.23,0-.43.06-.6.19-.19.12-.34.29-.46.48-.24.32-.36.7-.41.84v1.9c0,.29-.25.53-.55.53s-.53-.24-.53-.53v-3.94c0-.29.24-.52.53-.52s.55.23.55.52v.07c.06-.07.14-.15.21-.2.33-.22.76-.4,1.26-.39.3,0,.53.23.53.52Z"/>
        <path class="cls-4" d="M93.76,174.82c0,.28-.23.53-.53.53-.23,0-.43.06-.6.19-.19.12-.34.29-.46.48-.24.32-.36.7-.41.84v1.9c0,.29-.25.53-.55.53s-.53-.24-.53-.53v-3.94c0-.29.24-.52.53-.52s.55.23.55.52v.07c.06-.07.14-.15.21-.2.33-.22.76-.4,1.26-.39.3,0,.53.23.53.52Z"/>
        <path class="cls-4" d="M98.64,174.82v3.78c0,1.34-1.06,2.39-2.39,2.39-.36,0-.73-.1-1.03-.25-.28-.12-.38-.43-.26-.71.13-.24.47-.35.71-.22.19.09.38.14.58.14.59-.01,1.09-.39,1.25-.91-.28.16-.62.24-.95.24-1.15,0-2.09-.95-2.09-2.1v-2.36c0-.3.25-.53.52-.53.31,0,.53.23.53.53v2.36c0,.58.47,1.02,1.04,1.02s1.03-.44,1.03-1.02v-2.36c0-.3.22-.53.52-.53s.54.23.54.53Z"/>
      </g>
      <g>
        <path class="cls-4" d="M99.45,180.19c.46-.15.7-.46.68-.9-.29-.08-.57-.32-.57-.68v-.08c0-.38.27-.67.68-.67.45,0,.72.34.72.88v.11c0,.68-.18,1.14-.49,1.46-.27.26-.66.43-.94.43-.21,0-.31-.13-.31-.28,0-.14.1-.24.23-.27Z"/>
        <path class="cls-4" d="M104.62,178.74v-5.85c0-.29.24-.55.55-.55s.55.26.55.55v2.87l3.24-3.25c.22-.22.56-.22.78,0s.21.56,0,.78l-2.2,2.19,2.22,2.91c.2.23.16.58-.08.77-.1.09-.22.13-.35.13-.15,0-.3-.07-.41-.2l-2.16-2.83-1.04,1.06v1.42c0,.3-.24.55-.55.55s-.55-.25-.55-.55Z"/>
        <path class="cls-4" d="M112.55,173.04c0,.3-.23.55-.54.55s-.54-.25-.54-.55v-.21c0-.3.24-.54.54-.54s.54.24.54.54v.21ZM112.55,174.85v3.9c0,.3-.23.54-.54.54s-.54-.24-.54-.54v-3.9c0-.32.24-.55.54-.55s.54.23.54.55Z"/>
      </g>
      <g>
        <path class="cls-4" d="M114.47,172.29c.31,0,.56.25.56.55v5.9c0,.3-.25.55-.56.55s-.55-.25-.55-.55v-5.9c0-.3.25-.55.55-.55Z"/>
        <path class="cls-4" d="M116.76,172.29c.31,0,.56.25.56.55v5.9c0,.3-.25.55-.56.55s-.55-.25-.55-.55v-5.9c0-.3.25-.55.55-.55Z"/>
        <path class="cls-4" d="M119.06,177.87c.41,0,.75.34.75.75s-.34.74-.75.74-.74-.33-.74-.74.33-.75.74-.75Z"/>
      </g>
      <g>
        <path class="cls-4" d="M26.31,190.73c0,.3-.25.55-.54.55-.31,0-.55-.25-.55-.55v-5.81h0c0-.18.07-.36.22-.47.25-.17.59-.12.76.12l3.23,4.47v-4.12c0-.29.24-.54.54-.54s.55.25.55.54v5.81c0,.3-.25.55-.55.55-.16,0-.31-.08-.41-.2-.02-.02-.04-.04-.05-.06l-3.2-4.44v4.15Z"/>
        <path class="cls-4" d="M32.26,188.78c0-1.36,1.07-2.5,2.44-2.5,1.3,0,2.33.97,2.41,2.32v.05s0,.07-.01.09c-.03.24-.24.4-.52.4h-3.18c.05.23.16.49.34.66.21.24.61.42.96.45.36.03.79-.06,1.04-.25.21-.22.62-.19.75-.03.13.14.23.44,0,.65-.49.45-1.08.66-1.79.66-1.37,0-2.43-1.14-2.44-2.5ZM33.35,188.29h2.83c-.1-.4-.61-.99-1.48-1.06-.85.04-1.27.65-1.35,1.06Z"/>
        <path class="cls-4" d="M42.67,188.36v2.39c0,.29-.23.53-.52.53s-.53-.24-.53-.53v-2.39c0-.56-.47-1.01-1.04-1.01s-1,.45-1,1.01v2.39s0,.06-.02.1c-.05.24-.27.43-.53.43-.3,0-.53-.24-.53-.53v-3.94c0-.29.23-.53.53-.53.21,0,.4.12.49.31.3-.19.67-.31,1.06-.31,1.16,0,2.09.95,2.09,2.08Z"/>
        <path class="cls-4" d="M48.6,188.36v2.39c0,.29-.23.53-.52.53s-.53-.24-.53-.53v-2.39c0-.56-.47-1.01-1.04-1.01s-1,.45-1,1.01v2.39s0,.06-.02.1c-.05.24-.27.43-.53.43-.3,0-.53-.24-.53-.53v-3.94c0-.29.23-.53.53-.53.21,0,.4.12.49.31.3-.19.67-.31,1.06-.31,1.16,0,2.09.95,2.09,2.08Z"/>
        <path class="cls-4" d="M50.01,188.78c0-1.36,1.07-2.5,2.44-2.5,1.3,0,2.33.97,2.41,2.32v.05s0,.07-.01.09c-.03.24-.24.4-.52.4h-3.18c.05.23.16.49.34.66.21.24.61.42.96.45.36.03.79-.06,1.04-.25.21-.22.62-.19.75-.03.13.14.23.44,0,.65-.49.45-1.08.66-1.79.66-1.37,0-2.43-1.14-2.44-2.5ZM51.1,188.29h2.83c-.1-.4-.61-.99-1.48-1.06-.85.04-1.27.65-1.35,1.06Z"/>
        <path class="cls-4" d="M63.58,190.74c0,.29-.24.54-.54.54-.27,0-.48-.19-.53-.43-.38.26-.86.43-1.36.43-1.35,0-2.43-1.14-2.43-2.49s1.08-2.51,2.43-2.51c.49,0,.97.16,1.34.42v-1.88c0-.29.24-.54.55-.54s.54.25.54.54v3.96h0v1.96ZM61.15,187.37c-.36,0-.69.15-.94.41-.25.25-.4.61-.4,1.01s.15.74.4.99c.25.26.58.41.94.41s.69-.15.94-.41c.25-.25.4-.61.4-.99,0-.4-.15-.76-.4-1.01-.25-.26-.57-.41-.94-.41Z"/>
        <path class="cls-4" d="M68.53,186.81c0,.28-.23.53-.53.53-.23,0-.43.06-.6.19-.19.12-.34.29-.46.48-.24.32-.36.7-.41.84v1.9c0,.29-.25.53-.55.53s-.53-.24-.53-.53v-3.94c0-.29.24-.52.53-.52s.55.23.55.52v.07c.06-.07.14-.15.21-.2.33-.22.76-.4,1.26-.39.3,0,.53.23.53.52Z"/>
      </g>
      <g>
        <path class="cls-4" d="M68.79,188.78c0-1.36,1.07-2.5,2.44-2.5,1.3,0,2.33.97,2.41,2.32v.05s0,.07-.01.09c-.03.24-.24.4-.52.4h-3.18c.05.23.16.49.34.66.21.24.61.42.96.45.36.03.79-.06,1.04-.25.21-.22.62-.19.75-.03.13.14.23.44,0,.65-.49.45-1.08.66-1.79.66-1.37,0-2.43-1.14-2.44-2.5ZM69.88,188.29h2.83c-.1-.4-.61-.99-1.48-1.06-.85.04-1.27.65-1.35,1.06Z"/>
        <path class="cls-4" d="M76.09,185.03c0,.3-.23.55-.54.55s-.54-.25-.54-.55v-.21c0-.3.24-.54.54-.54s.54.24.54.54v.21ZM76.09,186.84v3.9c0,.3-.23.54-.54.54s-.54-.24-.54-.54v-3.9c0-.32.24-.55.54-.55s.54.23.54.55Z"/>
        <path class="cls-4" d="M82.8,188.56h-1.23v2.17c0,.3-.25.55-.56.55s-.55-.25-.55-.55v-5.9c0-.31.25-.55.55-.55h1.79c1.19,0,2.15.96,2.15,2.15s-.96,2.13-2.15,2.13ZM81.57,187.45h1.23c.58,0,1.03-.46,1.04-1.02,0-.58-.46-1.04-1.04-1.04h-1.23v2.06Z"/>
        <path class="cls-4" d="M85.6,188.78c0-1.36,1.07-2.5,2.44-2.5,1.3,0,2.33.97,2.41,2.32v.05s0,.07,0,.09c-.03.24-.24.4-.52.4h-3.18c.05.23.16.49.34.66.21.24.61.42.96.45.36.03.79-.06,1.04-.25.21-.22.62-.19.75-.03.13.14.23.44,0,.65-.49.45-1.08.66-1.79.66-1.37,0-2.43-1.14-2.44-2.5ZM86.69,188.29h2.83c-.1-.4-.61-.99-1.48-1.06-.85.04-1.27.65-1.35,1.06Z"/>
      </g>
      <g>
        <path class="cls-4" d="M94.73,186.81c0,.28-.23.53-.53.53-.23,0-.43.06-.6.19-.19.12-.34.29-.46.48-.24.32-.36.7-.41.84v1.9c0,.29-.25.53-.55.53s-.53-.24-.53-.53v-3.94c0-.29.24-.52.53-.52s.55.23.55.52v.07c.06-.07.14-.15.21-.2.33-.22.76-.4,1.26-.39.3,0,.53.23.53.52Z"/>
        <path class="cls-4" d="M95.6,189.85c.18-.24.53-.27.75-.08.26.22.71.45,1.1.44.27,0,.52-.09.68-.19.14-.12.18-.22.18-.3,0-.05-.01-.07-.03-.1,0-.03-.05-.07-.13-.12-.14-.1-.44-.21-.8-.28h0c-.31-.06-.61-.14-.87-.26-.27-.13-.51-.31-.69-.58-.11-.18-.17-.4-.17-.63,0-.46.26-.85.59-1.1.35-.24.77-.37,1.23-.37.69,0,1.18.33,1.5.55.24.16.31.49.16.74-.16.24-.49.31-.74.14-.32-.21-.6-.37-.92-.37-.25,0-.47.08-.6.18-.13.09-.16.18-.16.23,0,.04,0,.05.02.08,0,.02.04.06.11.1.13.09.39.18.73.24h.01s0,.01,0,.01c.33.06.64.15.93.29.27.12.54.31.71.59.12.2.19.43.19.66,0,.49-.27.9-.63,1.16-.36.25-.81.4-1.3.4-.78,0-1.38-.37-1.78-.69-.22-.18-.25-.52-.07-.74Z"/>
        <path class="cls-4" d="M101.02,190.55c-.43-.44-.69-1.06-.69-1.76s.26-1.27.69-1.75c.45-.47,1.03-.76,1.72-.76s1.26.29,1.67.76c.45.48.7,1.07.7,1.75s-.25,1.32-.7,1.76c-.41.47-1.01.76-1.67.76s-1.27-.29-1.72-.76ZM101.42,188.79c0,.43.13.78.36,1.06.25.24.58.37.96.37.35,0,.67-.13.92-.37.25-.28.39-.63.39-1.06s-.14-.77-.39-1.04c-.25-.22-.57-.38-.92-.38-.38,0-.71.16-.96.38-.23.27-.36.63-.36,1.04Z"/>
        <path class="cls-4" d="M110.78,188.36v2.39c0,.29-.23.53-.52.53s-.53-.24-.53-.53v-2.39c0-.56-.47-1.01-1.04-1.01s-1,.45-1,1.01v2.39s0,.06-.02.1c-.05.24-.27.43-.53.43-.3,0-.53-.24-.53-.53v-3.94c0-.29.23-.53.53-.53.21,0,.4.12.49.31.3-.19.67-.31,1.06-.31,1.16,0,2.09.95,2.09,2.08Z"/>
        <path class="cls-4" d="M112.19,188.78c0-1.36,1.07-2.5,2.44-2.5,1.3,0,2.33.97,2.41,2.32v.05s0,.07,0,.09c-.03.24-.24.4-.52.4h-3.18c.05.23.16.49.34.66.21.24.61.42.96.45.36.03.79-.06,1.04-.25.21-.22.62-.19.75-.03.13.14.23.44,0,.65-.49.45-1.08.66-1.79.66-1.37,0-2.43-1.14-2.44-2.5ZM113.28,188.29h2.83c-.1-.4-.61-.99-1.48-1.06-.85.04-1.27.65-1.35,1.06Z"/>
        <path class="cls-4" d="M122.6,188.36v2.39c0,.29-.23.53-.52.53s-.53-.24-.53-.53v-2.39c0-.56-.47-1.01-1.04-1.01s-1,.45-1,1.01v2.39s0,.06-.02.1c-.05.24-.27.43-.53.43-.3,0-.53-.24-.53-.53v-3.94c0-.29.23-.53.53-.53.21,0,.4.12.49.31.3-.19.67-.31,1.06-.31,1.16,0,2.09.95,2.09,2.08Z"/>
        <path class="cls-4" d="M131.39,188.79v1.96c0,.29-.24.53-.53.53-.26,0-.46-.19-.52-.43-.38.27-.83.43-1.33.43-.68,0-1.27-.28-1.7-.73-.43-.46-.68-1.08-.68-1.76s.25-1.31.68-1.76c.43-.46,1.02-.75,1.7-.75.5,0,.95.17,1.33.44.06-.25.26-.44.52-.44.29,0,.53.24.53.54v1.97ZM130.33,188.79c0-.42-.15-.78-.39-1.03-.24-.27-.58-.41-.93-.41s-.7.14-.93.41c-.24.25-.38.61-.38,1.03s.14.77.38,1.03c.23.25.57.39.93.39s.69-.14.93-.39c.24-.26.39-.62.39-1.03Z"/>
        <path class="cls-4" d="M135.13,191.28c-1.14,0-2.08-.94-2.08-2.08v-2.39c0-.28.24-.53.53-.53s.53.25.53.53v2.39c0,.57.45,1.02,1.02,1.02s1.04-.45,1.05-1.02v-2.39c0-.28.22-.53.52-.53.28,0,.54.25.54.53v2.39c0,1.14-.96,2.08-2.11,2.08Z"/>
        <path class="cls-4" d="M138.84,189.85c.18-.24.53-.27.75-.08.26.22.71.45,1.1.44.27,0,.52-.09.68-.19.14-.12.18-.22.18-.3,0-.05-.01-.07-.03-.1,0-.03-.05-.07-.13-.12-.14-.1-.44-.21-.8-.28h0c-.31-.06-.61-.14-.87-.26-.27-.13-.51-.31-.69-.58-.11-.18-.17-.4-.17-.63,0-.46.26-.85.59-1.1.35-.24.77-.37,1.23-.37.69,0,1.18.33,1.5.55.24.16.31.49.16.74-.16.24-.49.31-.74.14-.32-.21-.6-.37-.92-.37-.25,0-.47.08-.6.18-.13.09-.16.18-.16.23,0,.04,0,.05.02.08,0,.02.04.06.11.1.13.09.39.18.73.24h.01s0,.01,0,.01c.33.06.64.15.93.29.27.12.54.31.71.59.12.2.19.43.19.66,0,.49-.27.9-.63,1.16-.36.25-.81.4-1.3.4-.78,0-1.38-.37-1.78-.69-.22-.18-.25-.52-.07-.74Z"/>
      </g>
      <g>
        <path class="cls-4" d="M27.47,202.74c0,.29-.24.54-.54.54-.27,0-.48-.19-.53-.43-.38.26-.86.43-1.36.43-1.35,0-2.43-1.14-2.43-2.49s1.08-2.51,2.43-2.51c.49,0,.97.16,1.34.42v-1.88c0-.29.24-.54.55-.54s.54.25.54.54v3.96h0v1.96ZM25.04,199.37c-.36,0-.69.15-.94.41-.25.25-.4.61-.4,1.01s.15.74.4.99c.25.26.58.41.94.41s.69-.15.94-.41c.25-.25.4-.61.4-.99,0-.4-.15-.76-.4-1.01-.25-.26-.57-.41-.94-.41Z"/>
        <path class="cls-4" d="M28.85,200.78c0-1.36,1.07-2.5,2.44-2.5,1.3,0,2.33.97,2.41,2.32v.05s0,.07-.01.09c-.03.24-.24.4-.52.4h-3.18c.05.23.16.49.34.66.21.24.61.42.96.45.36.03.79-.06,1.04-.25.21-.22.62-.19.75-.03.13.14.23.44,0,.65-.49.45-1.08.66-1.79.66-1.37,0-2.43-1.14-2.44-2.5ZM29.93,200.29h2.83c-.1-.4-.61-.99-1.48-1.06-.85.04-1.27.65-1.35,1.06Z"/>
      </g>
      <g>
        <path class="cls-4" d="M37.95,198.81c0,.28-.23.53-.53.53-.23,0-.43.06-.6.19-.19.12-.34.29-.46.48-.24.32-.36.7-.41.84v1.9c0,.29-.25.53-.55.53s-.53-.24-.53-.53v-3.94c0-.29.24-.52.53-.52s.55.23.55.52v.07c.06-.07.14-.15.21-.2.33-.22.76-.4,1.26-.39.3,0,.53.23.53.52Z"/>
        <path class="cls-4" d="M41.66,199.69c0-2.01,1.66-3.61,3.69-3.61.85,0,1.66.29,2.28.78.26.19.3.56.11.81-.19.24-.56.29-.81.09-.43-.33-.98-.54-1.58-.54-.72,0-1.35.27-1.8.73-.47.45-.75,1.06-.75,1.74s.28,1.27.75,1.72c.45.46,1.08.73,1.8.73.5,0,.97-.15,1.37-.38v-1.37h-1.43c-.31,0-.57-.26-.57-.57s.26-.56.57-.56h1.99c.32,0,.58.24.58.56v2.21c0,.07-.02.11-.03.17,0,.02,0,.03-.02.05h0c-.03.1-.09.18-.19.25-.63.49-1.42.78-2.27.78-2.03,0-3.69-1.59-3.69-3.59Z"/>
        <path class="cls-4" d="M52.87,198.81c0,.28-.23.53-.53.53-.23,0-.43.06-.6.19-.19.12-.34.29-.46.48-.24.32-.36.7-.41.84v1.9c0,.29-.25.53-.55.53s-.53-.24-.53-.53v-3.94c0-.29.24-.52.53-.52s.55.23.55.52v.07c.06-.07.14-.15.21-.2.33-.22.76-.4,1.26-.39.3,0,.53.23.53.52Z"/>
        <path class="cls-4" d="M55.97,203.28c-1.14,0-2.08-.94-2.08-2.08v-2.39c0-.28.24-.53.53-.53s.53.25.53.53v2.39c0,.57.45,1.02,1.02,1.02s1.04-.45,1.05-1.02v-2.39c0-.28.22-.53.52-.53.28,0,.54.25.54.53v2.39c0,1.14-.96,2.08-2.11,2.08Z"/>
        <path class="cls-4" d="M59.92,204.62v-3.82h0v-1.99c0-.29.24-.53.53-.53s.51.19.55.41c.37-.24.85-.41,1.36-.41,1.33,0,2.42,1.14,2.42,2.51s-1.09,2.48-2.42,2.48c-.5,0-.98-.15-1.34-.41v1.76c0,.28-.25.54-.57.54-.29,0-.53-.26-.53-.54ZM61.02,200.79c0,.39.13.77.39,1,.25.28.58.42.95.42.34,0,.68-.14.94-.42.23-.23.39-.61.39-1s-.16-.75-.39-1.01c-.26-.27-.6-.41-.94-.41-.37,0-.7.14-.95.41-.26.26-.39.62-.39,1.01Z"/>
        <path class="cls-4" d="M66.32,204.62v-3.82h0v-1.99c0-.29.24-.53.53-.53s.51.19.55.41c.37-.24.85-.41,1.36-.41,1.33,0,2.42,1.14,2.42,2.51s-1.09,2.48-2.42,2.48c-.5,0-.98-.15-1.34-.41v1.76c0,.28-.25.54-.57.54-.29,0-.53-.26-.53-.54ZM67.42,200.79c0,.39.13.77.39,1,.25.28.58.42.95.42.34,0,.68-.14.94-.42.23-.23.39-.61.39-1s-.16-.75-.39-1.01c-.26-.27-.6-.41-.94-.41-.37,0-.7.14-.95.41-.26.26-.39.62-.39,1.01Z"/>
        <path class="cls-4" d="M72.37,200.78c0-1.36,1.07-2.5,2.44-2.5,1.3,0,2.33.97,2.41,2.32v.05s0,.07-.01.09c-.03.24-.24.4-.52.4h-3.18c.05.23.16.49.34.66.21.24.61.42.96.45.36.03.79-.06,1.04-.25.21-.22.62-.19.75-.03.13.14.23.44,0,.65-.49.45-1.08.66-1.79.66-1.37,0-2.43-1.14-2.44-2.5ZM73.46,200.29h2.83c-.1-.4-.61-.99-1.48-1.06-.85.04-1.27.65-1.35,1.06Z"/>
      </g>
      <g>
        <path class="cls-4" d="M83.29,203.28c-1.14,0-2.08-.94-2.08-2.08v-2.39c0-.28.24-.53.53-.53s.53.25.53.53v2.39c0,.57.45,1.02,1.02,1.02s1.04-.45,1.05-1.02v-2.39c0-.28.22-.53.52-.53.28,0,.54.25.54.53v2.39c0,1.14-.96,2.08-2.11,2.08Z"/>
        <path class="cls-4" d="M91.17,200.36v2.39c0,.29-.23.53-.52.53s-.53-.24-.53-.53v-2.39c0-.56-.47-1.01-1.04-1.01s-1,.45-1,1.01v2.39s0,.06-.02.1c-.05.24-.27.43-.53.43-.3,0-.53-.24-.53-.53v-3.94c0-.29.23-.53.53-.53.21,0,.4.12.49.31.3-.19.67-.31,1.06-.31,1.16,0,2.09.95,2.09,2.08Z"/>
      </g>
      <path class="cls-4" d="M97.26,202.74c0,.29-.24.54-.54.54-.27,0-.48-.19-.53-.43-.38.26-.86.43-1.36.43-1.35,0-2.43-1.14-2.43-2.49s1.08-2.51,2.43-2.51c.49,0,.97.16,1.34.42v-1.88c0-.29.24-.54.55-.54s.54.25.54.54v3.96h0v1.96ZM94.83,199.37c-.36,0-.69.15-.94.41-.25.25-.4.61-.4,1.01s.15.74.4.99c.25.26.58.41.94.41s.69-.15.94-.41c.25-.25.4-.61.4-.99,0-.4-.15-.76-.4-1.01-.25-.26-.57-.41-.94-.41Z"/>
      <g>
        <path class="cls-4" d="M102.39,202.55c-.43-.44-.69-1.06-.69-1.76s.26-1.27.69-1.75c.45-.47,1.03-.76,1.72-.76s1.26.29,1.67.76c.45.48.7,1.07.7,1.75s-.25,1.32-.7,1.76c-.41.47-1.01.76-1.67.76s-1.27-.29-1.72-.76ZM102.79,200.79c0,.43.13.78.36,1.06.25.24.58.37.96.37.35,0,.67-.13.92-.37.25-.28.39-.63.39-1.06s-.14-.77-.39-1.04c-.25-.22-.57-.38-.92-.38-.38,0-.71.16-.96.38-.23.27-.36.63-.36,1.04Z"/>
        <path class="cls-4" d="M110.86,198.81c0,.28-.23.53-.53.53-.23,0-.43.06-.6.19-.19.12-.34.29-.46.48-.24.32-.36.7-.41.84v1.9c0,.29-.25.53-.55.53s-.53-.24-.53-.53v-3.94c0-.29.24-.52.53-.52s.55.23.55.52v.07c.06-.07.14-.15.21-.2.33-.22.76-.4,1.26-.39.3,0,.53.23.53.52Z"/>
      </g>
      <g>
        <path class="cls-4" d="M116.25,202.74c0,.29-.24.54-.54.54-.27,0-.48-.19-.53-.43-.38.26-.86.43-1.36.43-1.35,0-2.43-1.14-2.43-2.49s1.08-2.51,2.43-2.51c.49,0,.97.16,1.34.42v-1.88c0-.29.24-.54.55-.54s.54.25.54.54v3.96h0v1.96ZM113.82,199.37c-.36,0-.69.15-.94.41-.25.25-.4.61-.4,1.01s.15.74.4.99c.25.26.58.41.94.41s.69-.15.94-.41c.25-.25.4-.61.4-.99,0-.4-.15-.76-.4-1.01-.25-.26-.57-.41-.94-.41Z"/>
        <path class="cls-4" d="M122.29,200.36v2.39c0,.29-.23.53-.52.53s-.53-.24-.53-.53v-2.39c0-.56-.47-1.01-1.04-1.01s-1,.45-1,1.01v2.39s0,.06-.02.1c-.05.24-.27.43-.53.43-.3,0-.53-.24-.53-.53v-3.94c0-.29.23-.53.53-.53.21,0,.4.12.49.31.3-.19.67-.31,1.06-.31,1.16,0,2.09.95,2.09,2.08Z"/>
        <path class="cls-4" d="M123.7,200.78c0-1.36,1.07-2.5,2.44-2.5,1.3,0,2.33.97,2.41,2.32v.05s0,.07,0,.09c-.03.24-.24.4-.52.4h-3.18c.05.23.16.49.34.66.21.24.61.42.96.45.36.03.79-.06,1.04-.25.21-.22.62-.19.75-.03.13.14.23.44,0,.65-.49.45-1.08.66-1.79.66-1.37,0-2.43-1.14-2.44-2.5ZM124.79,200.29h2.83c-.1-.4-.61-.99-1.48-1.06-.85.04-1.27.65-1.35,1.06Z"/>
        <path class="cls-4" d="M132.5,201.85c.18-.24.53-.27.75-.08.26.22.71.45,1.1.44.27,0,.52-.09.68-.19.14-.12.18-.22.18-.3,0-.05-.01-.07-.03-.1,0-.03-.05-.07-.13-.12-.14-.1-.44-.21-.8-.28h0c-.31-.06-.61-.14-.87-.26-.27-.13-.51-.31-.69-.58-.11-.18-.17-.4-.17-.63,0-.46.26-.85.59-1.1.35-.24.77-.37,1.23-.37.69,0,1.18.33,1.5.55.24.16.31.49.16.74-.16.24-.49.31-.74.14-.32-.21-.6-.37-.92-.37-.25,0-.47.08-.6.18-.13.09-.16.18-.16.23,0,.04,0,.05.02.08,0,.02.04.06.11.1.13.09.39.18.73.24h.01s0,.01,0,.01c.33.06.64.15.93.29.27.12.54.31.71.59.12.2.19.43.19.66,0,.49-.27.9-.63,1.16-.36.25-.81.4-1.3.4-.78,0-1.38-.37-1.78-.69-.22-.18-.25-.52-.07-.74Z"/>
        <path class="cls-4" d="M138.55,197.03c0,.3-.23.55-.54.55s-.54-.25-.54-.55v-.21c0-.3.24-.54.54-.54s.54.24.54.54v.21ZM138.55,198.84v3.9c0,.3-.23.54-.54.54s-.54-.24-.54-.54v-3.9c0-.32.24-.55.54-.55s.54.23.54.55Z"/>
        <path class="cls-4" d="M139.72,200.78c0-1.36,1.07-2.5,2.44-2.5,1.3,0,2.33.97,2.41,2.32v.05s0,.07,0,.09c-.03.24-.24.4-.52.4h-3.18c.05.23.16.49.34.66.21.24.61.42.96.45.36.03.79-.06,1.04-.25.21-.22.62-.19.75-.03.13.14.23.44,0,.65-.49.45-1.08.66-1.79.66-1.37,0-2.43-1.14-2.44-2.5ZM140.81,200.29h2.83c-.1-.4-.61-.99-1.48-1.06-.85.04-1.27.65-1.35,1.06Z"/>
      </g>
      <g>
        <path class="cls-4" d="M81.28,211.12l-2.26,3.1h1.84c.28,0,.53.23.53.53s-.25.53-.53.53h-2.89s-.06,0-.1,0h-.03s-.04-.02-.06-.02c-.02-.01-.03-.01-.04-.02-.01,0-.03-.02-.04-.02-.01-.02-.02-.02-.02-.03t0,0s-.02-.01-.03-.02c0-.01-.04-.03-.04-.03-.02-.03-.03-.04-.04-.05,0-.02-.02-.03-.03-.04-.02,0-.02-.02-.02-.04-.02,0-.03-.02-.03-.05,0,0,0-.02-.02-.05,0-.01,0-.03,0-.04v-.07s0-.02,0-.03h0s0-.06,0-.08v-.04s0-.03.02-.05c0-.02,0-.04,0-.05.01,0,.03-.03.03-.03,0-.02.02-.04.03-.05h0l2.25-3.11h-1.83c-.28,0-.53-.23-.53-.53s.25-.53.53-.53h2.89s.04,0,.06,0h.05s.04.01.05.02c.02,0,.04.01.05.01,0,0,.02.03.03.03.02,0,.04.02.06.03,0,0,0,.01,0,.01,0,0,.02,0,.02.02.01,0,.03.02.05.05,0,0,.02.02.03.03.01.02.02.03.03.04,0,.01,0,.02.03.02,0,.03.02.04.02.06,0,.01,0,.03,0,.05.01.02.01.04.02.05v.06s0,.03,0,.04h0s0,.06,0,.06c0,.03,0,.04,0,.06,0,.01,0,.03-.01.05,0,.02,0,.04-.03.05v.03s-.03.04-.05.05h0Z"/>
        <path class="cls-4" d="M85.08,215.28c-1.14,0-2.08-.94-2.08-2.08v-2.39c0-.28.24-.53.53-.53s.53.25.53.53v2.39c0,.57.45,1.02,1.02,1.02s1.04-.45,1.05-1.02v-2.39c0-.28.22-.53.52-.53.28,0,.54.25.54.53v2.39c0,1.14-.96,2.08-2.11,2.08Z"/>
        <path class="cls-4" d="M89.66,213.86c.41,0,.75.34.75.75s-.34.74-.75.74-.74-.33-.74-.74.33-.75.74-.75Z"/>
      </g>
    </g>
  </g>
</svg>