<?xml version="1.0" encoding="UTF-8"?>
<svg xmlns="http://www.w3.org/2000/svg" viewBox="0 0 167.24 260.79">
  <defs>
    <style>
      .cls-1 {
        fill: #010101;
      }

      .cls-2 {
        fill: #e74258;
      }

      .cls-3 {
        fill: #171717;
      }

      .cls-4 {
        fill: #fff;
      }

      .cls-5 {
        fill: #171715;
      }
    </style>
  </defs>
  <g id="Background">
    <rect class="cls-2" x="0" width="167.24" height="260.79"/>
  </g>
  <g id="Rahmen">
    <path class="cls-1" d="M151.9,23.16c9.65,0,9.67-15,0-15s-9.67,15,0,15h0Z"/>
    <path class="cls-1" d="M152.22,254.59c9.65,0,9.67-15,0-15s-9.67,15,0,15h0Z"/>
    <path class="cls-1" d="M14.14,254.72c9.65,0,9.67-15,0-15s-9.67,15,0,15h0Z"/>
    <path class="cls-3" d="M11.56,15.67c18.49.32,36.98.69,55.46,1.04,19.51.36,39.05-.42,58.56-.82,10.18-.21,20.36-.38,30.54-.21l-3.75-3.75c-1.46,11.81-1.7,23.8-1.97,35.69-.33,14.15-.39,28.31-.37,42.46.01,9.3.14,18.61.07,27.91-.06,7.86-.43,15.71-.48,23.57-.07,11.29.08,22.59.37,33.88.56,22.38,1.59,44.74,2.18,67.12.07,2.79.14,5.57.2,8.36l3.75-3.75c-15.41-.13-30.81.06-46.22.48-24.85.69-49.67.84-74.52.24-8.25-.2-16.49-.49-24.74-.73l3.75,3.75c-.56-4.87-.34-9.89-.27-14.78.11-8.38.38-16.76.66-25.14.66-20.11,1.45-40.22,1.83-60.34.16-8.4.26-16.81.05-25.21-.13-5.24-.51-10.46-.61-15.7-.33-17.03-.19-34.08-.18-51.11,0-8.91,0-17.82-.06-26.73-.04-5.94-.04-11.89-.34-17.82-.04-.72-.08-1.43-.15-2.15-.19-1.95-1.59-3.85-3.75-3.75-1.87.08-3.96,1.66-3.75,3.75.48,4.83.39,9.76.44,14.61.09,8.42.1,16.84.11,25.25,0,17.78-.1,35.55.11,53.33.06,5.22.27,10.41.52,15.62.36,7.73.31,15.47.21,23.21-.24,20.03-1.02,40.04-1.7,60.06-.3,8.95-.6,17.9-.79,26.85-.13,5.9-.3,11.84,0,17.74.04.78.09,1.55.18,2.32.24,2.06,1.53,3.69,3.75,3.75,18.27.53,36.53,1.09,54.81,1.16,23.38.09,46.73-.97,70.1-1.19,6.85-.06,13.71-.03,20.56.02,2,.02,3.79-1.73,3.75-3.75-.48-22.44-1.5-44.87-2.16-67.3-.33-11.25-.57-22.51-.6-33.77-.03-10.16.25-20.29.47-30.44.18-8.23-.03-16.48-.05-24.72-.03-13.94,0-27.88.25-41.82.23-12.54.48-25.14,1.72-37.62.11-1.1.23-2.21.37-3.31.25-2.04-1.92-3.72-3.75-3.75-19.14-.32-38.3.42-57.44.81-9.78.2-19.58.45-29.37.27-7.76-.14-15.52-.3-23.28-.45-11.49-.22-22.99-.44-34.48-.63-1.96-.03-3.84,1.75-3.75,3.75s1.65,3.71,3.75,3.75h0Z"/>
    <polygon class="cls-3" points="26.61 14.43 14.5 29.16 14.18 13.04 26.61 14.43"/>
    <polygon class="cls-3" points="140.79 14.16 152.35 27.66 154.57 11.89 140.79 14.16"/>
    <polygon class="cls-3" points="139.48 248.15 153.14 235.93 156.07 248.65 139.48 248.15"/>
    <polygon class="cls-3" points="12.9 235.54 26.24 248.54 12.31 249.36 12.9 235.54"/>
    <rect class="cls-3" width="10.32" height="260.79"/>
    <rect class="cls-3" y="249.36" width="167.24" height="11.43"/>
    <rect class="cls-5" width="167.24" height="10.33"/>
    <rect class="cls-3" x="156.12" width="11.13" height="260.79"/>
    <path class="cls-3" d="M125.63,17.19c0-.85.38-3.85,0-4.78-1.01-2.49-3.83-2.81-6.59-2.81H48.2c-2.76,0-5.58.32-6.59,2.81-.38.93,0,3.93,0,4.78l-.3,5.71c-.6,5.31,9.41,4.59,13.19,4.59l21.81.37,7.3-.07h0l7.3.07,21.81-.37c3.79,0,13.79.72,13.19-4.59l-.3-5.71Z"/>
    <path class="cls-1" d="M151.9,23.16c9.65,0,9.67-15,0-15s-9.67,15,0,15h0Z"/>
    <path class="cls-1" d="M152.22,254.59c9.65,0,9.67-15,0-15s-9.67,15,0,15h0Z"/>
    <path class="cls-1" d="M14.14,254.72c9.65,0,9.67-15,0-15s-9.67,15,0,15h0Z"/>
    <path class="cls-3" d="M11.56,15.67c18.49.32,36.98.69,55.46,1.04,19.51.36,39.05-.42,58.56-.82,10.18-.21,20.36-.38,30.54-.21l-3.75-3.75c-1.46,11.81-1.7,23.8-1.97,35.69-.33,14.15-.39,28.31-.37,42.46.01,9.3.14,18.61.07,27.91-.06,7.86-.43,15.71-.48,23.57-.07,11.29.08,22.59.37,33.88.56,22.38,1.59,44.74,2.18,67.12.07,2.79.14,5.57.2,8.36l3.75-3.75c-15.41-.13-30.81.06-46.22.48-24.85.69-49.67.84-74.52.24-8.25-.2-16.49-.49-24.74-.73l3.75,3.75c-.56-4.87-.34-9.89-.27-14.78.11-8.38.38-16.76.66-25.14.66-20.11,1.45-40.22,1.83-60.34.16-8.4.26-16.81.05-25.21-.13-5.24-.51-10.46-.61-15.7-.33-17.03-.19-34.08-.18-51.11,0-8.91,0-17.82-.06-26.73-.04-5.94-.04-11.89-.34-17.82-.04-.72-.08-1.43-.15-2.15-.19-1.95-1.59-3.85-3.75-3.75-1.87.08-3.96,1.66-3.75,3.75.48,4.83.39,9.76.44,14.61.09,8.42.1,16.84.11,25.25,0,17.78-.1,35.55.11,53.33.06,5.22.27,10.41.52,15.62.36,7.73.31,15.47.21,23.21-.24,20.03-1.02,40.04-1.7,60.06-.3,8.95-.6,17.9-.79,26.85-.13,5.9-.3,11.84,0,17.74.04.78.09,1.55.18,2.32.24,2.06,1.53,3.69,3.75,3.75,18.27.53,36.53,1.09,54.81,1.16,23.38.09,46.73-.97,70.1-1.19,6.85-.06,13.71-.03,20.56.02,2,.02,3.79-1.73,3.75-3.75-.48-22.44-1.5-44.87-2.16-67.3-.33-11.25-.57-22.51-.6-33.77-.03-10.16.25-20.29.47-30.44.18-8.23-.03-16.48-.05-24.72-.03-13.94,0-27.88.25-41.82.23-12.54.48-25.14,1.72-37.62.11-1.1.23-2.21.37-3.31.25-2.04-1.92-3.72-3.75-3.75-19.14-.32-38.3.42-57.44.81-9.78.2-19.58.45-29.37.27-7.76-.14-15.52-.3-23.28-.45-11.49-.22-22.99-.44-34.48-.63-1.96-.03-3.84,1.75-3.75,3.75s1.65,3.71,3.75,3.75h0Z"/>
    <polygon class="cls-3" points="26.61 14.43 14.5 29.16 14.18 13.04 26.61 14.43"/>
    <polygon class="cls-3" points="140.79 14.16 152.35 27.66 154.57 11.89 140.79 14.16"/>
    <polygon class="cls-3" points="139.48 248.15 153.14 235.93 156.07 248.65 139.48 248.15"/>
    <polygon class="cls-3" points="12.9 235.54 26.24 248.54 12.31 249.36 12.9 235.54"/>
    <rect class="cls-3" width="10.32" height="260.79"/>
    <rect class="cls-3" y="249.36" width="167.24" height="11.43"/>
    <rect class="cls-5" width="167.24" height="10.33"/>
    <rect class="cls-3" x="156.12" width="11.13" height="260.79"/>
  </g>
  <g id="Kategorie_Name" data-name="Kategorie Name">
    <g>
      <path class="cls-2" d="M52.04,17.33c-.03.09-.09.28-.17.57s-.19.64-.31,1.04-.25.81-.38,1.25-.25.84-.35,1.2c-.1.37-.23.79-.38,1.27-.05.05-.19.09-.41.11-.22.02-.46.02-.74.02-.27,0-.53-.02-.77-.03-.25-.02-.41-.02-.5-.02h-.33c-.16,0-.33,0-.5,0s-.33-.01-.48-.02c-.15-.01-.23-.02-.26-.03-.12-.05-.18-.15-.18-.29s0-.27.01-.39c.28-3.61.59-7.22.95-10.84,0-.08.02-.14.06-.18.03-.03.16-.05.38-.07s.46-.01.74,0c.27.01.53.02.77.03.24.01.41.02.49.02.05,0,.11,0,.19,0s.15,0,.22,0c.07,0,.13.02.19.06.05.03.09.08.11.15.02.07.02.23,0,.51s-.06.6-.1,1c-.04.39-.09.81-.14,1.26-.05.45-.11.87-.16,1.28-.05.41-.09.77-.13,1.09-.04.32-.07.53-.08.65.03-.09.08-.23.13-.44.06-.21.13-.44.22-.7s.18-.53.28-.82c.1-.28.2-.54.29-.79.09-.24.19-.44.28-.6.09-.16.17-.26.22-.28,0,0,.11,0,.29,0,.18,0,.39-.01.63-.02.23,0,.46,0,.66,0h.4s.09,0,.13,0,.08.02.12.04c.03.01.08.12.14.32.06.2.14.45.22.74.08.29.17.61.26.96.1.35.18.68.26,1,.08.32.15.59.21.83.06.24.1.4.12.49-.03-.76-.07-1.52-.13-2.27-.05-.75-.11-1.51-.16-2.27-.02-.33-.05-.66-.08-1.01-.04-.34-.05-.67-.05-.99,0-.13.05-.2.16-.21.11-.01.2-.02.29-.02.44,0,.88.02,1.33.07.45.05.89.04,1.32-.04.05-.01.12-.03.22-.07s.16-.04.2-.02c.08.02.13.1.15.23.02.13.04.23.04.31,0,.13.02.39.02.78s0,.85,0,1.4c0,.55-.01,1.14-.02,1.8,0,.65-.02,1.31-.04,1.97-.01.66-.03,1.3-.04,1.93-.01.63-.03,1.19-.04,1.68-.01.49-.03.89-.05,1.19-.02.3-.04.46-.05.48-.02.02-.13.04-.32.06-.19.02-.43.03-.72.03-.29,0-.59,0-.93,0s-.65,0-.95,0c-.3,0-.56-.01-.79-.02-.23-.01-.37-.02-.44-.03-.12-.01-.22-.06-.29-.16-.04-.04-.09-.19-.15-.43-.06-.24-.13-.53-.21-.86s-.16-.69-.24-1.09c-.08-.39-.16-.77-.24-1.13s-.15-.69-.22-.98c-.07-.29-.12-.51-.16-.64Z"/>
      <path class="cls-2" d="M60.9,22.73c-.09,0-.23,0-.41,0-.19,0-.38,0-.57,0-.19-.01-.37-.04-.52-.09-.15-.05-.23-.13-.24-.24-.01-.08-.02-.29-.02-.63s0-.77,0-1.28c0-.51,0-1.09.01-1.72s.01-1.29.02-1.95c0-.66.02-1.31.03-1.94,0-.63.02-1.2.03-1.69,0-.5.02-.9.04-1.23.01-.32.03-.5.04-.53.01-.05.05-.09.11-.11.06-.02.13-.04.2-.05.08-.01.15-.02.23-.02h.19c.06,0,.22,0,.49-.02.26-.01.54-.02.84-.02s.56-.01.8-.02c.24,0,.37,0,.39,0,.02.01.04.03.05.07s.03.06.04.08c0,.07.02.22.02.47,0,.25,0,.53,0,.87s0,.7-.01,1.09c-.01.39-.02.77-.03,1.13,0,.36-.02.68-.02.97,0,.29,0,.5,0,.63,0,.71,0,1.41.02,2.12,0,.7.02,1.41.04,2.12,0,.25.03.52.05.81.02.29.03.56,0,.81,0,.09-.03.15-.07.19s-.09.07-.17.09c-.22.05-.48.08-.79.09s-.57,0-.8,0Z"/>
      <path class="cls-2" d="M66.99,19.52c.08-.01.24-.02.47-.04.24-.02.48-.03.74-.05.26-.02.5-.03.71-.03s.35,0,.4,0c.13.04.21.1.25.16.03.07.06.17.08.31,0,.09.02.27.03.55s.01.57,0,.88c0,.31-.02.59-.05.84-.02.26-.07.4-.13.43-.09.05-.19.08-.29.07-.1,0-.21,0-.31,0-.16,0-.37,0-.63.02-.26.01-.54.02-.85.03-.31.01-.63.02-.96.02s-.64,0-.94,0-.56,0-.79-.02c-.23-.02-.4-.05-.51-.09-.17-.06-.29-.18-.35-.35-.06-.17-.1-.36-.12-.56-.01-.21,0-.42.02-.63.02-.21.04-.4.05-.55.08-1.05.14-2.08.19-3.11.05-1.03.09-2.07.14-3.11.02-.46.03-.93.03-1.42s.03-.96.09-1.42c0-.11.05-.19.11-.25.07-.05.14-.09.23-.11.08-.02.17-.02.26-.02s.17,0,.25,0h.51c.25,0,.51,0,.78,0,.27,0,.52.02.74.05s.36.07.41.12c.05.05.08.14.08.25s0,.24,0,.37c0,.13-.02.26-.04.38-.02.13-.04.22-.04.29-.14,1.16-.24,2.31-.31,3.47-.06,1.16-.15,2.32-.26,3.49Z"/>
      <path class="cls-2" d="M73.62,11.54c.29-.3.63-.56,1.02-.76.39-.2.79-.29,1.21-.27.54.02,1.02.18,1.45.47.42.29.79.68,1.1,1.16.31.48.56,1.03.75,1.65.19.62.32,1.27.38,1.95s.05,1.35-.01,2.04c-.07.68-.22,1.32-.44,1.91-.22.59-.51,1.13-.88,1.6-.37.47-.81.84-1.33,1.09-.35.16-.71.28-1.08.34s-.74.11-1.11.13c-.51.03-1.01.04-1.5.03-.49-.01-.99,0-1.5.02-.09,0-.2,0-.34.02-.13.02-.27.02-.41,0-.13-.01-.26-.04-.37-.1s-.18-.14-.21-.26c-.03-.12-.04-.25-.03-.38s.02-.26.03-.38c.04-.78.05-1.57.04-2.35s-.01-1.56-.01-2.35c0-1.01,0-2.02.02-3.02.01-1,0-2.01-.04-3.02v-.28c0-.1.04-.18.12-.25.02-.02.11-.04.27-.07.16-.02.35-.04.58-.05.23-.01.47-.02.73-.02s.5.01.74.03c.23.02.42.06.58.11.16.05.25.11.28.19,0,.02.01.07,0,.14s0,.15-.01.24c0,.09-.01.17-.02.25-.01.08-.02.13-.02.16ZM73.48,19.28c.28.03.58.03.89-.02.31-.04.61-.14.9-.28s.54-.32.76-.55c.22-.22.37-.5.45-.83.06-.25.1-.5.11-.76.01-.26.01-.51,0-.76-.02-.23-.05-.46-.08-.7-.04-.24-.1-.47-.19-.69-.12-.27-.29-.48-.51-.62-.22-.14-.46-.22-.71-.25-.25-.02-.5.01-.76.11s-.47.24-.65.43c-.02.02-.04.05-.06.08-.02.03-.04.06-.06.08,0,.8-.01,1.59-.03,2.37-.02.79-.04,1.58-.06,2.37Z"/>
      <path class="cls-2" d="M90.85,22.5c-.54.19-1.11.26-1.7.22s-1.15-.16-1.67-.37c-.53-.21-.97-.5-1.32-.87-.35-.37-.62-.79-.83-1.25-.2-.46-.34-.97-.43-1.51-.08-.54-.13-1.1-.14-1.65-.01-.86.04-1.69.14-2.5.1-.81.31-1.53.63-2.16.31-.63.76-1.15,1.33-1.55s1.33-.64,2.27-.7c.54-.03,1.1.01,1.7.13.59.12,1.12.33,1.59.62.06.04.14.1.23.17.09.07.15.14.17.22,0,.01-.02.08-.07.2-.05.12-.12.27-.2.45-.08.18-.18.37-.29.58-.1.21-.21.4-.3.59s-.18.35-.25.49c-.08.14-.13.23-.16.26-.05.05-.1.1-.13.14-.04.04-.1.04-.18,0-.1-.05-.19-.12-.28-.19s-.18-.13-.29-.19c-.37-.17-.77-.25-1.2-.23-.43.02-.79.19-1.09.51-.15.16-.27.36-.37.6-.09.23-.17.48-.21.74-.04.26-.07.52-.08.78-.01.26,0,.51.01.74.02.32.07.64.13.96.07.33.18.62.33.87.15.26.35.45.59.57.25.13.55.14.92.04.26-.08.49-.18.69-.32.2-.14.41-.29.62-.47.04-.03.08-.05.13-.06s.09.01.13.06.14.18.29.42.32.48.49.75.39.62.67,1.05c.05.19,0,.38-.14.57-.14.2-.33.38-.55.56-.22.18-.45.33-.68.47-.24.13-.41.22-.53.26Z"/>
      <path class="cls-2" d="M96.03,21.16c0,.07-.02.17-.03.31s-.02.29-.04.44c-.01.15-.04.29-.06.42-.02.13-.05.21-.08.25-.03.03-.15.06-.36.07-.21.02-.44.03-.7.03s-.5,0-.73,0h-.45c-.18,0-.32-.02-.42-.05-.1-.03-.12-.17-.08-.41.03-.15.08-.42.15-.81s.15-.85.24-1.39.19-1.13.31-1.77c.11-.64.23-1.28.34-1.92s.23-1.27.34-1.87c.11-.6.21-1.14.31-1.62.1-.47.18-.86.25-1.15.07-.29.12-.45.15-.47.02-.01.06-.02.12-.02.06,0,.13,0,.2,0s.15,0,.22,0c.07,0,.12,0,.15,0,.63.02,1.24,0,1.83-.07s1.2-.13,1.83-.18c.1-.01.18.02.25.08s.12.15.17.25.07.2.1.32c.02.11.05.22.07.3.17.75.3,1.5.38,2.26.08.75.17,1.5.25,2.26.09.86.17,1.74.23,2.64s.18,1.77.35,2.62c0,.05.03.13.04.21.02.09.03.18.04.28,0,.1,0,.19,0,.27,0,.08-.04.14-.11.17-.03.02-.12.04-.28.05-.16.01-.36.02-.58.02-.23,0-.48,0-.75,0s-.52,0-.76,0c-.24,0-.44-.01-.62-.02s-.28-.01-.32-.02c-.1-.02-.16-.07-.17-.15-.05-.21-.07-.43-.07-.65,0-.23,0-.45-.02-.67-.28-.03-.56-.05-.85-.04s-.57,0-.85,0ZM97.29,14.04c-.17.82-.33,1.63-.47,2.43-.14.8-.29,1.61-.43,2.43.2-.02.4-.04.61-.05s.42,0,.62.02c-.04-.81-.09-1.61-.16-2.41-.07-.8-.12-1.6-.17-2.41Z"/>
      <path class="cls-2" d="M108.65,23.36c-.07.1-.15.11-.24.03-.74-1.35-1.57-2.67-2.48-3.94,0,.15.03.41.06.78.03.37.05.74.05,1.13,0,.39-.01.74-.06,1.06-.04.32-.13.51-.26.56-.09.03-.24.06-.46.09-.22.03-.46.04-.73.05-.27,0-.55,0-.84-.02-.29-.02-.56-.05-.8-.09-.24-.04-.44-.1-.59-.18-.16-.08-.23-.17-.23-.29,0-.38.02-.77.07-1.15s.08-.77.1-1.15c.1-1.61.17-3.23.22-4.86.02-.63.03-1.26.03-1.88s-.01-1.25-.03-1.88c0-.12,0-.23,0-.34.01-.11.08-.19.2-.23.08-.03.26-.06.53-.09.28-.03.57-.04.87-.05.3,0,.58,0,.84.02.26.02.41.06.46.12,0,.02.02.07.04.14.02.07.03.15.04.23.02.08.03.16.04.24,0,.08.01.13.01.16.64-.46,1.22-.73,1.75-.82.52-.09.99-.04,1.39.13s.75.46,1.02.85c.27.39.49.84.64,1.35.15.51.24,1.05.25,1.62.02.57-.03,1.12-.14,1.65-.12.53-.3,1.02-.55,1.46s-.57.8-.96,1.05c.28.46.6.9.97,1.32.36.42.67.83.92,1.22.05.09.08.16.11.22.02.06,0,.13-.08.22-.03.03-.15.11-.35.24-.21.13-.43.26-.68.41-.25.15-.49.28-.71.4-.22.12-.37.2-.44.23ZM105.78,16.38c.43.15.78.16,1.04.03s.45-.32.56-.57.15-.53.13-.83c-.03-.3-.11-.55-.26-.74-.15-.2-.36-.3-.62-.33s-.57.12-.92.44c.02.34.03.67.04,1,0,.33.01.66.02,1Z"/>
      <path class="cls-2" d="M115.04,11.54c.29-.3.63-.56,1.02-.76.39-.2.79-.29,1.21-.27.54.02,1.02.18,1.45.47.42.29.79.68,1.1,1.16.31.48.56,1.03.75,1.65.19.62.31,1.27.38,1.95.06.68.05,1.35-.02,2.04s-.21,1.32-.43,1.91c-.22.59-.51,1.13-.88,1.6s-.81.84-1.33,1.09c-.35.16-.71.28-1.08.34s-.74.11-1.11.13c-.51.03-1.01.04-1.5.03-.49-.01-.99,0-1.5.02-.09,0-.2,0-.34.02-.14.02-.27.02-.41,0s-.26-.04-.37-.1c-.11-.05-.18-.14-.21-.26-.03-.12-.04-.25-.03-.38s.02-.26.03-.38c.04-.78.05-1.57.04-2.35-.01-.78-.02-1.56-.02-2.35,0-1.01,0-2.02.02-3.02.02-1,0-2.01-.04-3.02v-.28c0-.1.04-.18.12-.25.02-.02.11-.04.27-.07.16-.02.35-.04.58-.05.22-.01.47-.02.73-.02s.5.01.73.03c.23.02.42.06.58.11.15.05.25.11.28.19,0,.02.01.07,0,.14,0,.07,0,.15-.01.24,0,.09-.01.17-.02.25,0,.08-.01.13-.01.16ZM114.89,19.28c.28.03.58.03.89-.02.32-.04.62-.14.9-.28.28-.14.54-.32.76-.55.22-.22.37-.5.45-.83.06-.25.1-.5.11-.76.02-.26.01-.51,0-.76-.02-.23-.05-.46-.08-.7s-.1-.47-.19-.69c-.12-.27-.29-.48-.51-.62-.22-.14-.46-.22-.71-.25-.25-.02-.5.01-.76.11s-.47.24-.65.43c-.02.02-.04.05-.06.08-.02.03-.04.06-.06.08,0,.8,0,1.59-.03,2.37-.02.79-.04,1.58-.06,2.37Z"/>
    </g>
  </g>
  <g id="Motive">
    <g>
      <path class="cls-3" d="M88.33,91.5l13.65.1c.43,0,.83.17,1.13.48l16.03,16.15c.28.28.44.65.47,1.05h0c.02.45-.14.9-.46,1.22l-16.29,16.49c-.3.3-.7.47-1.12.48-4.22.07-9.27-.03-13.3.07-.1,0-.2,0-.3-.02-1.24-.21-1.66-.94-1.43-2.28.28-1.64,10.66-10.6,14.22-14.45.58-.63.57-1.61-.03-2.22l-13.64-13.97c-.3-.35-.5-.85-.56-1.35-.1-.94.67-1.75,1.62-1.74Z"/>
      <g>
        <path class="cls-3" d="M65.03,60.61c8.88,1.06,12.34,12.85,5.38,18.72-7.32,6.17-18.33.27-17.48-9.19.41-4.59,4.51-8.98,9.12-9.53"/>
        <path class="cls-3" d="M74.01,118.95c-.11.22-.16.47-.19.72-.74,6.77-.98,14.02-2.01,20.69-.37,2.4-1.84,4.63-4.41,5.03-1.52.24-5.66.19-7.26.05-2.15-.2-3.97-1.8-4.63-3.82l-2.39-22.6c-2.25-.24-5.03.53-5.49-2.5l2.34-24.34c.26-2.63,2.09-4.65,4.7-5.07,5.64.45,12.22-.6,17.74,0,1.69.18,3.53,1.56,4.19,3.1,1.47,8.66,1.94,17.54,2.86,26.31-.44,2.93-3.21,2.37-5.45,2.42Z"/>
      </g>
    </g>
  </g>
  <g id="Kateg._Symbol" data-name="Kateg. Symbol">
    <path class="cls-4" d="M19.29,15.45c.5-.68.16-1.57-.67-1.73-.66-.13-1.38-.15-2.03-.29-.12-.03-.17-.06-.23-.17-.35-.59-.59-1.3-.94-1.89-.21-.35-.57-.56-.98-.54-.38.02-.7.23-.89.55-.34.58-.58,1.27-.91,1.85-.06.11-.12.17-.25.2-.67.15-1.44.15-2.11.31-.82.19-1.09,1.19-.51,1.8.36.39.8.76,1.18,1.14.11.11.37.33.39.47-.07.71-.27,1.42-.35,2.12-.06.5.17.97.65,1.16.39.15.66.07,1.01-.1.6-.3,1.18-.65,1.79-.93.13-.02.25.06.36.12.55.28,1.18.69,1.74.91.79.31,1.53-.31,1.46-1.14-.06-.66-.29-1.38-.35-2.04,0-.09,0-.18.07-.25l1.57-1.54Z"/>
    <path class="cls-4" d="M156.21,248.03c.5-.68.16-1.57-.67-1.73-.66-.13-1.38-.15-2.03-.29-.12-.03-.17-.06-.23-.17-.35-.59-.59-1.3-.94-1.89-.21-.35-.57-.56-.98-.54-.38.02-.7.23-.89.55-.34.58-.58,1.27-.91,1.85-.06.11-.12.17-.25.2-.67.15-1.44.15-2.11.31-.82.19-1.09,1.19-.51,1.8.36.39.8.76,1.18,1.14.11.11.37.33.39.47-.07.71-.27,1.42-.35,2.12-.06.5.17.97.65,1.16.39.15.66.07,1.01-.1.6-.3,1.18-.65,1.79-.93.13-.02.25.06.36.12.55.28,1.18.69,1.74.91.79.31,1.53-.31,1.46-1.14-.06-.66-.29-1.38-.35-2.04,0-.09,0-.18.07-.25l1.57-1.54Z"/>
  </g>
  <g id="Text_Karten" data-name="Text Karten">
    <g>
      <g>
        <path class="cls-4" d="M23.68,178.74v-5.9c0-.31.24-.55.55-.55h1.18c1.93,0,3.49,1.57,3.49,3.49s-1.56,3.51-3.49,3.51h-1.18c-.31,0-.55-.25-.55-.55ZM24.79,178.18h.62c1.32,0,2.38-1.07,2.38-2.4s-1.06-2.38-2.38-2.38h-.62v4.78Z"/>
        <path class="cls-4" d="M30.21,176.79c.01-1.36,1.07-2.5,2.44-2.5,1.3,0,2.33.97,2.41,2.32v.05s0,.07,0,.09c-.03.24-.24.4-.52.4h-3.18c.05.23.16.49.34.66.21.24.61.42.96.45.36.03.79-.06,1.04-.25.21-.22.62-.19.75-.03.13.14.23.44,0,.65-.49.45-1.08.66-1.79.66-1.37,0-2.43-1.14-2.44-2.5ZM31.3,176.3h2.83c-.1-.4-.61-.99-1.48-1.06-.85.04-1.27.65-1.35,1.06Z"/>
      </g>
      <g>
        <path class="cls-4" d="M39.31,174.82c0,.28-.23.53-.53.53-.23,0-.43.06-.6.19-.19.12-.34.29-.46.48-.24.32-.36.7-.41.84v1.9c0,.29-.25.53-.55.53s-.53-.24-.53-.53v-3.94c0-.29.24-.52.53-.52s.55.23.55.52v.07c.06-.07.14-.15.21-.2.33-.22.76-.4,1.26-.39.3,0,.53.23.53.52Z"/>
        <path class="cls-4" d="M43.11,177.55c.18-.22.51-.25.73-.07.44.36,1.2.78,1.91.77.5,0,.95-.15,1.25-.37.3-.22.43-.47.43-.72,0-.13-.03-.22-.09-.32-.06-.1-.15-.2-.3-.3-.29-.19-.78-.36-1.37-.47h-.02c-.47-.09-.91-.21-1.29-.39-.38-.18-.71-.43-.93-.78-.15-.24-.23-.52-.23-.82,0-.6.34-1.12.8-1.46.47-.34,1.08-.53,1.73-.53.96,0,1.67.47,2.18.8.23.16.3.48.14.71-.15.24-.47.31-.71.15-.51-.34-1-.64-1.61-.64-.45,0-.85.14-1.12.34-.27.2-.38.42-.38.63,0,.12.02.2.07.28.05.08.14.17.27.26.26.18.71.34,1.25.44h.02c.51.1.98.23,1.38.42.41.2.77.46,1,.83.15.24.24.54.24.85,0,.64-.36,1.19-.86,1.55-.49.36-1.14.57-1.85.57-1.08-.01-1.99-.55-2.56-1-.22-.18-.25-.51-.08-.73Z"/>
        <path class="cls-4" d="M49.69,180.63v-3.82h0v-1.99c0-.29.24-.53.53-.53s.51.19.55.41c.37-.24.85-.41,1.36-.41,1.33,0,2.42,1.14,2.42,2.51s-1.09,2.48-2.42,2.48c-.5,0-.98-.15-1.34-.41v1.76c0,.28-.25.54-.57.54-.29,0-.53-.26-.53-.54ZM50.79,176.8c0,.39.13.77.39,1,.25.28.58.42.95.42.34,0,.68-.14.94-.42.23-.23.39-.61.39-1s-.16-.75-.39-1.01c-.26-.27-.6-.41-.94-.41-.37,0-.7.14-.95.41-.26.26-.39.62-.39,1.01Z"/>
      </g>
      <g>
        <path class="cls-4" d="M56.88,173.04c0,.3-.23.55-.54.55s-.54-.25-.54-.55v-.21c0-.3.24-.54.54-.54s.54.24.54.54v.21ZM56.88,174.85v3.9c0,.3-.23.54-.54.54s-.54-.24-.54-.54v-3.9c0-.32.24-.55.54-.55s.54.23.54.55Z"/>
        <path class="cls-4" d="M58.05,176.79c0-1.36,1.07-2.5,2.44-2.5,1.3,0,2.33.97,2.41,2.32v.05s0,.07-.01.09c-.03.24-.24.4-.52.4h-3.18c.05.23.16.49.34.66.21.24.61.42.96.45.36.03.79-.06,1.04-.25.21-.22.62-.19.75-.03.13.14.23.44,0,.65-.49.45-1.08.66-1.79.66-1.37,0-2.43-1.14-2.44-2.5ZM59.14,176.3h2.83c-.1-.4-.61-.99-1.48-1.06-.85.04-1.27.65-1.35,1.06Z"/>
        <path class="cls-4" d="M64.91,172.29c.31,0,.56.25.56.55v5.9c0,.3-.25.55-.56.55s-.55-.25-.55-.55v-5.9c0-.3.25-.55.55-.55Z"/>
      </g>
      <g>
        <path class="cls-4" d="M66.68,176.79c.01-1.36,1.07-2.5,2.44-2.5,1.3,0,2.33.97,2.41,2.32v.05s0,.07-.01.09c-.03.24-.24.4-.52.4h-3.18c.05.23.16.49.34.66.21.24.61.42.96.45.36.03.79-.06,1.04-.25.21-.22.62-.19.75-.03.13.14.23.44,0,.65-.49.45-1.08.66-1.79.66-1.37,0-2.43-1.14-2.44-2.5ZM67.77,176.3h2.83c-.1-.4-.61-.99-1.48-1.06-.85.04-1.27.65-1.35,1.06Z"/>
        <path class="cls-4" d="M75.79,174.82c0,.28-.23.53-.53.53-.23,0-.43.06-.6.19-.19.12-.34.29-.46.48-.24.32-.36.7-.41.84v1.9c0,.29-.25.53-.55.53s-.53-.24-.53-.53v-3.94c0-.29.24-.52.53-.52s.55.23.55.52v.07c.06-.07.14-.15.21-.2.33-.22.76-.4,1.26-.39.3,0,.53.23.53.52Z"/>
      </g>
      <path class="cls-4" d="M82.78,174.82c0,.28-.23.53-.53.53-.23,0-.43.06-.6.19-.19.12-.34.29-.46.48-.24.32-.36.7-.41.84v1.9c0,.29-.25.53-.55.53s-.53-.24-.53-.53v-3.94c0-.29.24-.52.53-.52s.55.23.55.52v.07c.06-.07.14-.15.21-.2.33-.22.76-.4,1.26-.39.3,0,.53.23.53.52Z"/>
      <g>
        <path class="cls-4" d="M83.03,176.79c.01-1.36,1.07-2.5,2.44-2.5,1.3,0,2.33.97,2.41,2.32v.05s0,.07,0,.09c-.03.24-.24.4-.52.4h-3.18c.05.23.16.49.34.66.21.24.61.42.96.45.36.03.79-.06,1.04-.25.21-.22.62-.19.75-.03.13.14.23.44,0,.65-.49.45-1.08.66-1.79.66-1.37,0-2.43-1.14-2.44-2.5ZM84.12,176.3h2.83c-.1-.4-.61-.99-1.48-1.06-.85.04-1.27.65-1.35,1.06Z"/>
        <path class="cls-4" d="M88.92,176.8c0-1.39,1.16-2.5,2.54-2.51.6,0,1.16.22,1.59.55.23.18.27.52.11.74-.2.24-.52.28-.75.1-.26-.19-.58-.32-.95-.32-.81,0-1.48.67-1.48,1.44s.67,1.43,1.48,1.43c.36,0,.69-.13.95-.32.22-.17.55-.13.75.11.16.22.12.54-.11.74-.43.31-.99.53-1.59.53-1.38,0-2.54-1.12-2.54-2.49Z"/>
        <path class="cls-4" d="M95.89,178.74c0,.31-.25.55-.56.55-.25,0-.46-.18-.53-.41,0-.04-.02-.09-.02-.14v-5.9c0-.31.25-.55.55-.55s.56.24.56.55v1.74c.32-.17.68-.29,1.07-.29,1.21,0,2.18.99,2.18,2.19v2.26c0,.31-.24.55-.55.55s-.55-.24-.55-.55v-2.26c0-.59-.48-1.07-1.08-1.08-.59,0-1.06.49-1.07,1.08v2.26Z"/>
        <path class="cls-4" d="M102.96,174.84c0,.3-.26.55-.56.55h-.25v2.79c.31,0,.55.25.55.56s-.24.55-.55.55c-.61,0-1.11-.5-1.11-1.11v-2.79h-.29c-.31,0-.55-.25-.55-.55s.24-.55.55-.55h.29v-1.45c0-.31.25-.55.56-.55s.55.24.55.55v1.45h.25c.3,0,.56.24.56.55Z"/>
        <path class="cls-4" d="M104.27,177.86c.18-.24.53-.27.75-.08.26.22.71.45,1.1.44.27,0,.52-.09.68-.19.14-.12.18-.22.18-.3,0-.05,0-.07-.03-.1,0-.03-.05-.07-.13-.12-.14-.1-.44-.21-.8-.28h0c-.31-.06-.61-.14-.87-.26-.27-.13-.51-.31-.69-.58-.11-.18-.17-.4-.17-.63,0-.46.26-.85.59-1.1.35-.24.77-.37,1.23-.37.69,0,1.18.33,1.5.55.24.16.31.49.16.74-.16.24-.49.31-.74.14-.32-.21-.6-.37-.92-.37-.25,0-.47.08-.6.18-.13.09-.16.18-.16.23,0,.04,0,.05.02.08,0,.02.04.06.11.1.13.09.39.18.73.24h0s0,.01,0,.01c.33.06.64.15.93.29.27.12.54.31.71.59.12.2.19.43.19.66,0,.49-.27.9-.63,1.16-.36.25-.81.4-1.3.4-.78,0-1.38-.37-1.78-.69-.22-.18-.25-.52-.07-.74Z"/>
        <path class="cls-4" d="M115.98,175.09l-1.64,3.88s-.03.06-.04.07c0,.01,0,.01,0,.01-.02.02-.04.05-.06.07,0,0,0,0,0,0-.02.03-.04.04-.06.06,0,0,0,0,0,.01-.02.02-.04.04-.07.05h-.02s-.06.02-.08.03h-.02s-.07,0-.1,0c-.02,0-.05,0-.09,0h-.02s-.05-.02-.08-.02h-.02s-.05-.04-.09-.06c0-.01,0-.01,0-.01-.02-.02-.04-.03-.06-.06t-.02,0s-.03-.05-.05-.07t0-.01s-.03-.04-.04-.07l-1.62-3.88c-.12-.27,0-.56.29-.68.24-.12.55.02.67.29l1.15,2.72,1.16-2.72c.11-.27.41-.41.67-.29.28.12.41.41.29.68Z"/>
      </g>
      <g>
        <path class="cls-4" d="M117.81,178.56c-.43-.44-.69-1.06-.69-1.76s.26-1.27.69-1.75c.45-.47,1.03-.76,1.72-.76s1.26.29,1.67.76c.45.48.7,1.07.7,1.75s-.25,1.32-.7,1.76c-.41.47-1.01.76-1.67.76s-1.27-.29-1.72-.76ZM118.21,176.8c0,.43.13.78.36,1.06.25.24.58.37.96.37.35,0,.67-.13.92-.37.25-.28.39-.63.39-1.06s-.14-.77-.39-1.04c-.25-.22-.57-.38-.92-.38-.38,0-.71.16-.96.38-.23.27-.36.63-.36,1.04Z"/>
        <path class="cls-4" d="M127.57,176.37v2.39c0,.29-.23.53-.52.53s-.53-.24-.53-.53v-2.39c0-.56-.47-1.01-1.04-1.01s-1,.45-1,1.01v2.39s0,.06-.02.1c-.05.24-.27.43-.53.43-.3,0-.53-.24-.53-.53v-3.94c0-.29.23-.53.53-.53.21,0,.4.12.49.31.3-.19.67-.31,1.06-.31,1.16,0,2.09.95,2.09,2.08Z"/>
        <path class="cls-4" d="M136.66,178.75c0,.29-.24.54-.54.54-.27,0-.48-.19-.53-.43-.38.26-.86.43-1.36.43-1.35,0-2.43-1.14-2.43-2.49s1.08-2.51,2.43-2.51c.49,0,.97.16,1.34.42v-1.88c0-.29.24-.54.55-.54s.54.25.54.54v3.96h0v1.96ZM134.23,175.38c-.36,0-.69.15-.94.41-.25.25-.4.61-.4,1.01s.15.74.4.99c.25.26.58.41.94.41s.69-.15.94-.41c.25-.25.4-.61.4-.99,0-.4-.15-.76-.4-1.01-.25-.26-.57-.41-.94-.41Z"/>
        <path class="cls-4" d="M139.62,173.04c0,.3-.23.55-.54.55s-.54-.25-.54-.55v-.21c0-.3.24-.54.54-.54s.54.24.54.54v.21ZM139.62,174.85v3.9c0,.3-.23.54-.54.54s-.54-.24-.54-.54v-3.9c0-.32.24-.55.54-.55s.54.23.54.55Z"/>
        <path class="cls-4" d="M144.22,174.82c0,.28-.23.53-.53.53-.23,0-.43.06-.6.19-.19.12-.34.29-.46.48-.24.32-.36.7-.41.84v1.9c0,.29-.25.53-.55.53s-.53-.24-.53-.53v-3.94c0-.29.24-.52.53-.52s.55.23.55.52v.07c.06-.07.14-.15.21-.2.33-.22.76-.4,1.26-.39.3,0,.53.23.53.52Z"/>
      </g>
      <path class="cls-4" d="M53.39,186.83c0,.3-.26.55-.56.55h-.25v2.79c.31,0,.55.25.55.56s-.24.55-.55.55c-.61,0-1.11-.5-1.11-1.11v-2.79h-.29c-.31,0-.55-.25-.55-.55s.24-.55.55-.55h.29v-1.45c0-.31.25-.55.56-.55s.55.24.55.55v1.45h.25c.3,0,.56.24.56.55Z"/>
      <g>
        <path class="cls-4" d="M57.32,186.81c0,.28-.23.53-.53.53-.23,0-.43.06-.6.19-.19.12-.34.29-.46.48-.24.32-.36.7-.41.84v1.9c0,.29-.25.53-.55.53s-.53-.24-.53-.53v-3.94c0-.29.24-.52.53-.52s.55.23.55.52v.07c.06-.07.14-.15.21-.2.33-.22.76-.4,1.26-.39.3,0,.53.23.53.52Z"/>
        <path class="cls-4" d="M59.52,185.03c0,.3-.23.55-.54.55s-.54-.25-.54-.55v-.21c0-.3.24-.54.54-.54s.54.24.54.54v.21ZM59.52,186.84v3.9c0,.3-.23.54-.54.54s-.54-.24-.54-.54v-3.9c0-.32.24-.55.54-.55s.54.23.54.55Z"/>
        <path class="cls-4" d="M65.21,188.36v2.39c0,.29-.23.53-.52.53s-.53-.24-.53-.53v-2.39c0-.56-.47-1.01-1.04-1.01s-1,.45-1,1.01v2.39s0,.06-.02.1c-.05.24-.27.43-.53.43-.3,0-.53-.24-.53-.53v-3.94c0-.29.23-.53.53-.53.21,0,.4.12.49.31.3-.19.67-.31,1.06-.31,1.16,0,2.09.95,2.09,2.08Z"/>
        <path class="cls-4" d="M66.97,190.73v-5.9c0-.3.24-.55.55-.55s.56.25.56.55v3.46l2.05-2.05c.21-.21.57-.21.78,0s.22.57,0,.78l-1.5,1.5,1.54,1.85c.19.24.16.59-.08.78-.1.09-.23.13-.35.13-.16,0-.32-.07-.42-.2l-1.47-1.78-.55.55v.88c0,.3-.25.55-.56.55s-.55-.25-.55-.55Z"/>
        <path class="cls-4" d="M74.62,186.83c0,.3-.26.55-.56.55h-.25v2.79c.31,0,.55.25.55.56s-.24.55-.55.55c-.61,0-1.11-.5-1.11-1.11v-2.79h-.29c-.31,0-.55-.25-.55-.55s.24-.55.55-.55h.29v-1.45c0-.31.25-.55.56-.55s.55.24.55.55v1.45h.25c.3,0,.56.24.56.55Z"/>
        <path class="cls-4" d="M80.61,185.95v.14h.3c.3,0,.55.24.55.55s-.25.55-.55.55h-.3v3.53c0,.3-.24.55-.55.55s-.55-.25-.55-.55v-3.53h-.26c-.31,0-.56-.25-.56-.55s.25-.55.56-.55h.26v-.14c0-.37.04-.69.19-.98.14-.3.42-.53.72-.62.2-.06.39-.08.6-.08.3,0,.55.25.55.55s-.25.56-.55.56c-.13,0-.22.01-.26.03-.04,0-.05.02-.06.03-.01,0-.09.14-.09.51Z"/>
        <path class="cls-4" d="M84.37,191.28c-1.14,0-2.08-.94-2.08-2.08v-2.39c0-.28.24-.53.53-.53s.53.25.53.53v2.39c0,.57.45,1.02,1.02,1.02s1.04-.45,1.05-1.02v-2.39c0-.28.22-.53.52-.53.28,0,.54.25.54.53v2.39c0,1.14-.96,2.08-2.11,2.08ZM83.38,184.3c.36,0,.65.29.65.65s-.29.64-.65.64-.64-.28-.64-.64.28-.65.64-.65ZM85.38,184.3c.36,0,.65.29.65.65s-.29.64-.65.64-.64-.28-.64-.64.28-.65.64-.65Z"/>
        <path class="cls-4" d="M91.4,186.81c0,.28-.23.53-.53.53-.23,0-.43.06-.6.19-.19.12-.34.29-.46.48-.24.32-.36.7-.41.84v1.9c0,.29-.25.53-.55.53s-.53-.24-.53-.53v-3.94c0-.29.24-.52.53-.52s.55.23.55.52v.07c.06-.07.14-.15.21-.2.33-.22.76-.4,1.26-.39.3,0,.53.23.53.52Z"/>
        <path class="cls-4" d="M99.84,190.74c0,.29-.24.54-.54.54-.27,0-.48-.19-.53-.43-.38.26-.86.43-1.36.43-1.35,0-2.43-1.14-2.43-2.49s1.08-2.51,2.43-2.51c.49,0,.97.16,1.34.42v-1.88c0-.29.24-.54.55-.54s.54.25.54.54v3.96h0v1.96ZM97.41,187.37c-.36,0-.69.15-.94.41-.25.25-.4.61-.4,1.01s.15.74.4.99c.25.26.58.41.94.41s.69-.15.94-.41c.25-.25.4-.61.4-.99,0-.4-.15-.76-.4-1.01-.25-.26-.57-.41-.94-.41Z"/>
        <path class="cls-4" d="M102.8,185.03c0,.3-.23.55-.54.55s-.54-.25-.54-.55v-.21c0-.3.24-.54.54-.54s.54.24.54.54v.21ZM102.8,186.84v3.9c0,.3-.23.54-.54.54s-.54-.24-.54-.54v-3.9c0-.32.24-.55.54-.55s.54.23.54.55Z"/>
        <path class="cls-4" d="M103.97,188.79c0-1.39,1.16-2.5,2.54-2.51.6,0,1.16.22,1.59.55.23.18.27.52.11.74-.2.24-.52.28-.75.1-.26-.19-.58-.32-.95-.32-.81,0-1.48.67-1.48,1.44s.67,1.43,1.48,1.43c.36,0,.69-.13.95-.32.22-.17.55-.13.75.11.16.22.12.54-.11.74-.43.31-.99.53-1.59.53-1.38,0-2.54-1.12-2.54-2.49Z"/>
        <path class="cls-4" d="M110.94,190.73c0,.31-.25.55-.56.55-.25,0-.46-.18-.53-.41,0-.04-.02-.09-.02-.14v-5.9c0-.31.25-.55.55-.55s.56.24.56.55v1.74c.32-.17.68-.29,1.07-.29,1.21,0,2.18.99,2.18,2.19v2.26c0,.31-.24.55-.55.55s-.55-.24-.55-.55v-2.26c0-.59-.48-1.07-1.08-1.08-.59,0-1.06.49-1.07,1.08v2.26Z"/>
        <path class="cls-4" d="M116.39,189.86c.41,0,.75.34.75.75s-.34.74-.75.74-.74-.33-.74-.74.33-.75.74-.75Z"/>
      </g>
    </g>
  </g>
</svg>