<?xml version="1.0" encoding="UTF-8"?>
<svg xmlns="http://www.w3.org/2000/svg" viewBox="0 0 167.24 260.79">
  <defs>
    <style>
      .cls-1 {
        fill: #010101;
      }

      .cls-2 {
        fill: #e74258;
      }

      .cls-3 {
        fill: #171717;
      }

      .cls-4 {
        fill: #fff;
      }

      .cls-5 {
        fill: #171715;
      }
    </style>
  </defs>
  <g id="Background">
    <rect class="cls-2" width="167.24" height="260.79"/>
  </g>
  <g id="Rahmen">
    <path class="cls-1" d="M151.9,23.16c9.65,0,9.67-15,0-15s-9.67,15,0,15h0Z"/>
    <path class="cls-1" d="M152.22,254.59c9.65,0,9.67-15,0-15s-9.67,15,0,15h0Z"/>
    <path class="cls-1" d="M14.14,254.72c9.65,0,9.67-15,0-15s-9.67,15,0,15h0Z"/>
    <path class="cls-3" d="M11.56,15.67c18.49.32,36.98.69,55.46,1.04,19.51.36,39.05-.42,58.56-.82,10.18-.21,20.36-.38,30.54-.21l-3.75-3.75c-1.46,11.81-1.7,23.8-1.97,35.69-.33,14.15-.39,28.31-.37,42.46.01,9.3.14,18.61.07,27.91-.06,7.86-.43,15.71-.48,23.57-.07,11.29.08,22.59.37,33.88.56,22.38,1.59,44.74,2.18,67.12.07,2.79.14,5.57.2,8.36l3.75-3.75c-15.41-.13-30.81.06-46.22.48-24.85.69-49.67.84-74.52.24-8.25-.2-16.49-.49-24.74-.73l3.75,3.75c-.56-4.87-.34-9.89-.27-14.78.11-8.38.38-16.76.66-25.14.66-20.11,1.45-40.22,1.83-60.34.16-8.4.26-16.81.05-25.21-.13-5.24-.51-10.46-.61-15.7-.33-17.03-.19-34.08-.18-51.11,0-8.91,0-17.82-.06-26.73-.04-5.94-.04-11.89-.34-17.82-.04-.72-.08-1.43-.15-2.15-.19-1.95-1.59-3.85-3.75-3.75-1.87.08-3.96,1.66-3.75,3.75.48,4.83.39,9.76.44,14.61.09,8.42.1,16.84.11,25.25,0,17.78-.1,35.55.11,53.33.06,5.22.27,10.41.52,15.62.36,7.73.31,15.47.21,23.21-.24,20.03-1.02,40.04-1.7,60.06-.3,8.95-.6,17.9-.79,26.85-.13,5.9-.3,11.84,0,17.74.04.78.09,1.55.18,2.32.24,2.06,1.53,3.69,3.75,3.75,18.27.53,36.53,1.09,54.81,1.16,23.38.09,46.73-.97,70.1-1.19,6.85-.06,13.71-.03,20.56.02,2,.02,3.79-1.73,3.75-3.75-.48-22.44-1.5-44.87-2.16-67.3-.33-11.25-.57-22.51-.6-33.77-.03-10.16.25-20.29.47-30.44.18-8.23-.03-16.48-.05-24.72-.03-13.94,0-27.88.25-41.82.23-12.54.48-25.14,1.72-37.62.11-1.1.23-2.21.37-3.31.25-2.04-1.92-3.72-3.75-3.75-19.14-.32-38.3.42-57.44.81-9.78.2-19.58.45-29.37.27-7.76-.14-15.52-.3-23.28-.45-11.49-.22-22.99-.44-34.48-.63-1.96-.03-3.84,1.75-3.75,3.75s1.65,3.71,3.75,3.75h0Z"/>
    <polygon class="cls-3" points="26.61 14.43 14.5 29.16 14.18 13.04 26.61 14.43"/>
    <polygon class="cls-3" points="140.79 14.16 152.35 27.66 154.57 11.89 140.79 14.16"/>
    <polygon class="cls-3" points="139.48 248.15 153.14 235.93 156.07 248.65 139.48 248.15"/>
    <polygon class="cls-3" points="12.9 235.54 26.24 248.54 12.31 249.36 12.9 235.54"/>
    <rect class="cls-3" width="10.32" height="260.79"/>
    <rect class="cls-3" y="249.36" width="167.24" height="11.43"/>
    <rect class="cls-5" width="167.24" height="10.33"/>
    <rect class="cls-3" x="156.12" width="11.13" height="260.79"/>
    <path class="cls-3" d="M125.63,17.19c0-.85.38-3.85,0-4.78-1.01-2.49-3.83-2.81-6.59-2.81H48.2c-2.76,0-5.58.32-6.59,2.81-.38.93,0,3.93,0,4.78l-.3,5.71c-.6,5.31,9.41,4.59,13.19,4.59l21.81.37,7.3-.07h0l7.3.07,21.81-.37c3.79,0,13.79.72,13.19-4.59l-.3-5.71Z"/>
    <path class="cls-1" d="M151.9,23.16c9.65,0,9.67-15,0-15s-9.67,15,0,15h0Z"/>
    <path class="cls-1" d="M152.22,254.59c9.65,0,9.67-15,0-15s-9.67,15,0,15h0Z"/>
    <path class="cls-1" d="M14.14,254.72c9.65,0,9.67-15,0-15s-9.67,15,0,15h0Z"/>
    <path class="cls-3" d="M11.56,15.67c18.49.32,36.98.69,55.46,1.04,19.51.36,39.05-.42,58.56-.82,10.18-.21,20.36-.38,30.54-.21l-3.75-3.75c-1.46,11.81-1.7,23.8-1.97,35.69-.33,14.15-.39,28.31-.37,42.46.01,9.3.14,18.61.07,27.91-.06,7.86-.43,15.71-.48,23.57-.07,11.29.08,22.59.37,33.88.56,22.38,1.59,44.74,2.18,67.12.07,2.79.14,5.57.2,8.36l3.75-3.75c-15.41-.13-30.81.06-46.22.48-24.85.69-49.67.84-74.52.24-8.25-.2-16.49-.49-24.74-.73l3.75,3.75c-.56-4.87-.34-9.89-.27-14.78.11-8.38.38-16.76.66-25.14.66-20.11,1.45-40.22,1.83-60.34.16-8.4.26-16.81.05-25.21-.13-5.24-.51-10.46-.61-15.7-.33-17.03-.19-34.08-.18-51.11,0-8.91,0-17.82-.06-26.73-.04-5.94-.04-11.89-.34-17.82-.04-.72-.08-1.43-.15-2.15-.19-1.95-1.59-3.85-3.75-3.75-1.87.08-3.96,1.66-3.75,3.75.48,4.83.39,9.76.44,14.61.09,8.42.1,16.84.11,25.25,0,17.78-.1,35.55.11,53.33.06,5.22.27,10.41.52,15.62.36,7.73.31,15.47.21,23.21-.24,20.03-1.02,40.04-1.7,60.06-.3,8.95-.6,17.9-.79,26.85-.13,5.9-.3,11.84,0,17.74.04.78.09,1.55.18,2.32.24,2.06,1.53,3.69,3.75,3.75,18.27.53,36.53,1.09,54.81,1.16,23.38.09,46.73-.97,70.1-1.19,6.85-.06,13.71-.03,20.56.02,2,.02,3.79-1.73,3.75-3.75-.48-22.44-1.5-44.87-2.16-67.3-.33-11.25-.57-22.51-.6-33.77-.03-10.16.25-20.29.47-30.44.18-8.23-.03-16.48-.05-24.72-.03-13.94,0-27.88.25-41.82.23-12.54.48-25.14,1.72-37.62.11-1.1.23-2.21.37-3.31.25-2.04-1.92-3.72-3.75-3.75-19.14-.32-38.3.42-57.44.81-9.78.2-19.58.45-29.37.27-7.76-.14-15.52-.3-23.28-.45-11.49-.22-22.99-.44-34.48-.63-1.96-.03-3.84,1.75-3.75,3.75s1.65,3.71,3.75,3.75h0Z"/>
    <polygon class="cls-3" points="26.61 14.43 14.5 29.16 14.18 13.04 26.61 14.43"/>
    <polygon class="cls-3" points="140.79 14.16 152.35 27.66 154.57 11.89 140.79 14.16"/>
    <polygon class="cls-3" points="139.48 248.15 153.14 235.93 156.07 248.65 139.48 248.15"/>
    <polygon class="cls-3" points="12.9 235.54 26.24 248.54 12.31 249.36 12.9 235.54"/>
    <rect class="cls-3" width="10.32" height="260.79"/>
    <rect class="cls-3" y="249.36" width="167.24" height="11.43"/>
    <rect class="cls-5" width="167.24" height="10.33"/>
    <rect class="cls-3" x="156.12" width="11.13" height="260.79"/>
  </g>
  <g id="Kategorie_Name" data-name="Kategorie Name">
    <g>
      <path class="cls-2" d="M52.04,17.33c-.03.09-.09.28-.17.57s-.19.64-.31,1.04-.25.81-.38,1.25-.25.84-.35,1.2c-.11.37-.23.79-.38,1.27-.05.05-.18.09-.41.11-.22.02-.46.02-.73.02-.27,0-.53-.02-.77-.03-.25-.02-.41-.02-.5-.02h-.33c-.16,0-.33,0-.5,0-.18,0-.34-.01-.48-.02-.14-.01-.23-.02-.26-.03-.12-.05-.18-.15-.18-.29s0-.27.01-.39c.28-3.61.6-7.22.95-10.84,0-.08.02-.14.06-.18.03-.03.15-.05.38-.07.22-.01.46-.01.73,0,.27.01.53.02.77.03s.41.02.49.02c.05,0,.11,0,.19,0,.08,0,.15,0,.22,0s.13.02.19.06.09.08.11.15c.02.07.02.23,0,.51-.03.27-.06.6-.1,1-.04.39-.09.81-.14,1.26-.06.45-.11.87-.16,1.28-.05.41-.1.77-.14,1.09-.04.32-.06.53-.07.65.03-.09.07-.23.13-.44.06-.21.13-.44.22-.7.08-.26.18-.53.28-.82.1-.28.2-.54.29-.79.09-.24.19-.44.28-.6.09-.16.17-.26.23-.28,0,0,.11,0,.29,0,.19,0,.4-.01.63-.02.24,0,.46,0,.66,0h.4s.09,0,.14,0c.04,0,.08.02.12.04.03.01.08.12.14.32.07.2.14.45.22.74.08.29.17.61.26.96.09.35.18.68.26,1,.08.32.15.59.21.83.06.24.1.4.12.49-.03-.76-.07-1.52-.13-2.27-.05-.75-.11-1.51-.16-2.27-.02-.33-.05-.66-.08-1.01s-.05-.67-.05-.99c0-.13.05-.2.16-.21.1-.01.2-.02.29-.02.44,0,.89.02,1.33.07.45.05.89.04,1.32-.04.05-.01.12-.03.22-.07.09-.03.16-.04.2-.02.08.02.13.1.15.23.02.13.03.23.04.31,0,.13.01.39.01.78s0,.85,0,1.4c0,.55-.01,1.14-.02,1.8,0,.65-.02,1.31-.04,1.97s-.03,1.3-.04,1.93-.03,1.19-.04,1.68c-.02.49-.03.89-.05,1.19-.02.3-.04.46-.04.48-.02.02-.13.04-.32.06-.2.02-.44.03-.72.03-.28,0-.59,0-.93,0s-.65,0-.95,0c-.3,0-.56-.01-.79-.02-.22-.01-.37-.02-.44-.03-.12-.01-.21-.06-.29-.16-.04-.04-.09-.19-.15-.43-.06-.24-.13-.53-.21-.86s-.16-.69-.24-1.09c-.08-.39-.16-.77-.24-1.13s-.15-.69-.22-.98c-.07-.29-.12-.51-.16-.64Z"/>
      <path class="cls-2" d="M60.91,22.73c-.09,0-.23,0-.41,0-.18,0-.38,0-.57,0-.2-.01-.37-.04-.52-.09-.15-.05-.23-.13-.24-.24,0-.08-.01-.29-.01-.63s0-.77,0-1.28c0-.51,0-1.09.02-1.72,0-.64.01-1.29.02-1.95,0-.66.02-1.31.03-1.94.01-.63.02-1.2.03-1.69,0-.5.02-.9.04-1.23.01-.32.03-.5.04-.53,0-.05.04-.09.1-.11.06-.02.13-.04.2-.05s.15-.02.22-.02h.19c.06,0,.22,0,.49-.02.27-.01.54-.02.84-.02.29,0,.56-.01.8-.02.24,0,.37,0,.39,0,.02.01.04.03.05.07.02.03.03.06.04.08,0,.07.02.22.02.47,0,.25,0,.53,0,.87s0,.7-.02,1.09c0,.39-.02.77-.03,1.13-.01.36-.02.68-.02.97,0,.29,0,.5,0,.63,0,.71,0,1.41.01,2.12,0,.7.03,1.41.04,2.12,0,.25.03.52.05.81.02.29.03.56,0,.81-.01.09-.03.15-.07.19-.04.04-.09.07-.17.09-.22.05-.48.08-.79.09-.31,0-.57,0-.8,0Z"/>
      <path class="cls-2" d="M67,19.52c.08-.01.24-.02.47-.04.23-.02.48-.03.74-.05.26-.02.5-.03.71-.03.21,0,.35,0,.4,0,.13.04.21.1.25.16s.06.17.08.31c0,.09.02.27.03.55s.01.57,0,.88-.02.59-.04.84c-.03.26-.07.4-.13.43-.09.05-.19.08-.29.07-.11,0-.21,0-.31,0-.16,0-.37,0-.63.02-.26.01-.54.02-.86.03-.31.01-.63.02-.96.02s-.64,0-.94,0-.56,0-.79-.02c-.23-.02-.4-.05-.51-.09-.17-.06-.29-.18-.35-.35-.07-.17-.11-.36-.12-.56-.01-.21,0-.42.01-.63.03-.21.04-.4.05-.55.08-1.05.14-2.08.19-3.11.04-1.03.09-2.07.14-3.11.02-.46.03-.93.03-1.42s.03-.96.09-1.42c0-.11.05-.19.11-.25.06-.05.14-.09.22-.11.08-.02.17-.02.26-.02s.17,0,.25,0h.51c.25,0,.51,0,.78,0,.27,0,.52.02.74.05.22.03.36.07.41.12.05.05.08.14.08.25,0,.11,0,.24,0,.37-.01.13-.03.26-.04.38-.02.13-.04.22-.04.29-.14,1.16-.24,2.31-.31,3.47-.07,1.16-.15,2.32-.26,3.49Z"/>
      <path class="cls-2" d="M73.63,11.54c.29-.3.63-.56,1.02-.76.39-.2.79-.29,1.21-.27.54.02,1.02.18,1.45.47.42.29.79.68,1.1,1.16.31.48.56,1.03.75,1.65.19.62.31,1.27.38,1.95.06.68.05,1.35-.02,2.04s-.21,1.32-.43,1.91c-.22.59-.51,1.13-.88,1.6s-.81.84-1.33,1.09c-.35.16-.71.28-1.08.34s-.74.11-1.11.13c-.51.03-1.01.04-1.5.03-.49-.01-.99,0-1.5.02-.09,0-.2,0-.34.02-.14.02-.27.02-.41,0s-.26-.04-.37-.1c-.11-.05-.18-.14-.21-.26-.03-.12-.04-.25-.03-.38s.02-.26.03-.38c.04-.78.05-1.57.04-2.35-.01-.78-.02-1.56-.02-2.35,0-1.01,0-2.02.02-3.02.02-1,0-2.01-.04-3.02v-.28c0-.1.04-.18.12-.25.02-.02.11-.04.27-.07.16-.02.35-.04.58-.05.22-.01.47-.02.73-.02s.5.01.73.03c.23.02.42.06.58.11.15.05.25.11.28.19,0,.02.01.07,0,.14,0,.07,0,.15-.01.24,0,.09-.01.17-.02.25,0,.08-.01.13-.01.16ZM73.47,19.28c.28.03.58.03.89-.02.32-.04.62-.14.9-.28.28-.14.54-.32.76-.55.22-.22.37-.5.45-.83.06-.25.1-.5.11-.76.02-.26.01-.51,0-.76-.02-.23-.05-.46-.08-.7s-.1-.47-.19-.69c-.12-.27-.29-.48-.51-.62-.22-.14-.46-.22-.71-.25-.25-.02-.5.01-.76.11s-.47.24-.65.43c-.02.02-.04.05-.06.08-.02.03-.04.06-.06.08,0,.8,0,1.59-.03,2.37-.02.79-.04,1.58-.06,2.37Z"/>
      <path class="cls-2" d="M90.84,22.5c-.54.19-1.11.26-1.7.22s-1.14-.16-1.67-.37c-.53-.21-.97-.5-1.32-.87-.35-.37-.62-.79-.83-1.25-.2-.46-.34-.97-.43-1.51-.08-.54-.13-1.1-.14-1.65,0-.86.04-1.69.14-2.5.11-.81.32-1.53.63-2.16.32-.63.76-1.15,1.33-1.55s1.33-.64,2.27-.7c.54-.03,1.11.01,1.7.13.59.12,1.12.33,1.59.62.06.04.14.1.23.17s.15.14.17.22c0,.01-.03.08-.08.2s-.12.27-.2.45c-.08.18-.18.37-.29.58-.11.21-.21.4-.3.59-.1.19-.18.35-.25.49-.08.14-.13.23-.16.26-.05.05-.09.1-.13.14s-.1.04-.18,0c-.1-.05-.19-.12-.28-.19-.09-.07-.18-.13-.29-.19-.37-.17-.77-.25-1.2-.23-.43.02-.79.19-1.09.51-.15.16-.27.36-.37.6-.1.23-.17.48-.21.74-.04.26-.07.52-.08.78,0,.26,0,.51.02.74.02.32.06.64.13.96.07.33.18.62.33.87.15.26.35.45.59.57.25.13.55.14.92.04.26-.08.49-.18.69-.32.2-.14.4-.29.61-.47.04-.03.08-.05.14-.06.05,0,.09.01.13.06s.14.18.29.42.32.48.49.75c.17.27.39.62.67,1.05.05.19,0,.38-.14.57-.15.2-.33.38-.55.56s-.45.33-.68.47c-.23.13-.41.22-.53.26Z"/>
      <path class="cls-2" d="M96.04,21.16c-.01.07-.02.17-.03.31s-.02.29-.04.44c-.01.15-.04.29-.06.42-.03.13-.05.21-.08.25-.03.03-.15.06-.36.07-.21.02-.44.03-.7.03s-.5,0-.73,0h-.45c-.18,0-.32-.02-.42-.05-.1-.03-.12-.17-.08-.41.03-.15.08-.42.15-.81.07-.39.15-.85.24-1.39.09-.54.19-1.13.31-1.77s.23-1.28.35-1.92c.11-.64.23-1.27.34-1.87s.21-1.14.31-1.62.18-.86.25-1.15c.07-.29.12-.45.15-.47.02-.01.06-.02.12-.02.06,0,.13,0,.2,0s.15,0,.22,0,.12,0,.15,0c.63.02,1.24,0,1.83-.07.59-.07,1.2-.13,1.83-.18.1-.01.19.02.26.08.07.07.12.15.17.25.04.1.07.2.1.32.03.11.05.22.07.3.17.75.3,1.5.38,2.26.08.75.17,1.5.25,2.26.09.86.17,1.74.23,2.64.06.9.18,1.77.35,2.62,0,.05.02.13.04.21.02.09.03.18.04.28s0,.19,0,.27c0,.08-.04.14-.1.17-.03.02-.12.04-.29.05s-.36.02-.58.02c-.23,0-.48,0-.75,0s-.52,0-.76,0c-.23,0-.44-.01-.61-.02-.18,0-.28-.01-.32-.02-.1-.02-.16-.07-.17-.15-.05-.21-.07-.43-.07-.65s0-.45-.02-.67c-.28-.03-.56-.05-.85-.04-.28,0-.57,0-.85,0ZM97.3,14.04c-.17.82-.33,1.63-.47,2.43-.15.8-.29,1.61-.43,2.43.2-.02.41-.04.62-.05s.42,0,.62.02c-.04-.81-.09-1.61-.16-2.41-.06-.8-.12-1.6-.17-2.41Z"/>
      <path class="cls-2" d="M108.65,23.36c-.07.1-.15.11-.24.03-.74-1.35-1.57-2.67-2.47-3.94,0,.15.03.41.06.78.03.37.05.74.05,1.13,0,.39-.01.74-.06,1.06-.04.32-.13.51-.26.56-.09.03-.24.06-.46.09-.21.03-.46.04-.73.05-.27,0-.55,0-.84-.02-.29-.02-.55-.05-.79-.09-.24-.04-.44-.1-.59-.18s-.23-.17-.23-.29c0-.38.02-.77.07-1.15s.08-.77.1-1.15c.1-1.61.17-3.23.23-4.86.02-.63.03-1.26.03-1.88s0-1.25-.03-1.88c-.01-.12,0-.23,0-.34.02-.11.08-.19.2-.23.08-.03.26-.06.53-.09.27-.03.56-.04.87-.05.3,0,.58,0,.84.02.25.02.41.06.46.12,0,.02.02.07.04.14.01.07.03.15.04.23.01.08.03.16.04.24s.02.13.02.16c.64-.46,1.22-.73,1.75-.82.53-.09.99-.04,1.4.13.4.17.74.46,1.02.85.28.39.49.84.64,1.35.15.51.23,1.05.25,1.62.02.57-.03,1.12-.14,1.65s-.3,1.02-.55,1.46-.57.8-.96,1.05c.28.46.6.9.97,1.32.37.42.67.83.92,1.22.05.09.08.16.1.22.02.06,0,.13-.08.22-.03.03-.15.11-.35.24-.21.13-.43.26-.68.41-.25.15-.49.28-.71.4-.22.12-.37.2-.44.23ZM105.78,16.38c.43.15.78.16,1.04.03.26-.13.45-.32.56-.57.11-.25.15-.53.13-.83-.02-.3-.11-.55-.26-.74-.15-.2-.35-.3-.61-.33-.26-.02-.57.12-.92.44.02.34.03.67.04,1s.01.66.02,1Z"/>
      <path class="cls-2" d="M115.04,11.54c.29-.3.63-.56,1.02-.76.39-.2.79-.29,1.21-.27.54.02,1.02.18,1.45.47.42.29.79.68,1.1,1.16.31.48.56,1.03.75,1.65.19.62.32,1.27.38,1.95s.05,1.35-.01,2.04c-.07.68-.22,1.32-.44,1.91-.22.59-.51,1.13-.88,1.6-.37.47-.81.84-1.33,1.09-.35.16-.71.28-1.08.34s-.74.11-1.11.13c-.51.03-1.01.04-1.5.03-.49-.01-.99,0-1.5.02-.09,0-.2,0-.34.02-.13.02-.27.02-.41,0-.13-.01-.26-.04-.37-.1s-.18-.14-.21-.26c-.03-.12-.04-.25-.03-.38s.02-.26.03-.38c.04-.78.05-1.57.04-2.35s-.01-1.56-.01-2.35c0-1.01,0-2.02.02-3.02.01-1,0-2.01-.04-3.02v-.28c0-.1.04-.18.12-.25.02-.02.11-.04.27-.07.16-.02.35-.04.58-.05.23-.01.47-.02.73-.02s.5.01.74.03c.23.02.42.06.58.11.16.05.25.11.28.19,0,.02.01.07,0,.14s0,.15-.01.24c0,.09-.01.17-.02.25-.01.08-.02.13-.02.16ZM114.89,19.28c.28.03.58.03.89-.02.31-.04.61-.14.9-.28s.54-.32.76-.55c.22-.22.37-.5.45-.83.06-.25.1-.5.11-.76.01-.26.01-.51,0-.76-.02-.23-.05-.46-.08-.7-.04-.24-.1-.47-.19-.69-.12-.27-.29-.48-.51-.62-.22-.14-.46-.22-.71-.25-.25-.02-.5.01-.76.11s-.47.24-.65.43c-.02.02-.04.05-.06.08-.02.03-.04.06-.06.08,0,.8-.01,1.59-.03,2.37-.02.79-.04,1.58-.06,2.37Z"/>
    </g>
  </g>
  <g id="Motive">
    <g>
      <path class="cls-3" d="M65.83,107.29c0,.17,0,.59-.02,1.28-.01.69-.03,1.43-.04,2.21-.01.79-.03,1.49-.06,2.11-.03.62-.04.94-.04.97-.11.28-.46.47-1.05.58-.59.11-1.26.18-1.99.21-.73.03-1.44.03-2.13,0-.69-.03-1.17-.04-1.45-.04-.14,0-.31,0-.52.02-.21.01-.41.02-.62.02s-.4-.03-.58-.08c-.18-.05-.3-.15-.35-.29-.03-.05-.04-.24-.04-.56s0-.72.02-1.2c.01-.48.03-1,.06-1.55.03-.55.05-1.08.06-1.59.01-.51.03-.96.04-1.34.01-.39.02-.66.02-.83-.25,0-.74.01-1.47.04-.73.03-1.5.05-2.3.06-.8.01-1.53.01-2.19,0-.66-.01-1.06-.06-1.2-.15-.22-.11-.37-.3-.45-.58-.03-.11-.04-.5-.04-1.18s.01-1.42.04-2.23c.03-.81.06-1.57.1-2.27s.08-1.15.1-1.34c.06-.39.23-.66.54-.83.14-.08.52-.15,1.14-.19.62-.04,1.3-.08,2.03-.1.73-.03,1.43-.05,2.11-.06.68-.01,1.14-.02,1.39-.02,0-.25-.03-.68-.08-1.3-.06-.62-.1-1.26-.12-1.92-.03-.66-.05-1.28-.06-1.84-.01-.57.02-.92.1-1.05.14-.25.33-.41.58-.5.08-.03.46-.05,1.14-.06.68-.01,1.42-.01,2.23,0,.81.01,1.59.03,2.32.04.73.01,1.18.03,1.34.06.17.03.32.08.48.14.15.07.27.19.35.35.08.19.16.58.23,1.16.07.58.12,1.21.17,1.88.04.68.08,1.32.12,1.94.04.62.06,1.07.06,1.34.41,0,.89,0,1.43.02.54.01,1.08.03,1.63.04.55.01,1.09.04,1.61.08.52.04.98.1,1.36.19.22.17.38.31.48.43.1.12.16.34.19.64v2.17c0,.54,0,1.11-.02,1.72-.01.61-.03,1.17-.04,1.68-.01.51-.03.94-.04,1.28-.01.34-.03.53-.06.56-.08.14-.43.21-1.03.21s-1.28-.02-2.01-.06c-.73-.04-1.43-.1-2.11-.17-.68-.07-1.12-.1-1.34-.1Z"/>
      <path class="cls-3" d="M95.02,93.42c1.16-.22,2.38-.41,3.68-.58,1.29-.17,2.59-.22,3.89-.17,1.3.06,2.56.25,3.81.58,1.24.33,2.36.86,3.35,1.57,2.1,1.54,3.78,3.43,5.05,5.67,1.27,2.23,2.12,4.65,2.56,7.24.44,2.59.51,5.23.21,7.9-.3,2.68-.99,5.2-2.07,7.57-1.08,2.37-2.51,4.48-4.3,6.33-1.79,1.85-3.93,3.21-6.41,4.1-1.49.55-3.02.9-4.59,1.03-1.57.14-3.16.15-4.76.04-.44-.06-1.2-.18-2.27-.37-1.08-.19-2.29-.47-3.64-.83-1.35-.36-2.76-.75-4.22-1.16-1.46-.41-2.8-.85-4.01-1.32-1.21-.47-2.22-.95-3.02-1.45-.8-.5-1.2-.99-1.2-1.49,0-.11.22-.59.66-1.45.44-.85.95-1.82,1.53-2.9s1.12-2.11,1.61-3.1c.5-.99.83-1.71.99-2.15.05-.22.15-.52.29-.91.14-.39.29-.76.45-1.12.16-.36.37-.66.62-.91.25-.25.54-.34.87-.29,2.65,1.77,4.98,2.87,6.99,3.31,2.01.44,3.72.46,5.13.04,1.41-.41,2.51-1.14,3.31-2.19.8-1.05,1.3-2.19,1.49-3.43s.07-2.44-.37-3.6c-.44-1.16-1.19-2.1-2.23-2.81-.83-.55-1.83-.87-3.02-.95-1.19-.08-2.41-.04-3.68.12-1.27.17-2.56.4-3.89.7-1.32.3-2.54.59-3.64.87-1.1.28-2.08.45-2.94.54-.86.08-1.45-.01-1.78-.29-.44-.33-.79-1.34-1.03-3.02-.25-1.68-.43-3.68-.54-6-.11-2.32-.15-4.8-.12-7.45.03-2.65.11-5.11.25-7.4.14-2.29.3-4.22.5-5.79.19-1.57.4-2.47.62-2.69.17-.17,1.12-.39,2.85-.66,1.74-.28,3.85-.55,6.33-.83,2.48-.28,5.17-.57,8.07-.87,2.9-.3,5.6-.56,8.11-.79,2.51-.22,4.67-.4,6.49-.54,1.82-.14,2.9-.18,3.23-.12.44.06.77.24.99.54.22.3.37.65.46,1.03.08.39.14.8.16,1.24.03.44.04.83.04,1.16,0,.55.03,1.35.08,2.4.05,1.05.07,2.12.04,3.23-.03,1.1-.11,2.14-.25,3.1-.14.97-.4,1.64-.79,2.03-.44.5-1.03.76-1.78.79-.74.03-1.42-.01-2.03-.12-2.48-.39-5.16-.61-8.02-.66-2.87-.05-5.57,0-8.11.17-.06,1.21-.1,2.4-.12,3.56-.03,1.16.01,2.34.12,3.56Z"/>
    </g>
  </g>
  <g id="Kateg._Symbol" data-name="Kateg. Symbol">
    <path class="cls-4" d="M19.29,15.45c.5-.68.16-1.57-.67-1.73-.66-.13-1.38-.15-2.03-.29-.12-.03-.17-.06-.23-.17-.35-.59-.59-1.3-.94-1.89-.21-.35-.57-.56-.98-.54-.38.02-.7.23-.89.55-.34.58-.58,1.27-.91,1.85-.06.11-.12.17-.25.2-.67.15-1.44.15-2.11.31-.82.19-1.09,1.19-.51,1.8.36.39.8.76,1.18,1.14.11.11.37.33.39.47-.07.71-.27,1.42-.35,2.12-.06.5.17.97.65,1.16.39.15.66.07,1.01-.1.6-.3,1.18-.65,1.79-.93.13-.02.25.06.36.12.55.28,1.18.69,1.74.91.79.31,1.53-.31,1.46-1.14-.06-.66-.29-1.38-.35-2.04,0-.09,0-.18.07-.25l1.57-1.54Z"/>
    <path class="cls-4" d="M156.21,248.03c.5-.68.16-1.57-.67-1.73-.66-.13-1.38-.15-2.03-.29-.12-.03-.17-.06-.23-.17-.35-.59-.59-1.3-.94-1.89-.21-.35-.57-.56-.98-.54-.38.02-.7.23-.89.55-.34.58-.58,1.27-.91,1.85-.06.11-.12.17-.25.2-.67.15-1.44.15-2.11.31-.82.19-1.09,1.19-.51,1.8.36.39.8.76,1.18,1.14.11.11.37.33.39.47-.07.71-.27,1.42-.35,2.12-.06.5.17.97.65,1.16.39.15.66.07,1.01-.1.6-.3,1.18-.65,1.79-.93.13-.02.25.06.36.12.55.28,1.18.69,1.74.91.79.31,1.53-.31,1.46-1.14-.06-.66-.29-1.38-.35-2.04,0-.09,0-.18.07-.25l1.57-1.54Z"/>
  </g>
  <g id="Text_Karten" data-name="Text Karten">
    <g>
      <g>
        <path class="cls-4" d="M34.07,179.19s-.04-.03-.07-.05c0-.01,0-.01,0-.03-.02-.02-.04-.04-.05-.06,0,0-.01,0-.01-.01,0-.02-.03-.06-.05-.08l-2.45-5.84c-.12-.27,0-.6.3-.71.27-.12.59,0,.71.29l1.95,4.63,1.95-4.63c.12-.28.45-.41.72-.29.28.11.41.44.3.71l-2.47,5.84s-.02.06-.04.08t0,.01s-.04.04-.05.06t-.02.03s-.04.03-.06.05h-.02s-.05.05-.08.06t-.02.01s-.05,0-.08.02h-.02s-.07,0-.1,0-.07,0-.1,0h-.02s-.06-.02-.08-.02c0-.01,0-.01,0-.01h0s-.06-.04-.09-.06h0Z"/>
        <path class="cls-4" d="M37.93,176.79c0-1.36,1.07-2.5,2.44-2.5s2.33.97,2.41,2.32v.05s0,.07-.01.09c-.03.24-.24.4-.52.4h-3.18c.05.23.16.49.34.66.21.24.61.42.96.45.36.03.79-.06,1.04-.25.21-.22.62-.19.75-.03.13.14.23.44,0,.65-.49.45-1.08.66-1.79.66-1.37,0-2.43-1.14-2.44-2.5ZM39.02,176.3h2.83c-.1-.4-.61-.99-1.48-1.06-.85.04-1.27.65-1.35,1.06Z"/>
      </g>
      <g>
        <path class="cls-4" d="M47.04,174.82c0,.28-.23.53-.53.53-.23,0-.43.06-.6.19-.19.12-.34.29-.46.48-.24.32-.36.7-.41.84v1.9c0,.29-.25.53-.55.53s-.53-.24-.53-.53v-3.94c0-.29.24-.52.53-.52s.55.23.55.52v.07c.06-.07.14-.15.21-.2.33-.22.76-.4,1.26-.39.3,0,.53.23.53.52Z"/>
        <path class="cls-4" d="M50.4,174.84c0,.3-.26.55-.56.55h-.25v2.79c.31,0,.55.25.55.56s-.24.55-.55.55c-.61,0-1.11-.5-1.11-1.11v-2.79h-.29c-.31,0-.55-.25-.55-.55s.24-.55.55-.55h.29v-1.45c0-.31.25-.55.56-.55s.55.24.55.55v1.45h.25c.3,0,.56.24.56.55Z"/>
      </g>
      <g>
        <path class="cls-4" d="M51.2,176.79c.01-1.36,1.07-2.5,2.44-2.5,1.3,0,2.33.97,2.41,2.32v.05s0,.07,0,.09c-.03.24-.24.4-.52.4h-3.18c.05.23.16.49.34.66.21.24.61.42.96.45.36.03.79-.06,1.04-.25.21-.22.62-.19.75-.03.13.14.23.44,0,.65-.49.45-1.08.66-1.79.66-1.37,0-2.43-1.14-2.44-2.5ZM52.29,176.3h2.83c-.1-.4-.61-.99-1.48-1.06-.85.04-1.27.65-1.35,1.06Z"/>
        <path class="cls-4" d="M58.53,173.04c0,.3-.23.55-.54.55s-.54-.25-.54-.55v-.21c0-.3.24-.54.54-.54s.54.24.54.54v.21ZM58.53,174.85v3.9c0,.3-.23.54-.54.54s-.54-.24-.54-.54v-3.9c0-.32.24-.55.54-.55s.54.23.54.55Z"/>
      </g>
      <g>
        <path class="cls-4" d="M60.46,172.29c.31,0,.56.25.56.55v5.9c0,.3-.25.55-.56.55s-.55-.25-.55-.55v-5.9c0-.3.25-.55.55-.55Z"/>
        <path class="cls-4" d="M62.23,176.79c0-1.36,1.07-2.5,2.44-2.5s2.33.97,2.41,2.32v.05s0,.07-.01.09c-.03.24-.24.4-.52.4h-3.18c.05.23.16.49.34.66.21.24.61.42.96.45.36.03.79-.06,1.04-.25.21-.22.62-.19.75-.03.13.14.23.44,0,.65-.49.45-1.08.66-1.79.66-1.37,0-2.43-1.14-2.44-2.5ZM63.32,176.3h2.83c-.1-.4-.61-.99-1.48-1.06-.85.04-1.27.65-1.35,1.06Z"/>
      </g>
      <g>
        <path class="cls-4" d="M74.68,175.05c.49.48.73,1.12.73,1.76s-.25,1.27-.73,1.75c-.48.49-1.12.73-1.75.73h-.02c-.62,0-1.27-.24-1.74-.73-.23-.21-.23-.57,0-.8.21-.22.58-.22.8,0,.26.27.6.4.96.4.34,0,.69-.13.95-.4.26-.26.4-.61.4-.95,0-.36-.13-.7-.4-.96-.26-.27-.6-.39-.95-.39s-.7.12-.96.39c-.22.22-.58.22-.8,0-.04-.04-.07-.09-.11-.13,0-.02,0-.03-.01-.03,0-.02,0-.04-.02-.05,0-.03,0-.05,0-.07,0-.01-.01-.01-.01-.02,0-.06,0-.12,0-.17l.3-2.59c.03-.17.12-.31.25-.4.02-.01.03-.01.04-.02.01-.01.02-.01.03-.02.08-.04.16-.06.26-.06h2.95c.32,0,.57.25.57.57,0,.3-.25.56-.57.56h-2.46l-.12.99c.22-.06.45-.09.67-.09.63,0,1.27.24,1.75.73Z"/>
        <path class="cls-4" d="M79.82,177.55c.18-.22.51-.25.73-.07.44.36,1.2.78,1.91.77.5,0,.95-.15,1.25-.37s.43-.47.43-.72c0-.13-.03-.22-.09-.32-.06-.1-.15-.2-.3-.3-.29-.19-.78-.36-1.37-.47h-.02c-.47-.09-.91-.21-1.29-.39-.38-.18-.71-.43-.93-.78-.15-.24-.23-.52-.23-.82,0-.6.34-1.12.8-1.46.47-.34,1.08-.53,1.73-.53.96,0,1.67.47,2.18.8.23.16.3.48.14.71-.15.24-.47.31-.71.15-.51-.34-1-.64-1.61-.64-.45,0-.85.14-1.12.34-.27.2-.38.42-.38.63,0,.12.02.2.07.28.05.08.14.17.27.26.26.18.71.34,1.25.44h.02c.51.1.98.23,1.38.42.41.2.77.46,1,.83.15.24.24.54.24.85,0,.64-.36,1.19-.86,1.55-.49.36-1.14.57-1.85.57-1.08-.01-1.99-.55-2.56-1-.22-.18-.25-.51-.08-.73Z"/>
        <path class="cls-4" d="M86.05,176.8c0-1.39,1.16-2.5,2.54-2.51.6,0,1.16.22,1.59.55.23.18.27.52.11.74-.2.24-.52.28-.75.1-.26-.19-.58-.32-.95-.32-.81,0-1.48.67-1.48,1.44s.67,1.43,1.48,1.43c.36,0,.69-.13.95-.32.22-.17.55-.13.75.11.16.22.12.54-.11.74-.43.31-.99.53-1.59.53-1.38,0-2.54-1.12-2.54-2.49Z"/>
        <path class="cls-4" d="M93.02,178.74c0,.31-.25.55-.56.55-.25,0-.46-.18-.53-.41,0-.04-.02-.09-.02-.14v-5.9c0-.31.25-.55.55-.55s.56.24.56.55v1.74c.32-.17.68-.29,1.07-.29,1.21,0,2.18.99,2.18,2.19v2.26c0,.31-.24.55-.55.55s-.55-.24-.55-.55v-2.26c0-.59-.48-1.07-1.08-1.08-.59,0-1.06.49-1.07,1.08v2.26Z"/>
        <path class="cls-4" d="M98.46,172.29c.31,0,.56.25.56.55v5.9c0,.3-.25.55-.56.55s-.55-.25-.55-.55v-5.9c0-.3.25-.55.55-.55Z"/>
        <path class="cls-4" d="M102.1,179.29c-1.14,0-2.08-.94-2.08-2.08v-2.39c0-.28.24-.53.53-.53s.53.25.53.53v2.39c0,.57.45,1.02,1.02,1.02s1.04-.45,1.05-1.02v-2.39c0-.28.22-.53.52-.53.28,0,.54.25.54.53v2.39c0,1.14-.96,2.08-2.11,2.08ZM101.12,172.31c.36,0,.65.29.65.65s-.29.64-.65.64-.64-.28-.64-.64.28-.65.64-.65ZM103.11,172.31c.36,0,.65.29.65.65s-.29.64-.65.64-.64-.28-.64-.64.28-.65.64-.65Z"/>
        <path class="cls-4" d="M105.71,176.8c0-1.39,1.16-2.5,2.54-2.51.6,0,1.16.22,1.59.55.23.18.27.52.11.74-.2.24-.52.28-.75.1-.26-.19-.58-.32-.95-.32-.81,0-1.48.67-1.48,1.44s.67,1.43,1.48,1.43c.36,0,.69-.13.95-.32.22-.17.55-.13.75.11.16.22.12.54-.11.74-.43.31-.99.53-1.59.53-1.38,0-2.54-1.12-2.54-2.49Z"/>
        <path class="cls-4" d="M111.57,178.74v-5.9c0-.3.24-.55.55-.55s.56.25.56.55v3.46l2.05-2.05c.21-.21.57-.21.78,0s.22.57,0,.78l-1.5,1.5,1.54,1.85c.19.24.16.59-.08.78-.1.09-.23.13-.35.13-.16,0-.32-.07-.42-.2l-1.47-1.78-.55.55v.88c0,.3-.25.55-.56.55s-.55-.25-.55-.55Z"/>
      </g>
      <g>
        <path class="cls-4" d="M116.36,176.79c0-1.36,1.07-2.5,2.44-2.5,1.3,0,2.33.97,2.41,2.32v.05s0,.07,0,.09c-.03.24-.24.4-.52.4h-3.18c.05.23.16.49.34.66.21.24.61.42.96.45.36.03.79-.06,1.04-.25.21-.22.62-.19.75-.03.13.14.23.44,0,.65-.49.45-1.08.66-1.79.66-1.37,0-2.43-1.14-2.44-2.5ZM117.45,176.3h2.83c-.1-.4-.61-.99-1.48-1.06-.85.04-1.27.65-1.35,1.06Z"/>
        <path class="cls-4" d="M129.53,176.8v1.96c0,.29-.24.53-.53.53-.26,0-.46-.19-.52-.43-.38.27-.83.43-1.33.43-.68,0-1.27-.28-1.7-.73-.43-.46-.68-1.08-.68-1.76s.25-1.31.68-1.76c.43-.46,1.02-.75,1.7-.75.5,0,.95.17,1.33.44.06-.25.26-.44.52-.44.29,0,.53.24.53.54v1.97ZM128.47,176.8c0-.42-.15-.78-.39-1.03-.24-.27-.58-.41-.93-.41s-.7.14-.93.41c-.24.25-.38.61-.38,1.03s.14.77.38,1.03c.23.25.57.39.93.39s.69-.14.93-.39c.24-.26.39-.62.39-1.03Z"/>
        <path class="cls-4" d="M135.41,176.37v2.39c0,.29-.23.53-.52.53s-.53-.24-.53-.53v-2.39c0-.56-.47-1.01-1.04-1.01s-1,.45-1,1.01v2.39s0,.06-.02.1c-.05.24-.27.43-.53.43-.3,0-.53-.24-.53-.53v-3.94c0-.29.23-.53.53-.53.21,0,.4.12.49.31.3-.19.67-.31,1.06-.31,1.16,0,2.09.95,2.09,2.08Z"/>
      </g>
      <g>
        <path class="cls-4" d="M58.83,192.5c0-.29.23-.53.55-.53v-5.14c0-.31.25-.55.54-.55.31,0,.54.24.54.55v5.14c0,.59-.48,1.08-1.08,1.08-.32,0-.55-.23-.55-.55ZM59.39,185.04v-.2c0-.32.25-.55.55-.55s.54.23.54.55v.2c0,.29-.24.55-.54.55s-.55-.26-.55-.55Z"/>
        <path class="cls-4" d="M61.75,188.78c.01-1.36,1.07-2.5,2.44-2.5,1.3,0,2.33.97,2.41,2.32v.05s0,.07,0,.09c-.03.24-.24.4-.52.4h-3.18c.05.23.16.49.34.66.21.24.61.42.96.45.36.03.79-.06,1.04-.25.21-.22.62-.19.75-.03.13.14.23.44,0,.65-.49.45-1.08.66-1.79.66-1.37,0-2.43-1.14-2.44-2.5ZM62.84,188.29h2.83c-.1-.4-.61-.99-1.48-1.06-.85.04-1.27.65-1.35,1.06Z"/>
        <path class="cls-4" d="M72.17,188.35v2.4c0,.29-.24.53-.53.53s-.54-.24-.54-.53v-2.4c0-.55-.47-1-1.03-1s-1.01.46-1.01,1.03v2.37s-.01.05-.01.07v.03s0,.04-.03.06v.05c-.09.18-.29.32-.5.32-.04,0-.07,0-.1,0-.24-.06-.43-.26-.43-.52v-2.37h0v-1.56c0-.31.24-.54.53-.54.21,0,.4.11.48.3.32-.19.69-.3,1.07-.3.63,0,1.19.26,1.57.69.37-.43.94-.69,1.57-.69,1.15,0,2.08.94,2.08,2.1v2.37c0,.29-.24.53-.53.53s-.54-.24-.54-.53v-2.37c0-.57-.46-1.03-1.01-1.03s-1.02.45-1.04,1Z"/>
        <path class="cls-4" d="M81.53,188.79v1.96c0,.29-.24.53-.53.53-.26,0-.46-.19-.52-.43-.38.27-.83.43-1.33.43-.68,0-1.27-.28-1.7-.73-.43-.46-.68-1.08-.68-1.76s.25-1.31.68-1.76c.43-.46,1.02-.75,1.7-.75.5,0,.95.17,1.33.44.06-.25.26-.44.52-.44.29,0,.53.24.53.54v1.97ZM80.47,188.79c0-.42-.15-.78-.39-1.03-.24-.27-.58-.41-.93-.41s-.7.14-.93.41c-.24.25-.38.61-.38,1.03s.14.77.38,1.03c.23.25.57.39.93.39s.69-.14.93-.39c.24-.26.39-.62.39-1.03Z"/>
      </g>
      <g>
        <path class="cls-4" d="M87.36,188.36v2.39c0,.29-.23.53-.52.53s-.53-.24-.53-.53v-2.39c0-.56-.47-1.01-1.04-1.01s-1,.45-1,1.01v2.39s0,.06-.02.1c-.05.24-.27.43-.53.43-.3,0-.53-.24-.53-.53v-3.94c0-.29.23-.53.53-.53.21,0,.4.12.49.31.3-.19.67-.31,1.06-.31,1.16,0,2.09.95,2.09,2.08Z"/>
        <path class="cls-4" d="M93.44,190.74c0,.29-.24.54-.54.54-.27,0-.48-.19-.53-.43-.38.26-.86.43-1.36.43-1.35,0-2.43-1.14-2.43-2.49s1.08-2.51,2.43-2.51c.49,0,.97.16,1.34.42v-1.88c0-.29.24-.54.55-.54s.54.25.54.54v3.96h0v1.96ZM91.02,187.37c-.36,0-.69.15-.94.41-.25.25-.4.61-.4,1.01s.15.74.4.99c.25.26.58.41.94.41s.69-.15.94-.41c.25-.25.4-.61.4-.99,0-.4-.15-.76-.4-1.01-.25-.26-.57-.41-.94-.41Z"/>
      </g>
      <g>
        <path class="cls-4" d="M94.82,188.78c0-1.36,1.07-2.5,2.44-2.5,1.3,0,2.33.97,2.41,2.32v.05s0,.07,0,.09c-.03.24-.24.4-.52.4h-3.18c.05.23.16.49.34.66.21.24.61.42.96.45.36.03.79-.06,1.04-.25.21-.22.62-.19.75-.03.13.14.23.44,0,.65-.49.45-1.08.66-1.79.66-1.37,0-2.43-1.14-2.44-2.5ZM95.91,188.29h2.83c-.1-.4-.61-.99-1.48-1.06-.85.04-1.27.65-1.35,1.06Z"/>
        <path class="cls-4" d="M105.23,188.36v2.39c0,.29-.23.53-.52.53s-.53-.24-.53-.53v-2.39c0-.56-.47-1.01-1.04-1.01s-1,.45-1,1.01v2.39s0,.06-.02.1c-.05.24-.27.43-.53.43-.3,0-.53-.24-.53-.53v-3.94c0-.29.23-.53.53-.53.21,0,.4.12.49.31.3-.19.67-.31,1.06-.31,1.16,0,2.09.95,2.09,2.08Z"/>
        <path class="cls-4" d="M107.62,189.86c.41,0,.75.34.75.75s-.34.74-.75.74-.74-.33-.74-.74.33-.75.74-.75Z"/>
      </g>
    </g>
  </g>
</svg>