<?xml version="1.0" encoding="UTF-8"?>
<svg id="Ebene_5" data-name="Ebene 5" xmlns="http://www.w3.org/2000/svg" viewBox="0 0 92.61 28.2">
  <defs>
    <style>
      .cls-1 {
        fill: #5cb035;
      }

      .cls-2 {
        fill: #f5af36;
      }

      .cls-3 {
        fill: #8d73b1;
      }

      .cls-4 {
        fill: #e74158;
      }

      .cls-5 {
        stroke: #fff;
        stroke-miterlimit: 10;
        stroke-width: .15px;
      }

      .cls-5, .cls-6 {
        fill: #fff;
      }

      .cls-7 {
        fill: #1090cf;
      }

      .cls-8 {
        fill: #5caf34;
      }
    </style>
  </defs>
  <g>
    <path class="cls-6" d="M11.18,1.29c-.23-.29-.57-.52-1.04-.67-.47-.15-.97-.26-1.51-.31s-1.08-.07-1.61-.06c-.53.01-.97.04-1.3.08-.48.05-.95.13-1.42.23-.47.1-.91.27-1.34.51-.52.31-.94.71-1.26,1.22-.27.43-.45.89-.55,1.39s-.1,1,0,1.51c.09.59.31,1.08.64,1.49.33.41.72.76,1.16,1.05s.91.55,1.41.78.96.45,1.39.68c.43.23.79.47,1.09.72.3.25.48.56.55.92.05.32-.06.56-.33.71-.27.15-.59.25-.96.3s-.72.04-1.07-.01c-.35-.05-.57-.13-.66-.24-.09-.11-.15-.24-.16-.4-.01-.16-.01-.32,0-.48.01-.16.02-.31,0-.45,0-.14-.05-.24-.13-.31-.09-.07-.31-.12-.64-.16-.33-.04-.69-.06-1.07-.05s-.74.03-1.07.07c-.33.04-.55.11-.64.2-.13.13-.21.29-.24.47s-.05.36-.06.53c-.01.28,0,.62.06,1.02.05.4.15.8.28,1.19.13.39.31.75.52,1.07.21.32.47.53.78.64.87.31,1.8.5,2.79.58.99.08,1.94.07,2.85-.04.43-.05.86-.13,1.29-.23.43-.1.84-.26,1.23-.49.36-.21.66-.53.9-.95.24-.42.42-.88.53-1.38s.17-1,.16-1.5c0-.5-.08-.94-.21-1.31-.16-.45-.41-.85-.76-1.19-.35-.34-.73-.64-1.16-.91-.43-.27-.86-.51-1.3-.74s-.83-.45-1.18-.68c-.35-.23-.63-.46-.84-.71-.21-.25-.29-.53-.24-.85.04-.27.17-.49.4-.66.23-.17.47-.27.72-.28.31,0,.51.08.61.23s.16.33.18.53.03.38.04.55.06.26.17.27c.12.01.35.03.69.05.34.02.7.03,1.07.04.37,0,.71,0,1.02-.02.31-.02.49-.07.56-.15.04-.05.08-.14.11-.25s.06-.24.08-.37c.02-.13.03-.26.04-.39,0-.13,0-.23,0-.31,0-.39-.04-.82-.12-1.3-.08-.48-.23-.87-.46-1.18Z"/>
    <path class="cls-6" d="M23.31,1.14c-.13-.09-.23-.16-.31-.21-.63-.36-1.33-.61-2.12-.76-.79-.15-1.54-.2-2.26-.16-1.25.08-2.26.37-3.03.86-.77.49-1.36,1.13-1.78,1.9-.42.77-.7,1.65-.84,2.64-.14.99-.2,2.01-.19,3.06.01.68.08,1.35.19,2.02.11.67.3,1.28.57,1.85.27.57.63,1.08,1.1,1.53.47.45,1.05.81,1.76,1.06.69.25,1.43.4,2.22.45.79.05,1.54-.04,2.26-.27.16-.05.4-.16.71-.32.31-.16.62-.35.91-.57.29-.22.54-.45.73-.69.19-.24.26-.47.19-.7-.37-.53-.67-.96-.9-1.29-.23-.33-.44-.63-.65-.92-.21-.29-.34-.46-.39-.51-.05-.05-.11-.08-.18-.07-.07,0-.13.03-.18.07-.28.21-.55.4-.82.57s-.57.3-.92.39c-.49.12-.9.1-1.23-.05-.33-.15-.59-.39-.79-.7s-.35-.67-.44-1.07c-.09-.4-.15-.79-.18-1.18-.03-.28-.03-.58-.02-.9.01-.32.05-.64.11-.95.06-.31.15-.61.28-.9.13-.29.29-.53.49-.73.4-.39.89-.59,1.46-.62.57-.03,1.11.07,1.6.28.15.07.28.14.39.23s.24.16.37.23c.11.05.19.06.24.01s.11-.1.18-.17c.04-.04.11-.15.21-.32.1-.17.21-.37.34-.6.13-.23.26-.47.4-.72.14-.25.27-.49.38-.71.11-.22.2-.4.27-.55.07-.15.1-.23.1-.24-.03-.09-.1-.18-.23-.27Z"/>
    <path class="cls-6" d="M35.46.56c-.12-.03-.25-.06-.39-.07-.14-.01-.28-.02-.41-.03-.13,0-.24,0-.32,0-.12,0-.34,0-.65,0-.31,0-.64.02-.98.04-.34.02-.65.05-.94.1s-.46.11-.53.19c-.01.01-.02.14-.02.37v.89c0,.36,0,.76,0,1.19,0,.43.01.85.01,1.24v1.61c-.39.01-.77.03-1.14.04-.37.01-.75.04-1.14.08v-.62c0-.29,0-.6-.02-.92-.01-.32-.03-.62-.06-.89-.03-.27-.07-.44-.12-.51-.04-.05-.09-.09-.16-.1-.07-.01-.13-.02-.2-.02s-.21,0-.42.02c-.21.01-.46.03-.74.05-.28.02-.58.04-.89.06-.31.02-.6.04-.87.06-.27.02-.58.04-.94.07-.09.03-.14.07-.15.13,0,.06,0,.14,0,.23.03.56.05,1.11.06,1.66.01.55.02,1.1.02,1.66v2.67c0,.89-.01,1.78-.04,2.67-.01.4-.04.83-.08,1.29s-.04.88,0,1.27c.01.11.06.17.13.18.07.01.15.02.23.02.6.03,1.21.02,1.83-.02.62-.04,1.23-.02,1.83.06.04,0,.08,0,.13,0,.05,0,.08,0,.11-.03.03-.03.06-.18.1-.45.04-.27.07-.62.1-1.03.03-.41.06-.86.09-1.35.03-.49.06-.95.08-1.39.02-.44.04-.83.05-1.17s.03-.57.04-.69c.72-.04,1.44-.02,2.16.06.07.88.07,1.75.02,2.62-.05.87-.06,1.74-.02,2.62,0,.07,0,.15.02.24.01.09.03.18.06.27.03.09.07.16.12.22.05.06.13.09.22.09.15,0,.43.01.85.03.42.02.86.03,1.31.03s.86-.02,1.21-.06c.35-.04.54-.13.57-.26.01-.07.02-.15.01-.25,0-.1-.01-.19-.01-.27.01-1.12.02-2.24.02-3.36v-3.36c0-1.12.01-2.24.03-3.37.02-1.13.06-2.25.13-3.37v-.16c0-.05-.02-.11-.06-.16-.04-.05-.12-.1-.24-.13Z"/>
    <path class="cls-6" d="M44.78,11.91c-.03-.17-.06-.3-.11-.38-.05-.08-.16-.15-.33-.2-.07-.01-.24-.02-.53,0-.29,0-.6.02-.95.04-.35.02-.68.04-.99.06-.31.02-.52.04-.63.05.15-1.43.26-2.85.35-4.27.09-1.42.22-2.84.41-4.25.01-.08.03-.2.06-.35.03-.15.05-.31.06-.47.01-.16.02-.31,0-.45,0-.14-.04-.24-.11-.31-.07-.07-.25-.12-.55-.15-.3-.03-.63-.05-.99-.06-.36,0-.71,0-1.04,0h-.68c-.11,0-.22,0-.34,0s-.24,0-.35.02c-.11.02-.21.06-.3.13-.09.07-.14.17-.15.3-.08.56-.12,1.14-.12,1.74s-.01,1.18-.04,1.74c-.07,1.28-.13,2.55-.19,3.81-.06,1.26-.14,2.53-.25,3.81-.01.19-.04.41-.07.67s-.04.52-.02.77c.02.25.07.48.16.69.09.21.24.35.47.43.15.05.37.09.68.11.31.02.66.03,1.05.03s.81,0,1.25,0c.44,0,.87-.02,1.28-.03.41-.01.79-.03,1.14-.04.35-.01.63-.02.84-.02.13,0,.27,0,.41.01.14,0,.27-.02.39-.09.08-.04.14-.22.17-.53.03-.31.05-.66.06-1.03,0-.37,0-.73-.01-1.07-.01-.34-.03-.56-.04-.67Z"/>
    <path class="cls-6" d="M56.04,4.52c-.07-.58-.13-1.09-.2-1.53-.01-.09-.04-.25-.07-.47-.03-.22-.08-.44-.13-.67s-.11-.44-.18-.63-.14-.31-.22-.35c-.05-.03-.25-.04-.58-.03s-.7.02-1.11.05-.79.06-1.15.09c-.36.03-.59.06-.68.07-.15.03-.24.08-.28.17-.04.09-.05.2-.02.33.04.31.1.68.18,1.13.08.45.16.93.25,1.44.09.51.16,1.04.23,1.59.07.55.11,1.07.12,1.58.01.51,0,.97-.07,1.38-.06.41-.18.75-.35,1-.17.27-.39.45-.66.54-.39.13-.68.08-.89-.16-.21-.24-.35-.55-.44-.93-.09-.38-.13-.77-.14-1.18,0-.41,0-.72,0-.93.01-.43.03-.86.04-1.31.01-.45.05-.88.12-1.31.01-.11.03-.23.04-.38s-.05-.23-.2-.26c-.09-.01-.31-.04-.66-.07-.35-.03-.72-.06-1.12-.09-.4-.03-.78-.05-1.13-.07-.35-.02-.57-.02-.65,0-.12.01-.22.15-.31.41-.09.26-.15.59-.2.99-.05.4-.08.84-.11,1.31-.03.47-.04.93-.05,1.36,0,.43,0,.82,0,1.17.01.35.03.59.04.72.07.55.17,1.1.31,1.65.14.55.34,1.07.61,1.55.28.52.65.96,1.1,1.31s.95.62,1.49.8c.54.18,1.1.28,1.68.3.58.02,1.14-.04,1.69-.19.51-.13.99-.33,1.45-.6.46-.27.85-.61,1.17-1.02.29-.37.53-.82.7-1.35.17-.53.31-1.1.4-1.71.09-.61.15-1.25.16-1.91.01-.66,0-1.31-.03-1.95-.03-.64-.08-1.25-.15-1.83Z"/>
    <path class="cls-6" d="M67.69,1.14c-.13-.09-.23-.16-.31-.21-.63-.36-1.33-.61-2.12-.76-.79-.15-1.54-.2-2.26-.16-1.25.08-2.26.37-3.03.86-.77.49-1.36,1.13-1.78,1.9s-.7,1.65-.84,2.64c-.14.99-.2,2.01-.19,3.06.01.68.08,1.35.19,2.02.11.67.3,1.28.57,1.85.27.57.63,1.08,1.1,1.53.47.45,1.05.81,1.76,1.06.69.25,1.43.4,2.22.45.79.05,1.54-.04,2.26-.27.16-.05.4-.16.71-.32.31-.16.62-.35.91-.57.29-.22.54-.45.73-.69s.26-.47.19-.7c-.37-.53-.67-.96-.9-1.29-.23-.33-.44-.63-.65-.92-.21-.29-.34-.46-.39-.51-.05-.05-.11-.08-.18-.07-.07,0-.13.03-.18.07-.28.21-.55.4-.82.57-.27.17-.57.3-.92.39-.49.12-.9.1-1.23-.05-.33-.15-.59-.39-.79-.7s-.35-.67-.44-1.07c-.09-.4-.15-.79-.18-1.18-.03-.28-.03-.58-.02-.9.01-.32.05-.64.11-.95.06-.31.15-.61.28-.9.13-.29.29-.53.49-.73.4-.39.89-.59,1.46-.62.57-.03,1.11.07,1.6.28.15.07.28.14.39.23s.24.16.37.23c.11.05.19.06.24.01s.11-.1.18-.17c.04-.04.11-.15.21-.32.1-.17.21-.37.34-.6s.26-.47.4-.72c.14-.25.27-.49.38-.71.11-.22.2-.4.27-.55.07-.15.1-.23.1-.24-.03-.09-.1-.18-.23-.27Z"/>
    <path class="cls-6" d="M80.96,12.69c-.79-.71-1.54-1.52-2.25-2.45-.71-.93-1.32-1.85-1.83-2.77.09-.09.26-.26.51-.51s.52-.53.82-.85c.3-.32.62-.66.95-1.01.33-.35.63-.69.9-1s.49-.58.66-.8c.17-.22.25-.36.24-.43,0-.17-.13-.4-.39-.68s-.56-.55-.9-.82c-.34-.27-.68-.5-1.01-.69-.33-.19-.58-.3-.74-.33-.11-.01-.19.03-.26.14-.73,1.07-1.44,2.15-2.13,3.24-.69,1.09-1.42,2.16-2.19,3.2,0-.09,0-.31.03-.65.02-.34.04-.73.06-1.18s.04-.92.06-1.42c.02-.5.04-.96.06-1.38s.03-.77.04-1.05c0-.28,0-.43,0-.44-.03-.11-.08-.18-.16-.22-.01,0-.12,0-.32-.01-.2,0-.45,0-.75,0h-3.29c-.13,0-.22.06-.26.18.03.09.05.34.06.73.01.39.02.87.03,1.42,0,.55,0,1.15,0,1.79s0,1.25,0,1.84c0,.59-.01,1.11-.02,1.57,0,.46,0,.78,0,.97v.69c0,.35,0,.76,0,1.23,0,.47.02.96.03,1.47.01.51.03.99.04,1.43.01.44.03.81.04,1.1.01.29.03.45.04.48.01.07.06.11.13.12.07.01.15.02.24.02s.18,0,.27-.02c.09-.01.16-.02.2-.02.55-.03,1.09-.04,1.62-.04h1.62s.08-.03.12-.08c.04-.05.07-.09.08-.12-.09-.71-.15-1.45-.18-2.24-.03-.79-.01-1.54.04-2.26.15-.13.28-.27.41-.4.13-.13.26-.27.39-.4.19.43.42.87.71,1.33s.6.92.93,1.37c.33.45.68.89,1.04,1.31.36.42.7.79,1.02,1.11.01.12.06.18.14.17s.17-.04.28-.1c.11-.06.21-.13.3-.2.09-.07.15-.12.18-.15.07-.05.23-.18.49-.39s.53-.43.82-.66.54-.44.77-.63.34-.29.34-.3c0-.05-.01-.12-.04-.2Z"/>
  </g>
  <g>
    <path class="cls-6" d="M68.69,26.58c-.02-.26-.03-.54-.05-.84-.02-.3-.04-.6-.06-.88-.02-.28-.04-.53-.05-.74-.02-.21-.02-.35-.02-.43-.02-.58-.03-1.15-.04-1.73s-.02-1.16-.04-1.74c0-.21,0-.43,0-.65,0-.23,0-.45-.05-.65-.02-.06-.03-.1-.05-.14-.02-.04-.06-.06-.12-.07-.11-.02-.24,0-.38.04-.14.04-.27.06-.39.07-.24.02-.48,0-.73-.02-.25-.03-.49-.05-.73-.07-.12,0-.24-.02-.36-.02s-.24-.02-.36-.04c-.06,0-.1,0-.13.04-.03.03-.05.07-.06.12-.01.05-.02.1-.03.16s-.02.1-.02.14c-.09.41-.2.81-.32,1.21-.13.4-.25.8-.36,1.21-.12.46-.24.93-.35,1.39-.11.46-.22.93-.34,1.4-.14-.3-.27-.66-.4-1.07s-.26-.82-.38-1.24-.25-.81-.38-1.19-.25-.68-.38-.91c-.02-.04-.05-.06-.09-.07-.04,0-.07-.01-.11-.01-.25.02-.49.03-.73.05s-.48.02-.73.01c-.18,0-.36,0-.54-.03-.18-.02-.36-.02-.53,0-.05,0-.08.03-.11.06-.02.03-.02.07,0,.12.02.33.01.65,0,.98-.02.32-.04.65-.05.98-.04.82-.07,1.63-.08,2.44-.01.81-.04,1.62-.08,2.44,0,.02,0,.1-.02.23-.02.13-.03.26-.03.38s0,.24.03.32c.02.09.08.1.16.05.25.02.49.02.73.02h.73s.09,0,.14,0c.05,0,.1,0,.14,0s.08-.02.11-.05c.03-.02.05-.06.05-.12.02-.21,0-.43-.02-.65-.03-.23-.05-.45-.07-.65-.03-.54-.06-1.09-.08-1.63-.02-.54-.03-1.08-.03-1.63.03.09.09.25.16.47.08.23.16.49.25.79s.19.61.28.93.19.62.28.9c.09.28.16.51.23.7.06.19.1.3.12.32l.1.04c.1-.02.26-.03.5-.04.24,0,.49-.01.75-.02.26,0,.49,0,.7-.01.21,0,.33-.02.36-.04.02-.02.05-.04.07-.06.02-.02.02-.06,0-.1.22-.62.43-1.25.61-1.88s.38-1.25.59-1.88c0,.25,0,.57-.01.96,0,.39-.01.79-.02,1.2,0,.41,0,.8.01,1.17s.04.66.08.87c0,.03.03.07.05.1s.06.05.09.05c.2,0,.41,0,.62-.05s.42-.06.63-.05c.05,0,.14,0,.29,0s.29,0,.44,0,.29,0,.42-.01.2-.03.22-.06c0-.02,0-.11,0-.29,0-.18-.01-.39-.03-.65Z"/>
    <path class="cls-6" d="M75.79,26.95c-.14-.62-.23-1.27-.28-1.93-.05-.66-.11-1.31-.19-1.94-.06-.55-.13-1.1-.2-1.66-.07-.55-.17-1.1-.31-1.66-.02-.06-.03-.14-.05-.22-.02-.08-.05-.16-.08-.23-.03-.07-.08-.13-.13-.18-.06-.05-.12-.07-.2-.06-.5.04-.99.08-1.46.13-.47.05-.96.06-1.46.05-.02,0-.06,0-.12,0-.06,0-.11,0-.17,0s-.11,0-.16,0-.08,0-.1.02c-.02.02-.06.13-.12.35-.06.22-.12.5-.2.85s-.16.74-.25,1.19c-.09.44-.18.9-.27,1.37-.09.47-.18.94-.28,1.41-.09.47-.17.9-.25,1.3-.07.4-.14.74-.19,1.02s-.1.48-.12.59c-.04.18-.02.28.06.3.08.02.19.04.34.04h.36c.18,0,.38,0,.58,0,.2,0,.39-.01.56-.02.17-.01.26-.03.29-.05s.05-.08.07-.18c.02-.1.04-.2.05-.31.01-.11.02-.22.03-.32,0-.1.02-.18.02-.23.22,0,.45,0,.68,0,.23,0,.45,0,.68.03.02.16.02.32.02.49s.01.33.05.48c0,.06.05.09.13.11.03,0,.12.01.26.02.14,0,.3,0,.49.01.19,0,.39,0,.61,0s.42,0,.6,0c.18,0,.34,0,.47-.02s.2-.02.23-.04c.05-.02.08-.07.08-.13,0-.06,0-.13,0-.2,0-.07-.01-.14-.03-.2-.02-.06-.03-.12-.04-.16ZM72.34,24.87c-.17,0-.33.02-.49.04.11-.6.23-1.19.34-1.78s.24-1.18.38-1.78c.04.59.09,1.18.14,1.77.05.59.09,1.18.13,1.77-.16-.02-.32-.02-.49-.01Z"/>
    <path class="cls-6" d="M81.13,26.02c0-.2-.02-.34-.02-.4-.02-.1-.04-.18-.07-.23-.03-.05-.09-.09-.2-.12-.04,0-.15,0-.32,0s-.36.01-.57.02-.41.02-.59.04c-.19.01-.31.02-.38.03.09-.86.16-1.71.21-2.56.05-.85.13-1.7.25-2.55,0-.05.02-.12.04-.21s.03-.19.04-.28,0-.19,0-.27-.03-.15-.07-.19c-.04-.04-.15-.07-.33-.09-.18-.02-.38-.03-.59-.04-.22,0-.42,0-.62,0h-.41c-.06,0-.13,0-.2,0-.07,0-.14,0-.21.01-.07.01-.13.04-.18.08-.05.04-.08.1-.09.18-.05.34-.07.68-.07,1.04s0,.71-.02,1.04c-.04.77-.08,1.53-.11,2.29s-.09,1.52-.15,2.29c0,.11-.02.25-.04.4-.02.16-.02.31-.01.46.01.15.04.29.1.41.05.12.15.21.28.26.09.03.22.05.41.07.18.01.39.02.63.02s.49,0,.75,0c.26,0,.52-.01.77-.02.25,0,.48-.02.68-.02.21,0,.38-.01.5-.01.08,0,.16,0,.25,0,.08,0,.16-.01.23-.05.05-.02.08-.13.1-.32.02-.19.03-.39.04-.62s0-.44,0-.64Z"/>
  </g>
  <g>
    <path class="cls-6" d="M90.67,22.63c-.07-.2-.15-.37-.24-.52-.09-.15-.22-.28-.39-.41-.2-.12-.46-.18-.8-.17-.33.01-.68.06-1.05.15-.37.09-.72.18-1.05.28s-.61.18-.83.26c-.32.1-.67.18-1.05.24-.38.06-.64.28-.76.65-.07.2-.1.54-.07,1.02.02.48.08.99.17,1.52.09.53.2,1.02.33,1.48.13.46.29.73.46.83.2.12.42.2.67.22.25.02.49.02.74,0,1.13-.1,2.05-.24,2.74-.43.69-.18,1.18-.47,1.48-.85.3-.38.41-.91.35-1.59s-.29-1.57-.68-2.68Z"/>
    <path class="cls-6" d="M92.48,1.95c-.07-.22-.4-.39-.98-.52-.58-.12-1.23-.22-1.96-.3-.73-.07-1.43-.13-2.11-.17-.68-.04-1.14-.07-1.39-.09-.17-.02-.36-.05-.57-.07-.21-.02-.42-.03-.63-.02-.21.01-.4.06-.56.15-.16.09-.26.24-.31.46-.07.3-.13.91-.17,1.85s-.06,2.03-.06,3.27.02,2.57.06,3.96.11,2.7.22,3.9c.11,1.21.25,2.23.43,3.05.17.83.38,1.3.63,1.42.15.07.46.13.92.17s.98.06,1.54.07c.55.01,1.09.02,1.61.02s.88-.01,1.07-.04c.12-.02.23-.04.33-.06s.2-.07.3-.17c.17-.17.28-.46.31-.85s.07-.7.09-.92c.12-1.95.23-3.89.33-5.83.1-1.94.28-3.88.56-5.83.02-.2.07-.46.13-.78.06-.32.11-.65.15-1,.04-.34.07-.67.09-.98.02-.31.01-.55-.04-.72Z"/>
  </g>
  <path class="cls-4" d="M56.87,19.5c0-.34-.29-.62-.62-.62h-8.3c-.34,0-.62.29-.62.62v8.08c0,.34.29.62.62.62h8.3c.16,0,.28-.06.37-.14.02-.02.05-.03.07-.05,0-.01.02-.02.02-.03.09-.1.15-.23.15-.4v-8.08Z"/>
  <path class="cls-6" d="M55.45,23.39c.35-.48.11-1.1-.47-1.21-.46-.09-.97-.1-1.42-.21-.08-.02-.12-.04-.16-.12-.25-.41-.41-.91-.66-1.33-.14-.25-.4-.39-.69-.38-.27.01-.49.16-.62.39-.24.41-.41.89-.64,1.3-.04.08-.08.12-.17.14-.47.1-1.01.11-1.48.21-.58.13-.76.83-.36,1.26.25.27.56.53.83.8.07.07.26.23.27.33-.05.49-.19.99-.25,1.49-.04.35.12.68.46.82.27.11.46.05.71-.07.42-.21.83-.46,1.25-.65.09-.02.17.04.25.08.39.19.82.48,1.22.64.55.22,1.08-.22,1.03-.8-.04-.46-.2-.97-.25-1.43,0-.07,0-.13.05-.18l1.1-1.08Z"/>
  <rect class="cls-8" x="24.58" y="19.51" width="8.3" height="8.08"/>
  <path class="cls-1" d="M33.51,19.5c0-.34-.29-.62-.62-.62h-8.3c-.34,0-.62.29-.62.62v8.08c0,.34.29.62.62.62h8.3c.16,0,.28-.06.37-.14.02-.02.05-.03.07-.05,0-.01.02-.02.02-.03.09-.1.15-.23.15-.4v-8.08ZM32.26,26.96h-7.06v-6.84h7.06v6.84Z"/>
  <g>
    <path class="cls-5" d="M31.68,23.34c-.43-.07-2.37-.07-2.79.01-.28.05-.51.29-.57.57-.12.6.69,2.06.88,2.73,0,.02.01.04.03.06.28.32,1.18.29,1.58.24.38-.04.49-.16.65-.49.18-.36.68-1.67.76-2.05.09-.43-.04-.99-.54-1.07Z"/>
    <path class="cls-5" d="M28.2,23.12c.11-.11.03-.3-.12-.3h-2.32c-.19,0-.54.52-.55.72-.04.53.75,1.95.9,2.58,0,.02.01.05.03.06.29.35,1.35.32,1.75.24.98-.2.06-1.42-.06-1.99s.04-.96.37-1.31Z"/>
    <path class="cls-5" d="M27.23,22.42c1.38-.03,1.43-2.02.32-2.26-1.85-.42-1.97,2.3-.32,2.26Z"/>
    <path class="cls-5" d="M30.16,22.93c1.71.18,1.72-2.65-.19-2.26-1.11.23-1.1,2.12.19,2.26Z"/>
  </g>
  <path class="cls-2" d="M45.15,19.5c0-.34-.29-.62-.62-.62h-8.3c-.34,0-.62.29-.62.62v8.08c0,.34.29.62.62.62h8.3c.16,0,.28-.06.37-.14.02-.02.05-.03.07-.05,0-.01.02-.02.02-.03.09-.1.15-.23.15-.4v-8.08Z"/>
  <path class="cls-7" d="M21.87,19.5c0-.34-.29-.62-.62-.62h-8.3c-.34,0-.62.29-.62.62v8.08c0,.34.29.62.62.62h8.3c.16,0,.28-.06.37-.14.02-.02.05-.03.07-.05,0-.01.02-.02.02-.03.09-.1.15-.23.15-.4v-8.08Z"/>
  <g>
    <path class="cls-6" d="M18.56,20.47v-.02c-.55-.35-1.15-.47-1.79-.41-.87.07-1.73.64-2.15,1.4-.09.16-.09.2.05.33.16.15.66.54.85.65.09.05.18.08.28.03.34-.36.57-.8,1.13-.84.46-.03,1.09.24.92.8-.11.35-.47.44-.75.6-.41.24-.92.71-.96,1.22,0,.1-.01.36,0,.45.02.11.14.15.23.16.27.02,1.06.04,1.31,0,.21-.04.16-.17.21-.32.15-.47.64-.61.99-.87,1.2-.91.84-2.44-.32-3.18Z"/>
    <rect class="cls-6" x="16.12" y="25.32" width="1.75" height="1.74" rx=".29" ry=".29"/>
  </g>
  <path class="cls-3" d="M9.6,18.88H1.29c-.34,0-.62.29-.62.62v8.08c0,.34.29.62.62.62h8.3c.14,0,.25-.05.34-.12.16-.1.29-.26.29-.5v-8.08c0-.34-.29-.62-.62-.62Z"/>
  <path class="cls-6" d="M7.94,24.12c-.25-1.08-1.07-1.31-1.56-2.16-.32-.54-.45-1.18-.42-1.8,0-.11-.11-.17-.2-.11h-.01c-1.07.92-1.19,2.21-.67,3.47.08.19.29.46.06.63-.14.1-.29.05-.43,0-.49-.18-.8-.65-1.01-1.13-.04-.1-.17-.11-.24-.03-.29.35-.5.79-.55,1.25-.1.89.42,2.07,1.22,2.51,1.84,1.01,4.31-.46,3.81-2.63Z"/>
  <path class="cls-6" d="M42.41,22.28s-.43-.14-.52-.12h-.53c.1-.4.2-.8.29-1.2.02-.09.05-.18.06-.27.08-.41-.15-.85-.58-.96-.48-.12-.8.19-1.03.55l-1.23,1.96c-.3.48-.64.94-.91,1.44-.29.54.05,1.2.68,1.24h.73l-.13.53c-.13.52-.45,1.24-.02,1.69.23.23.55.29.85.18.35-.12.52-.51.71-.8.33-.52.66-1.04.99-1.56.29-.46.61-.91.88-1.39.29-.5.23-1.02-.25-1.29Z"/>
</svg>